<svg xmlns="http://www.w3.org/2000/svg" xmlns:xlink="http://www.w3.org/1999/xlink" viewBox="0 0 27.82 19.21"><defs><style>.cls-1{fill:#c875ae;}.cls-2{fill:#cbb8ff;}.cls-3{fill:#a7a9f9;}.cls-4{fill:url(#linear-gradient);}.cls-5{fill:url(#linear-gradient-2);}.cls-6{fill:url(#linear-gradient-3);}.cls-7{fill:url(#linear-gradient-4);}.cls-8{fill:#a8bcfb;}.cls-12,.cls-14,.cls-9{fill:#150d9c;}.cls-11,.cls-9{opacity:0.3;}.cls-10{fill:#7d9af8;}.cls-13{fill:url(#linear-gradient-5);}.cls-14{opacity:0.16;}.cls-15{fill:#0d035c;}</style><linearGradient id="linear-gradient" x1="10.61" y1="18.07" x2="22.85" y2="18.07" gradientTransform="matrix(-1, 0, 0, 1, 27.82, 0)" gradientUnits="userSpaceOnUse"><stop offset="0" stop-color="#2329f0"/><stop offset="0.15" stop-color="#332de7"/><stop offset="0.44" stop-color="#5c39cf"/><stop offset="0.85" stop-color="#9f4baa"/><stop offset="1" stop-color="#ba539a"/></linearGradient><linearGradient id="linear-gradient-2" x1="35.46" y1="382.87" x2="35.03" y2="378.31" gradientTransform="matrix(-0.74, -0.67, -0.67, 0.74, 304.35, -245.05)" xlink:href="#linear-gradient"/><linearGradient id="linear-gradient-3" x1="-29.13" y1="536.99" x2="-29.56" y2="532.37" gradientTransform="matrix(-0.5, -0.87, -0.87, 0.5, 471.53, -277.64)" xlink:href="#linear-gradient"/><linearGradient id="linear-gradient-4" x1="-597.19" y1="-261.52" x2="-597.62" y2="-266.12" gradientTransform="matrix(0.62, -0.78, 0.78, 0.62, 597.8, -287.46)" xlink:href="#linear-gradient"/><linearGradient id="linear-gradient-5" x1="28.09" y1="19.09" x2="24.19" y2="12.21" xlink:href="#linear-gradient"/></defs><title>资源 2</title><g id="图层_2" data-name="图层 2"><g id="图层_1-2" data-name="图层 1"><path class="cls-1" d="M0,5.07.12,5A6.4,6.4,0,0,1,3,4.26a13.66,13.66,0,0,0,7-2.68A8.59,8.59,0,0,1,12.45.23a4.15,4.15,0,0,1,2.79,0,3.62,3.62,0,0,1,2.1,2.92c.14,1.27-1.19,2.47-1.67,3.6a5.9,5.9,0,0,0-.77,2c0,2,3.15,2.16,4.58,2.07a11.65,11.65,0,0,1,3,0,4.84,4.84,0,0,1,3,1.86c1.46,2,.75,4.37-.3,6.48H0Z"/><path class="cls-2" d="M0,4.8l.08-.07A7.12,7.12,0,0,0,.92,3.56a5.21,5.21,0,0,1,3.5-2.08,6.35,6.35,0,0,1,4.06.82c1.41.82,2.68,2.19,4.33,2.12,1.35-.06,2.4-1.07,3.61-1.65a4.51,4.51,0,0,1,2.91-.39A3,3,0,0,1,21.5,4.19c.66,1.85-1,3.69-1.27,5.63a4.65,4.65,0,0,0,1.06,3.36,8,8,0,0,0,2.93,2.19A8.46,8.46,0,0,1,27.1,17a2.92,2.92,0,0,1,.7,2.18H0Z"/><path class="cls-3" d="M0,8.92l.06-.05A5.08,5.08,0,0,0,.66,8a3.72,3.72,0,0,1,2.5-1.49,4.53,4.53,0,0,1,2.9.59C7.07,7.72,8,8.7,9.15,8.65c1,0,1.72-.77,2.58-1.18a3.22,3.22,0,0,1,2.08-.28,2.15,2.15,0,0,1,1.55,1.29c.47,1.32-.75,2.63-.91,4a3.32,3.32,0,0,0,.76,2.4,5.73,5.73,0,0,0,2.09,1.56,6,6,0,0,1,2.06,1.19,2.08,2.08,0,0,1,.5,1.56H0Z"/><path id="_路径_" data-name="&lt;路径&gt;" class="cls-4" d="M5,19.21a.81.81,0,0,1,.12-.28,1.25,1.25,0,0,1,.4.21h0a.89.89,0,0,1,.38-.94,1.13,1.13,0,0,1,.36.5A1.11,1.11,0,0,1,7,18a1.46,1.46,0,0,1,.19.43l.1,0a.87.87,0,0,1,0-1,1.15,1.15,0,0,1,.65.48.92.92,0,0,1,.67-.58,1.1,1.1,0,0,1,.14.59l.18-.06a.88.88,0,0,1,.35-.43,1.23,1.23,0,0,1,.23.27l.09,0a.92.92,0,0,1,.69-.71,1.1,1.1,0,0,1,.15.6h.11a.86.86,0,0,1,.27-.63,1.11,1.11,0,0,1,.56.74h0a.74.74,0,0,1,.09-.17,1.18,1.18,0,0,1,.56.36.9.9,0,0,1,.49-.43,1.07,1.07,0,0,1,.2.92h0a.94.94,0,0,1,.61-.14,1.14,1.14,0,0,1,0,.44l.15.06a.9.9,0,0,1,.45-.37,1.2,1.2,0,0,1,.18.33.92.92,0,0,1,.43-.09,1.21,1.21,0,0,1,0,.28l.53,0a.9.9,0,0,1,.44-.35,1.21,1.21,0,0,1,.17.3,1.11,1.11,0,0,1,.52-.33,1.47,1.47,0,0,1,.18.4l.12,0a.94.94,0,0,1,.63-.15,1.15,1.15,0,0,1,0,.42l.08.05Z"/><path class="cls-5" d="M21.16,13.12a.53.53,0,0,1,.15.68,5.91,5.91,0,0,0,.53-.36c-.43-.45-.09-.7-.09-.7a.51.51,0,0,1,.17.64,5.82,5.82,0,0,0,.49-.43c-.44-.45-.11-.71-.11-.71a.51.51,0,0,1,.17.64,5.75,5.75,0,0,0,.43-.49c-.43-.45-.1-.7-.1-.7a.49.49,0,0,1,.19.59,5.57,5.57,0,0,0,.33-.51c-.44-.45-.1-.7-.1-.7a.47.47,0,0,1,.2.52c.06-.12.12-.23.17-.36-.08-.58.33-.61.33-.61a.54.54,0,0,1-.28.65q-.09.2-.19.39c.33-.39.62-.17.62-.17-.15.38-.59.32-.69.3a5.69,5.69,0,0,1-.35.53c.4-.37.66-.1.66-.1-.21.36-.64.22-.73.19a5.8,5.8,0,0,1-.41.47c.48-.25.66.07.66.07a.59.59,0,0,1-.74,0,5.89,5.89,0,0,1-.46.41c.53-.11.6.25.6.25a.58.58,0,0,1-.7-.17,5.93,5.93,0,0,1-.51.35c.57,0,.55.39.55.39a.57.57,0,0,1-.64-.34,6,6,0,0,1-.77.39s-.07,0,0-.06a5.94,5.94,0,0,0,.77-.39C20.82,13.37,21.16,13.12,21.16,13.12Z"/><path class="cls-6" d="M21.69,14.51a.53.53,0,0,1-.07.7,6,6,0,0,0,.62-.19c-.26-.55.13-.69.13-.69a.51.51,0,0,1,0,.66,6,6,0,0,0,.6-.27c-.28-.56.12-.7.12-.7a.51.51,0,0,1,0,.66,6,6,0,0,0,.56-.34c-.27-.56.13-.7.13-.7a.49.49,0,0,1,0,.61,5.84,5.84,0,0,0,.48-.39c-.27-.56.13-.7.13-.7a.47.47,0,0,1,0,.56l.28-.29c.11-.57.51-.48.51-.48,0,.37-.35.51-.48.54l-.31.32c.43-.27.64,0,.64,0a.6.6,0,0,1-.75.08,5.92,5.92,0,0,1-.5.4c.49-.23.66.1.66.1a.6.6,0,0,1-.76,0,6,6,0,0,1-.54.33c.53-.1.61.26.61.26a.59.59,0,0,1-.71-.2,6.1,6.1,0,0,1-.57.26c.54.05.49.42.49.42a.56.56,0,0,1-.61-.37,6.12,6.12,0,0,1-.6.19c.54.18.4.53.4.53a.55.55,0,0,1-.5-.51,6.11,6.11,0,0,1-.86.14s-.05-.06,0-.06a6.05,6.05,0,0,0,.86-.14C21.28,14.66,21.69,14.51,21.69,14.51Z"/><path class="cls-7" d="M19.66,14.09a.53.53,0,0,0,0,.7,6,6,0,0,1-.58-.28c.35-.51,0-.7,0-.7a.51.51,0,0,0-.06.65,5.94,5.94,0,0,1-.55-.35c.36-.51,0-.71,0-.71a.51.51,0,0,0-.06.66,5.87,5.87,0,0,1-.5-.42c.35-.51,0-.71,0-.71a.49.49,0,0,0-.09.61,5.74,5.74,0,0,1-.41-.45c.36-.51,0-.71,0-.71a.47.47,0,0,0-.11.55l-.23-.32c0-.58-.43-.55-.43-.55-.09.37.26.55.39.6l.26.36c-.39-.33-.64-.07-.64-.07a.6.6,0,0,0,.73.19,5.79,5.79,0,0,0,.43.47c-.45-.3-.67,0-.67,0a.6.6,0,0,0,.75.08,5.9,5.9,0,0,0,.48.4c-.51-.18-.64.17-.64.17a.59.59,0,0,0,.74-.1,6,6,0,0,0,.52.34c-.54,0-.55.34-.55.34a.57.57,0,0,0,.66-.28,6,6,0,0,0,.56.27c-.56.1-.48.47-.48.47a.56.56,0,0,0,.57-.43,6,6,0,0,0,.83.26s.06,0,0-.06a6,6,0,0,1-.83-.26C20,14.29,19.66,14.09,19.66,14.09Z"/><g id="_编组_" data-name="&lt;编组&gt;"><g id="_编组_2" data-name="&lt;编组&gt;"><path class="cls-8" d="M20.65,10.57A3,3,0,0,1,21.1,10c.06-.06.18-.23.27-.23s.22.14.27.22a3.29,3.29,0,0,1,.49,1.76,5.23,5.23,0,0,1-.08,1.44l-.05.2a4.56,4.56,0,0,1-.74,1.42c-.18.24-.54.78-.91.56a.49.49,0,0,1-.22-.36,1.63,1.63,0,0,1,0-.43c0-.38.1-.76.11-1.14s0-.88,0-1.32V12A3.48,3.48,0,0,1,20.65,10.57Z"/></g><path class="cls-9" d="M21.23,12.12h0a6.31,6.31,0,0,1-.24-1s0,0,0,0a6.29,6.29,0,0,0,.21.92,6.3,6.3,0,0,0,.08-1.54s0,0,0,0a6,6,0,0,1,0,1.27,2.08,2.08,0,0,0,.52-.93s0,0,0,0a2.14,2.14,0,0,1-.56,1q0,.15,0,.3h0c0,.17-.07.35-.1.52l-.07.28a2.4,2.4,0,0,0,.4-.26,2,2,0,0,0,.31-.36s0,0,0,0a2.12,2.12,0,0,1-.32.37,2.56,2.56,0,0,1-.43.28h0c-.08.35-.18.71-.27,1.06a3.83,3.83,0,0,0,.94-.88s0,0,0,0a3.88,3.88,0,0,1-1,.91l-.2.77s0,0,0,0l.31-1.21a5.3,5.3,0,0,1-.14-1.38l0,0a5.29,5.29,0,0,0,.13,1.34c.07-.29.14-.57.21-.86S21.19,12.32,21.23,12.12Z"/></g><g id="_编组_3" data-name="&lt;编组&gt;"><g id="_编组_4" data-name="&lt;编组&gt;"><path class="cls-8" d="M19.67,11.47A2.53,2.53,0,0,0,19.2,11c-.06,0-.19-.16-.26-.16s-.16.15-.19.22a2.75,2.75,0,0,0-.15,1.53,4.43,4.43,0,0,0,.27,1.19l.07.16A3.91,3.91,0,0,0,19.77,15c.18.17.56.57.84.35a.4.4,0,0,0,.13-.33,1.37,1.37,0,0,0-.08-.35c-.09-.31-.19-.62-.26-.93s-.09-.74-.17-1.1v0A3,3,0,0,0,19.67,11.47Z"/></g><path class="cls-9" d="M19.38,12.84h0l-.08-.24a1.84,1.84,0,0,1-.61-.75s0,0,0,0a1.79,1.79,0,0,0,.57.71,5.07,5.07,0,0,1-.22-1.05s0,0,0,0a5.33,5.33,0,0,0,.29,1.27,5.26,5.26,0,0,0,0-.8s0,0,0,0a5.29,5.29,0,0,1-.05.87h0q.08.24.18.47l.3.69a4.46,4.46,0,0,0-.08-1.13l0,0A4.46,4.46,0,0,1,19.92,14l.44,1s0,0,0,0L20,14.39a3.34,3.34,0,0,1-1-.63s0,0,0,0a3.28,3.28,0,0,0,.91.61c-.13-.28-.25-.56-.37-.84h0a2.19,2.19,0,0,1-.4-.17,1.81,1.81,0,0,1-.32-.26s0,0,0,0a1.76,1.76,0,0,0,.31.26,2.07,2.07,0,0,0,.37.16l-.1-.23Z"/></g><g id="_编组_5" data-name="&lt;编组&gt;"><g id="_编组_6" data-name="&lt;编组&gt;"><path class="cls-10" d="M20.12,15.14a1,1,0,0,0,.5.61,1.24,1.24,0,0,0,.33.12c.5.08.75-.31.93-.67a.51.51,0,0,1,.18-.24,2,2,0,0,1,.37-.1.88.88,0,0,0,.39-.27.72.72,0,0,0,.18-.4.69.69,0,0,0-.63-.67,1,1,0,0,0-.87.45c0,.06-.08.13-.14.15a.28.28,0,0,1-.16,0,1.69,1.69,0,0,0-.28-.06.77.77,0,0,0-.66.27A.86.86,0,0,0,20.12,15.14Z"/></g><g id="_编组_7" data-name="&lt;编组&gt;" class="cls-11"><g id="_编组_8" data-name="&lt;编组&gt;"><path id="_路径_2" data-name="&lt;路径&gt;" class="cls-12" d="M22.57,14.14a2.85,2.85,0,0,0-1,.39,2.6,2.6,0,0,0-.89.67h0a2.69,2.69,0,0,1,.94-.69,2.74,2.74,0,0,1,1-.36Z"/></g><g id="_编组_9" data-name="&lt;编组&gt;"><path id="_路径_3" data-name="&lt;路径&gt;" class="cls-12" d="M21.73,14.39q.23-.27.49-.52h0q-.26.25-.49.52Z"/></g><g id="_编组_10" data-name="&lt;编组&gt;"><path id="_路径_4" data-name="&lt;路径&gt;" class="cls-12" d="M22.47,14.52a3.21,3.21,0,0,0-.7-.11s0,0,0,0a3.22,3.22,0,0,1,.71.11s0,0,0,0Z"/></g><g id="_编组_11" data-name="&lt;编组&gt;"><path id="_路径_5" data-name="&lt;路径&gt;" class="cls-12" d="M21.62,14.89l-.63,0s0,0,0,0l.63,0s0,0,0,0Z"/></g><g id="_编组_12" data-name="&lt;编组&gt;"><path id="_路径_6" data-name="&lt;路径&gt;" class="cls-12" d="M21.32,14.26a3.16,3.16,0,0,0-.37.62s0,0,0,0a3.2,3.2,0,0,1,.37-.63s0,0,0,0Z"/></g></g></g><g id="_编组_13" data-name="&lt;编组&gt;"><g id="_编组_14" data-name="&lt;编组&gt;"><path class="cls-3" d="M20.76,15.29a1.06,1.06,0,0,1-.73.32,1.25,1.25,0,0,1-.35,0c-.48-.15-.52-.61-.5-1a.49.49,0,0,0,0-.29c-.07-.1-.19-.16-.28-.25a.84.84,0,0,1-.21-.41.7.7,0,0,1,0-.43.72.72,0,0,1,.89-.31.92.92,0,0,1,.55.79.3.3,0,0,0,.06.2.28.28,0,0,0,.14.06,1.7,1.7,0,0,1,.28.07.74.74,0,0,1,.45.54A.87.87,0,0,1,20.76,15.29Z"/></g><g id="_编组_15" data-name="&lt;编组&gt;" class="cls-11"><g id="_编组_16" data-name="&lt;编组&gt;"><path id="_路径_7" data-name="&lt;路径&gt;" class="cls-12" d="M19.07,13.31a2.71,2.71,0,0,1,.74.81,2.47,2.47,0,0,1,.47,1h0a2.55,2.55,0,0,0-.5-1,2.61,2.61,0,0,0-.71-.76Z"/></g><g id="_编组_17" data-name="&lt;编组&gt;"><path id="_路径_8" data-name="&lt;路径&gt;" class="cls-12" d="M19.7,13.91q-.08-.34-.19-.68h0q.11.34.19.68Z"/></g><g id="_编组_18" data-name="&lt;编组&gt;"><path id="_路径_9" data-name="&lt;路径&gt;" class="cls-12" d="M19,13.7a3.18,3.18,0,0,1,.67.22s0,0,0,0a3.19,3.19,0,0,0-.68-.22s0,0,0,0Z"/></g><g id="_编组_19" data-name="&lt;编组&gt;"><path id="_路径_10" data-name="&lt;路径&gt;" class="cls-12" d="M19.55,14.41l.58.25h0l-.58-.24Z"/></g><g id="_编组_20" data-name="&lt;编组&gt;"><path id="_路径_11" data-name="&lt;路径&gt;" class="cls-12" d="M20.12,14a3.07,3.07,0,0,1,0,.71s0,0,0,0a3.1,3.1,0,0,0,0-.72s0,0,0,0Z"/></g></g></g><path class="cls-13" d="M1.83,13.15a3.77,3.77,0,0,0,.53-.23,6.55,6.55,0,0,1,.75-.52,1.71,1.71,0,0,1,.81-.08c.13,0,.13,0,.21.11a1.06,1.06,0,0,1,.15.39A2.84,2.84,0,0,1,4,14.32c-.2.54,0,1.21-.29,1.69a4.43,4.43,0,0,1-.67.61,2.63,2.63,0,0,0-.63,1.49,2.64,2.64,0,0,1-.23.81,2.28,2.28,0,0,1-.2.3H0v-4.7A4.33,4.33,0,0,1,1.83,13.15Z"/><path class="cls-14" d="M0,18.21l.39-.29h0a4.54,4.54,0,0,0,0-1.78A12.56,12.56,0,0,0,0,14.52l0-.06a12.68,12.68,0,0,1,.38,1.67,4.78,4.78,0,0,1,.05,1.72,6.32,6.32,0,0,0,.89-.91,12.11,12.11,0,0,1-.74-2.85c0-.07,0-.14,0-.21l.06-.05c0,.15,0,.29,0,.44a12.75,12.75,0,0,0,.7,2.61,6.32,6.32,0,0,0,.53-.8,7.57,7.57,0,0,1-.72-2.47c0-.06,0-.11,0-.17l.07,0a2.51,2.51,0,0,0,0,.38A8.1,8.1,0,0,0,2,16l.16-.3c.11-.24.22-.49.32-.74a5.51,5.51,0,0,1-.25-2l.07,0a4.82,4.82,0,0,0,.23,1.88h0a11.9,11.9,0,0,1,.68-1.48v0a1,1,0,0,1,.23-1h.09a1.64,1.64,0,0,0-.17.19.94.94,0,0,0-.1.77A4.06,4.06,0,0,1,4,12.34s.08,0,.05,0a4.38,4.38,0,0,0-.95,1.29,2,2,0,0,0,1.07.07l0,.07a2.23,2.23,0,0,1-1.08-.09c-.19.37-.34.76-.5,1.15a1.91,1.91,0,0,0,1.34-.41l0,.1-.08.06a1.94,1.94,0,0,1-1.27.31c-.15.36-.3.72-.48,1.06v0c.27-.1.56-.05.83-.14a5.05,5.05,0,0,0,.75-.34l.21-.11v.08l0,0c-.24.13-.48.25-.73.35s-.71.07-1,.22H2l0,0a6,6,0,0,1-.46.71,2.23,2.23,0,0,1,1.32-.07l0,.06a1.88,1.88,0,0,0-1.36.13h0a6.23,6.23,0,0,1-.47.53,2,2,0,0,1,.8.27,4.78,4.78,0,0,0,.6.27v.07L2.16,18a3.3,3.3,0,0,0-1.22-.47h0a6.42,6.42,0,0,1-.61.53c.63.16,1.05.67,1.66.87l.13,0,0,.06c-.67-.19-1.12-.77-1.81-.92h0L0,18.29Z"/><g id="_编组_21" data-name="&lt;编组&gt;"><g id="_编组_22" data-name="&lt;编组&gt;"><path id="_路径_12" data-name="&lt;路径&gt;" class="cls-12" d="M14.34,8.06s0,0,0,0h0"/></g></g><g id="_编组_23" data-name="&lt;编组&gt;"><g id="_编组_24" data-name="&lt;编组&gt;"><g id="_编组_25" data-name="&lt;编组&gt;"><g id="_编组_26" data-name="&lt;编组&gt;"><path class="cls-15" d="M4.5,1.28l0,0,0,0Z"/></g></g></g></g></g></g></svg>