<svg xmlns="http://www.w3.org/2000/svg" viewBox="0 0 348.47 190.88"><defs><style>.cls-1{fill:#4b79d6;}.cls-1,.cls-10,.cls-2,.cls-3,.cls-4,.cls-5,.cls-6,.cls-7,.cls-8,.cls-9{fill-rule:evenodd;}.cls-3{fill:#e6e6e6;}.cls-11,.cls-4{fill:#ccc;}.cls-5{fill:#4d4d4d;}.cls-6{fill:gray;}.cls-7{fill:#ff0;}.cls-8{fill:#ffa7be;}.cls-12,.cls-13,.cls-9{fill:#fff;}.cls-10{fill:#999;}.cls-13{font-size:21.31px;font-family:SegoeUI-Semilight, Segoe UI;}.cls-14{letter-spacing:0.04em;}.cls-15{letter-spacing:-0.05em;}.cls-16{letter-spacing:-0.01em;}</style></defs><title>资源 2</title><g id="图层_2" data-name="图层 2"><g id="Objects"><path class="cls-1" d="M280.43,172.45c37.56,0,68,4.13,68,9.21s-30.47,9.21-68,9.21-68-4.13-68-9.21,30.47-9.21,68-9.21Z"/><polygon class="cls-2" points="256.21 143.87 263.42 164.9 270.98 162.3 263.89 141.27 256.21 143.87"/><path class="cls-3" d="M270,159.23l-18.43,6.14a7.11,7.11,0,0,0-4.49,8.86l2.24,6.73,25.16-8.5Z"/><polygon class="cls-4" points="247.12 174.34 249.36 180.96 274.52 172.46 272.28 165.84 247.12 174.34"/><polygon class="cls-2" points="271.45 119.3 264.96 140.56 257.16 138.2 263.77 116.94 271.45 119.3"/><path class="cls-5" d="M262.24,136.19a9,9,0,0,1,6,11.34,9.14,9.14,0,1,1-17.48-5.32,9.12,9.12,0,0,1,11.46-6Z"/><path class="cls-6" d="M262.24,136.19a9,9,0,0,1,6,11.34l-17.48-5.32a9.12,9.12,0,0,1,11.46-6Z"/><rect x="291.18" y="148" width="8.15" height="22.21"/><polygon class="cls-2" points="288.82 121.31 299.92 140.44 292.95 144.58 281.73 125.33 288.82 121.31"/><path class="cls-6" d="M277.12,77.6a26.75,26.75,0,1,1-26.81,26.81A26.77,26.77,0,0,1,277.12,77.6Z"/><path class="cls-5" d="M277.12,131.11a26.75,26.75,0,1,1,0-53.51Z"/><polygon class="cls-2" points="326.26 119.3 334.29 98.51 341.85 101.47 333.7 122.14 326.26 119.3"/><polygon class="cls-2" points="339.61 103.12 318.94 95.09 321.77 87.53 342.56 95.56 339.61 103.12"/><path class="cls-6" d="M317.75,99A9.18,9.18,0,1,1,328,91.19,9.15,9.15,0,0,1,317.75,99Z"/><path class="cls-5" d="M317.75,99A9.15,9.15,0,0,1,310,88.71L328,91.19A9.15,9.15,0,0,1,317.75,99Z"/><path class="cls-5" d="M337.48,105.48a6.6,6.6,0,0,1-5.67-7.32,6.62,6.62,0,1,1,5.67,7.32Z"/><path class="cls-6" d="M339.25,92.49a6.56,6.56,0,1,1-1.77,13Z"/><path class="cls-4" d="M321.89,134.66a10.7,10.7,0,0,1,9.8-18.9,10.68,10.68,0,0,1-5.91,20.43l2.24-5.55a4.89,4.89,0,0,0,4.25-3.07,4.9,4.9,0,1,0-9.1-3.66,5.2,5.2,0,0,0,.94,5.2Z"/><path class="cls-3" d="M331.69,115.76a10.68,10.68,0,0,1-5.91,20.43l2.24-5.55a4.89,4.89,0,0,0,4.25-3.07,4.83,4.83,0,0,0-2.72-6.38Z"/><polygon class="cls-2" points="231.88 53.63 226.69 75.24 218.77 73.35 223.97 51.74 231.88 53.63"/><polygon class="cls-2" points="220.78 71.46 242.4 76.66 240.5 84.45 218.89 79.26 220.78 71.46"/><path class="cls-5" d="M243,72.64a9.15,9.15,0,1,1-9.1,9.1,9.1,9.1,0,0,1,9.1-9.1Z"/><path class="cls-6" d="M243,72.64a9.2,9.2,0,0,1,9.21,9.1H233.89a9.1,9.1,0,0,1,9.1-9.1Z"/><path class="cls-6" d="M222.55,68.86a6.56,6.56,0,1,1-6.61,6.5,6.58,6.58,0,0,1,6.61-6.5Z"/><path class="cls-5" d="M222.55,82a6.56,6.56,0,1,1,0-13.11Z"/><path class="cls-3" d="M234,37.8a10.71,10.71,0,1,1-15,7.09,10.88,10.88,0,0,1,11-8.15l-1.42,5.91a5,5,0,0,0-3.9,3.66,4.93,4.93,0,1,0,9.57,2.36,4.9,4.9,0,0,0-1.65-5Z"/><path class="cls-4" d="M226.92,57.88a10.74,10.74,0,0,1-7.91-13,10.88,10.88,0,0,1,11-8.15l-1.42,5.91a5,5,0,0,0-3.9,3.66,5.09,5.09,0,0,0,3.54,6Z"/><path class="cls-6" d="M273.81,64.49h12A2.12,2.12,0,0,1,288,66.62V81.15a2.12,2.12,0,0,1-2.13,2.13h-12a2.12,2.12,0,0,1-2.13-2.13V66.62a2.12,2.12,0,0,1,2.13-2.13Z"/><path class="cls-5" d="M272.75,64.49h6a1.06,1.06,0,0,1,1.06,1.06V82.21a1.06,1.06,0,0,1-1.06,1.06h-6a1.06,1.06,0,0,1-1.06-1.06V65.56a1.06,1.06,0,0,1,1.06-1.06Z"/><path class="cls-7" d="M296.85,99.1l7-4.49-.47,3.07,12.88-2.24-15.12,6.85a26.87,26.87,0,0,0-.24-3.07c-.24-.12-4-.12-4-.12Z"/><path class="cls-3" d="M247.83,68l69.69,9a6,6,0,0,1,5.2,6.61l-4.13,32.6a6.08,6.08,0,0,1-6.73,5.2l-69.69-9a6,6,0,0,1-5.2-6.61l4.13-32.6a6.08,6.08,0,0,1,6.73-5.2Z"/><path class="cls-4" d="M247.83,68l34.85,4.49L277,116.94l-34.85-4.49a6,6,0,0,1-5.2-6.61l4.13-32.6a6.08,6.08,0,0,1,6.73-5.2Z"/><path class="cls-3" d="M249.36,20.08h60.95a6.35,6.35,0,0,1,6.38,6.38V61.89a6.45,6.45,0,0,1-6.38,6.5H249.36a6.45,6.45,0,0,1-6.38-6.5V26.46a6.35,6.35,0,0,1,6.38-6.38Z"/><path class="cls-4" d="M249.25,20.08h30.59V68.39H249.25a6.43,6.43,0,0,1-6.26-6.5V26.46a6.33,6.33,0,0,1,6.26-6.38Z"/><path class="cls-2" d="M267.2,37.92A2.73,2.73,0,0,1,270,40.75a2.78,2.78,0,1,1-5.55,0,2.7,2.7,0,0,1,2.72-2.83Z"/><path class="cls-2" d="M292.36,37.92a2.73,2.73,0,0,1,2.83,2.83,2.78,2.78,0,1,1-5.55,0,2.7,2.7,0,0,1,2.72-2.83Z"/><path class="cls-8" d="M246.29,49.73a7.91,7.91,0,1,1-7.91,7.91,7.94,7.94,0,0,1,7.91-7.91Z"/><path class="cls-8" d="M313.38,49.73a7.91,7.91,0,1,1-8,7.91,7.91,7.91,0,0,1,8-7.91Z"/><path class="cls-2" d="M279.84,48.07a18.75,18.75,0,0,1,18.31,14.65H261.53a18.75,18.75,0,0,1,18.31-14.65Z"/><path class="cls-9" d="M270.74,50.44a18.07,18.07,0,0,1,6.14-2.13,2.53,2.53,0,0,1,.47,1.42v5.2A2.37,2.37,0,0,1,275,57.29h-1.89a2.37,2.37,0,0,1-2.36-2.36Z"/><path class="cls-9" d="M284.68,50.67a18.73,18.73,0,0,1,4.84,4.25l-1.65,4.13a2.44,2.44,0,0,1-3.07,1.3L283,59.65a2.4,2.4,0,0,1-1.3-3.07l2-4.84a2.79,2.79,0,0,1,.94-1.06Z"/><polygon class="cls-10" points="277.95 10.87 279.72 10.87 281.49 10.87 283.26 20.08 279.72 20.08 276.18 20.08 277.95 10.87"/><polygon class="cls-6" points="277.95 10.87 279.72 10.87 279.84 10.87 279.84 20.08 279.72 20.08 276.18 20.08 277.95 10.87"/><polygon class="cls-10" points="272.16 3.78 272.75 3.07 273.34 2.48 280.55 8.39 279.25 9.57 277.95 10.87 272.16 3.78"/><polygon class="cls-6" points="272.16 3.78 272.75 3.07 279.25 9.57 277.95 10.87 272.16 3.78"/><path class="cls-7" d="M282.08,9.57l4.49-3.9L286.45,8l9-2.83-10.16,6.26a13.31,13.31,0,0,0-.35-2.13,21.16,21.16,0,0,0-2.83.24Z"/><polygon class="cls-7" points="275.11 10.51 270.86 8.27 271.69 10.51 262.71 10.75 273.81 13.11 273.11 10.75 275.11 10.51"/><path class="cls-7" d="M281.14,0c0,.24-.12,2.36-1.65,2.72a10.24,10.24,0,0,1-1.54.35,5.62,5.62,0,0,1,1.54.24c1.54.47,1.65,2.6,1.65,2.72,0-.12,0-2.24,1.54-2.72a6.23,6.23,0,0,1,1.54-.24,15.59,15.59,0,0,1-1.54-.35c-1.54-.35-1.54-2.48-1.54-2.72Z"/><path class="cls-2" d="M261.41,91l37.21,4.72A2.13,2.13,0,0,1,300.39,98L299,109.26a2.11,2.11,0,0,1-2.36,1.77l-37.09-4.72a2,2,0,0,1-1.77-2.36l1.42-11.22A2,2,0,0,1,261.41,91Z"/><path class="cls-6" d="M264.13,92.72l3.07.35a.8.8,0,0,1,.47.71l-1.42,11.34c-.12.35-.35.59-.71.47l-3-.35c-.35,0-.59-.35-.47-.59l1.42-11.46c0-.35.35-.47.59-.47Z"/><path class="cls-6" d="M273.58,93.91l3.07.47a.54.54,0,0,1,.47.59l-1.42,11.34c-.12.35-.35.59-.71.47l-3-.35c-.35,0-.59-.24-.47-.59L273,94.38c0-.24.35-.47.59-.47Z"/><path class="cls-6" d="M283,95.09l3.07.47a.54.54,0,0,1,.47.59l-1.42,11.46a.8.8,0,0,1-.71.47l-3-.47a.56.56,0,0,1-.59-.59l1.54-11.46c0-.24.35-.47.59-.47Z"/><path class="cls-6" d="M292.48,96.39l3.07.35c.24,0,.47.35.47.59l-1.54,11.46a.54.54,0,0,1-.59.47l-3.07-.35a.8.8,0,0,1-.47-.71l1.54-11.34c0-.35.24-.59.59-.47Z"/><path class="cls-5" d="M264.13,92.72l1.54.24L264,105.48l-1.42-.24c-.35,0-.59-.35-.47-.59l1.42-11.46c0-.35.35-.47.59-.47Z"/><path class="cls-5" d="M273.58,93.91l1.54.24-1.65,12.52-1.42-.24c-.35,0-.59-.24-.47-.59L273,94.38c0-.24.35-.47.59-.47Z"/><path class="cls-5" d="M283,95.09l1.54.24-1.65,12.52-1.42-.24a.56.56,0,0,1-.59-.59l1.54-11.46c0-.24.35-.47.59-.47Z"/><path class="cls-5" d="M292.48,96.39l1.54.12L292.36,109l-1.54-.12a.8.8,0,0,1-.47-.71l1.54-11.34c0-.35.24-.59.59-.47Z"/><path class="cls-7" d="M300.39,85.28c0,.24-.12,2.83-2,3.31a13.74,13.74,0,0,1-1.89.35c.24.12.83.12,1.89.47,1.89.47,2,3.07,2,3.31,0-.24.12-2.83,1.89-3.31,1.18-.35,1.77-.35,2-.47a17.68,17.68,0,0,1-2-.35c-1.77-.47-1.89-3.07-1.89-3.31Z"/><path class="cls-7" d="M299.56,103.59c0,.24-.12,3-1.89,3.43a17.68,17.68,0,0,1-2,.35,17.69,17.69,0,0,1,2,.35c1.77.47,1.89,3.07,1.89,3.31,0-.24.12-2.83,2-3.31a13.74,13.74,0,0,1,1.89-.35,13.74,13.74,0,0,1-1.89-.35c-1.89-.47-2-3.19-2-3.43Z"/><path class="cls-7" d="M290.47,92.61c0,.24,0,1.89-1.18,2.13-.71.12-1.06.24-1.18.24.12,0,.47.12,1.18.24,1.18.24,1.18,1.89,1.18,2.13,0-.24,0-1.89,1.18-2.13.71-.12,1.06-.24,1.18-.24-.12,0-.47-.12-1.18-.24-1.18-.24-1.18-1.89-1.18-2.13Z"/><path class="cls-5" d="M292.24,135.48a9.16,9.16,0,0,1,9.21,15.83,9.26,9.26,0,0,1-12.52-3.43,9.06,9.06,0,0,1,3.31-12.4Z"/><path class="cls-6" d="M292.24,135.48a9.1,9.1,0,0,1,12.52,3.31l-15.83,9.1a9.06,9.06,0,0,1,3.31-12.4Z"/><path class="cls-3" d="M291.18,166.9h19.49a7,7,0,0,1,7,7V181H291.18Z"/><rect class="cls-11" x="291.18" y="173.87" width="26.46" height="7.09"/><path class="cls-7" d="M298.74,98.28,303,94.73l-.12,2.13,8.39-2.6L301.69,100a14.45,14.45,0,0,0-.35-2c-.12,0-2.6.24-2.6.24Z"/><path class="cls-7" d="M249.13,136.43l-2.6-4.84-.71,2-7-5.55,6.85,9a14.06,14.06,0,0,1,1.06-1.77c.12,0,2.36,1.18,2.36,1.18Z"/><polygon class="cls-7" points="251.14 150.37 246.88 148 247.71 150.25 238.73 150.48 249.95 152.97 249.25 150.48 251.14 150.37"/><path class="cls-7" d="M243.22,138.32c0,.24-.12,2.83-2,3.31a13.74,13.74,0,0,1-1.89.35c.24.12.83.12,1.89.47,1.89.47,2,3.07,2,3.31,0-.24.12-2.83,2-3.31,1.06-.35,1.65-.35,1.89-.47a13.74,13.74,0,0,1-1.89-.35c-1.89-.47-2-3.07-2-3.31Z"/><path class="cls-7" d="M308.07,127.33c0,.24-.12,2.83-2,3.31a13.74,13.74,0,0,1-1.89.35c.24.12.83.12,1.89.47,1.89.47,2,3.07,2,3.31,0-.24,0-2.83,1.89-3.31,1.18-.35,1.65-.35,2-.47a14.06,14.06,0,0,1-2-.35c-1.89-.47-1.89-3.07-1.89-3.31Z"/><path class="cls-12" d="M29.66,92.84,35.8,81.5c1.89-3.9,3.78-7.91,5.43-11.93h.35C41.47,74.06,41,80.79,41,85.28v7.56Zm35.32,0H57.89v-38H35.33L12.65,93.91v12.64H41v15H57.89v-15H65Zm30.71,29.88c14.65,0,24.81-12,24.81-34.85S110.34,53.63,95.69,53.63,70.89,65.08,70.89,87.88s10,34.85,24.81,34.85Zm0-13.82c-4.25,0-7.8-3.43-7.8-21s3.54-20.43,7.8-20.43,7.8,2.72,7.8,20.43-3.66,21-7.8,21Zm47.48-16.06,6.14-11.34c1.89-3.9,3.78-7.91,5.43-11.93h.47c-.24,4.49-.71,11.22-.71,15.71v7.56Zm35.32,0H171.4v-38H148.84l-22.68,39.1v12.64h28.35v15H171.4v-15h7.09Z"/><text class="cls-13" transform="translate(0 144.36)">Sor<tspan class="cls-14" x="30.4" y="0">r</tspan><tspan class="cls-15" x="38.47" y="0">y</tspan><tspan x="47.39" y="0">, </tspan><tspan class="cls-16" x="57.9" y="0">p</tspan><tspan x="69.85" y="0">age not found</tspan></text></g></g></svg>