<svg xmlns="http://www.w3.org/2000/svg" xmlns:xlink="http://www.w3.org/1999/xlink" viewBox="0 0 26.73 20.92"><defs><style>.cls-1{isolation:isolate;}.cls-2{fill:#f4f7fe;}.cls-3{fill:#e9eefe;}.cls-4{fill:#d3d4fc;}.cls-5{fill:#fff;}.cls-6{fill:url(#linear-gradient);}.cls-7{fill:#e3d9ef;}.cls-8{fill:#f1ecf7;}.cls-55,.cls-9{opacity:0.2;}.cls-169,.cls-9{mix-blend-mode:multiply;}.cls-10,.cls-11,.cls-12,.cls-13,.cls-14,.cls-15,.cls-16,.cls-17,.cls-18,.cls-19,.cls-20,.cls-21,.cls-22,.cls-23,.cls-24,.cls-25,.cls-26,.cls-27,.cls-28,.cls-29,.cls-30,.cls-31,.cls-32,.cls-33,.cls-34,.cls-35,.cls-36,.cls-37,.cls-38,.cls-39,.cls-40,.cls-41,.cls-42,.cls-43,.cls-44,.cls-45,.cls-46,.cls-47,.cls-48,.cls-49,.cls-50,.cls-51{fill:#2329f0;}.cls-10,.cls-100,.cls-56{opacity:0;}.cls-101,.cls-11,.cls-57{opacity:0.02;}.cls-102,.cls-12,.cls-58{opacity:0.05;}.cls-103,.cls-13,.cls-59{opacity:0.07;}.cls-104,.cls-14,.cls-60{opacity:0.1;}.cls-105,.cls-15,.cls-61{opacity:0.12;}.cls-106,.cls-16,.cls-62{opacity:0.15;}.cls-107,.cls-17,.cls-63{opacity:0.17;}.cls-108,.cls-18,.cls-64{opacity:0.2;}.cls-109,.cls-19,.cls-65{opacity:0.22;}.cls-110,.cls-20,.cls-66{opacity:0.24;}.cls-111,.cls-21,.cls-67{opacity:0.27;}.cls-112,.cls-22,.cls-68{opacity:0.29;}.cls-113,.cls-23,.cls-69{opacity:0.32;}.cls-114,.cls-24,.cls-70{opacity:0.34;}.cls-115,.cls-25,.cls-71{opacity:0.37;}.cls-116,.cls-26,.cls-72{opacity:0.39;}.cls-117,.cls-27,.cls-73{opacity:0.41;}.cls-118,.cls-28,.cls-74{opacity:0.44;}.cls-119,.cls-29,.cls-75{opacity:0.46;}.cls-120,.cls-30,.cls-76{opacity:0.49;}.cls-121,.cls-31,.cls-77{opacity:0.51;}.cls-122,.cls-32,.cls-78{opacity:0.54;}.cls-123,.cls-33,.cls-79{opacity:0.56;}.cls-124,.cls-34,.cls-80{opacity:0.59;}.cls-125,.cls-35,.cls-81{opacity:0.61;}.cls-126,.cls-36,.cls-82{opacity:0.63;}.cls-127,.cls-37,.cls-83{opacity:0.66;}.cls-128,.cls-38,.cls-84{opacity:0.68;}.cls-129,.cls-39,.cls-85{opacity:0.71;}.cls-130,.cls-40,.cls-86{opacity:0.73;}.cls-131,.cls-41,.cls-87{opacity:0.76;}.cls-132,.cls-42,.cls-88{opacity:0.78;}.cls-133,.cls-43,.cls-89{opacity:0.8;}.cls-134,.cls-44,.cls-90{opacity:0.83;}.cls-135,.cls-45,.cls-91{opacity:0.85;}.cls-136,.cls-46,.cls-92{opacity:0.88;}.cls-137,.cls-47,.cls-93{opacity:0.9;}.cls-138,.cls-48,.cls-94{opacity:0.93;}.cls-139,.cls-49,.cls-95{opacity:0.95;}.cls-140,.cls-50,.cls-96{opacity:0.98;}.cls-52{fill:url(#linear-gradient-2);}.cls-53{fill:#d4c7e7;}.cls-54{fill:#ffe0e4;}.cls-56,.cls-57,.cls-58,.cls-59,.cls-60,.cls-61,.cls-62,.cls-63,.cls-64,.cls-65,.cls-66,.cls-67,.cls-68,.cls-69,.cls-70,.cls-71,.cls-72,.cls-73,.cls-74,.cls-75,.cls-76,.cls-77,.cls-78,.cls-79,.cls-80,.cls-81,.cls-82,.cls-83,.cls-84,.cls-85,.cls-86,.cls-87,.cls-88,.cls-89,.cls-90,.cls-91,.cls-92,.cls-93,.cls-94,.cls-95,.cls-96,.cls-97{fill:#2657f4;}.cls-98{fill:url(#linear-gradient-3);}.cls-99{fill:#d4ddfd;}.cls-141{fill:#a8bcfb;}.cls-142{fill:#ffa3ad;}.cls-143{fill:url(#linear-gradient-4);}.cls-144{fill:#7d9af8;}.cls-145{fill:#fee7ec;}.cls-146{fill:#fc899f;}.cls-147{fill:url(#linear-gradient-5);}.cls-148{fill:url(#linear-gradient-6);}.cls-149{fill:#150d9c;}.cls-150{fill:url(#linear-gradient-7);}.cls-151{fill:url(#linear-gradient-8);}.cls-152{fill:url(#linear-gradient-9);}.cls-153{fill:url(#linear-gradient-10);}.cls-154{fill:url(#linear-gradient-11);}.cls-155{fill:#0d035c;}.cls-156{fill:url(#linear-gradient-12);}.cls-157{opacity:0.3;}.cls-158{fill:url(#linear-gradient-13);}.cls-159{fill:#100a75;}.cls-160{fill:url(#linear-gradient-14);}.cls-161{fill:url(#linear-gradient-15);}.cls-162{fill:#05105d;}.cls-163{fill:#f67;}.cls-164{fill:url(#linear-gradient-16);}.cls-165{fill:url(#linear-gradient-17);}.cls-166{fill:#ba539a;}.cls-167{fill:url(#linear-gradient-18);}.cls-168{fill:url(#linear-gradient-19);}.cls-169{fill:url(#radial-gradient);}</style><linearGradient id="linear-gradient" x1="10.94" y1="6.68" x2="18.03" y2="6.68" gradientUnits="userSpaceOnUse"><stop offset="0" stop-color="#150d9c"/><stop offset="0.32" stop-color="#1a17bb"/><stop offset="0.77" stop-color="#2124e1"/><stop offset="1" stop-color="#2329f0"/></linearGradient><linearGradient id="linear-gradient-2" x1="16.58" y1="5.41" x2="21.7" y2="5.41" gradientUnits="userSpaceOnUse"><stop offset="0" stop-color="#673ab7"/><stop offset="0.45" stop-color="#9347a7"/><stop offset="0.8" stop-color="#b0509e"/><stop offset="1" stop-color="#ba539a"/></linearGradient><linearGradient id="linear-gradient-3" x1="9.05" y1="8.88" x2="10.56" y2="8.88" gradientUnits="userSpaceOnUse"><stop offset="0" stop-color="#f67"/><stop offset="0.6" stop-color="#f58a94"/><stop offset="1" stop-color="#ef9ea3"/></linearGradient><linearGradient id="linear-gradient-4" x1="8.08" y1="3.56" x2="16.08" y2="3.56" gradientUnits="userSpaceOnUse"><stop offset="0" stop-color="#2329f0"/><stop offset="0.18" stop-color="#3831f4"/><stop offset="0.53" stop-color="#5d40fa"/><stop offset="0.82" stop-color="#744afe"/><stop offset="1" stop-color="#7c4dff"/></linearGradient><linearGradient id="linear-gradient-5" x1="-1022.42" y1="18.55" x2="-1021.47" y2="18.55" gradientTransform="matrix(-1, 0, 0, 1, -1014.09, 0)" gradientUnits="userSpaceOnUse"><stop offset="0" stop-color="#2329f0"/><stop offset="0.32" stop-color="#2433f1"/><stop offset="0.87" stop-color="#264ff3"/><stop offset="1" stop-color="#2657f4"/></linearGradient><linearGradient id="linear-gradient-6" x1="4.71" y1="18.55" x2="5.66" y2="18.55" gradientTransform="matrix(1, 0, 0, 1, 0, 0)" xlink:href="#linear-gradient-5"/><linearGradient id="linear-gradient-7" x1="5.89" y1="7.21" x2="7.4" y2="7.21" xlink:href="#linear-gradient-4"/><linearGradient id="linear-gradient-8" x1="16.59" y1="14.74" x2="17.06" y2="14.74" gradientTransform="matrix(1, 0, 0, 1, 0, 0)" xlink:href="#linear-gradient-5"/><linearGradient id="linear-gradient-9" x1="-319.87" y1="-226.87" x2="-319.3" y2="-226.87" gradientTransform="matrix(0.67, 0.74, -0.74, 0.67, 68.54, 403.11)" xlink:href="#linear-gradient-5"/><linearGradient id="linear-gradient-10" x1="77.61" y1="204.32" x2="78.09" y2="204.32" gradientTransform="translate(-127.12 -150.14) rotate(-20.14)" xlink:href="#linear-gradient-5"/><linearGradient id="linear-gradient-11" x1="18.28" y1="14.36" x2="18.13" y2="13.38" gradientTransform="matrix(1, 0, 0, 1, 0, 0)" xlink:href="#linear-gradient-5"/><linearGradient id="linear-gradient-12" x1="15.93" y1="16.03" x2="21.06" y2="16.03" gradientUnits="userSpaceOnUse"><stop offset="0" stop-color="#673ab7"/><stop offset="0.17" stop-color="#6f44ba"/><stop offset="0.47" stop-color="#8561c3"/><stop offset="0.85" stop-color="#a98ed1"/><stop offset="1" stop-color="#b8a1d7"/></linearGradient><linearGradient id="linear-gradient-13" x1="-1061.98" y1="16.02" x2="-1056.84" y2="16.02" gradientTransform="matrix(-1, 0, 0, 1, -1037.3, 0)" xlink:href="#linear-gradient-12"/><linearGradient id="linear-gradient-14" x1="22.96" y1="17.67" x2="20.91" y2="11.73" xlink:href="#linear-gradient-2"/><linearGradient id="linear-gradient-15" x1="33.01" y1="79.48" x2="34.99" y2="73.29" gradientTransform="translate(-21.55 -57.08) rotate(-6.55)" xlink:href="#linear-gradient-2"/><linearGradient id="linear-gradient-16" x1="21.74" y1="12.24" x2="24.34" y2="12.24" xlink:href="#linear-gradient-4"/><linearGradient id="linear-gradient-17" x1="22.81" y1="9.41" x2="21.06" y2="6.63" gradientUnits="userSpaceOnUse"><stop offset="0" stop-color="#663bba"/><stop offset="0.14" stop-color="#6b3cb8"/><stop offset="0.31" stop-color="#7a40b1"/><stop offset="0.48" stop-color="#9247a7"/><stop offset="0.67" stop-color="#b35198"/><stop offset="0.87" stop-color="#de5d86"/><stop offset="1" stop-color="#f67"/></linearGradient><linearGradient id="linear-gradient-18" x1="12.11" y1="17.65" x2="14.17" y2="17.65" xlink:href="#linear-gradient-4"/><linearGradient id="linear-gradient-19" x1="16.05" y1="18.07" x2="17.12" y2="18.07" xlink:href="#linear-gradient"/><radialGradient id="radial-gradient" cx="-133.75" cy="16655.88" r="1.83" gradientTransform="translate(200.95 -5402.28) scale(1.34 0.32)" gradientUnits="userSpaceOnUse"><stop offset="0" stop-color="#2657f4"/><stop offset="0.02" stop-color="#3361f5"/><stop offset="0.12" stop-color="#6386f7"/><stop offset="0.21" stop-color="#8da6f9"/><stop offset="0.32" stop-color="#b0c2fb"/><stop offset="0.42" stop-color="#cdd8fc"/><stop offset="0.54" stop-color="#e3e9fe"/><stop offset="0.66" stop-color="#f3f6fe"/><stop offset="0.8" stop-color="#fcfdff"/><stop offset="1" stop-color="#fff"/></radialGradient></defs><title>资源 1</title><g class="cls-1"><g id="图层_2" data-name="图层 2"><g id="图层_1-2" data-name="图层 1"><path class="cls-2" d="M26.73,6.78l-.11-.08A6,6,0,0,0,23.82,6a12.84,12.84,0,0,1-6.68-2.68,8.16,8.16,0,0,0-2.37-1.35,3.84,3.84,0,0,0-2.68,0,3.61,3.61,0,0,0-2,2.92c-.13,1.27,1.15,2.47,1.61,3.6a6,6,0,0,1,.74,2c0,2-3,2.16-4.4,2.07a10.77,10.77,0,0,0-2.87,0,4.64,4.64,0,0,0-2.84,1.86c-1.4,2-.72,4.37.29,6.48H26.73Z"/><path class="cls-3" d="M26.73,6.51l-.08-.07a7.12,7.12,0,0,1-.81-1.17,5,5,0,0,0-3.36-2.08,5.9,5.9,0,0,0-3.9.82C17.23,4.83,16,6.2,14.43,6.13,13.13,6.07,12.12,5.06,11,4.48a4.18,4.18,0,0,0-2.8-.39A2.92,2.92,0,0,0,6.07,5.9c-.63,1.85,1,3.69,1.22,5.63a4.77,4.77,0,0,1-1,3.36,7.74,7.74,0,0,1-2.81,2.19A8.06,8.06,0,0,0,.69,18.74,3,3,0,0,0,0,20.92H26.73Z"/><path class="cls-4" d="M26.73,10.62l-.06-.05a5.08,5.08,0,0,1-.58-.83,3.56,3.56,0,0,0-2.4-1.49,4.22,4.22,0,0,0-2.79.59c-1,.59-1.84,1.57-3,1.52-.92,0-1.65-.77-2.48-1.18a3,3,0,0,0-2-.28A2.09,2.09,0,0,0,12,10.19c-.45,1.32.72,2.63.87,4a3.41,3.41,0,0,1-.73,2.4,5.53,5.53,0,0,1-2,1.56,5.76,5.76,0,0,0-2,1.19,2.14,2.14,0,0,0-.48,1.56H26.73Z"/><rect id="_矩形_" data-name="&lt;矩形&gt;" class="cls-5" x="10.94" y="6.23" width="7.09" height="8.54" rx="0.23" ry="0.23"/><path id="_路径_" data-name="&lt;路径&gt;" class="cls-6" d="M18,7.13V6.48a.25.25,0,0,0-.25-.25h-6.6a.25.25,0,0,0-.25.25v.66Z"/><circle id="_路径_2" data-name="&lt;路径&gt;" class="cls-5" cx="11.47" cy="6.68" r="0.08"/><circle id="_路径_3" data-name="&lt;路径&gt;" class="cls-5" cx="11.82" cy="6.68" r="0.08"/><circle id="_路径_4" data-name="&lt;路径&gt;" class="cls-5" cx="12.17" cy="6.68" r="0.08"/><circle class="cls-7" cx="12.35" cy="11.28" r="0.63"/><circle class="cls-7" cx="12.35" cy="13" r="0.63"/><rect class="cls-8" x="13.72" y="10.87" width="3.52" height="0.13"/><rect class="cls-8" x="13.72" y="11.38" width="1.94" height="0.13"/><rect class="cls-8" x="13.72" y="12.61" width="3.52" height="0.13"/><rect class="cls-8" x="13.72" y="13.13" width="1.94" height="0.13"/><g class="cls-9"><path class="cls-10" d="M17.79,6.23H16.11V9.32a.46.46,0,0,0,.46.46H18V6.46A.24.24,0,0,0,17.79,6.23Z"/><path class="cls-11" d="M17.79,6.23H16.12V9.31a.45.45,0,0,0,.45.45H18V6.46A.23.23,0,0,0,17.79,6.23Z"/><path class="cls-12" d="M17.8,6.23H16.14V9.3a.45.45,0,0,0,.45.45H18V6.46A.23.23,0,0,0,17.8,6.23Z"/><path class="cls-13" d="M17.8,6.23H16.15V9.3a.45.45,0,0,0,.45.45H18V6.46A.23.23,0,0,0,17.8,6.23Z"/><path class="cls-14" d="M17.8,6.23H16.16V9.29a.44.44,0,0,0,.44.44H18V6.45A.23.23,0,0,0,17.8,6.23Z"/><path class="cls-15" d="M17.8,6.23H16.18V9.28a.44.44,0,0,0,.44.44H18V6.45A.23.23,0,0,0,17.8,6.23Z"/><path class="cls-16" d="M17.8,6.23H16.19v3a.44.44,0,0,0,.44.44H18V6.45A.23.23,0,0,0,17.8,6.23Z"/><path class="cls-17" d="M17.8,6.23H16.2v3a.44.44,0,0,0,.44.44H18V6.45A.22.22,0,0,0,17.8,6.23Z"/><path class="cls-18" d="M17.81,6.23H16.21v3a.43.43,0,0,0,.43.43H18V6.45A.22.22,0,0,0,17.81,6.23Z"/><path class="cls-19" d="M17.81,6.23H16.23v3a.43.43,0,0,0,.43.43H18V6.45A.22.22,0,0,0,17.81,6.23Z"/><path class="cls-20" d="M17.81,6.23H16.24v3a.43.43,0,0,0,.43.43H18V6.45A.22.22,0,0,0,17.81,6.23Z"/><path class="cls-21" d="M17.81,6.23H16.25v3a.42.42,0,0,0,.42.42H18V6.44A.22.22,0,0,0,17.81,6.23Z"/><path class="cls-22" d="M17.81,6.23H16.27v3a.42.42,0,0,0,.42.42H18V6.44A.22.22,0,0,0,17.81,6.23Z"/><path class="cls-23" d="M17.81,6.23H16.28v3a.42.42,0,0,0,.42.42H18V6.44A.21.21,0,0,0,17.81,6.23Z"/><path class="cls-24" d="M17.82,6.23H16.29v3a.41.41,0,0,0,.41.41H18V6.44A.21.21,0,0,0,17.82,6.23Z"/><path class="cls-25" d="M17.82,6.23H16.31v3a.41.41,0,0,0,.41.41H18V6.44A.21.21,0,0,0,17.82,6.23Z"/><path class="cls-26" d="M17.82,6.23h-1.5v3a.41.41,0,0,0,.41.41H18V6.44A.21.21,0,0,0,17.82,6.23Z"/><path class="cls-27" d="M17.82,6.23H16.33v3a.4.4,0,0,0,.4.4H18V6.43A.21.21,0,0,0,17.82,6.23Z"/><path class="cls-28" d="M17.82,6.23H16.34v3a.4.4,0,0,0,.4.4H18V6.43A.21.21,0,0,0,17.82,6.23Z"/><path class="cls-29" d="M17.82,6.23H16.36V9.17a.4.4,0,0,0,.4.4H18V6.43A.21.21,0,0,0,17.82,6.23Z"/><path class="cls-30" d="M17.82,6.23H16.37V9.16a.4.4,0,0,0,.4.4H18V6.43A.2.2,0,0,0,17.82,6.23Z"/><path class="cls-31" d="M17.83,6.23H16.38V9.15a.39.39,0,0,0,.39.39H18V6.43A.2.2,0,0,0,17.83,6.23Z"/><path class="cls-32" d="M17.83,6.23H16.4V9.15a.39.39,0,0,0,.39.39H18V6.43A.2.2,0,0,0,17.83,6.23Z"/><path class="cls-33" d="M17.83,6.23H16.41V9.14a.39.39,0,0,0,.39.39H18V6.42A.2.2,0,0,0,17.83,6.23Z"/><path class="cls-34" d="M17.83,6.23H16.42V9.13a.38.38,0,0,0,.38.38H18V6.42A.2.2,0,0,0,17.83,6.23Z"/><path class="cls-35" d="M17.83,6.23h-1.4v2.9a.38.38,0,0,0,.38.38H18V6.42A.2.2,0,0,0,17.83,6.23Z"/><path class="cls-36" d="M17.83,6.23H16.45V9.12a.38.38,0,0,0,.38.38H18V6.43h0A.19.19,0,0,0,17.83,6.23Z"/><path class="cls-37" d="M17.84,6.23H16.46V9.11a.37.37,0,0,0,.37.37H18v-3h0A.19.19,0,0,0,17.84,6.23Z"/><path class="cls-38" d="M17.84,6.23H16.47V9.1a.37.37,0,0,0,.37.37H18v-3h0A.19.19,0,0,0,17.84,6.23Z"/><path class="cls-39" d="M17.84,6.23H16.49V9.09a.37.37,0,0,0,.37.37H18v-3h0A.19.19,0,0,0,17.84,6.23Z"/><path class="cls-40" d="M17.84,6.23H16.5V9.08a.36.36,0,0,0,.36.36H18v-3h0A.19.19,0,0,0,17.84,6.23Z"/><path class="cls-41" d="M17.84,6.23H16.51V9.08a.36.36,0,0,0,.36.36H18v-3h0A.19.19,0,0,0,17.84,6.23Z"/><path class="cls-42" d="M17.84,6.23H16.53V9.07a.36.36,0,0,0,.36.36H18v-3h0A.18.18,0,0,0,17.84,6.23Z"/><path class="cls-43" d="M17.85,6.23H16.54V9.06a.35.35,0,0,0,.35.35H18v-3h0A.18.18,0,0,0,17.85,6.23Z"/><path class="cls-44" d="M17.85,6.23h-1.3V9.05a.35.35,0,0,0,.35.35H18v-3h0A.18.18,0,0,0,17.85,6.23Z"/><path class="cls-45" d="M17.85,6.23H16.56V9a.35.35,0,0,0,.35.35H18v-3h0A.18.18,0,0,0,17.85,6.23Z"/><path class="cls-46" d="M17.85,6.23H16.58V9a.35.35,0,0,0,.35.35H18v-3h0A.18.18,0,0,0,17.85,6.23Z"/><path class="cls-47" d="M17.85,6.23H16.59V9a.34.34,0,0,0,.34.34H18v-3h0A.18.18,0,0,0,17.85,6.23Z"/><path class="cls-48" d="M17.85,6.23H16.6V9a.34.34,0,0,0,.34.34H18V6.41h0A.18.18,0,0,0,17.85,6.23Z"/><path class="cls-49" d="M17.86,6.23H16.62V9a.34.34,0,0,0,.34.34H18V6.41h0A.17.17,0,0,0,17.86,6.23Z"/><path class="cls-50" d="M17.86,6.23H16.63V9a.33.33,0,0,0,.33.33H18V6.41h0A.17.17,0,0,0,17.86,6.23Z"/><path class="cls-51" d="M17.86,6.23H16.64V9a.33.33,0,0,0,.33.33H18V6.41h0A.17.17,0,0,0,17.86,6.23Z"/></g><rect class="cls-5" x="16.58" y="4.96" width="5.12" height="4.47" rx="0.42" ry="0.42"/><path class="cls-52" d="M21.28,5H17a.43.43,0,0,0-.43.43v.49H21.7V5.38A.43.43,0,0,0,21.28,5Z"/><circle class="cls-5" cx="17.16" cy="5.41" r="0.08"/><circle class="cls-5" cx="17.5" cy="5.41" r="0.08"/><circle class="cls-5" cx="17.5" cy="5.41" r="0.08"/><circle class="cls-5" cx="17.84" cy="5.41" r="0.08"/><circle class="cls-53" cx="17.58" cy="7.06" r="0.61"/><rect class="cls-8" x="18.52" y="6.73" width="2.8" height="0.16"/><rect class="cls-8" x="18.52" y="7.21" width="2.8" height="0.16"/><rect class="cls-54" x="18.52" y="7.69" width="1.05" height="0.16"/><g class="cls-55"><path class="cls-56" d="M13.39,7.92H10.94v2.82h2.45a.33.33,0,0,0,.33-.33V8.25A.33.33,0,0,0,13.39,7.92Z"/><path class="cls-57" d="M13.38,7.92H10.94v2.81h2.44a.33.33,0,0,0,.33-.33V8.24A.33.33,0,0,0,13.38,7.92Z"/><path class="cls-58" d="M13.36,7.92H10.94v2.8h2.43a.33.33,0,0,0,.33-.33V8.24A.33.33,0,0,0,13.36,7.92Z"/><path class="cls-59" d="M13.35,7.92H10.94V10.7h2.42a.32.32,0,0,0,.32-.32V8.24A.32.32,0,0,0,13.35,7.92Z"/><path class="cls-60" d="M13.34,7.92h-2.4v2.77h2.4a.32.32,0,0,0,.32-.32V8.24A.32.32,0,0,0,13.34,7.92Z"/><path class="cls-61" d="M13.33,7.92H10.94v2.75h2.39a.32.32,0,0,0,.32-.32V8.24A.32.32,0,0,0,13.33,7.92Z"/><path class="cls-62" d="M13.31,7.92H10.94v2.74h2.38a.32.32,0,0,0,.32-.32V8.24A.32.32,0,0,0,13.31,7.92Z"/><path class="cls-63" d="M13.3,7.92H10.94v2.72H13.3a.32.32,0,0,0,.32-.32V8.23A.32.32,0,0,0,13.3,7.92Z"/><path class="cls-64" d="M13.29,7.92H10.94v2.71h2.35a.31.31,0,0,0,.31-.31V8.23A.31.31,0,0,0,13.29,7.92Z"/><path class="cls-65" d="M13.28,7.92H10.94v2.69h2.34a.31.31,0,0,0,.31-.31V8.23A.31.31,0,0,0,13.28,7.92Z"/><path class="cls-66" d="M13.26,7.92H10.94v2.68h2.33a.31.31,0,0,0,.31-.31V8.23A.31.31,0,0,0,13.26,7.92Z"/><path class="cls-67" d="M13.25,7.92H10.94v2.66h2.31a.31.31,0,0,0,.31-.31v-2A.31.31,0,0,0,13.25,7.92Z"/><path class="cls-68" d="M13.24,7.92h-2.3v2.65h2.3a.31.31,0,0,0,.31-.31v-2A.31.31,0,0,0,13.24,7.92Z"/><path class="cls-69" d="M13.22,7.92H10.94v2.63h2.29a.31.31,0,0,0,.31-.31v-2A.31.31,0,0,0,13.22,7.92Z"/><path class="cls-70" d="M13.21,7.92H10.94v2.62h2.27a.3.3,0,0,0,.3-.3v-2A.3.3,0,0,0,13.21,7.92Z"/><path class="cls-71" d="M13.2,7.92H10.94v2.6H13.2a.3.3,0,0,0,.3-.3v-2A.3.3,0,0,0,13.2,7.92Z"/><path class="cls-72" d="M13.19,7.92H10.94v2.59h2.25a.3.3,0,0,0,.3-.3v-2A.3.3,0,0,0,13.19,7.92Z"/><path class="cls-73" d="M13.17,7.92H10.94v2.57h2.24a.3.3,0,0,0,.3-.3v-2A.3.3,0,0,0,13.17,7.92Z"/><path class="cls-74" d="M13.16,7.92H10.94v2.56h2.22a.3.3,0,0,0,.3-.3v-2A.3.3,0,0,0,13.16,7.92Z"/><path class="cls-75" d="M13.15,7.92H10.94v2.54h2.21a.3.3,0,0,0,.3-.3v-2A.3.3,0,0,0,13.15,7.92Z"/><path class="cls-76" d="M13.13,7.92h-2.2v2.53h2.2a.29.29,0,0,0,.29-.29V8.21A.29.29,0,0,0,13.13,7.92Z"/><path class="cls-77" d="M13.12,7.92H10.94v2.51h2.18a.29.29,0,0,0,.29-.29V8.21A.29.29,0,0,0,13.12,7.92Z"/><path class="cls-78" d="M13.11,7.92H10.94v2.5h2.17a.29.29,0,0,0,.29-.29V8.21A.29.29,0,0,0,13.11,7.92Z"/><path class="cls-79" d="M13.1,7.92H10.94V10.4H13.1a.29.29,0,0,0,.29-.29V8.21A.29.29,0,0,0,13.1,7.92Z"/><path class="cls-80" d="M13.08,7.92H10.94v2.47h2.15a.29.29,0,0,0,.29-.29V8.21A.29.29,0,0,0,13.08,7.92Z"/><path class="cls-81" d="M13.07,7.92H10.94v2.46h2.13a.29.29,0,0,0,.29-.29V8.2A.29.29,0,0,0,13.07,7.92Z"/><path class="cls-82" d="M13.06,7.92H10.94v2.44h2.12a.28.28,0,0,0,.28-.28V8.2A.28.28,0,0,0,13.06,7.92Z"/><path class="cls-83" d="M13,7.92H10.94v2.43H13a.28.28,0,0,0,.28-.28V8.2A.28.28,0,0,0,13,7.92Z"/><path class="cls-84" d="M13,7.92H10.94v2.41H13a.28.28,0,0,0,.28-.28V8.2A.28.28,0,0,0,13,7.92Z"/><path class="cls-85" d="M13,7.92H10.94v2.4H13A.28.28,0,0,0,13.3,10V8.2A.28.28,0,0,0,13,7.92Z"/><path class="cls-86" d="M13,7.92H10.94V10.3H13a.28.28,0,0,0,.28-.28V8.19A.28.28,0,0,0,13,7.92Z"/><path class="cls-87" d="M13,7.92H10.94v2.37H13a.28.28,0,0,0,.28-.28V8.19A.28.28,0,0,0,13,7.92Z"/><path class="cls-88" d="M13,7.92h-2v2.35h2a.27.27,0,0,0,.27-.27V8.19A.27.27,0,0,0,13,7.92Z"/><path class="cls-89" d="M13,7.92h-2v2.34h2a.27.27,0,0,0,.27-.27V8.19A.27.27,0,0,0,13,7.92Z"/><path class="cls-90" d="M13,7.92h-2v2.32h2a.27.27,0,0,0,.27-.27V8.19A.27.27,0,0,0,13,7.92Z"/><path class="cls-91" d="M12.94,7.92h-2v2.31h2a.27.27,0,0,0,.27-.27V8.19A.27.27,0,0,0,12.94,7.92Z"/><path class="cls-92" d="M12.93,7.92h-2v2.29h2a.27.27,0,0,0,.27-.27V8.18A.27.27,0,0,0,12.93,7.92Z"/><path class="cls-93" d="M12.92,7.92h-2V10.2h2a.27.27,0,0,0,.27-.27V8.18A.27.27,0,0,0,12.92,7.92Z"/><path class="cls-94" d="M12.9,7.92h-2v2.26h2a.26.26,0,0,0,.26-.26V8.18A.26.26,0,0,0,12.9,7.92Z"/><path class="cls-95" d="M12.89,7.92h-2v2.25h2a.26.26,0,0,0,.26-.26V8.18A.26.26,0,0,0,12.89,7.92Z"/><path class="cls-96" d="M12.88,7.92H10.94v2.23h1.94a.26.26,0,0,0,.26-.26V8.18A.26.26,0,0,0,12.88,7.92Z"/><path class="cls-97" d="M12.86,7.92H10.94v2.22h1.93a.26.26,0,0,0,.26-.26V8.18A.26.26,0,0,0,12.86,7.92Z"/></g><rect class="cls-5" x="8.59" y="7.5" width="4.69" height="2.76" rx="0.28" ry="0.28"/><circle id="_路径_5" data-name="&lt;路径&gt;" class="cls-98" cx="9.81" cy="8.88" r="0.76"/><path id="_路径_6" data-name="&lt;路径&gt;" class="cls-5" d="M10.09,8.92,9.6,9.2a0,0,0,0,1-.07,0V8.6a0,0,0,0,1,.07,0l.49.28A0,0,0,0,1,10.09,8.92Z"/><rect class="cls-99" x="10.84" y="8.27" width="2.08" height="0.19"/><rect class="cls-99" x="10.84" y="8.79" width="2.08" height="0.19"/><rect class="cls-97" x="10.84" y="9.3" width="1.04" height="0.19"/><g class="cls-55"><g class="cls-100"><path class="cls-51" d="M18,10.64H16.37a.2.2,0,0,0-.2.2v1.94a.2.2,0,0,0,.2.2H18Z"/></g><g class="cls-101"><path class="cls-51" d="M18,10.64H16.39a.2.2,0,0,0-.2.2v1.93a.2.2,0,0,0,.2.2H18Z"/></g><g class="cls-102"><path class="cls-51" d="M18,10.64H16.4a.2.2,0,0,0-.2.2v1.91a.2.2,0,0,0,.2.2H18Z"/></g><g class="cls-103"><path class="cls-51" d="M18,10.64H16.41a.2.2,0,0,0-.2.2v1.9a.2.2,0,0,0,.2.2H18Z"/></g><g class="cls-104"><path class="cls-51" d="M18,10.64H16.42a.2.2,0,0,0-.2.2v1.89a.2.2,0,0,0,.2.2H18Z"/></g><g class="cls-105"><path class="cls-51" d="M18,10.64h-1.6a.2.2,0,0,0-.2.2v1.88a.2.2,0,0,0,.2.2H18Z"/></g><g class="cls-106"><path class="cls-51" d="M18,10.64H16.44a.19.19,0,0,0-.19.19v1.86a.19.19,0,0,0,.19.19H18Z"/></g><g class="cls-107"><path class="cls-51" d="M18,10.64H16.45a.19.19,0,0,0-.19.19v1.85a.19.19,0,0,0,.19.19H18Z"/></g><g class="cls-108"><path class="cls-51" d="M18,10.64H16.46a.19.19,0,0,0-.19.19v1.84a.19.19,0,0,0,.19.19H18Z"/></g><g class="cls-109"><path class="cls-51" d="M18,10.64H16.47a.19.19,0,0,0-.19.19v1.82a.19.19,0,0,0,.19.19H18Z"/></g><g class="cls-110"><path class="cls-51" d="M18,10.64H16.49a.19.19,0,0,0-.19.19v1.81a.19.19,0,0,0,.19.19H18Z"/></g><g class="cls-111"><path class="cls-51" d="M18,10.64H16.5a.19.19,0,0,0-.19.19v1.8a.19.19,0,0,0,.19.19H18Z"/></g><g class="cls-112"><path class="cls-51" d="M18,10.64H16.51a.19.19,0,0,0-.19.19v1.79a.19.19,0,0,0,.19.19H18Z"/></g><g class="cls-113"><path class="cls-51" d="M18,10.64H16.52a.18.18,0,0,0-.18.19v1.77a.18.18,0,0,0,.18.19H18Z"/></g><g class="cls-114"><path class="cls-51" d="M18,10.64h-1.5a.18.18,0,0,0-.18.18v1.76a.18.18,0,0,0,.18.18H18Z"/></g><g class="cls-115"><path class="cls-51" d="M18,10.64H16.54a.18.18,0,0,0-.18.18v1.75a.18.18,0,0,0,.18.18H18Z"/></g><g class="cls-116"><path class="cls-51" d="M18,10.64H16.55a.18.18,0,0,0-.18.18v1.73a.18.18,0,0,0,.18.18H18Z"/></g><g class="cls-117"><path class="cls-51" d="M18,10.64H16.56a.18.18,0,0,0-.18.18v1.72a.18.18,0,0,0,.18.18H18Z"/></g><g class="cls-118"><path class="cls-51" d="M18,10.64H16.57a.18.18,0,0,0-.18.18v1.71a.18.18,0,0,0,.18.18H18Z"/></g><g class="cls-119"><path class="cls-51" d="M18,10.64H16.58a.18.18,0,0,0-.18.18v1.69a.18.18,0,0,0,.18.18H18Z"/></g><g class="cls-120"><path class="cls-51" d="M18,10.64H16.6a.18.18,0,0,0-.18.18v1.68a.18.18,0,0,0,.18.18H18Z"/></g><g class="cls-121"><path class="cls-51" d="M18,10.64H16.61a.17.17,0,0,0-.17.17v1.67a.17.17,0,0,0,.17.17H18Z"/></g><g class="cls-122"><path class="cls-51" d="M18,10.64H16.62a.17.17,0,0,0-.17.17v1.66a.17.17,0,0,0,.17.17H18Z"/></g><g class="cls-123"><path class="cls-51" d="M18,10.64h-1.4a.17.17,0,0,0-.17.17v1.64a.17.17,0,0,0,.17.17H18Z"/></g><g class="cls-124"><path class="cls-51" d="M18,10.64H16.64a.17.17,0,0,0-.17.17v1.63a.17.17,0,0,0,.17.17H18Z"/></g><g class="cls-125"><path class="cls-51" d="M18,10.64H16.65a.17.17,0,0,0-.17.17v1.62a.17.17,0,0,0,.17.17H18Z"/></g><g class="cls-126"><path class="cls-51" d="M18,10.64H16.66a.17.17,0,0,0-.17.17v1.6a.17.17,0,0,0,.17.17H18Z"/></g><g class="cls-127"><path class="cls-51" d="M18,10.64H16.67a.17.17,0,0,0-.17.17v1.59a.17.17,0,0,0,.17.17H18Z"/></g><g class="cls-128"><path class="cls-51" d="M18,10.64H16.68a.16.16,0,0,0-.16.16v1.58a.16.16,0,0,0,.16.16H18Z"/></g><g class="cls-129"><path class="cls-51" d="M18,10.64H16.69a.16.16,0,0,0-.16.16v1.57a.16.16,0,0,0,.16.16H18Z"/></g><g class="cls-130"><path class="cls-51" d="M18,10.64H16.71a.16.16,0,0,0-.16.16v1.55a.16.16,0,0,0,.16.16H18Z"/></g><g class="cls-131"><path class="cls-51" d="M18,10.64H16.72a.16.16,0,0,0-.16.16v1.54a.16.16,0,0,0,.16.16H18Z"/></g><g class="cls-132"><path class="cls-51" d="M18,10.64h-1.3a.16.16,0,0,0-.16.16v1.53a.16.16,0,0,0,.16.16H18Z"/></g><g class="cls-133"><path class="cls-51" d="M18,10.64H16.74a.16.16,0,0,0-.16.16v1.51a.16.16,0,0,0,.16.16H18Z"/></g><g class="cls-134"><path class="cls-51" d="M18,10.64H16.75a.16.16,0,0,0-.16.16v1.5a.16.16,0,0,0,.16.16H18Z"/></g><g class="cls-135"><path class="cls-51" d="M18,10.64H16.76a.16.16,0,0,0-.16.16v1.49a.16.16,0,0,0,.16.16H18Z"/></g><g class="cls-136"><path class="cls-51" d="M18,10.64H16.77a.15.15,0,0,0-.15.15v1.47a.15.15,0,0,0,.15.15H18Z"/></g><g class="cls-137"><path class="cls-51" d="M18,10.64H16.78a.15.15,0,0,0-.15.15v1.46a.15.15,0,0,0,.15.15H18Z"/></g><g class="cls-138"><path class="cls-51" d="M18,10.64H16.79a.15.15,0,0,0-.15.15v1.45a.15.15,0,0,0,.15.15H18Z"/></g><g class="cls-139"><path class="cls-51" d="M18,10.64H16.81a.15.15,0,0,0-.15.15v1.44a.15.15,0,0,0,.15.15H18Z"/></g><g class="cls-140"><path class="cls-51" d="M18,10.64H16.82a.15.15,0,0,0-.15.15v1.42a.15.15,0,0,0,.15.15H18Z"/></g><path class="cls-51" d="M18,10.64h-1.2a.15.15,0,0,0-.15.15v1.41a.15.15,0,0,0,.15.15H18Z"/></g><rect class="cls-5" x="16.58" y="10.31" width="3.1" height="2.16" rx="0.17" ry="0.17"/><rect class="cls-141" x="16.82" y="10.51" width="2.64" height="1.65"/><polygon class="cls-97" points="17.22 11.12 16.82 11.71 16.82 12.16 17.86 12.16 17.22 11.12"/><polygon class="cls-5" points="17.29 11.43 17.32 11.48 17.39 11.39 17.22 11.12 17.04 11.39 17.09 11.48 17.14 11.42 17.21 11.54 17.29 11.43"/><polygon class="cls-97" points="17.72 11.93 18.03 11.47 18.45 12.16 17.86 12.16 17.72 11.93"/><circle class="cls-142" cx="18.68" cy="11.07" r="0.29"/><polygon class="cls-5" points="18.1 11.78 18.13 11.84 18.2 11.75 18.03 11.47 17.84 11.74 17.9 11.84 17.95 11.78 18.02 11.89 18.1 11.78"/><rect class="cls-5" x="8.08" y="3.25" width="7.99" height="2.61" rx="0.33" ry="0.33"/><path class="cls-143" d="M15.7,3.25H8.46a.38.38,0,0,0-.38.38v.24h8V3.62A.38.38,0,0,0,15.7,3.25Z"/><circle class="cls-144" cx="9.27" cy="4.89" r="0.61"/><rect class="cls-99" x="10.21" y="4.33" width="5.2" height="0.16"/><rect class="cls-99" x="10.21" y="4.81" width="5.2" height="0.16"/><rect class="cls-145" x="10.21" y="5.29" width="1.95" height="0.16"/><circle class="cls-5" cx="8.73" cy="3.56" r="0.08"/><circle class="cls-5" cx="9.07" cy="3.56" r="0.08"/><circle class="cls-5" cx="9.41" cy="3.56" r="0.08"/><g id="_编组_" data-name="&lt;编组&gt;"><rect id="_矩形_2" data-name="&lt;矩形&gt;" class="cls-146" x="7.46" y="17.75" width="0.48" height="0.85" transform="translate(15.4 36.34) rotate(180)"/><path id="_路径_7" data-name="&lt;路径&gt;" class="cls-147" d="M7.69,18.47a.23.23,0,0,1-.22-.2h0l-.08.42v.11a.11.11,0,0,0,.11.11h.41l.43-.16v-.07a.38.38,0,0,0-.16-.31l-.23-.16h0a.28.28,0,0,1-.26.27Z"/><path id="_路径_8" data-name="&lt;路径&gt;" class="cls-5" d="M7.49,18.76h.41l.42-.16a.38.38,0,0,1,0,.07v.07l-.43.16H7.49a.11.11,0,0,1-.11-.11v-.12A.1.1,0,0,0,7.49,18.76Z"/><g id="_编组_2" data-name="&lt;编组&gt;"><path class="cls-51" d="M8,13.18a1.72,1.72,0,0,0-.13-.58.62.62,0,0,0-.44-.36l-.56.19a1.63,1.63,0,0,0-.35.12c-.16.1-.11.19-.1.4.06.75.26,1.46.37,2.2s.16,1.58.32,2.36c.06.32.18.68.49.79a.31.31,0,0,0,.31,0A.45.45,0,0,0,8,18a3.7,3.7,0,0,0,.08-1C8.1,15.73,8.1,14.45,8,13.18Z"/></g><rect id="_矩形_3" data-name="&lt;矩形&gt;" class="cls-146" x="5.09" y="17.75" width="0.48" height="0.85"/><path id="_路径_9" data-name="&lt;路径&gt;" class="cls-148" d="M5.35,18.47a.23.23,0,0,0,.22-.2h0l.08.42v.11a.11.11,0,0,1-.11.11H5.14l-.43-.16v-.07a.38.38,0,0,1,.16-.31l.23-.16h0a.28.28,0,0,0,.26.27Z"/><path id="_路径_10" data-name="&lt;路径&gt;" class="cls-5" d="M5.55,18.76H5.14l-.42-.16a.38.38,0,0,0,0,.07v.07l.43.16h.41a.11.11,0,0,0,.11-.11v-.12A.1.1,0,0,1,5.55,18.76Z"/><g id="_编组_3" data-name="&lt;编组&gt;"><path class="cls-146" d="M4.25,9.76a1.19,1.19,0,0,0-.3,1,2.21,2.21,0,0,0,.39,1c.19.29.42.55.64.83a.62.62,0,0,1,.17.41c0,.15-.13.28-.11.43s0,.06,0,.06.06,0,.07-.08a1.18,1.18,0,0,1,.2-.33.48.48,0,0,0,.11-.36.57.57,0,0,0-.1-.19,4,4,0,0,1-.59-1.13,1.48,1.48,0,0,1,.15-1.23Z"/></g><g id="_编组_4" data-name="&lt;编组&gt;"><path class="cls-51" d="M6.75,12.39c-.1-.23-.41-.28-.68-.3l-.74.46A24,24,0,0,0,5.09,15c0,.83-.21,1.64-.16,2.48A1,1,0,0,0,5,18a.38.38,0,0,0,.4.19.47.47,0,0,0,.27-.29,11,11,0,0,0,.5-2c.16-.69.39-1.36.49-2.07a5.55,5.55,0,0,0,.08-1.22A.42.42,0,0,0,6.75,12.39Z"/></g><g id="_编组_5" data-name="&lt;编组&gt;"><path id="_路径_11" data-name="&lt;路径&gt;" class="cls-149" d="M5.73,17.88a17.79,17.79,0,0,0,.59-2.42,14.3,14.3,0,0,0,.48-2.34s0,0,0,0a16.11,16.11,0,0,1-.51,2.48,15.53,15.53,0,0,1-.56,2.27s0,0,0,0Z"/></g><g id="_编组_6" data-name="&lt;编组&gt;"><path class="cls-146" d="M9.47,5.81a.35.35,0,0,0-.18-.26l-.06,0c-.09-.09.1-.27,0-.37a1.37,1.37,0,0,0-.16.43c0,.24,0,.48-.05.72a3.47,3.47,0,0,1-.3.93,1.42,1.42,0,0,1-.5.71l.42.43A5.71,5.71,0,0,0,9.45,6,.7.7,0,0,0,9.47,5.81Z"/></g><g id="_编组_7" data-name="&lt;编组&gt;"><path class="cls-5" d="M4.85,10.33A1,1,0,0,1,5,10.5a1.64,1.64,0,0,1,.16.73l.07.84,0,.42c0,.09,0,.25.06.31a1.22,1.22,0,0,0,.3.09A3.29,3.29,0,0,0,6,13a3.38,3.38,0,0,0,.73,0,3.73,3.73,0,0,0,.7-.09c.26-.06.6-.1.61-.45A1.33,1.33,0,0,0,7.91,12a3.84,3.84,0,0,1-.16-1.66A1.78,1.78,0,0,1,8,9.49c.18-.26.38-.51.55-.79a.66.66,0,0,0,.11-.27.69.69,0,0,0-.11-.38c-.05-.11-.13-.22-.25-.23S8,8,7.87,8a4.67,4.67,0,0,1-.55.16,5,5,0,0,1-1.11.13,1.83,1.83,0,0,0-.6,0,1.94,1.94,0,0,0-.52.28,5.28,5.28,0,0,0-.6.55,1.29,1.29,0,0,0-.37.55.22.22,0,0,0,.11.24,1.17,1.17,0,0,0,.23.09A1,1,0,0,1,4.85,10.33Z"/></g><g id="_编组_8" data-name="&lt;编组&gt;"><path id="_路径_12" data-name="&lt;路径&gt;" class="cls-149" d="M8,9.5l.39-.55a1.45,1.45,0,0,0,.27-.51s0,0,0,0A3.39,3.39,0,0,1,8,9.48s0,0,0,0Z"/></g><g id="_编组_9" data-name="&lt;编组&gt;"><path id="_路径_13" data-name="&lt;路径&gt;" class="cls-149" d="M7.92,12A3.25,3.25,0,0,1,8,9.5s0,0,0,0A3.25,3.25,0,0,0,7.89,12s0,0,0,0Z"/></g><g id="_编组_10" data-name="&lt;编组&gt;"><path id="_路径_14" data-name="&lt;路径&gt;" class="cls-149" d="M5.28,12.81a3.7,3.7,0,0,0,2.14.13s0,0,0,0a3.66,3.66,0,0,1-2.11-.12s0,0,0,0Z"/></g><g id="_编组_11" data-name="&lt;编组&gt;"><path id="_路径_15" data-name="&lt;路径&gt;" class="cls-149" d="M4.84,10.34a3.14,3.14,0,0,1,.35,1.73s0,0,0,0a3.12,3.12,0,0,0-.36-1.75s0,0,0,0Z"/></g><g id="_编组_12" data-name="&lt;编组&gt;"><path id="_路径_16" data-name="&lt;路径&gt;" class="cls-149" d="M6.26,8.3a2,2,0,0,0-1.54.64c-.22.21-.87.73-.5,1.05,0,0,0,0,0,0-.37-.32.53-1.06.75-1.24a1.81,1.81,0,0,1,1.27-.4,0,0,0,0,0,0,0Z"/></g><g id="_编组_13" data-name="&lt;编组&gt;"><path class="cls-146" d="M6.29,8.25A1.06,1.06,0,0,0,6.4,7.6h.39a1.2,1.2,0,0,0,.07.5,1.27,1.27,0,0,1,.07.21.25.25,0,0,1,0,.21.26.26,0,0,1-.14.07.5.5,0,0,1-.41-.09h0A.21.21,0,0,1,6.29,8.25Z"/></g><g id="_编组_14" data-name="&lt;编组&gt;"><path class="cls-146" d="M7.09,7.16,7,7a.85.85,0,0,0-.18-.29H6.67a.65.65,0,0,0-.3.34.93.93,0,0,0,0,.45.86.86,0,0,0,.07.24A.45.45,0,0,0,6.82,8a.24.24,0,0,0,.11,0L7,7.95A.67.67,0,0,0,7.09,7.16Z"/></g><g id="_编组_15" data-name="&lt;编组&gt;"><path id="_路径_17" data-name="&lt;路径&gt;" class="cls-149" d="M6.25,8.31a.38.38,0,0,0,.55.25s0,0,0,0a.35.35,0,0,1-.51-.23s0,0,0,0Z"/></g><g id="_编组_16" data-name="&lt;编组&gt;"><path id="_路径_18" data-name="&lt;路径&gt;" class="cls-149" d="M6.68,8c.29.08.46-.13.51-.41a.68.68,0,0,0,0-.39,1.64,1.64,0,0,0-.3-.48s0,0,0,0a1.53,1.53,0,0,1,.33.57c.08.3-.08.76-.46.66a0,0,0,0,0,0,0Z"/></g><g id="_编组_17" data-name="&lt;编组&gt;"><path class="cls-150" d="M7.34,6.36a.22.22,0,0,0-.26,0,1,1,0,0,1-.23.16.61.61,0,0,1-.26,0c-.19,0-.48,0-.52.23,0,.07,0,.13,0,.2s-.12.2-.15.31A1,1,0,0,0,6,7.74a.51.51,0,0,0,.1.25c.12.14.39.1.53,0a.39.39,0,0,0,.21-.39,1.11,1.11,0,0,1,0-.13.11.11,0,0,1,.05-.11h0a.1.1,0,0,0,0-.13,1.16,1.16,0,0,1-.06-.13A.22.22,0,0,1,7,6.89a.8.8,0,0,1,.24-.09.29.29,0,0,0,.18-.11.28.28,0,0,0,0-.16A.24.24,0,0,0,7.34,6.36Z"/></g></g><g id="_编组_18" data-name="&lt;编组&gt;"><g id="_编组_19" data-name="&lt;编组&gt;"><path id="_路径_19" data-name="&lt;路径&gt;" class="cls-149" d="M13.23,14.8A5.78,5.78,0,0,0,17,17.09s.05-.06,0-.06a5.71,5.71,0,0,1-3.76-2.26s-.08,0-.05,0Z"/></g><path id="_路径_20" data-name="&lt;路径&gt;" class="cls-149" d="M13.38,15s-.53-.13-.47-.58C12.91,14.38,13.33,14.29,13.38,15Z"/><path id="_路径_21" data-name="&lt;路径&gt;" class="cls-149" d="M13.74,15.38s-.48.26-.74-.11C13,15.27,13.26,14.92,13.74,15.38Z"/><path id="_路径_22" data-name="&lt;路径&gt;" class="cls-149" d="M14.3,15.89s-.43.33-.75,0C13.55,15.89,13.75,15.51,14.3,15.89Z"/><path id="_路径_23" data-name="&lt;路径&gt;" class="cls-149" d="M14.91,16.29s-.33.43-.72.19C14.19,16.48,14.29,16.07,14.91,16.29Z"/><path id="_路径_24" data-name="&lt;路径&gt;" class="cls-149" d="M15.56,16.6s-.19.51-.64.4C14.93,17,14.9,16.57,15.56,16.6Z"/><path id="_路径_25" data-name="&lt;路径&gt;" class="cls-149" d="M16.22,16.85s-.06.54-.52.54C15.7,17.39,15.57,17,16.22,16.85Z"/><path id="_路径_26" data-name="&lt;路径&gt;" class="cls-149" d="M13.75,15.37s-.37-.4-.07-.75C13.68,14.63,14.08,14.8,13.75,15.37Z"/><path id="_路径_27" data-name="&lt;路径&gt;" class="cls-149" d="M14.3,15.88s-.37-.4-.07-.75C14.24,15.14,14.63,15.31,14.3,15.88Z"/><path id="_路径_28" data-name="&lt;路径&gt;" class="cls-149" d="M14.91,16.3s-.37-.4-.07-.75C14.84,15.55,15.24,15.72,14.91,16.3Z"/><path id="_路径_29" data-name="&lt;路径&gt;" class="cls-149" d="M15.56,16.65s-.37-.4-.07-.75C15.49,15.9,15.89,16.07,15.56,16.65Z"/><path id="_路径_30" data-name="&lt;路径&gt;" class="cls-149" d="M16.2,16.87s-.37-.4-.07-.75C16.14,16.12,16.53,16.29,16.2,16.87Z"/></g><g id="_编组_20" data-name="&lt;编组&gt;"><g id="_编组_21" data-name="&lt;编组&gt;"><path class="cls-151" d="M17,14.48h0a.14.14,0,0,0,0,.08.28.28,0,0,0-.11-.08h0a.14.14,0,0,0,0,.06.1.1,0,0,0,0,.06l-.06,0H16.7a0,0,0,0,0,0,0v.06s0,0,0,0l-.09,0v0a.53.53,0,0,0,.15.22A1,1,0,0,0,17,15L17,15l0,0a.15.15,0,0,0,0,0,1.14,1.14,0,0,0,0-.16.5.5,0,0,0,0-.16S17,14.48,17,14.48Z"/></g><g id="_编组_22" data-name="&lt;编组&gt;"><g id="_编组_23" data-name="&lt;编组&gt;"><path class="cls-149" d="M16.83,14.88a.46.46,0,0,1-.13-.19v0h0v0a.46.46,0,0,0,.13.19A.85.85,0,0,0,17,15h0A.79.79,0,0,1,16.83,14.88Z"/></g></g><g id="_编组_24" data-name="&lt;编组&gt;"><g id="_编组_25" data-name="&lt;编组&gt;"><path class="cls-149" d="M17,14.77A.39.39,0,0,0,17,14.6v0h0l0,0a.39.39,0,0,1,.07.18A.72.72,0,0,1,17,15h0A.67.67,0,0,0,17,14.77Z"/></g></g><g id="_编组_26" data-name="&lt;编组&gt;"><path id="_路径_31" data-name="&lt;路径&gt;" class="cls-149" d="M16.82,14.63,17,15h0l-.17-.34s0,0,0,0Z"/></g><g id="_编组_27" data-name="&lt;编组&gt;"><path class="cls-149" d="M17,14.91h0a.05.05,0,0,0,0,0l0,0h0v0l0,0h0v0s0,0,0,0h0s0,.06.05.08l.09,0v0h0a.27.27,0,0,0,0,0,.2.2,0,0,0,0-.06A.21.21,0,0,1,17,14.91Z"/></g><path id="_路径_32" data-name="&lt;路径&gt;" class="cls-149" d="M17.31,15.6A2.94,2.94,0,0,1,17,15s0,0,0,0a3.21,3.21,0,0,0,.28.58l.07.16h0Z"/></g><g id="_编组_28" data-name="&lt;编组&gt;"><g id="_编组_29" data-name="&lt;编组&gt;"><path class="cls-152" d="M22.36,13.89h0a.17.17,0,0,0-.09,0,.34.34,0,0,0,0-.16h0l-.08,0a.12.12,0,0,0,0,.07.21.21,0,0,0,0-.09l0,0s0,0,0,0h0l0,0,0,0s0,0,0,0a.28.28,0,0,0,0-.1l0,0a.64.64,0,0,0-.07.3,1.17,1.17,0,0,0,.1.31H22l0,0,.15-.12a.6.6,0,0,0,.12-.16S22.37,13.9,22.36,13.89Z"/></g><g id="_编组_30" data-name="&lt;编组&gt;"><g id="_编组_31" data-name="&lt;编组&gt;"><path class="cls-149" d="M21.88,14.07a.56.56,0,0,1,.06-.27l0,0h0l0,0a.56.56,0,0,0-.06.27,1,1,0,0,0,.08.27h0A1,1,0,0,1,21.88,14.07Z"/></g></g><g id="_编组_32" data-name="&lt;编组&gt;"><g id="_编组_33" data-name="&lt;编组&gt;"><path class="cls-149" d="M22.13,14.16a.47.47,0,0,0,.1-.21v0h0v0a.47.47,0,0,1-.1.21.86.86,0,0,1-.2.13h0A.81.81,0,0,0,22.13,14.16Z"/></g></g><g id="_编组_34" data-name="&lt;编组&gt;"><path id="_路径_33" data-name="&lt;路径&gt;" class="cls-149" d="M22.09,13.86q-.08.21-.16.42s0,0,0,0,.11-.28.16-.42,0,0,0,0Z"/></g><g id="_编组_35" data-name="&lt;编组&gt;"><path class="cls-149" d="M22,14.29h0l0,0a.12.12,0,0,0,0-.06h0v0a.08.08,0,0,0,0,0h0l0,0s0,0,0,0l0,0s0,0,0,0,0,.07,0,.11a.42.42,0,0,0,0,.11h.06l0,0a.24.24,0,0,0,0-.07Z"/></g><path id="_路径_34" data-name="&lt;路径&gt;" class="cls-149" d="M21.63,15.08a3.53,3.53,0,0,1,.28-.69s0,0,0,0a3.84,3.84,0,0,0-.29.72l-.09.19,0,0C21.56,15.23,21.6,15.15,21.63,15.08Z"/></g><g id="_编组_36" data-name="&lt;编组&gt;"><g id="_编组_37" data-name="&lt;编组&gt;"><path class="cls-153" d="M16.38,14.59h0a.14.14,0,0,0,0,.09.28.28,0,0,0-.13,0h0a.14.14,0,0,0,0,.07.1.1,0,0,0,0,0l-.07,0h-.07a0,0,0,0,0,0,0l0,.05s0,0,0,0h-.09l0,0a.53.53,0,0,0,.21.15,1,1,0,0,0,.27,0l0-.06v0a.15.15,0,0,0,0,0,1.13,1.13,0,0,0,0-.16.5.5,0,0,0-.09-.14S16.39,14.59,16.38,14.59Z"/></g><g id="_编组_38" data-name="&lt;编组&gt;"><g id="_编组_39" data-name="&lt;编组&gt;"><path class="cls-149" d="M16.37,15a.46.46,0,0,1-.18-.13v0h0l0,0a.46.46,0,0,0,.18.13.85.85,0,0,0,.23,0h0A.8.8,0,0,1,16.37,15Z"/></g></g><g id="_编组_40" data-name="&lt;编组&gt;"><g id="_编组_41" data-name="&lt;编组&gt;"><path class="cls-149" d="M16.51,14.85a.39.39,0,0,0-.13-.14h0a.39.39,0,0,1,.13.14.72.72,0,0,1,0,.19h0A.67.67,0,0,0,16.51,14.85Z"/></g></g><g id="_编组_42" data-name="&lt;编组&gt;"><path id="_路径_35" data-name="&lt;路径&gt;" class="cls-149" d="M16.27,14.79l.27.26s0,0,0,0l-.27-.26s0,0,0,0Z"/></g><g id="_编组_43" data-name="&lt;编组&gt;"><path class="cls-149" d="M16.58,15h0a.05.05,0,0,0,0,0h-.05a.05.05,0,0,0,0,0v0h-.05v0s0,0,0,0h0s0,0,.08.05h.1v0h0v0a.2.2,0,0,0,0,0Z"/></g><path id="_路径_36" data-name="&lt;路径&gt;" class="cls-149" d="M17.06,15.53a2.94,2.94,0,0,1-.45-.43s0,0,0,0a3.2,3.2,0,0,0,.46.45l.12.12h0Z"/></g><g id="_编组_44" data-name="&lt;编组&gt;"><g id="_编组_45" data-name="&lt;编组&gt;"><path class="cls-154" d="M18.51,13.45h0a.24.24,0,0,0-.07.13.48.48,0,0,0-.16-.17h0a.24.24,0,0,0-.06.1.17.17,0,0,0,0,.1.29.29,0,0,0-.08-.1l0,0-.05,0h0a.07.07,0,0,0,0,0l0,.1s0,.06,0,0a.39.39,0,0,0-.13-.07s0,.06,0,.06a.9.9,0,0,0,.16.41,1.66,1.66,0,0,0,.36.27l.08-.07,0,0,0-.06a1.91,1.91,0,0,0,.08-.26.85.85,0,0,0,0-.28S18.53,13.46,18.51,13.45Z"/></g><g id="_编组_46" data-name="&lt;编组&gt;"><g id="_编组_47" data-name="&lt;编组&gt;"><path class="cls-155" d="M18.1,14.05a.78.78,0,0,1-.14-.36.38.38,0,0,1,0,0h0s0,0,0,.05a.79.79,0,0,0,.14.36,1.44,1.44,0,0,0,.31.24h0A1.35,1.35,0,0,1,18.1,14.05Z"/></g></g><g id="_编组_48" data-name="&lt;编组&gt;"><g id="_编组_49" data-name="&lt;编组&gt;"><path class="cls-155" d="M18.45,13.95a.66.66,0,0,0,0-.32l0,0v0l0,0a.66.66,0,0,1,0,.32,1.22,1.22,0,0,1-.13.31h0A1.14,1.14,0,0,0,18.45,13.95Z"/></g></g><g id="_编组_50" data-name="&lt;编组&gt;"><path id="_路径_37" data-name="&lt;路径&gt;" class="cls-155" d="M18.16,13.63q.08.3.15.61s0,0,0,0q-.07-.31-.15-.62s0,0,0,0Z"/></g><g id="_编组_51" data-name="&lt;编组&gt;"><path class="cls-149" d="M18.44,14.17h0a.09.09,0,0,0,0,0,.17.17,0,0,0-.06-.06h0l0,0a.06.06,0,0,0,0,0l0,0h0v0s0,0,0,0l-.06,0s0,0,0,0,0,.11.06.15a.6.6,0,0,0,.13.1l0,0h0v0a.45.45,0,0,0,0-.08.33.33,0,0,0,0-.11A.38.38,0,0,1,18.44,14.17Z"/></g><path id="_路径_38" data-name="&lt;路径&gt;" class="cls-149" d="M18.61,15.41a5,5,0,0,1-.24-1s-.05,0,0,0a5.44,5.44,0,0,0,.24,1.06c0,.1,0,.19.05.29h.05C18.66,15.64,18.64,15.53,18.61,15.41Z"/></g><g id="_编组_52" data-name="&lt;编组&gt;"><g id="_编组_53" data-name="&lt;编组&gt;"><path class="cls-156" d="M17.6,17.36l-.25-.13c-.42-.24-1.78-1.12-1.34-1.72a.66.66,0,0,1,.53-.22,1.61,1.61,0,0,1,.55.08.18.18,0,0,0,.11,0c.06,0,.08-.09.08-.16a1.33,1.33,0,0,1,.1-.49.73.73,0,0,1,1-.21c.18.09.38.23.56.15a1,1,0,0,0,.24-.21,1.18,1.18,0,0,1,.72-.23,1.11,1.11,0,0,1,.59.06.83.83,0,0,1,.27.23,2.12,2.12,0,0,1-.08,2.39,1.56,1.56,0,0,1-1.41.9A4.53,4.53,0,0,1,17.6,17.36Z"/></g><g id="_编组_54" data-name="&lt;编组&gt;" class="cls-157"><g id="_编组_55" data-name="&lt;编组&gt;"><path id="_路径_39" data-name="&lt;路径&gt;" class="cls-149" d="M16.47,15.71c1,.56,1.8,1.3,2.71,1.94h0c-.91-.64-1.75-1.38-2.71-1.94Z"/></g><g id="_编组_56" data-name="&lt;编组&gt;"><path id="_路径_40" data-name="&lt;路径&gt;" class="cls-149" d="M16.78,15.64a2.38,2.38,0,0,0,.24.42s0,0,0,0a2.37,2.37,0,0,1-.24-.41s0,0,0,0Z"/></g><g id="_编组_57" data-name="&lt;编组&gt;"><path id="_路径_41" data-name="&lt;路径&gt;" class="cls-149" d="M17.16,15.75a2.18,2.18,0,0,0,.28.6h0a2.16,2.16,0,0,1-.28-.6Z"/></g><g id="_编组_58" data-name="&lt;编组&gt;"><path id="_路径_42" data-name="&lt;路径&gt;" class="cls-149" d="M17.56,16a4.08,4.08,0,0,0,.29.66h0a4.06,4.06,0,0,1-.29-.66Z"/></g><g id="_编组_59" data-name="&lt;编组&gt;"><path id="_路径_43" data-name="&lt;路径&gt;" class="cls-149" d="M18,16.21a2.83,2.83,0,0,0,.38.83s0,0,0,0A2.81,2.81,0,0,1,18,16.2s0,0,0,0Z"/></g><g id="_编组_60" data-name="&lt;编组&gt;"><path id="_路径_44" data-name="&lt;路径&gt;" class="cls-149" d="M18.29,16.42q.28.52.59,1s0,0,0,0q-.31-.5-.59-1Z"/></g><g id="_编组_61" data-name="&lt;编组&gt;"><path id="_路径_45" data-name="&lt;路径&gt;" class="cls-149" d="M16.58,16a2.6,2.6,0,0,1,.51.09h0A2.6,2.6,0,0,0,16.6,16Z"/></g><g id="_编组_62" data-name="&lt;编组&gt;"><path id="_路径_46" data-name="&lt;路径&gt;" class="cls-149" d="M17.14,16.38a2.85,2.85,0,0,1,.53.14h0a2.86,2.86,0,0,0-.53-.15s0,0,0,0Z"/></g><g id="_编组_63" data-name="&lt;编组&gt;"><path id="_路径_47" data-name="&lt;路径&gt;" class="cls-149" d="M17.69,16.78a1.41,1.41,0,0,1,.46.11s0,0,0,0a1.44,1.44,0,0,0-.47-.11s0,0,0,0Z"/></g><g id="_编组_64" data-name="&lt;编组&gt;"><path id="_路径_48" data-name="&lt;路径&gt;" class="cls-149" d="M18,17.05a5.23,5.23,0,0,1,.57.12h0a1.72,1.72,0,0,1-.31-.09A.86.86,0,0,0,18,17Z"/></g><g id="_编组_65" data-name="&lt;编组&gt;"><path id="_路径_49" data-name="&lt;路径&gt;" class="cls-149" d="M18.35,17.33a2.24,2.24,0,0,1,.54.11h0a2.25,2.25,0,0,0-.55-.11s0,0,0,0Z"/></g></g><g id="_编组_66" data-name="&lt;编组&gt;" class="cls-157"><g id="_编组_67" data-name="&lt;编组&gt;"><path id="_路径_50" data-name="&lt;路径&gt;" class="cls-149" d="M17.86,14.73c.72.85,1.26,1.83,1.89,2.74h0c-.64-.91-1.18-1.89-1.89-2.74Z"/></g><g id="_编组_68" data-name="&lt;编组&gt;"><path id="_路径_51" data-name="&lt;路径&gt;" class="cls-149" d="M18.17,14.76a2.38,2.38,0,0,0,.09.48s0,0,0,0a2.36,2.36,0,0,1-.09-.47s0,0,0,0Z"/></g><g id="_编组_69" data-name="&lt;编组&gt;"><path id="_路径_52" data-name="&lt;路径&gt;" class="cls-149" d="M18.5,15a2.18,2.18,0,0,0,.06.66h0a2.16,2.16,0,0,1-.06-.66Z"/></g><g id="_编组_70" data-name="&lt;编组&gt;"><path id="_路径_53" data-name="&lt;路径&gt;" class="cls-149" d="M18.79,15.36a4.07,4.07,0,0,0,0,.71h0a4.07,4.07,0,0,1,0-.71Z"/></g><g id="_编组_71" data-name="&lt;编组&gt;"><path id="_路径_54" data-name="&lt;路径&gt;" class="cls-149" d="M19.1,15.7a2.83,2.83,0,0,0,.08.91s0,0,0,0a2.81,2.81,0,0,1-.08-.9s0,0,0,0Z"/></g><g id="_编组_72" data-name="&lt;编组&gt;"><path id="_路径_55" data-name="&lt;路径&gt;" class="cls-149" d="M19.34,16q.09.58.21,1.15s0,0,0,0q-.12-.57-.21-1.15Z"/></g><g id="_编组_73" data-name="&lt;编组&gt;"><path id="_路径_56" data-name="&lt;路径&gt;" class="cls-149" d="M17.86,15.06a2.59,2.59,0,0,1,.45.25h0a2.61,2.61,0,0,0-.45-.25Z"/></g><g id="_编组_74" data-name="&lt;编组&gt;"><path id="_路径_57" data-name="&lt;路径&gt;" class="cls-149" d="M18.26,15.58a2.85,2.85,0,0,1,.45.31h0a2.87,2.87,0,0,0-.45-.32s0,0,0,0Z"/></g><g id="_编组_75" data-name="&lt;编组&gt;"><path id="_路径_58" data-name="&lt;路径&gt;" class="cls-149" d="M18.65,16.15c.16,0,.26.17.4.26s0,0,0,0-.24-.22-.41-.26c0,0,0,0,0,0Z"/></g><g id="_编组_76" data-name="&lt;编组&gt;"><path id="_路径_59" data-name="&lt;路径&gt;" class="cls-149" d="M18.81,16.49a5.27,5.27,0,0,1,.5.3h0a1.73,1.73,0,0,1-.27-.19.86.86,0,0,0-.23-.12Z"/></g><g id="_编组_77" data-name="&lt;编组&gt;"><path id="_路径_60" data-name="&lt;路径&gt;" class="cls-149" d="M19.08,16.89a2.24,2.24,0,0,1,.47.29h0a2.26,2.26,0,0,0-.48-.29Z"/></g></g><g id="_编组_78" data-name="&lt;编组&gt;" class="cls-157"><g id="_编组_79" data-name="&lt;编组&gt;"><path id="_路径_61" data-name="&lt;路径&gt;" class="cls-149" d="M19.9,14.18c.2,1.1.18,2.21.28,3.32h0c-.1-1.11-.08-2.23-.28-3.32Z"/></g><g id="_编组_80" data-name="&lt;编组&gt;"><path id="_路径_62" data-name="&lt;路径&gt;" class="cls-149" d="M20.15,14.37a2.39,2.39,0,0,0-.16.46s0,0,0,0a2.36,2.36,0,0,1,.16-.45s0,0,0,0Z"/></g><g id="_编组_81" data-name="&lt;编组&gt;"><path id="_路径_63" data-name="&lt;路径&gt;" class="cls-149" d="M20.32,14.73a2.17,2.17,0,0,0-.28.6h0a2.16,2.16,0,0,1,.28-.6Z"/></g><g id="_编组_82" data-name="&lt;编组&gt;"><path id="_路径_64" data-name="&lt;路径&gt;" class="cls-149" d="M20.39,15.19a4.07,4.07,0,0,0-.31.64h0a4.07,4.07,0,0,1,.31-.64Z"/></g><g id="_编组_83" data-name="&lt;编组&gt;"><path id="_路径_65" data-name="&lt;路径&gt;" class="cls-149" d="M20.5,15.64a2.83,2.83,0,0,0-.38.82s0,0,0,0a2.81,2.81,0,0,1,.38-.82s0,0,0,0Z"/></g><g id="_编组_84" data-name="&lt;编组&gt;"><path id="_路径_66" data-name="&lt;路径&gt;" class="cls-149" d="M20.54,16q-.21.55-.39,1.11s0,0,0,0q.18-.56.39-1.1s0,0,0,0Z"/></g><g id="_编组_85" data-name="&lt;编组&gt;"><path id="_路径_67" data-name="&lt;路径&gt;" class="cls-149" d="M19.73,14.47a2.59,2.59,0,0,1,.26.44h0a2.61,2.61,0,0,0-.27-.45Z"/></g><g id="_编组_86" data-name="&lt;编组&gt;"><path id="_路径_68" data-name="&lt;路径&gt;" class="cls-149" d="M19.83,15.12a2.85,2.85,0,0,1,.23.49h0a2.87,2.87,0,0,0-.23-.5s0,0,0,0Z"/></g><g id="_编组_87" data-name="&lt;编组&gt;"><path id="_路径_69" data-name="&lt;路径&gt;" class="cls-149" d="M19.88,15.8c.12.11.14.28.22.42h0c-.08-.14-.1-.31-.23-.43s0,0,0,0Z"/></g><g id="_编组_88" data-name="&lt;编组&gt;"><path id="_路径_70" data-name="&lt;路径&gt;" class="cls-149" d="M19.84,16.18a5.27,5.27,0,0,1,.28.51h0a1.73,1.73,0,0,1-.14-.3.86.86,0,0,0-.14-.21Z"/></g><g id="_编组_89" data-name="&lt;编组&gt;"><path id="_路径_71" data-name="&lt;路径&gt;" class="cls-149" d="M19.88,16.66a2.24,2.24,0,0,1,.27.48h0a2.25,2.25,0,0,0-.27-.49Z"/></g></g></g><g id="_编组_90" data-name="&lt;编组&gt;"><g id="_编组_91" data-name="&lt;编组&gt;"><path class="cls-158" d="M23,17.35l.25-.13c.42-.24,1.78-1.12,1.34-1.72a.66.66,0,0,0-.53-.22,1.61,1.61,0,0,0-.55.08.18.18,0,0,1-.11,0c-.06,0-.08-.09-.08-.16a1.33,1.33,0,0,0-.1-.49.73.73,0,0,0-1-.21c-.18.09-.38.23-.56.15a1,1,0,0,1-.24-.21,1.18,1.18,0,0,0-.72-.23,1.11,1.11,0,0,0-.59.06.83.83,0,0,0-.27.23A2.12,2.12,0,0,0,20,16.91a1.56,1.56,0,0,0,1.41.9A4.53,4.53,0,0,0,23,17.35Z"/></g><g id="_编组_92" data-name="&lt;编组&gt;" class="cls-157"><g id="_编组_93" data-name="&lt;编组&gt;"><path id="_路径_72" data-name="&lt;路径&gt;" class="cls-149" d="M24.13,15.7c-1,.56-1.8,1.3-2.71,1.94h0c.91-.64,1.75-1.38,2.71-1.94Z"/></g><g id="_编组_94" data-name="&lt;编组&gt;"><path id="_路径_73" data-name="&lt;路径&gt;" class="cls-149" d="M23.82,15.63a2.39,2.39,0,0,1-.24.42s0,0,0,0a2.36,2.36,0,0,0,.24-.41s0,0,0,0Z"/></g><g id="_编组_95" data-name="&lt;编组&gt;"><path id="_路径_74" data-name="&lt;路径&gt;" class="cls-149" d="M23.44,15.73a2.18,2.18,0,0,1-.28.6h0a2.16,2.16,0,0,0,.28-.6Z"/></g><g id="_编组_96" data-name="&lt;编组&gt;"><path id="_路径_75" data-name="&lt;路径&gt;" class="cls-149" d="M23,16a4.07,4.07,0,0,1-.29.66h0A4.07,4.07,0,0,0,23,16Z"/></g><g id="_编组_97" data-name="&lt;编组&gt;"><path id="_路径_76" data-name="&lt;路径&gt;" class="cls-149" d="M22.63,16.19a2.83,2.83,0,0,1-.38.83s0,0,0,0a2.81,2.81,0,0,0,.38-.82s0,0,0,0Z"/></g><g id="_编组_98" data-name="&lt;编组&gt;"><path id="_路径_77" data-name="&lt;路径&gt;" class="cls-149" d="M22.31,16.41q-.28.52-.59,1s0,0,0,0q.31-.5.59-1Z"/></g><g id="_编组_99" data-name="&lt;编组&gt;"><path id="_路径_78" data-name="&lt;路径&gt;" class="cls-149" d="M24,16a2.59,2.59,0,0,0-.51.09h0A2.62,2.62,0,0,1,24,16Z"/></g><g id="_编组_100" data-name="&lt;编组&gt;"><path id="_路径_79" data-name="&lt;路径&gt;" class="cls-149" d="M23.47,16.36a2.85,2.85,0,0,0-.53.14s0,0,0,0a2.87,2.87,0,0,1,.53-.15s0,0,0,0Z"/></g><g id="_编组_101" data-name="&lt;编组&gt;"><path id="_路径_80" data-name="&lt;路径&gt;" class="cls-149" d="M22.91,16.77a1.41,1.41,0,0,0-.46.11s0,0,0,0a1.43,1.43,0,0,1,.47-.11s0,0,0,0Z"/></g><g id="_编组_102" data-name="&lt;编组&gt;"><path id="_路径_81" data-name="&lt;路径&gt;" class="cls-149" d="M22.64,17a5.28,5.28,0,0,0-.57.12h0a1.71,1.71,0,0,0,.31-.09.86.86,0,0,1,.25,0Z"/></g><g id="_编组_103" data-name="&lt;编组&gt;"><path id="_路径_82" data-name="&lt;路径&gt;" class="cls-149" d="M22.26,17.32a2.24,2.24,0,0,0-.54.11h0a2.25,2.25,0,0,1,.55-.11s0,0,0,0Z"/></g></g><g id="_编组_104" data-name="&lt;编组&gt;" class="cls-157"><g id="_编组_105" data-name="&lt;编组&gt;"><path id="_路径_83" data-name="&lt;路径&gt;" class="cls-149" d="M22.74,14.71c-.72.85-1.26,1.83-1.89,2.74h0c.64-.91,1.18-1.89,1.89-2.74Z"/></g><g id="_编组_106" data-name="&lt;编组&gt;"><path id="_路径_84" data-name="&lt;路径&gt;" class="cls-149" d="M22.43,14.75a2.38,2.38,0,0,1-.09.48s0,0,0,0a2.36,2.36,0,0,0,.09-.47s0,0,0,0Z"/></g><g id="_编组_107" data-name="&lt;编组&gt;"><path id="_路径_85" data-name="&lt;路径&gt;" class="cls-149" d="M22.1,15a2.18,2.18,0,0,1-.06.66h0a2.16,2.16,0,0,0,.06-.66Z"/></g><g id="_编组_108" data-name="&lt;编组&gt;"><path id="_路径_86" data-name="&lt;路径&gt;" class="cls-149" d="M21.81,15.35a4.07,4.07,0,0,1,0,.71h0a4.08,4.08,0,0,0,0-.71Z"/></g><g id="_编组_109" data-name="&lt;编组&gt;"><path id="_路径_87" data-name="&lt;路径&gt;" class="cls-149" d="M21.5,15.68a2.83,2.83,0,0,1-.08.91s0,0,0,0a2.81,2.81,0,0,0,.07-.9s0,0,0,0Z"/></g><g id="_编组_110" data-name="&lt;编组&gt;"><path id="_路径_88" data-name="&lt;路径&gt;" class="cls-149" d="M21.26,16q-.09.58-.21,1.15s0,0,0,0q.12-.57.21-1.15Z"/></g><g id="_编组_111" data-name="&lt;编组&gt;"><path id="_路径_89" data-name="&lt;路径&gt;" class="cls-149" d="M22.74,15a2.6,2.6,0,0,0-.45.25h0a2.62,2.62,0,0,1,.45-.25Z"/></g><g id="_编组_112" data-name="&lt;编组&gt;"><path id="_路径_90" data-name="&lt;路径&gt;" class="cls-149" d="M22.34,15.56a2.85,2.85,0,0,0-.45.31h0a2.86,2.86,0,0,1,.45-.32s0,0,0,0Z"/></g><g id="_编组_113" data-name="&lt;编组&gt;"><path id="_路径_91" data-name="&lt;路径&gt;" class="cls-149" d="M22,16.13c-.16,0-.26.17-.4.26s0,0,0,0,.24-.22.41-.26c0,0,0,0,0,0Z"/></g><g id="_编组_114" data-name="&lt;编组&gt;"><path id="_路径_92" data-name="&lt;路径&gt;" class="cls-149" d="M21.79,16.48a5.24,5.24,0,0,0-.5.3h0a1.72,1.72,0,0,0,.27-.19.86.86,0,0,1,.23-.12Z"/></g><g id="_编组_115" data-name="&lt;编组&gt;"><path id="_路径_93" data-name="&lt;路径&gt;" class="cls-149" d="M21.52,16.87a2.25,2.25,0,0,0-.47.29h0a2.25,2.25,0,0,1,.48-.29Z"/></g></g><g id="_编组_116" data-name="&lt;编组&gt;" class="cls-157"><g id="_编组_117" data-name="&lt;编组&gt;"><path id="_路径_94" data-name="&lt;路径&gt;" class="cls-149" d="M20.7,14.16c-.2,1.1-.18,2.21-.28,3.32h0c.1-1.11.08-2.22.28-3.32Z"/></g><g id="_编组_118" data-name="&lt;编组&gt;"><path id="_路径_95" data-name="&lt;路径&gt;" class="cls-149" d="M20.45,14.35a2.38,2.38,0,0,1,.16.46s0,0,0,0a2.36,2.36,0,0,0-.16-.45s0,0,0,0Z"/></g><g id="_编组_119" data-name="&lt;编组&gt;"><path id="_路径_96" data-name="&lt;路径&gt;" class="cls-149" d="M20.28,14.71a2.18,2.18,0,0,1,.28.6h0a2.16,2.16,0,0,0-.28-.6Z"/></g><g id="_编组_120" data-name="&lt;编组&gt;"><path id="_路径_97" data-name="&lt;路径&gt;" class="cls-149" d="M20.21,15.18a4.06,4.06,0,0,1,.31.64h0a4.07,4.07,0,0,0-.31-.64Z"/></g><g id="_编组_121" data-name="&lt;编组&gt;"><path id="_路径_98" data-name="&lt;路径&gt;" class="cls-149" d="M20.11,15.63a2.83,2.83,0,0,1,.38.82s0,0,0,0a2.81,2.81,0,0,0-.38-.82s0,0,0,0Z"/></g><g id="_编组_122" data-name="&lt;编组&gt;"><path id="_路径_99" data-name="&lt;路径&gt;" class="cls-149" d="M20.06,16q.21.55.39,1.11s0,0,0,0q-.18-.56-.39-1.1s0,0,0,0Z"/></g><g id="_编组_123" data-name="&lt;编组&gt;"><path id="_路径_100" data-name="&lt;路径&gt;" class="cls-149" d="M20.87,14.45a2.59,2.59,0,0,0-.26.44h0a2.61,2.61,0,0,1,.27-.45Z"/></g><g id="_编组_124" data-name="&lt;编组&gt;"><path id="_路径_101" data-name="&lt;路径&gt;" class="cls-149" d="M20.77,15.1a2.85,2.85,0,0,0-.23.49h0a2.88,2.88,0,0,1,.23-.5s0,0,0,0Z"/></g><g id="_编组_125" data-name="&lt;编组&gt;"><path id="_路径_102" data-name="&lt;路径&gt;" class="cls-149" d="M20.72,15.79c-.12.11-.14.28-.22.42h0c.08-.14.1-.31.23-.43s0,0,0,0Z"/></g><g id="_编组_126" data-name="&lt;编组&gt;"><path id="_路径_103" data-name="&lt;路径&gt;" class="cls-149" d="M20.76,16.17a5.24,5.24,0,0,0-.28.51h0a1.72,1.72,0,0,0,.14-.3.86.86,0,0,1,.14-.21Z"/></g><g id="_编组_127" data-name="&lt;编组&gt;"><path id="_路径_104" data-name="&lt;路径&gt;" class="cls-149" d="M20.72,16.64a2.25,2.25,0,0,0-.27.48h0a2.26,2.26,0,0,1,.27-.49Z"/></g></g></g><path id="_路径_105" data-name="&lt;路径&gt;" class="cls-149" d="M21,17.84a.62.62,0,0,0-.09-.21.89.89,0,0,0-.29.15h0a.68.68,0,0,0-.27-.7.86.86,0,0,0-.26.38.81.81,0,0,0-.52-.5,1.12,1.12,0,0,0-.14.32l-.07,0a.68.68,0,0,0,0-.75.83.83,0,0,0-.47.36.67.67,0,0,0-.48-.44.86.86,0,0,0-.1.44l-.13,0a.65.65,0,0,0-.25-.32.92.92,0,0,0-.17.2h-.07a.68.68,0,0,0-.5-.53.85.85,0,0,0-.11.45H17a.66.66,0,0,0-.2-.48.83.83,0,0,0-.4.56h0a.56.56,0,0,0-.06-.13.85.85,0,0,0-.4.27.66.66,0,0,0-.35-.32.83.83,0,0,0-.15.69h0a.66.66,0,0,0-.44-.1.89.89,0,0,0,0,.33l-.11,0a.66.66,0,0,0-.33-.28.91.91,0,0,0-.13.25.64.64,0,0,0-.31-.07,1,1,0,0,0,0,.21l-.39,0a.65.65,0,0,0-.32-.27.92.92,0,0,0-.12.23.79.79,0,0,0-.37-.25,1.13,1.13,0,0,0-.13.3l-.08,0a.66.66,0,0,0-.46-.11.9.9,0,0,0,0,.32l-.05,0Z"/><path id="_路径_106" data-name="&lt;路径&gt;" class="cls-149" d="M26.73,17.84a.63.63,0,0,0-.09-.21.89.89,0,0,0-.29.15h0a.68.68,0,0,0-.27-.7.85.85,0,0,0-.26.38.81.81,0,0,0-.52-.5,1.12,1.12,0,0,0-.14.32l-.07,0a.68.68,0,0,0,0-.75.83.83,0,0,0-.47.36.67.67,0,0,0-.48-.44.86.86,0,0,0-.1.44l-.13,0a.65.65,0,0,0-.25-.32.92.92,0,0,0-.17.2h-.07a.68.68,0,0,0-.5-.53.85.85,0,0,0-.11.45h-.08a.66.66,0,0,0-.2-.48.83.83,0,0,0-.4.56h0a.56.56,0,0,0-.06-.13.85.85,0,0,0-.4.27.66.66,0,0,0-.35-.32.83.83,0,0,0-.15.69h0a.66.66,0,0,0-.44-.1.89.89,0,0,0,0,.33l-.11,0a.66.66,0,0,0-.33-.28.92.92,0,0,0-.13.25.64.64,0,0,0-.31-.07,1,1,0,0,0,0,.21l-.39,0a.65.65,0,0,0-.32-.27.92.92,0,0,0-.12.23.79.79,0,0,0-.37-.25,1.13,1.13,0,0,0-.13.3l-.08,0a.66.66,0,0,0-.46-.11.9.9,0,0,0,0,.32l-.06,0Z"/><g id="_编组_128" data-name="&lt;编组&gt;"><rect id="_矩形_4" data-name="&lt;矩形&gt;" class="cls-146" x="21.94" y="17.15" width="0.46" height="1.19"/><g id="_编组_129" data-name="&lt;编组&gt;"><path class="cls-159" d="M22.58,18.53a.76.76,0,0,1,0-.31c0-.06,0-.22-.09-.22a.11.11,0,0,0-.09.06.56.56,0,0,0,0,.11.28.28,0,0,1-.07.12.15.15,0,0,1-.12,0,.17.17,0,0,1-.08-.05.29.29,0,0,1-.08-.16.22.22,0,0,0,0-.11.11.11,0,0,0-.1,0l-.1,0a.47.47,0,0,0-.11.07l-.07.07-.22.15a1.83,1.83,0,0,1-.48.2.65.65,0,0,0-.24.09.18.18,0,0,0-.07.22.25.25,0,0,0,.18.09,6.57,6.57,0,0,0,1.68,0c.11,0,.25,0,.27-.14S22.62,18.62,22.58,18.53Z"/></g><rect id="_矩形_5" data-name="&lt;矩形&gt;" class="cls-146" x="20.72" y="17.21" width="0.46" height="1.19"/><g id="_编组_130" data-name="&lt;编组&gt;"><path class="cls-149" d="M21.36,18.58a.76.76,0,0,1,0-.31c0-.06,0-.22-.09-.22a.11.11,0,0,0-.09.06.56.56,0,0,0,0,.11.28.28,0,0,1-.07.12.15.15,0,0,1-.12,0,.17.17,0,0,1-.08-.05.29.29,0,0,1-.08-.16.22.22,0,0,0,0-.11.11.11,0,0,0-.1,0l-.1,0a.47.47,0,0,0-.11.07l-.07.07-.22.15a1.83,1.83,0,0,1-.48.2.65.65,0,0,0-.24.09.18.18,0,0,0-.07.22.25.25,0,0,0,.18.09,6.57,6.57,0,0,0,1.68,0c.11,0,.25,0,.27-.14S21.4,18.67,21.36,18.58Z"/></g><g id="_编组_131" data-name="&lt;编组&gt;"><path class="cls-160" d="M22.51,16.1a5.52,5.52,0,0,0-.1-.64c0-.16-.08-.32-.11-.47a11,11,0,0,1-.07-2.28,1.63,1.63,0,0,0-.07-.56.58.58,0,0,0-.37-.38l-1.2.17A6.14,6.14,0,0,0,21,14.28c.07.17.15.35.21.52a22.86,22.86,0,0,1,.52,2.55.64.64,0,0,0,.14.31.51.51,0,0,0,.34.13.28.28,0,0,0,.27-.09.34.34,0,0,0,0-.16A9.31,9.31,0,0,0,22.51,16.1Z"/></g><g id="_编组_132" data-name="&lt;编组&gt;"><path class="cls-161" d="M20.53,16.36a5.72,5.72,0,0,1,0-.68c0-.17,0-.34.06-.51a11.41,11.41,0,0,0-.2-2.38,1.7,1.7,0,0,1,0-.59.61.61,0,0,1,.35-.44l1.28,0a6.38,6.38,0,0,1-.18,2.5c-.05.19-.11.38-.16.57a23.72,23.72,0,0,0-.24,2.72.67.67,0,0,1-.11.34.55.55,0,0,1-.35.17.3.3,0,0,1-.3-.07.35.35,0,0,1-.06-.16A9.64,9.64,0,0,1,20.53,16.36Z"/></g><g id="_编组_133" data-name="&lt;编组&gt;"><path id="_路径_107" data-name="&lt;路径&gt;" class="cls-149" d="M21.7,14.85a7.5,7.5,0,0,0-.16,1.36,4.18,4.18,0,0,1-.19,1.7s0,0,0,0a3,3,0,0,0,.18-1.3,9.48,9.48,0,0,1,.18-1.76s0,0,0,0Z"/></g><g id="_编组_134" data-name="&lt;编组&gt;"><path id="_路径_108" data-name="&lt;路径&gt;" class="cls-149" d="M22,11.78a8,8,0,0,1-.34,3.07,0,0,0,0,0,0,0,8,8,0,0,0,.34-3.07s0,0,0,0Z"/></g><g id="_编组_135" data-name="&lt;编组&gt;"><path class="cls-146" d="M18.28,7.43l-.1-.11a1.09,1.09,0,0,0-.5-.33s-.09,0-.1,0a.07.07,0,0,0,0,0,.44.44,0,0,1,.09.15.05.05,0,0,1,0,0l0,0s0,.1,0,.15c.1.2.31.24.44.4s.34.44.52.65a4.57,4.57,0,0,0,.61.62,1.89,1.89,0,0,0,.77.39,3.21,3.21,0,0,0,.76,0c.07,0,.22,0,.26,0s0-.19,0-.25a2.23,2.23,0,0,1,0-.52A1.61,1.61,0,0,1,20,9a2.08,2.08,0,0,1-1.05-.8C18.69,7.93,18.5,7.67,18.28,7.43Z"/></g><g id="_编组_136" data-name="&lt;编组&gt;"><path class="cls-146" d="M21.49,7.15a.49.49,0,0,0-.19-.26.22.22,0,0,0-.29,0h0c-.15.12-.1.36-.19.53a.7.7,0,0,0-.07.12.34.34,0,0,0,0,.15l0,.28c0,.09,0,.2.12.24a.27.27,0,0,0,.22,0l.21-.12a.51.51,0,0,0,.24-.22.44.44,0,0,0,0-.16A1.43,1.43,0,0,0,21.49,7.15Z"/></g><path class="cls-146" d="M21.87,7.59l-.66.22a1.78,1.78,0,0,1,.15.85v0l.57-.29Z"/><g id="_编组_137" data-name="&lt;编组&gt;"><path class="cls-51" d="M21.12,8.56c-.94.37-.53,1.63-.64,2.38-.05.36-.2.71-.27,1.07a.48.48,0,0,0,.05.4.37.37,0,0,0,.33.1,1.55,1.55,0,0,0,.34-.11,2.43,2.43,0,0,1,1-.17.47.47,0,0,0,.35-.07.4.4,0,0,0,0-.39,4.16,4.16,0,0,1-.23-1,2,2,0,0,1,.17-.77,2.26,2.26,0,0,0,.27-.71.56.56,0,0,0,0-.18,1,1,0,0,0-.2-.42A1,1,0,0,0,22,8.56,1.13,1.13,0,0,0,21.12,8.56Z"/></g><g id="_编组_138" data-name="&lt;编组&gt;"><path class="cls-162" d="M20.25,12.42c.24.2.49.06.76,0a2.78,2.78,0,0,1,.9-.14.58.58,0,0,0,.36-.08s0,0,0,0c-.21.14-.6.07-.84.11s-.86.38-1.14.15c0,0,0,0,0,0Z"/></g><g id="_编组_139" data-name="&lt;编组&gt;"><path id="_路径_109" data-name="&lt;路径&gt;" class="cls-149" d="M22.12,11.06a2.63,2.63,0,0,1,.35-1.45.72.72,0,0,0,0-.59,1,1,0,0,0-1.22-.51c-1.07.32-.66,1.62-.76,2.43,0,0,0,0,0,0,.09-.74-.29-1.91.55-2.33a1.07,1.07,0,0,1,1.22.14.92.92,0,0,1,.09,1,2.11,2.11,0,0,0-.26,1.29s0,0,0,0Z"/></g><g id="_编组_140" data-name="&lt;编组&gt;"><rect id="_矩形_6" data-name="&lt;矩形&gt;" class="cls-5" x="21.59" y="11.18" width="2.87" height="1.69" rx="0.28" ry="0.28"/><rect id="_矩形_7" data-name="&lt;矩形&gt;" class="cls-99" x="21.87" y="11.37" width="1.16" height="0.1"/><rect id="_矩形_8" data-name="&lt;矩形&gt;" class="cls-163" x="21.87" y="11.59" width="0.58" height="0.1"/><path id="_路径_110" data-name="&lt;路径&gt;" class="cls-164" d="M21.74,12.63a4.89,4.89,0,0,1,.3-.41.25.25,0,0,1,.14-.09.27.27,0,0,1,.21.1.5.5,0,0,0,.24.15.52.52,0,0,0,.33-.09.77.77,0,0,0,.24-.18c.06-.08.1-.18.17-.23l0,0a.1.1,0,0,1,.08,0,.59.59,0,0,1,.1.21.24.24,0,0,0,.15.17c.1,0,.19-.06.24-.15a.59.59,0,0,1,.18-.24.09.09,0,0,1,.09,0,.11.11,0,0,1,0,.09l0,.43a.53.53,0,0,1,0,.25Z"/></g><g id="_编组_141" data-name="&lt;编组&gt;"><path class="cls-146" d="M22.85,10.12a8.55,8.55,0,0,1,.22,1.33c0,.24,0,.48,0,.72s.15.41.15.64c0,.06,0,.13-.06.15h-.3c-.06,0-.13,0-.16,0s0-.13,0-.19a.06.06,0,0,0,0,0c0-.07-.08-.09,0-.18s.08-.1.1-.16a.7.7,0,0,0,0-.35c0-.27-.07-.55-.12-.82A6.14,6.14,0,0,0,22,9.36l.47-.19.1.2c.05.1.1.2.14.31A3,3,0,0,1,22.85,10.12Z"/></g><g id="_编组_142" data-name="&lt;编组&gt;"><path id="_路径_111" data-name="&lt;路径&gt;" class="cls-149" d="M21,6.92c-.13.13-.11.31-.17.47a.9.9,0,0,0-.1.25,1.61,1.61,0,0,0,0,.36c.06.38.31.23.57.09a0,0,0,0,0,0,0c-.14.08-.4.22-.51,0a1,1,0,0,1,0-.59c0-.06.07-.11.08-.18s0-.28.15-.4a0,0,0,0,0,0,0Z"/></g><g id="_编组_143" data-name="&lt;编组&gt;"><path class="cls-165" d="M22.28,7.19a.88.88,0,0,0,.05.24c.08.17.29.24.38.4s0,.52,0,.78.13.27.16.42a.49.49,0,1,1-1,.2A.38.38,0,0,0,21.87,9c-.06-.06-.16,0-.24-.08a.38.38,0,0,1-.22-.33,3.52,3.52,0,0,1,0-.41,1.09,1.09,0,0,0-.09-.44c-.05-.12-.06-.29-.17-.38s-.26-.05-.4-.11a.24.24,0,0,1-.15-.18.35.35,0,0,1,.11-.26,1,1,0,0,1,1-.28.85.85,0,0,1,.52.63Z"/></g></g><path id="_复合路径_" data-name="&lt;复合路径&gt;" class="cls-166" d="M10.54,17.84h.24a.09.09,0,0,0,.09-.09v-.31a.09.09,0,0,0-.09-.09h-.19a.07.07,0,0,1-.07,0l0-.05a.07.07,0,0,1,0-.08l.13-.13a.09.09,0,0,0,0-.13l-.22-.22a.09.09,0,0,0-.13,0l-.13.13a.07.07,0,0,1-.08,0l-.06,0a.07.07,0,0,1,0-.07v-.19a.09.09,0,0,0-.09-.09H9.59a.09.09,0,0,0-.09.09v.19a.07.07,0,0,1,0,.07l-.05,0a.07.07,0,0,1-.08,0l-.13-.13a.09.09,0,0,0-.13,0l-.22.22a.09.09,0,0,0,0,.13l.14.13a.07.07,0,0,1,0,.08l0,.06a.07.07,0,0,1-.07,0H8.7a.09.09,0,0,0-.09.09v.31a.09.09,0,0,0,.09.09h.19a.07.07,0,0,1,.07,0l0,.05A.07.07,0,0,1,9,18l-.13.13a.09.09,0,0,0,0,.13l.22.22a.09.09,0,0,0,.13,0l.13-.14a.07.07,0,0,1,.08,0l.06,0a.07.07,0,0,1,0,.07v.19a.09.09,0,0,0,.09.09H9.9a.09.09,0,0,0,.09-.09v-.19a.07.07,0,0,1,0-.07l.05,0a.07.07,0,0,1,.08,0l.13.13a.09.09,0,0,0,.13,0l.22-.22a.09.09,0,0,0,0-.13L10.51,18a.07.07,0,0,1,0-.08Zm-1.23-.32a.44.44,0,1,1,.27.49A.44.44,0,0,1,9.31,17.52Z"/><rect class="cls-167" x="12.11" y="16.62" width="2.06" height="2.06" rx="0.21" ry="0.21"/><path class="cls-5" d="M12.6,17.71h0l.28.09V18l-.45-.18v-.13l.45-.18v.15Z"/><path class="cls-5" d="M13.1,18h-.17l.25-.8h.17Z"/><path class="cls-5" d="M13.68,17.71h0l-.28-.09v-.15l.44.18v.13l-.44.18v-.15Z"/><g id="_编组_144" data-name="&lt;编组&gt;"><g id="_编组_145" data-name="&lt;编组&gt;"><circle id="_路径_112" data-name="&lt;路径&gt;" class="cls-51" cx="11.08" cy="17.93" r="0.72"/></g><g id="_编组_146" data-name="&lt;编组&gt;"><path id="_路径_113" data-name="&lt;路径&gt;" class="cls-5" d="M11.34,18.34l-.25-.13h0l-.25.13a0,0,0,0,1,0,0l0-.28h0l-.2-.19a0,0,0,0,1,0,0l.28,0h0l.12-.25a0,0,0,0,1,0,0l.13.25h0l.28,0a0,0,0,0,1,0,0l-.2.2h0l.05.27A0,0,0,0,1,11.34,18.34Z"/></g></g><g id="_编组_147" data-name="&lt;编组&gt;"><g id="_编组_148" data-name="&lt;编组&gt;"><g id="_编组_149" data-name="&lt;编组&gt;"><rect id="_矩形_9" data-name="&lt;矩形&gt;" class="cls-163" x="14.49" y="17.48" width="1.49" height="1.12" rx="0.15" ry="0.15"/></g></g><g id="_编组_150" data-name="&lt;编组&gt;"><g id="_编组_151" data-name="&lt;编组&gt;"><polygon id="_路径_114" data-name="&lt;路径&gt;" class="cls-5" points="15.54 18.04 14.94 18.38 14.94 17.69 15.54 18.04 14.94 18.38 14.94 17.69 15.54 18.04"/></g></g></g><circle id="_路径_115" data-name="&lt;路径&gt;" class="cls-168" cx="16.58" cy="18.07" r="0.53"/><g id="_编组_152" data-name="&lt;编组&gt;"><polygon id="_路径_116" data-name="&lt;路径&gt;" class="cls-5" points="16.52 18.28 16.33 18.1 16.43 17.99 16.52 18.07 16.73 17.85 16.84 17.96 16.52 18.28"/></g><circle class="cls-97" cx="17.72" cy="3.99" r="0.09"/><circle class="cls-97" cx="9.47" cy="11.01" r="0.09"/><circle class="cls-97" cx="5.7" cy="4.07" r="0.09"/><circle class="cls-97" cx="24.67" cy="10.14" r="0.09"/><circle class="cls-97" cx="18.97" cy="13.85" r="0.09"/><circle class="cls-97" cx="18.64" cy="4.46" r="0.09"/><circle class="cls-97" cx="22.52" cy="6.6" r="0.09"/><circle class="cls-97" cx="16.86" cy="4.48" r="0.05"/><circle class="cls-97" cx="23.02" cy="7.38" r="0.05"/><circle class="cls-97" cx="10.51" cy="10.87" r="0.05"/><circle class="cls-97" cx="6.53" cy="5.51" r="0.05"/><circle class="cls-97" cx="7.43" cy="5.45" r="0.05"/><circle class="cls-97" cx="21.25" cy="4.57" r="0.05"/><circle class="cls-97" cx="23.25" cy="10.37" r="0.05"/><circle class="cls-97" cx="18.54" cy="12.87" r="0.05"/><circle class="cls-97" cx="10.38" cy="6.68" r="0.05"/><circle id="_路径_117" data-name="&lt;路径&gt;" class="cls-149" cx="18.02" cy="2.76" r="0.18" transform="translate(3.33 13.55) rotate(-45)"/><circle id="_路径_118" data-name="&lt;路径&gt;" class="cls-149" cx="9.81" cy="13.02" r="0.11" transform="translate(-6.34 10.75) rotate(-45)"/><circle id="_路径_119" data-name="&lt;路径&gt;" class="cls-149" cx="4.92" cy="5.37" r="0.11" transform="translate(-2.36 5.05) rotate(-44.98)"/><circle id="_路径_120" data-name="&lt;路径&gt;" class="cls-149" cx="23.47" cy="5.25" r="0.18" transform="translate(3.16 18.13) rotate(-45)"/><circle id="_路径_121" data-name="&lt;路径&gt;" class="cls-51" cx="10.64" cy="7.31" r="0.03" transform="translate(-2.05 9.66) rotate(-45)"/><circle id="_路径_122" data-name="&lt;路径&gt;" class="cls-166" cx="10.29" cy="11.91" r="0.09" transform="translate(-5.41 10.77) rotate(-45)"/><circle id="_路径_123" data-name="&lt;路径&gt;" class="cls-166" cx="7.38" cy="4.48" r="0.09" transform="translate(-1.01 6.53) rotate(-45)"/><circle id="_路径_124" data-name="&lt;路径&gt;" class="cls-166" cx="19.45" cy="13.19" r="0.09" transform="translate(-3.63 17.62) rotate(-45)"/><circle id="_路径_125" data-name="&lt;路径&gt;" class="cls-166" cx="24.01" cy="6.99" r="0.14" transform="translate(2.09 19.02) rotate(-45)"/><circle id="_路径_126" data-name="&lt;路径&gt;" class="cls-166" cx="9.65" cy="7.13" r="0.09" transform="translate(-2.22 8.91) rotate(-45)"/><circle id="_路径_127" data-name="&lt;路径&gt;" class="cls-166" cx="9.05" cy="11.91" r="0.15" transform="translate(-5.77 9.89) rotate(-45)"/><circle id="_路径_128" data-name="&lt;路径&gt;" class="cls-166" cx="17" cy="2.82" r="0.07" transform="translate(2.98 12.85) rotate(-45)"/><ellipse class="cls-169" cx="22.27" cy="0.89" rx="2.47" ry="0.89"/></g></g></g></svg>