<svg xmlns="http://www.w3.org/2000/svg" xmlns:xlink="http://www.w3.org/1999/xlink" viewBox="0 0 35.1 22.03"><defs><style>.cls-1{fill:#5ddaf4;}.cls-2{isolation:isolate;}.cls-3{fill:#150d9c;}.cls-4{fill:url(#linear-gradient);}.cls-5{fill:url(#linear-gradient-2);}.cls-6{fill:url(#linear-gradient-3);}.cls-7{fill:url(#linear-gradient-4);}.cls-22,.cls-8{fill:#0d035c;}.cls-9{fill:url(#linear-gradient-5);}.cls-10,.cls-22{opacity:0.3;}.cls-11{fill:url(#linear-gradient-6);}.cls-12{fill:url(#linear-gradient-7);}.cls-13{fill:#f67;}.cls-14{fill:#fc899f;}.cls-15{fill:#2329f0;}.cls-16{fill:url(#linear-gradient-8);}.cls-17,.cls-53,.cls-54,.cls-62{fill:#fff;}.cls-18{fill:url(#linear-gradient-9);}.cls-19{fill:url(#linear-gradient-10);}.cls-20{fill:url(#linear-gradient-11);}.cls-21{fill:url(#linear-gradient-12);}.cls-23{fill:url(#linear-gradient-13);}.cls-24{fill:url(#linear-gradient-14);}.cls-25{fill:url(#linear-gradient-15);}.cls-26,.cls-41,.cls-43,.cls-44,.cls-48{mix-blend-mode:screen;}.cls-26{fill:url(#radial-gradient);}.cls-27{fill:url(#linear-gradient-16);}.cls-28{fill:url(#linear-gradient-17);}.cls-29{fill:url(#linear-gradient-18);}.cls-30{fill:url(#linear-gradient-19);}.cls-31{fill:#ba539a;}.cls-32,.cls-52,.cls-63{fill:#2657f4;}.cls-33{fill:url(#linear-gradient-20);}.cls-34{fill:url(#linear-gradient-21);}.cls-35{fill:url(#linear-gradient-22);}.cls-36{fill:url(#linear-gradient-23);}.cls-37{fill:#623fe9;}.cls-38{fill:url(#linear-gradient-24);}.cls-39{fill:url(#linear-gradient-25);}.cls-40{fill:url(#linear-gradient-26);}.cls-41{fill:url(#radial-gradient-2);}.cls-42{fill:#c875ae;}.cls-43{fill:url(#radial-gradient-3);}.cls-44{fill:url(#radial-gradient-4);}.cls-45{fill:#ff8592;}.cls-46{fill:#ffa3ad;}.cls-47{fill:#ffc2c9;}.cls-48{fill:url(#radial-gradient-5);}.cls-49{fill:url(#linear-gradient-27);}.cls-50{fill:url(#linear-gradient-28);}.cls-51{mix-blend-mode:multiply;fill:url(#radial-gradient-6);}.cls-52,.cls-53,.cls-54,.cls-62{font-size:0.49px;}.cls-52,.cls-53,.cls-54{font-family:Roboto-Medium, Roboto Medium;}.cls-53{letter-spacing:0em;}.cls-55{letter-spacing:0.01em;}.cls-56{letter-spacing:-0.01em;}.cls-57{letter-spacing:-0.02em;}.cls-58{letter-spacing:0.02em;}.cls-59{letter-spacing:-0.01em;}.cls-60{letter-spacing:0em;}.cls-61{letter-spacing:0.01em;}.cls-62,.cls-63{font-family:Roboto-Bold, Roboto Bold;font-weight:700;}.cls-63{font-size:0.66px;}.cls-64{letter-spacing:-0.08em;}.cls-65{letter-spacing:-0.01em;}</style><linearGradient id="linear-gradient" x1="13.93" y1="19.3" x2="14.34" y2="19.3" gradientUnits="userSpaceOnUse"><stop offset="0" stop-color="#2329f0"/><stop offset="0.32" stop-color="#2433f1"/><stop offset="0.87" stop-color="#264ff3"/><stop offset="1" stop-color="#2657f4"/></linearGradient><linearGradient id="linear-gradient-2" x1="-323.49" y1="-177.29" x2="-322.99" y2="-177.29" gradientTransform="matrix(0.67, 0.74, -0.74, 0.67, 104.43, 377.17)" xlink:href="#linear-gradient"/><linearGradient id="linear-gradient-3" x1="85.97" y1="193.11" x2="86.38" y2="193.11" gradientTransform="translate(-133.71 -132.21) rotate(-20.14)" xlink:href="#linear-gradient"/><linearGradient id="linear-gradient-4" x1="15.41" y1="18.96" x2="15.28" y2="18.1" xlink:href="#linear-gradient"/><linearGradient id="linear-gradient-5" x1="13.34" y1="20.44" x2="17.86" y2="20.44" gradientUnits="userSpaceOnUse"><stop offset="0" stop-color="#673ab7"/><stop offset="0.17" stop-color="#6f44ba"/><stop offset="0.47" stop-color="#8561c3"/><stop offset="0.85" stop-color="#a98ed1"/><stop offset="1" stop-color="#b8a1d7"/></linearGradient><linearGradient id="linear-gradient-6" x1="-963.95" y1="20.42" x2="-959.42" y2="20.42" gradientTransform="matrix(-1, 0, 0, 1, -942.9, 0)" xlink:href="#linear-gradient-5"/><linearGradient id="linear-gradient-7" x1="18.9" y1="18.37" x2="37.91" y2="-2.84" gradientUnits="userSpaceOnUse"><stop offset="0" stop-color="#150d9c"/><stop offset="0.12" stop-color="#1f119c"/><stop offset="0.31" stop-color="#381c9c"/><stop offset="0.57" stop-color="#622e9b"/><stop offset="0.86" stop-color="#9c469a"/><stop offset="1" stop-color="#ba539a"/></linearGradient><linearGradient id="linear-gradient-8" x1="16.58" y1="21.62" x2="18.35" y2="21.62" xlink:href="#linear-gradient"/><linearGradient id="linear-gradient-9" x1="15.85" y1="10.59" x2="17.45" y2="10.59" gradientUnits="userSpaceOnUse"><stop offset="0" stop-color="#2329f0"/><stop offset="0.18" stop-color="#3831f4"/><stop offset="0.53" stop-color="#5d40fa"/><stop offset="0.82" stop-color="#744afe"/><stop offset="1" stop-color="#7c4dff"/></linearGradient><linearGradient id="linear-gradient-10" x1="16.98" y1="10.49" x2="17.72" y2="10.02" gradientUnits="userSpaceOnUse"><stop offset="0" stop-color="#0d035c"/><stop offset="0.14" stop-color="#0e0661"/><stop offset="0.3" stop-color="#100e71"/><stop offset="0.49" stop-color="#151c8a"/><stop offset="0.69" stop-color="#1a30ad"/><stop offset="0.89" stop-color="#2249da"/><stop offset="1" stop-color="#2657f4"/></linearGradient><linearGradient id="linear-gradient-11" x1="17.13" y1="10.24" x2="17.63" y2="10.24" gradientUnits="userSpaceOnUse"><stop offset="0" stop-color="#673ab7"/><stop offset="0.02" stop-color="#6c3bb5"/><stop offset="0.36" stop-color="#ab4e9b"/><stop offset="0.65" stop-color="#d85b87"/><stop offset="0.87" stop-color="#f5637b"/><stop offset="1" stop-color="#f67"/></linearGradient><linearGradient id="linear-gradient-12" x1="14.97" y1="15.49" x2="18.85" y2="11.33" gradientUnits="userSpaceOnUse"><stop offset="0" stop-color="#673ab7"/><stop offset="0.45" stop-color="#9347a7"/><stop offset="0.8" stop-color="#b0509e"/><stop offset="1" stop-color="#ba539a"/></linearGradient><linearGradient id="linear-gradient-13" x1="15.76" y1="21.62" x2="17.53" y2="21.62" xlink:href="#linear-gradient"/><linearGradient id="linear-gradient-14" x1="24.69" y1="18.56" x2="25.15" y2="18.09" gradientUnits="userSpaceOnUse"><stop offset="0" stop-color="#0d035c"/><stop offset="0.17" stop-color="#250e65"/><stop offset="0.54" stop-color="#632b7b"/><stop offset="1" stop-color="#ba539a"/></linearGradient><linearGradient id="linear-gradient-15" x1="34.03" y1="1.9" x2="34.49" y2="1.43" xlink:href="#linear-gradient-14"/><radialGradient id="radial-gradient" cx="-633.91" cy="141.27" r="0.98" gradientTransform="matrix(-1, 0, 0, 1, -603.02, -123.73)" gradientUnits="userSpaceOnUse"><stop offset="0" stop-color="#2657f4"/><stop offset="0.06" stop-color="#2049ce"/><stop offset="0.15" stop-color="#19389e"/><stop offset="0.25" stop-color="#122974"/><stop offset="0.35" stop-color="#0c1c50"/><stop offset="0.45" stop-color="#081233"/><stop offset="0.56" stop-color="#040a1c"/><stop offset="0.68" stop-color="#02040c"/><stop offset="0.82" stop-color="#000103"/><stop offset="1"/></radialGradient><linearGradient id="linear-gradient-16" x1="30.5" y1="17.92" x2="31.43" y2="16.98" gradientUnits="userSpaceOnUse"><stop offset="0" stop-color="#0d035c"/><stop offset="0.13" stop-color="#250d5f"/><stop offset="0.4" stop-color="#632666"/><stop offset="0.79" stop-color="#c64f71"/><stop offset="1" stop-color="#f67"/></linearGradient><linearGradient id="linear-gradient-17" x1="22.36" y1="15.41" x2="23.94" y2="13.8" gradientUnits="userSpaceOnUse"><stop offset="0" stop-color="#150d9c"/><stop offset="0.21" stop-color="#1f13a6"/><stop offset="0.56" stop-color="#3824bf"/><stop offset="1" stop-color="#623fe9"/><stop offset="1" stop-color="#623fe9"/></linearGradient><linearGradient id="linear-gradient-18" x1="18.65" y1="5.25" x2="19.45" y2="4.45" xlink:href="#linear-gradient-17"/><linearGradient id="linear-gradient-19" x1="25.04" y1="1.62" x2="25.95" y2="0.7" xlink:href="#linear-gradient-16"/><linearGradient id="linear-gradient-20" x1="21.79" y1="8.67" x2="24.82" y2="5.64" gradientUnits="userSpaceOnUse"><stop offset="0.46" stop-color="#663bba"/><stop offset="0.47" stop-color="#683cb9"/><stop offset="0.6" stop-color="#9e4ba2"/><stop offset="0.72" stop-color="#c8568f"/><stop offset="0.84" stop-color="#e65f82"/><stop offset="0.93" stop-color="#f8647a"/><stop offset="1" stop-color="#f67"/></linearGradient><linearGradient id="linear-gradient-21" x1="-668.53" y1="7.16" x2="-667.69" y2="6.31" gradientTransform="matrix(-1, 0, 0, 1, -646.26, 0)" gradientUnits="userSpaceOnUse"><stop offset="0" stop-color="#2657f4"/><stop offset="0.21" stop-color="#505adc"/><stop offset="0.69" stop-color="#b961a0"/><stop offset="1" stop-color="#f67"/></linearGradient><linearGradient id="linear-gradient-22" x1="-671.99" y1="8.57" x2="-671.52" y2="8.1" xlink:href="#linear-gradient-21"/><linearGradient id="linear-gradient-23" x1="-671.18" y1="9.55" x2="-670.62" y2="8.78" gradientTransform="matrix(-1, 0, 0, 1, -646.26, 0)" gradientUnits="userSpaceOnUse"><stop offset="0" stop-color="#ef9ea3"/><stop offset="0.21" stop-color="#f0a29c"/><stop offset="0.51" stop-color="#f4ac8a"/><stop offset="0.86" stop-color="#fbbd6c"/><stop offset="1" stop-color="#fec55e"/></linearGradient><linearGradient id="linear-gradient-24" x1="-667.23" y1="5.75" x2="-667.1" y2="5.75" xlink:href="#linear-gradient-23"/><linearGradient id="linear-gradient-25" x1="-668.77" y1="8.28" x2="-668.71" y2="8.28" xlink:href="#linear-gradient-23"/><linearGradient id="linear-gradient-26" x1="-670.5" y1="8.18" x2="-670.44" y2="8.18" xlink:href="#linear-gradient-23"/><radialGradient id="radial-gradient-2" cx="-636.51" cy="135.48" r="0.98" gradientTransform="matrix(-1, 0, 0, 1, -607.87, -123.92)" gradientUnits="userSpaceOnUse"><stop offset="0" stop-color="#ba539a"/><stop offset="0.09" stop-color="#9c4581"/><stop offset="0.25" stop-color="#6d305a"/><stop offset="0.41" stop-color="#451f3a"/><stop offset="0.56" stop-color="#271120"/><stop offset="0.72" stop-color="#11080e"/><stop offset="0.86" stop-color="#040204"/><stop offset="1"/></radialGradient><radialGradient id="radial-gradient-3" cx="-632.77" cy="130.36" r="0.98" gradientTransform="matrix(-1, 0, 0, 1, -610.4, -119.73)" gradientUnits="userSpaceOnUse"><stop offset="0" stop-color="#2657f4"/><stop offset="0.07" stop-color="#214cd4"/><stop offset="0.21" stop-color="#18389c"/><stop offset="0.35" stop-color="#11276d"/><stop offset="0.49" stop-color="#0b1945"/><stop offset="0.62" stop-color="#060e27"/><stop offset="0.76" stop-color="#030611"/><stop offset="0.88" stop-color="#010204"/><stop offset="1"/></radialGradient><radialGradient id="radial-gradient-4" cx="-509.97" cy="8.57" r="2.25" gradientTransform="matrix(-1, 0, 0, 1, -481.05, 0)" gradientUnits="userSpaceOnUse"><stop offset="0" stop-color="#f67"/><stop offset="0" stop-color="#fc6576"/><stop offset="0.05" stop-color="#cd5260"/><stop offset="0.1" stop-color="#a2414c"/><stop offset="0.15" stop-color="#7b313a"/><stop offset="0.21" stop-color="#5a242a"/><stop offset="0.27" stop-color="#3e191d"/><stop offset="0.35" stop-color="#271012"/><stop offset="0.43" stop-color="#15090a"/><stop offset="0.53" stop-color="#090404"/><stop offset="0.67" stop-color="#020101"/><stop offset="1"/></radialGradient><radialGradient id="radial-gradient-5" cx="-512.98" cy="12.25" r="1.05" xlink:href="#radial-gradient-4"/><linearGradient id="linear-gradient-27" x1="27.87" y1="15.25" x2="29.27" y2="15.25" xlink:href="#linear-gradient-16"/><linearGradient id="linear-gradient-28" x1="27.06" y1="4.02" x2="28.05" y2="4.02" xlink:href="#linear-gradient-16"/><radialGradient id="radial-gradient-6" cx="-115.62" cy="16604.01" r="1.83" gradientTransform="translate(185.09 -5383.69) scale(1.34 0.32)" gradientUnits="userSpaceOnUse"><stop offset="0" stop-color="#2657f4"/><stop offset="0.02" stop-color="#3361f5"/><stop offset="0.12" stop-color="#6386f7"/><stop offset="0.21" stop-color="#8da6f9"/><stop offset="0.32" stop-color="#b0c2fb"/><stop offset="0.42" stop-color="#cdd8fc"/><stop offset="0.54" stop-color="#e3e9fe"/><stop offset="0.66" stop-color="#f3f6fe"/><stop offset="0.8" stop-color="#fcfdff"/><stop offset="1" stop-color="#fff"/></radialGradient><symbol id="New_Symbol_3" data-name="New Symbol 3" viewBox="0 0 0.69 0.69"><circle class="cls-1" cx="0.35" cy="0.35" r="0.35"/></symbol></defs><title>资源 2</title><g class="cls-2"><g id="图层_2" data-name="图层 2"><g id="图层_1-2" data-name="图层 1"><g id="_编组_" data-name="&lt;编组&gt;"><g id="_编组_2" data-name="&lt;编组&gt;"><path id="_路径_" data-name="&lt;路径&gt;" class="cls-3" d="M11,19.35a5.09,5.09,0,0,0,3.34,2s0,0,0-.05a5,5,0,0,1-3.31-2s-.07,0,0,0Z"/></g><path id="_路径_2" data-name="&lt;路径&gt;" class="cls-3" d="M11.1,19.49s-.47-.11-.42-.51C10.68,19,11.05,18.91,11.1,19.49Z"/><path id="_路径_3" data-name="&lt;路径&gt;" class="cls-3" d="M11.42,19.86s-.42.23-.65-.1C10.76,19.76,11,19.46,11.42,19.86Z"/><path id="_路径_4" data-name="&lt;路径&gt;" class="cls-3" d="M11.91,20.31s-.38.29-.66,0C11.25,20.31,11.42,20,11.91,20.31Z"/><path id="_路径_5" data-name="&lt;路径&gt;" class="cls-3" d="M12.44,20.66s-.29.38-.64.17C11.81,20.83,11.9,20.47,12.44,20.66Z"/><path id="_路径_6" data-name="&lt;路径&gt;" class="cls-3" d="M13,20.94s-.17.45-.56.35C12.46,21.29,12.44,20.91,13,20.94Z"/><path id="_路径_7" data-name="&lt;路径&gt;" class="cls-3" d="M13.6,21.16s-.05.48-.46.48C13.14,21.63,13,21.27,13.6,21.16Z"/><path id="_路径_8" data-name="&lt;路径&gt;" class="cls-3" d="M11.42,19.86s-.32-.35-.06-.66C11.36,19.2,11.71,19.35,11.42,19.86Z"/><path id="_路径_9" data-name="&lt;路径&gt;" class="cls-3" d="M11.91,20.3s-.33-.35-.06-.66C11.85,19.65,12.2,19.8,11.91,20.3Z"/><path id="_路径_10" data-name="&lt;路径&gt;" class="cls-3" d="M12.44,20.67s-.33-.35-.06-.66C12.39,20,12.73,20.16,12.44,20.67Z"/><path id="_路径_11" data-name="&lt;路径&gt;" class="cls-3" d="M13,21s-.33-.35-.06-.66C13,20.32,13.3,20.47,13,21Z"/><path id="_路径_12" data-name="&lt;路径&gt;" class="cls-3" d="M13.58,21.17s-.32-.35-.06-.66C13.52,20.52,13.87,20.67,13.58,21.17Z"/></g><g id="_编组_3" data-name="&lt;编组&gt;"><g id="_编组_4" data-name="&lt;编组&gt;"><path class="cls-4" d="M14.28,19.07h0a.13.13,0,0,0,0,.07.25.25,0,0,0-.1-.07h0a.12.12,0,0,0,0,.06.09.09,0,0,0,0,.05l-.05,0H14a0,0,0,0,0,0,0v.05s0,0,0,0l-.08,0v0a.47.47,0,0,0,.13.19.86.86,0,0,0,.21.1l0,0v-.06a1,1,0,0,0,0-.14.44.44,0,0,0,0-.14S14.29,19.07,14.28,19.07Z"/></g><g id="_编组_5" data-name="&lt;编组&gt;"><g id="_编组_6" data-name="&lt;编组&gt;"><path class="cls-3" d="M14.14,19.42a.41.41,0,0,1-.11-.17v0h0v0a.41.41,0,0,0,.11.17.75.75,0,0,0,.19.08h0A.7.7,0,0,1,14.14,19.42Z"/></g></g><g id="_编组_7" data-name="&lt;编组&gt;"><g id="_编组_8" data-name="&lt;编组&gt;"><path class="cls-3" d="M14.31,19.33a.35.35,0,0,0-.06-.16h0l0,0a.35.35,0,0,1,.06.16.63.63,0,0,1,0,.17h0A.59.59,0,0,0,14.31,19.33Z"/></g></g><g id="_编组_9" data-name="&lt;编组&gt;"><path id="_路径_13" data-name="&lt;路径&gt;" class="cls-3" d="M14.12,19.2l.15.29h0l-.15-.3s0,0,0,0Z"/></g><g id="_编组_10" data-name="&lt;编组&gt;"><path class="cls-3" d="M14.33,19.44h0a0,0,0,0,0,0,0l0,0h0v0l0,0h0v0s0,0,0,0h0s0,.05,0,.07l.08,0v0h0a.24.24,0,0,0,0,0,.17.17,0,0,0,0-.05A.2.2,0,0,1,14.33,19.44Z"/></g><path id="_路径_14" data-name="&lt;路径&gt;" class="cls-3" d="M14.56,20.05a2.58,2.58,0,0,1-.24-.49s0,0,0,0a2.82,2.82,0,0,0,.25.51l.06.14h0Z"/></g><g id="_编组_11" data-name="&lt;编组&gt;"><g id="_编组_12" data-name="&lt;编组&gt;"><path class="cls-5" d="M19,18.55h0a.15.15,0,0,0-.08,0,.3.3,0,0,0,0-.14h0l-.07,0a.11.11,0,0,0,0,.06.18.18,0,0,0,0-.08v0l0,0h0l0,0s0,0,0,0a.24.24,0,0,0,0-.08l0,0a.56.56,0,0,0-.07.27,1,1,0,0,0,.09.27h.1l0,0,.14-.1a.53.53,0,0,0,.11-.14S19,18.56,19,18.55Z"/></g><g id="_编组_13" data-name="&lt;编组&gt;"><g id="_编组_14" data-name="&lt;编组&gt;"><path class="cls-3" d="M18.58,18.71a.49.49,0,0,1,.06-.23v0h0l0,0a.49.49,0,0,0-.06.23.9.9,0,0,0,.07.23h0A.84.84,0,0,1,18.58,18.71Z"/></g></g><g id="_编组_15" data-name="&lt;编组&gt;"><g id="_编组_16" data-name="&lt;编组&gt;"><path class="cls-3" d="M18.81,18.79a.41.41,0,0,0,.09-.18v0h0v0a.41.41,0,0,1-.09.18.76.76,0,0,1-.18.11h0A.71.71,0,0,0,18.81,18.79Z"/></g></g><g id="_编组_17" data-name="&lt;编组&gt;"><path id="_路径_15" data-name="&lt;路径&gt;" class="cls-3" d="M18.77,18.52l-.14.37s0,0,0,0l.14-.37s0,0,0,0Z"/></g><g id="_编组_18" data-name="&lt;编组&gt;"><path class="cls-3" d="M18.72,18.9h0l0,0a.11.11,0,0,0,0-.05h0v0a.07.07,0,0,0,0,0h0l0,0h0l0,0h0s0,.06,0,.1a.37.37,0,0,0,0,.1h0l0,0a.21.21,0,0,0,0-.06Z"/></g><path id="_路径_16" data-name="&lt;路径&gt;" class="cls-3" d="M18.36,19.59a3.11,3.11,0,0,1,.25-.61s0,0,0,0a3.39,3.39,0,0,0-.25.63l-.07.17,0,0Z"/></g><g id="_编组_19" data-name="&lt;编组&gt;"><g id="_编组_20" data-name="&lt;编组&gt;"><path class="cls-6" d="M13.74,19.17h0a.13.13,0,0,0,0,.08.25.25,0,0,0-.12,0h0a.12.12,0,0,0,0,.06.09.09,0,0,0,0,0l-.06,0h-.06a0,0,0,0,0,0,0l0,0s0,0,0,0h-.08l0,0a.47.47,0,0,0,.19.13.86.86,0,0,0,.23,0v-.08a.13.13,0,0,0,0,0,1,1,0,0,0,0-.14.44.44,0,0,0-.08-.13S13.75,19.16,13.74,19.17Z"/></g><g id="_编组_21" data-name="&lt;编组&gt;"><g id="_编组_22" data-name="&lt;编组&gt;"><path class="cls-3" d="M13.73,19.55a.41.41,0,0,1-.16-.12v0h0v0a.41.41,0,0,0,.16.12.75.75,0,0,0,.2,0h0A.7.7,0,0,1,13.73,19.55Z"/></g></g><g id="_编组_23" data-name="&lt;编组&gt;"><g id="_编组_24" data-name="&lt;编组&gt;"><path class="cls-3" d="M13.85,19.4a.34.34,0,0,0-.11-.13h0a.34.34,0,0,1,.11.13.63.63,0,0,1,0,.17h0A.6.6,0,0,0,13.85,19.4Z"/></g></g><g id="_编组_25" data-name="&lt;编组&gt;"><path id="_路径_17" data-name="&lt;路径&gt;" class="cls-3" d="M13.64,19.34l.24.23s0,0,0,0l-.24-.23s0,0,0,0Z"/></g><g id="_编组_26" data-name="&lt;编组&gt;"><path class="cls-3" d="M13.91,19.5h0a0,0,0,0,0,0,0h0a0,0,0,0,0,0,0v0h0v0s0,0,0,0h0s0,0,.07,0H14v0h0v0l0,0Z"/></g><path id="_路径_18" data-name="&lt;路径&gt;" class="cls-3" d="M14.34,20a2.59,2.59,0,0,1-.39-.38s0,0,0,0a2.82,2.82,0,0,0,.41.39l.1.11h0Z"/></g><g id="_编组_27" data-name="&lt;编组&gt;"><g id="_编组_28" data-name="&lt;编组&gt;"><path class="cls-7" d="M15.61,18.16h0a.22.22,0,0,0-.06.11.42.42,0,0,0-.14-.15h0a.21.21,0,0,0-.06.09.15.15,0,0,0,0,.09.26.26,0,0,0-.07-.09l0,0,0,0h0a.06.06,0,0,0,0,0l0,.09s0,0,0,0a.34.34,0,0,0-.12-.06s0,0,0,.05a.79.79,0,0,0,.14.36,1.46,1.46,0,0,0,.32.24l.07-.06,0,0,0-.05a1.68,1.68,0,0,0,.07-.23.74.74,0,0,0,0-.25S15.63,18.17,15.61,18.16Z"/></g><g id="_编组_29" data-name="&lt;编组&gt;"><g id="_编组_30" data-name="&lt;编组&gt;"><path class="cls-8" d="M15.25,18.69a.69.69,0,0,1-.12-.32.33.33,0,0,1,0,0h0s0,0,0,0a.69.69,0,0,0,.12.32,1.27,1.27,0,0,0,.28.21h0A1.19,1.19,0,0,1,15.25,18.69Z"/></g></g><g id="_编组_31" data-name="&lt;编组&gt;"><g id="_编组_32" data-name="&lt;编组&gt;"><path class="cls-8" d="M15.57,18.6a.58.58,0,0,0,0-.28l0,0h0l0,0a.58.58,0,0,1,0,.28,1.08,1.08,0,0,1-.11.27h0A1,1,0,0,0,15.57,18.6Z"/></g></g><g id="_编组_33" data-name="&lt;编组&gt;"><path id="_路径_19" data-name="&lt;路径&gt;" class="cls-8" d="M15.31,18.32q.07.27.13.54s0,0,0,0q-.06-.27-.13-.55s0,0,0,0Z"/></g><g id="_编组_34" data-name="&lt;编组&gt;"><path class="cls-3" d="M15.56,18.8h0a.08.08,0,0,0,0,0,.15.15,0,0,0,0-.06h0l0,0a.06.06,0,0,0,0,0l0,0h0v0s0,0,0,0l0,0a0,0,0,0,0,0,0s0,.09.05.13a.53.53,0,0,0,.11.09l0,0h0v0l0-.07a.29.29,0,0,0,0-.09A.34.34,0,0,1,15.56,18.8Z"/></g><path id="_路径_20" data-name="&lt;路径&gt;" class="cls-3" d="M15.71,19.89a4.38,4.38,0,0,1-.21-.9s0,0,0,0a4.78,4.78,0,0,0,.22.94c0,.08,0,.17,0,.25h0C15.75,20.09,15.73,20,15.71,19.89Z"/></g><g id="_编组_35" data-name="&lt;编组&gt;"><g id="_编组_36" data-name="&lt;编组&gt;"><path class="cls-9" d="M14.82,21.61l-.22-.12c-.37-.22-1.57-1-1.18-1.52a.58.58,0,0,1,.47-.19,1.42,1.42,0,0,1,.48.07.16.16,0,0,0,.1,0c.05,0,.07-.08.07-.14a1.17,1.17,0,0,1,.08-.43.64.64,0,0,1,.85-.18c.16.08.33.21.49.13a.85.85,0,0,0,.21-.19,1,1,0,0,1,.64-.2,1,1,0,0,1,.52,0,.73.73,0,0,1,.24.21,1.87,1.87,0,0,1-.07,2.1,1.38,1.38,0,0,1-1.24.79A4,4,0,0,1,14.82,21.61Z"/></g><g id="_编组_37" data-name="&lt;编组&gt;" class="cls-10"><g id="_编组_38" data-name="&lt;编组&gt;"><path id="_路径_21" data-name="&lt;路径&gt;" class="cls-3" d="M13.82,20.15c.85.49,1.59,1.15,2.39,1.71h0c-.8-.56-1.54-1.22-2.39-1.71Z"/></g><g id="_编组_39" data-name="&lt;编组&gt;"><path id="_路径_22" data-name="&lt;路径&gt;" class="cls-3" d="M14.09,20.09a2.11,2.11,0,0,0,.22.37s0,0,0,0a2.08,2.08,0,0,1-.21-.36s0,0,0,0Z"/></g><g id="_编组_40" data-name="&lt;编组&gt;"><path id="_路径_23" data-name="&lt;路径&gt;" class="cls-3" d="M14.43,20.18a1.91,1.91,0,0,0,.24.53h0a1.9,1.9,0,0,1-.24-.53Z"/></g><g id="_编组_41" data-name="&lt;编组&gt;"><path id="_路径_24" data-name="&lt;路径&gt;" class="cls-3" d="M14.78,20.41A3.59,3.59,0,0,0,15,21h0a3.6,3.6,0,0,1-.25-.58Z"/></g><g id="_编组_42" data-name="&lt;编组&gt;"><path id="_路径_25" data-name="&lt;路径&gt;" class="cls-3" d="M15.14,20.59a2.49,2.49,0,0,0,.33.73s0,0,0,0a2.48,2.48,0,0,1-.33-.72Z"/></g><g id="_编组_43" data-name="&lt;编组&gt;"><path id="_路径_26" data-name="&lt;路径&gt;" class="cls-3" d="M15.43,20.78q.25.46.52.89s0,0,0,0q-.27-.44-.52-.89Z"/></g><g id="_编组_44" data-name="&lt;编组&gt;"><path id="_路径_27" data-name="&lt;路径&gt;" class="cls-3" d="M13.92,20.43a2.28,2.28,0,0,1,.45.08h0a2.3,2.3,0,0,0-.45-.08Z"/></g><g id="_编组_45" data-name="&lt;编组&gt;"><path id="_路径_28" data-name="&lt;路径&gt;" class="cls-3" d="M14.4,20.74a2.51,2.51,0,0,1,.46.13h0a2.53,2.53,0,0,0-.47-.13s0,0,0,0Z"/></g><g id="_编组_46" data-name="&lt;编组&gt;"><path id="_路径_29" data-name="&lt;路径&gt;" class="cls-3" d="M14.89,21.1a1.25,1.25,0,0,1,.41.09s0,0,0,0a1.26,1.26,0,0,0-.42-.09s0,0,0,0Z"/></g><g id="_编组_47" data-name="&lt;编组&gt;"><path id="_路径_30" data-name="&lt;路径&gt;" class="cls-3" d="M15.13,21.34a4.64,4.64,0,0,1,.5.1h0a1.51,1.51,0,0,1-.28-.08.75.75,0,0,0-.22,0Z"/></g><g id="_编组_48" data-name="&lt;编组&gt;"><path id="_路径_31" data-name="&lt;路径&gt;" class="cls-3" d="M15.47,21.58a2,2,0,0,1,.48.1h0a2,2,0,0,0-.48-.1s0,0,0,0Z"/></g></g><g id="_编组_49" data-name="&lt;编组&gt;" class="cls-10"><g id="_编组_50" data-name="&lt;编组&gt;"><path id="_路径_32" data-name="&lt;路径&gt;" class="cls-3" d="M15,19.29c.63.75,1.11,1.62,1.67,2.42h0c-.56-.8-1-1.67-1.67-2.42Z"/></g><g id="_编组_51" data-name="&lt;编组&gt;"><path id="_路径_33" data-name="&lt;路径&gt;" class="cls-3" d="M15.32,19.32a2.1,2.1,0,0,0,.08.42s0,0,0,0a2.08,2.08,0,0,1-.08-.42s0,0,0,0Z"/></g><g id="_编组_52" data-name="&lt;编组&gt;"><path id="_路径_34" data-name="&lt;路径&gt;" class="cls-3" d="M15.61,19.52a1.91,1.91,0,0,0,0,.58h0a1.91,1.91,0,0,1,0-.58Z"/></g><g id="_编组_53" data-name="&lt;编组&gt;"><path id="_路径_35" data-name="&lt;路径&gt;" class="cls-3" d="M15.86,19.85a3.58,3.58,0,0,0,0,.63h0a3.6,3.6,0,0,1,0-.63Z"/></g><g id="_编组_54" data-name="&lt;编组&gt;"><path id="_路径_36" data-name="&lt;路径&gt;" class="cls-3" d="M16.14,20.14a2.49,2.49,0,0,0,.07.8s0,0,0,0a2.48,2.48,0,0,1-.07-.79Z"/></g><g id="_编组_55" data-name="&lt;编组&gt;"><path id="_路径_37" data-name="&lt;路径&gt;" class="cls-3" d="M16.34,20.42q.08.51.19,1h0q-.11-.5-.19-1Z"/></g><g id="_编组_56" data-name="&lt;编组&gt;"><path id="_路径_38" data-name="&lt;路径&gt;" class="cls-3" d="M15,19.58a2.29,2.29,0,0,1,.4.22h0a2.3,2.3,0,0,0-.4-.22Z"/></g><g id="_编组_57" data-name="&lt;编组&gt;"><path id="_路径_39" data-name="&lt;路径&gt;" class="cls-3" d="M15.4,20a2.51,2.51,0,0,1,.39.28h0a2.53,2.53,0,0,0-.4-.28s0,0,0,0Z"/></g><g id="_编组_58" data-name="&lt;编组&gt;"><path id="_路径_40" data-name="&lt;路径&gt;" class="cls-3" d="M15.73,20.54c.14,0,.23.15.35.23h0c-.12-.08-.21-.2-.36-.23s0,0,0,0Z"/></g><g id="_编组_59" data-name="&lt;编组&gt;"><path id="_路径_41" data-name="&lt;路径&gt;" class="cls-3" d="M15.88,20.84a4.66,4.66,0,0,1,.44.27h0a1.52,1.52,0,0,1-.23-.17.75.75,0,0,0-.2-.1Z"/></g><g id="_编组_60" data-name="&lt;编组&gt;"><path id="_路径_42" data-name="&lt;路径&gt;" class="cls-3" d="M16.11,21.19a2,2,0,0,1,.42.25h0a2,2,0,0,0-.42-.25Z"/></g></g><g id="_编组_61" data-name="&lt;编组&gt;" class="cls-10"><g id="_编组_62" data-name="&lt;编组&gt;"><path id="_路径_43" data-name="&lt;路径&gt;" class="cls-3" d="M16.84,18.8c.18,1,.16,2,.25,2.93h0c-.09-1-.07-2-.25-2.93Z"/></g><g id="_编组_63" data-name="&lt;编组&gt;"><path id="_路径_44" data-name="&lt;路径&gt;" class="cls-3" d="M17.06,19a2.1,2.1,0,0,0-.14.4s0,0,0,0a2.09,2.09,0,0,1,.14-.4s0,0,0,0Z"/></g><g id="_编组_64" data-name="&lt;编组&gt;"><path id="_路径_45" data-name="&lt;路径&gt;" class="cls-3" d="M17.21,19.29a1.92,1.92,0,0,0-.25.53h0a1.9,1.9,0,0,1,.24-.53Z"/></g><g id="_编组_65" data-name="&lt;编组&gt;"><path id="_路径_46" data-name="&lt;路径&gt;" class="cls-3" d="M17.27,19.7a3.58,3.58,0,0,0-.28.57h0a3.59,3.59,0,0,1,.28-.57Z"/></g><g id="_编组_66" data-name="&lt;编组&gt;"><path id="_路径_47" data-name="&lt;路径&gt;" class="cls-3" d="M17.36,20.09a2.49,2.49,0,0,0-.34.73s0,0,0,0a2.48,2.48,0,0,1,.34-.72s0,0,0,0Z"/></g><g id="_编组_67" data-name="&lt;编组&gt;"><path id="_路径_48" data-name="&lt;路径&gt;" class="cls-3" d="M17.41,20.43q-.19.48-.34,1s0,0,0,0q.16-.49.34-1s0,0,0,0Z"/></g><g id="_编组_68" data-name="&lt;编组&gt;"><path id="_路径_49" data-name="&lt;路径&gt;" class="cls-3" d="M16.69,19.06a2.28,2.28,0,0,1,.23.39h0a2.29,2.29,0,0,0-.23-.39Z"/></g><g id="_编组_69" data-name="&lt;编组&gt;"><path id="_路径_50" data-name="&lt;路径&gt;" class="cls-3" d="M16.78,19.63a2.5,2.5,0,0,1,.2.43h0a2.52,2.52,0,0,0-.21-.44Z"/></g><g id="_编组_70" data-name="&lt;编组&gt;"><path id="_路径_51" data-name="&lt;路径&gt;" class="cls-3" d="M16.82,20.23c.11.1.13.25.19.37h0c-.07-.13-.09-.28-.2-.38s0,0,0,0Z"/></g><g id="_编组_71" data-name="&lt;编组&gt;"><path id="_路径_52" data-name="&lt;路径&gt;" class="cls-3" d="M16.79,20.57A4.63,4.63,0,0,1,17,21h0a1.51,1.51,0,0,1-.12-.26.76.76,0,0,0-.12-.19Z"/></g><g id="_编组_72" data-name="&lt;编组&gt;"><path id="_路径_53" data-name="&lt;路径&gt;" class="cls-3" d="M16.82,21a2,2,0,0,1,.24.43h0a2,2,0,0,0-.24-.43Z"/></g></g></g><g id="_编组_73" data-name="&lt;编组&gt;"><g id="_编组_74" data-name="&lt;编组&gt;"><path class="cls-11" d="M19.57,21.59l.22-.12c.37-.22,1.57-1,1.18-1.52a.58.58,0,0,0-.47-.19,1.42,1.42,0,0,0-.48.07.16.16,0,0,1-.1,0c-.05,0-.07-.08-.07-.14a1.17,1.17,0,0,0-.08-.43.64.64,0,0,0-.85-.18c-.16.08-.33.21-.49.13a.85.85,0,0,1-.21-.19,1,1,0,0,0-.64-.2,1,1,0,0,0-.52,0,.73.73,0,0,0-.24.21,1.87,1.87,0,0,0,.07,2.1,1.38,1.38,0,0,0,1.24.79A4,4,0,0,0,19.57,21.59Z"/></g><g id="_编组_75" data-name="&lt;编组&gt;" class="cls-10"><g id="_编组_76" data-name="&lt;编组&gt;"><path id="_路径_54" data-name="&lt;路径&gt;" class="cls-3" d="M20.57,20.14c-.85.49-1.59,1.15-2.39,1.71h0c.8-.56,1.54-1.22,2.39-1.71Z"/></g><g id="_编组_77" data-name="&lt;编组&gt;"><path id="_路径_55" data-name="&lt;路径&gt;" class="cls-3" d="M20.3,20.08a2.11,2.11,0,0,1-.22.37s0,0,0,0a2.07,2.07,0,0,0,.21-.36s0,0,0,0Z"/></g><g id="_编组_78" data-name="&lt;编组&gt;"><path id="_路径_56" data-name="&lt;路径&gt;" class="cls-3" d="M20,20.17a1.92,1.92,0,0,1-.24.53h0a1.9,1.9,0,0,0,.24-.53Z"/></g><g id="_编组_79" data-name="&lt;编组&gt;"><path id="_路径_57" data-name="&lt;路径&gt;" class="cls-3" d="M19.61,20.39a3.59,3.59,0,0,1-.25.58h0a3.6,3.6,0,0,0,.25-.58Z"/></g><g id="_编组_80" data-name="&lt;编组&gt;"><path id="_路径_58" data-name="&lt;路径&gt;" class="cls-3" d="M19.25,20.58a2.49,2.49,0,0,1-.33.73s0,0,0,0a2.48,2.48,0,0,0,.33-.72Z"/></g><g id="_编组_81" data-name="&lt;编组&gt;"><path id="_路径_59" data-name="&lt;路径&gt;" class="cls-3" d="M19,20.77q-.25.46-.52.89s0,0,0,0q.27-.44.52-.89Z"/></g><g id="_编组_82" data-name="&lt;编组&gt;"><path id="_路径_60" data-name="&lt;路径&gt;" class="cls-3" d="M20.47,20.42a2.29,2.29,0,0,0-.45.08h0a2.3,2.3,0,0,1,.45-.08Z"/></g><g id="_编组_83" data-name="&lt;编组&gt;"><path id="_路径_61" data-name="&lt;路径&gt;" class="cls-3" d="M20,20.72a2.51,2.51,0,0,0-.46.13h0a2.54,2.54,0,0,1,.47-.13s0,0,0,0Z"/></g><g id="_编组_84" data-name="&lt;编组&gt;"><path id="_路径_62" data-name="&lt;路径&gt;" class="cls-3" d="M19.49,21.08a1.25,1.25,0,0,0-.41.09s0,0,0,0a1.26,1.26,0,0,1,.42-.09s0,0,0,0Z"/></g><g id="_编组_85" data-name="&lt;编组&gt;"><path id="_路径_63" data-name="&lt;路径&gt;" class="cls-3" d="M19.26,21.32a4.62,4.62,0,0,0-.5.1h0a1.51,1.51,0,0,0,.28-.08.76.76,0,0,1,.22,0Z"/></g><g id="_编组_86" data-name="&lt;编组&gt;"><path id="_路径_64" data-name="&lt;路径&gt;" class="cls-3" d="M18.92,21.57a2,2,0,0,0-.48.1h0a2,2,0,0,1,.48-.1s0,0,0,0Z"/></g></g><g id="_编组_87" data-name="&lt;编组&gt;" class="cls-10"><g id="_编组_88" data-name="&lt;编组&gt;"><path id="_路径_65" data-name="&lt;路径&gt;" class="cls-3" d="M19.34,19.27c-.63.75-1.11,1.62-1.67,2.42h0c.56-.8,1-1.67,1.67-2.42Z"/></g><g id="_编组_89" data-name="&lt;编组&gt;"><path id="_路径_66" data-name="&lt;路径&gt;" class="cls-3" d="M19.07,19.31a2.11,2.11,0,0,1-.08.42s0,0,0,0a2.08,2.08,0,0,0,.08-.42s0,0,0,0Z"/></g><g id="_编组_90" data-name="&lt;编组&gt;"><path id="_路径_67" data-name="&lt;路径&gt;" class="cls-3" d="M18.78,19.51a1.91,1.91,0,0,1,0,.58h0a1.91,1.91,0,0,0,0-.58Z"/></g><g id="_编组_91" data-name="&lt;编组&gt;"><path id="_路径_68" data-name="&lt;路径&gt;" class="cls-3" d="M18.53,19.83a3.58,3.58,0,0,1,0,.63h0a3.6,3.6,0,0,0,0-.63Z"/></g><g id="_编组_92" data-name="&lt;编组&gt;"><path id="_路径_69" data-name="&lt;路径&gt;" class="cls-3" d="M18.25,20.13a2.49,2.49,0,0,1-.07.8s0,0,0,0a2.48,2.48,0,0,0,.07-.79Z"/></g><g id="_编组_93" data-name="&lt;编组&gt;"><path id="_路径_70" data-name="&lt;路径&gt;" class="cls-3" d="M18,20.4q-.08.51-.19,1h0q.11-.5.19-1Z"/></g><g id="_编组_94" data-name="&lt;编组&gt;"><path id="_路径_71" data-name="&lt;路径&gt;" class="cls-3" d="M19.34,19.56a2.28,2.28,0,0,0-.4.22h0a2.3,2.3,0,0,1,.4-.22Z"/></g><g id="_编组_95" data-name="&lt;编组&gt;"><path id="_路径_72" data-name="&lt;路径&gt;" class="cls-3" d="M19,20a2.51,2.51,0,0,0-.39.28h0A2.53,2.53,0,0,1,19,20s0,0,0,0Z"/></g><g id="_编组_96" data-name="&lt;编组&gt;"><path id="_路径_73" data-name="&lt;路径&gt;" class="cls-3" d="M18.65,20.52c-.14,0-.23.15-.35.23h0c.12-.08.21-.2.36-.23s0,0,0,0Z"/></g><g id="_编组_97" data-name="&lt;编组&gt;"><path id="_路径_74" data-name="&lt;路径&gt;" class="cls-3" d="M18.51,20.83a4.62,4.62,0,0,0-.44.27h0a1.51,1.51,0,0,0,.23-.17.76.76,0,0,1,.2-.1Z"/></g><g id="_编组_98" data-name="&lt;编组&gt;"><path id="_路径_75" data-name="&lt;路径&gt;" class="cls-3" d="M18.27,21.18a2,2,0,0,0-.42.25h0a2,2,0,0,1,.42-.25Z"/></g></g><g id="_编组_99" data-name="&lt;编组&gt;" class="cls-10"><g id="_编组_100" data-name="&lt;编组&gt;"><path id="_路径_76" data-name="&lt;路径&gt;" class="cls-3" d="M17.55,18.79c-.18,1-.16,2-.25,2.93h0c.09-1,.07-2,.25-2.93Z"/></g><g id="_编组_101" data-name="&lt;编组&gt;"><path id="_路径_77" data-name="&lt;路径&gt;" class="cls-3" d="M17.32,19a2.1,2.1,0,0,1,.14.4s0,0,0,0a2.09,2.09,0,0,0-.14-.4s0,0,0,0Z"/></g><g id="_编组_102" data-name="&lt;编组&gt;"><path id="_路径_78" data-name="&lt;路径&gt;" class="cls-3" d="M17.17,19.28a1.92,1.92,0,0,1,.25.53h0a1.91,1.91,0,0,0-.24-.53Z"/></g><g id="_编组_103" data-name="&lt;编组&gt;"><path id="_路径_79" data-name="&lt;路径&gt;" class="cls-3" d="M17.12,19.68a3.58,3.58,0,0,1,.28.57h0a3.59,3.59,0,0,0-.28-.57Z"/></g><g id="_编组_104" data-name="&lt;编组&gt;"><path id="_路径_80" data-name="&lt;路径&gt;" class="cls-3" d="M17,20.08a2.49,2.49,0,0,1,.34.73s0,0,0,0a2.48,2.48,0,0,0-.34-.72s0,0,0,0Z"/></g><g id="_编组_105" data-name="&lt;编组&gt;"><path id="_路径_81" data-name="&lt;路径&gt;" class="cls-3" d="M17,20.42q.19.48.34,1s0,0,0,0q-.16-.49-.34-1s0,0,0,0Z"/></g><g id="_编组_106" data-name="&lt;编组&gt;"><path id="_路径_82" data-name="&lt;路径&gt;" class="cls-3" d="M17.69,19a2.29,2.29,0,0,0-.23.39h0a2.3,2.3,0,0,1,.23-.39Z"/></g><g id="_编组_107" data-name="&lt;编组&gt;"><path id="_路径_83" data-name="&lt;路径&gt;" class="cls-3" d="M17.61,19.62a2.51,2.51,0,0,0-.2.43h0a2.52,2.52,0,0,1,.21-.44Z"/></g><g id="_编组_108" data-name="&lt;编组&gt;"><path id="_路径_84" data-name="&lt;路径&gt;" class="cls-3" d="M17.57,20.22c-.11.1-.13.25-.19.37h0c.07-.13.09-.28.2-.38s0,0,0,0Z"/></g><g id="_编组_109" data-name="&lt;编组&gt;"><path id="_路径_85" data-name="&lt;路径&gt;" class="cls-3" d="M17.59,20.55a4.64,4.64,0,0,0-.25.45h0a1.52,1.52,0,0,0,.12-.26.76.76,0,0,1,.12-.19Z"/></g><g id="_编组_110" data-name="&lt;编组&gt;"><path id="_路径_86" data-name="&lt;路径&gt;" class="cls-3" d="M17.56,21a2,2,0,0,0-.24.43h0a2,2,0,0,1,.24-.43Z"/></g></g></g><path id="_路径_87" data-name="&lt;路径&gt;" class="cls-3" d="M17.85,22a.55.55,0,0,0-.08-.18.79.79,0,0,0-.26.14h0a.6.6,0,0,0-.24-.62.75.75,0,0,0-.23.33.72.72,0,0,0-.46-.44,1,1,0,0,0-.12.28l-.07,0a.6.6,0,0,0,0-.66.74.74,0,0,0-.41.32.59.59,0,0,0-.43-.39.75.75,0,0,0-.09.39l-.12,0a.57.57,0,0,0-.22-.28A.81.81,0,0,0,15,21h-.06a.6.6,0,0,0-.44-.47.75.75,0,0,0-.09.4h-.07a.58.58,0,0,0-.17-.42.73.73,0,0,0-.36.49h0a.5.5,0,0,0-.06-.11.75.75,0,0,0-.36.24.58.58,0,0,0-.31-.29.73.73,0,0,0-.13.61h0a.58.58,0,0,0-.39-.09.79.79,0,0,0,0,.29l-.09,0a.58.58,0,0,0-.29-.24.81.81,0,0,0-.11.22.57.57,0,0,0-.27-.06.83.83,0,0,0,0,.19l-.34,0a.58.58,0,0,0-.28-.23.81.81,0,0,0-.11.2.7.7,0,0,0-.33-.22,1,1,0,0,0-.12.26l-.07,0a.58.58,0,0,0-.4-.1.79.79,0,0,0,0,.28l0,0Z"/><path id="_路径_88" data-name="&lt;路径&gt;" class="cls-3" d="M22.86,22a.55.55,0,0,0-.08-.18.79.79,0,0,0-.26.14h0a.6.6,0,0,0-.24-.62.75.75,0,0,0-.23.33.72.72,0,0,0-.46-.44,1,1,0,0,0-.12.28l-.07,0a.6.6,0,0,0,0-.66.74.74,0,0,0-.41.32.59.59,0,0,0-.43-.39.76.76,0,0,0-.09.39l-.12,0a.58.58,0,0,0-.22-.28A.81.81,0,0,0,20,21h-.06a.6.6,0,0,0-.44-.47.75.75,0,0,0-.09.4h-.07a.58.58,0,0,0-.17-.42.73.73,0,0,0-.36.49h0a.5.5,0,0,0-.06-.11.75.75,0,0,0-.36.24.58.58,0,0,0-.31-.29.73.73,0,0,0-.13.61h0a.58.58,0,0,0-.39-.09.79.79,0,0,0,0,.29l-.09,0a.58.58,0,0,0-.29-.24.81.81,0,0,0-.11.22.57.57,0,0,0-.27-.06.83.83,0,0,0,0,.19l-.34,0a.57.57,0,0,0-.28-.23.81.81,0,0,0-.11.2.7.7,0,0,0-.33-.22,1,1,0,0,0-.12.26l-.07,0a.58.58,0,0,0-.4-.1.79.79,0,0,0,0,.28l0,0Z"/><path class="cls-12" d="M17.49,2.79c.12,1.24.81,2.4.89,3.64s-1,2.43-1.1,3.73a.76.76,0,0,0,.2.64,1,1,0,0,0,.43.15c1.6.34,2.62,1.85,3.28,3.22a12.82,12.82,0,0,0,2.36,4A8.15,8.15,0,0,0,28.41,20a19,19,0,0,0,3,.08,33.54,33.54,0,0,0,3.68-.5V0h-17A4.88,4.88,0,0,0,17.49,2.79Z"/><rect class="cls-13" x="18.93" y="2.58" width="0.59" height="0.14"/><g id="_编组_111" data-name="&lt;编组&gt;"><rect id="_矩形_" data-name="&lt;矩形&gt;" class="cls-14" x="16.72" y="20.44" width="0.42" height="0.89"/><g id="_编组_112" data-name="&lt;编组&gt;"><path class="cls-15" d="M17.84,15.07c-.06,0,0,1.77,0,1.92a21.66,21.66,0,0,1-.31,2.38l-.21,1.25c0,.24-.23.56-.54.41s-.23-.82-.25-1.06a24.61,24.61,0,0,1-.18-2.91q0-.48,0-1a1.13,1.13,0,0,1,.11-.62.77.77,0,0,1,.47-.21C17.25,15.22,17.55,15.16,17.84,15.07Z"/></g><path id="_路径_89" data-name="&lt;路径&gt;" class="cls-16" d="M16.58,21.21V22h1.77a.47.47,0,0,0-.41-.47l-.55-.08-.18-.28Z"/><rect id="_矩形_2" data-name="&lt;矩形&gt;" class="cls-17" x="16.51" y="21.85" width="1.92" height="0.18"/><circle id="_路径_90" data-name="&lt;路径&gt;" class="cls-17" cx="16.94" cy="21.49" r="0.17"/><rect id="_矩形_3" data-name="&lt;矩形&gt;" class="cls-14" x="15.87" y="20.44" width="0.42" height="0.89"/><g id="_编组_113" data-name="&lt;编组&gt;"><path class="cls-15" d="M17,15.07c-.06,0,0,1.77,0,1.92a21.67,21.67,0,0,1-.31,2.38l-.21,1.25c0,.24-.23.56-.54.41s-.23-.82-.25-1.06a24.61,24.61,0,0,1-.18-2.91q0-.48,0-1a1.13,1.13,0,0,1,.11-.62.76.76,0,0,1,.47-.21C16.38,15.22,16.68,15.16,17,15.07Z"/></g><g id="_编组_114" data-name="&lt;编组&gt;"><path class="cls-14" d="M15.92,15.56l-.45,0,0,.12s0,.1,0,.15a.86.86,0,0,1,0,.38.11.11,0,0,0,0,.08.1.1,0,0,0,.05,0,1,1,0,0,0,.49.1h0a.07.07,0,0,0,0,0C16.14,16.08,15.87,15.83,15.92,15.56Z"/></g><g id="_编组_115" data-name="&lt;编组&gt;"><path class="cls-14" d="M17.87,10.28l-.08,0a.34.34,0,0,0-.2.05.42.42,0,0,0-.1.11.32.32,0,0,0-.06.14.35.35,0,0,0,0,.16.47.47,0,0,0,.09.19.42.42,0,0,0,.14.07A.69.69,0,0,0,18,11l.18-.25a1.41,1.41,0,0,0-.19-.31A.48.48,0,0,0,17.87,10.28Z"/></g><g id="_编组_116" data-name="&lt;编组&gt;"><path class="cls-14" d="M17.06,11.36a.42.42,0,0,0-.08-.14l-.13-.16L16.79,11l-.06-.09a.59.59,0,0,0-.19-.13.36.36,0,0,0-.13,0,.13.13,0,0,0-.13.05.13.13,0,0,0,0,.11c0,.06.07.09.08.15a.86.86,0,0,1,0,.21,1.73,1.73,0,0,1,0,.19c0,.06,0,.23-.08.24h-.05s-.07.07-.07.12a.63.63,0,0,0,.4.61.48.48,0,0,0,.21,0,.67.67,0,0,0,.36-.19.77.77,0,0,0,.17-.19.32.32,0,0,0,0-.25l0,0h0c-.24,0-.23-.23-.22-.4A.13.13,0,0,0,17.06,11.36Z"/></g><g id="_编组_117" data-name="&lt;编组&gt;"><path class="cls-14" d="M17.32,10.8a.81.81,0,0,1-.12.54.28.28,0,0,1-.25.12.52.52,0,0,1-.33-.13.8.8,0,0,1-.2-.3,1,1,0,0,1-.09-.45c0-.1.12-.17.19-.24a.6.6,0,0,1,.12-.09.39.39,0,0,1,.18,0,.52.52,0,0,1,.36.15.48.48,0,0,1,.14.36S17.32,10.77,17.32,10.8Z"/></g><g id="_编组_118" data-name="&lt;编组&gt;"><path class="cls-3" d="M17.31,10.8a.92.92,0,0,1-.08.47c-.14.24-.41.19-.6,0,0,0,0,0,0,0a.44.44,0,0,0,.54.07.73.73,0,0,0,.17-.6,0,0,0,0,0,0,0Z"/></g><g id="_编组_119" data-name="&lt;编组&gt;"><path class="cls-18" d="M16.93,9.75a1.46,1.46,0,0,0-.33.15L16.4,10a1,1,0,0,0-.54,1,.63.63,0,0,0,.2.34c.06.05.27.2.34.1a.12.12,0,0,0,0-.06,1.69,1.69,0,0,0-.05-.42.37.37,0,0,1,0-.11.15.15,0,0,1,.05-.1.09.09,0,0,1,.11,0,.15.15,0,0,1,0,.11l0,.12a.06.06,0,0,0,0,.05,0,0,0,0,0,.06,0,.14.14,0,0,0,0-.06.64.64,0,0,1,.12-.44.29.29,0,0,1,.18-.08c.09,0,.18-.06.28-.08a.23.23,0,0,0,.1,0,.19.19,0,0,0,0-.09.39.39,0,0,0,0-.31.3.3,0,0,0-.09-.09.47.47,0,0,0-.37,0Z"/></g><path id="_路径_91" data-name="&lt;路径&gt;" class="cls-8" d="M16.49,10.62l.1.06a.49.49,0,0,0,.22.06H17a.12.12,0,0,0,.09,0l.06-.06h0a0,0,0,0,1,0,0v0a.06.06,0,0,0,.05.05h0a.22.22,0,0,0,.16,0l.22-.15-.79-.08-.12-.05Z"/><path id="_路径_92" data-name="&lt;路径&gt;" class="cls-8" d="M16.4,10.44h0a.69.69,0,0,1,.31-.34l.07,0,.05.19Z"/><path id="_路径_93" data-name="&lt;路径&gt;" class="cls-3" d="M17.84,10.5l-.09,0h0l-.09-.32a.11.11,0,0,0-.11-.08h-.61L16.89,10l-.11.06a.1.1,0,0,0-.06,0h0a.1.1,0,0,0,0,.09l.09.32a.11.11,0,0,0,.11.08h.8Z"/><path id="_路径_94" data-name="&lt;路径&gt;" class="cls-19" d="M17.81,10.51H17a.11.11,0,0,1-.11-.08l-.09-.32a.1.1,0,0,1,.09-.12h.77a.11.11,0,0,1,.11.08l.09.32A.1.1,0,0,1,17.81,10.51Z"/><path id="_路径_95" data-name="&lt;路径&gt;" class="cls-20" d="M17.62,10.26h-.49v0h.49v0Z"/><path id="_路径_96" data-name="&lt;路径&gt;" class="cls-8" d="M15.86,10.74c.17-.08.86-.5.86-.5l.06.21a5.39,5.39,0,0,1-.91.52C15.81,11,15.81,10.77,15.86,10.74Z"/><g id="_编组_120" data-name="&lt;编组&gt;"><path class="cls-21" d="M15.88,15.79l.38,0h.35c.49,0,1.06-.07,1.23-.63a1.63,1.63,0,0,0,0-.54l0-1.1c0-.27-.07-.64.18-.84a.65.65,0,0,1,.22-.1,3.79,3.79,0,0,0,.95-.34.61.61,0,0,0,.14-.11.66.66,0,0,0,.14-.19c0-.07,0-.15-.07-.21a1.61,1.61,0,0,0-.33-.45,4,4,0,0,0-.76-.55l-.08,0s-.15.13-.17.15,0,.1,0,.17a1,1,0,0,0,.23.41,1.77,1.77,0,0,0,.2.19l.08.06.07.06a2.51,2.51,0,0,1-.71,0,2.11,2.11,0,0,0-.66,0v.07a.34.34,0,0,1-.27.22.55.55,0,0,1-.36-.08,1.64,1.64,0,0,1-.29-.24l-.11-.09a.87.87,0,0,0-.83.5,2.22,2.22,0,0,0-.2,1,10.88,10.88,0,0,0,.06,1.44q0,.36.1.71l0,.17a.61.61,0,0,0,0,.17c0,.06.21.09.28.11Z"/></g><g id="_编组_121" data-name="&lt;编组&gt;"><path class="cls-3" d="M16.26,15.83c.59,0,1.37.06,1.59-.62,0,0,0,0,0,0-.22.67-1,.64-1.58.61,0,0,0,0,0,0Z"/></g><g id="_编组_122" data-name="&lt;编组&gt;"><path class="cls-3" d="M18.27,11.48l.2.19.09.07s.08,0,0,.05a2,2,0,0,1-.61,0s0,0,0,0a2.65,2.65,0,0,0,.71,0,0,0,0,0,0,0,0,.55.55,0,0,0-.11-.1,2.24,2.24,0,0,1-.24-.22s0,0,0,0Z"/></g><g id="_编组_123" data-name="&lt;编组&gt;"><path class="cls-3" d="M17.84,13.57c0-.37-.06-.77.37-.92a5.14,5.14,0,0,0,1-.35,0,0,0,0,0,0,0,3,3,0,0,1-.7.27,1.24,1.24,0,0,0-.49.18c-.23.2-.18.56-.17.83,0,0,0,0,0,0Z"/></g><g id="_编组_124" data-name="&lt;编组&gt;"><path class="cls-3" d="M17,12.07a.91.91,0,0,1-.66-.33.22.22,0,0,0-.22-.08.93.93,0,0,0-.71.5,0,0,0,0,0,0,0,1,1,0,0,1,.39-.4c.14-.08.34-.15.48,0s.39.39.71.37c0,0,0,0,0,0Z"/></g><g id="_编组_125" data-name="&lt;编组&gt;"><path class="cls-3" d="M16,15.33c0-.41,0-.81,0-1.22,0-.2,0-.4,0-.61s0-.85.36-1a0,0,0,0,0,0,0c-.5.15-.37,1-.37,1.39s0,.94,0,1.41c0,0,0,0,0,0Z"/></g><g id="_编组_126" data-name="&lt;编组&gt;"><path class="cls-3" d="M17.28,16.12a3.89,3.89,0,0,0-.38,1c0,.38,0,.76-.05,1.14-.1.8-.26,1.6-.39,2.4,0,0,0,0,0,0,.13-.77.27-1.53.38-2.3.05-.35,0-.7.05-1a3.37,3.37,0,0,1,.39-1.17s0,0,0,0Z"/></g><path class="cls-22" d="M17.62,21.83a.52.52,0,0,0-.41-.32l-.6-.08,0,0v.46h-.07V22h1.23v-.2Z"/><path id="_路径_97" data-name="&lt;路径&gt;" class="cls-23" d="M15.76,21.21V22h1.77a.47.47,0,0,0-.41-.47l-.55-.08-.18-.28Z"/><rect id="_矩形_4" data-name="&lt;矩形&gt;" class="cls-17" x="15.7" y="21.85" width="1.92" height="0.18"/><circle id="_路径_98" data-name="&lt;路径&gt;" class="cls-17" cx="16.13" cy="21.49" r="0.17"/><g id="_编组_127" data-name="&lt;编组&gt;"><path class="cls-3" d="M18.62,11.82a.45.45,0,0,1,.08.3s0,0,0,0a.46.46,0,0,0-.08-.31s0,0,0,0Z"/></g><g id="_编组_128" data-name="&lt;编组&gt;"><path class="cls-3" d="M18.66,11.8a.5.5,0,0,0,.4,0s0,0,0,0a.48.48,0,0,1-.39,0s0,0,0,0Z"/></g><path class="cls-17" d="M16.87,11c.25-.17.33,0,.33,0a.24.24,0,0,1-.09.22C17,11.34,16.85,11,16.87,11Z"/></g><use width="0.69" height="0.69" transform="translate(25.89 7.73) scale(0.03)" xlink:href="#New_Symbol_3"/><use width="0.69" height="0.69" transform="translate(20.78 4.05) scale(0.04)" xlink:href="#New_Symbol_3"/><use width="0.69" height="0.69" transform="translate(25.59 4.19) scale(0.03)" xlink:href="#New_Symbol_3"/><use width="0.69" height="0.69" transform="translate(28.54 7.14) scale(0.04)" xlink:href="#New_Symbol_3"/><use width="0.69" height="0.69" transform="translate(33.33 5.35) scale(0.07)" xlink:href="#New_Symbol_3"/><use width="0.69" height="0.69" transform="translate(28.33 11.43) scale(0.03)" xlink:href="#New_Symbol_3"/><use width="0.69" height="0.69" transform="translate(30.99 14.12) scale(0.04)" xlink:href="#New_Symbol_3"/><use width="0.69" height="0.69" transform="translate(26.11 16.56) scale(0.05)" xlink:href="#New_Symbol_3"/><use width="0.69" height="0.69" transform="translate(32.22 18.58) scale(0.06)" xlink:href="#New_Symbol_3"/><use width="0.69" height="0.69" transform="translate(33.87 13.34) scale(0.05)" xlink:href="#New_Symbol_3"/><use width="0.69" height="0.69" transform="translate(22.23 9.61) scale(0.05)" xlink:href="#New_Symbol_3"/><use width="0.69" height="0.69" transform="translate(20.7 8.82) scale(0.05)" xlink:href="#New_Symbol_3"/><use width="0.69" height="0.69" transform="translate(20.43 4.95) scale(0.04)" xlink:href="#New_Symbol_3"/><use width="0.69" height="0.69" transform="translate(19.36 3.41) scale(0.05)" xlink:href="#New_Symbol_3"/><use width="0.69" height="0.69" transform="translate(25.13 3.19) scale(0.03)" xlink:href="#New_Symbol_3"/><use width="0.69" height="0.69" transform="translate(23.24 13.82) scale(0.05)" xlink:href="#New_Symbol_3"/><use width="0.69" height="0.69" transform="translate(24.18 14.53) scale(0.05)" xlink:href="#New_Symbol_3"/><use width="0.69" height="0.69" transform="translate(23.7 13.23) scale(0.05)" xlink:href="#New_Symbol_3"/><use width="0.69" height="0.69" transform="translate(21.97 12.13) scale(0.05)" xlink:href="#New_Symbol_3"/><use width="0.69" height="0.69" transform="translate(29.53 18.58) scale(0.06)" xlink:href="#New_Symbol_3"/><use width="0.69" height="0.69" transform="translate(30.81 18.71) scale(0.06)" xlink:href="#New_Symbol_3"/><use width="0.69" height="0.69" transform="translate(33.52 3.04) scale(0.08)" xlink:href="#New_Symbol_3"/><use width="0.69" height="0.69" transform="translate(32.9 1.74) scale(0.08)" xlink:href="#New_Symbol_3"/><use width="0.69" height="0.69" transform="translate(33.38 1.29) scale(0.08)" xlink:href="#New_Symbol_3"/><use width="0.69" height="0.69" transform="translate(33.36 1.55) scale(0.08)" xlink:href="#New_Symbol_3"/><use width="0.69" height="0.69" transform="translate(33.66 0.92) scale(0.08)" xlink:href="#New_Symbol_3"/><use width="0.69" height="0.69" transform="translate(33.92 1.11) scale(0.08)" xlink:href="#New_Symbol_3"/><use width="0.69" height="0.69" transform="translate(27.64 0.89) scale(0.05)" xlink:href="#New_Symbol_3"/><use width="0.69" height="0.69" transform="translate(25.44 0.86) scale(0.04)" xlink:href="#New_Symbol_3"/><use width="0.69" height="0.69" transform="translate(24.59 0.62) scale(0.04)" xlink:href="#New_Symbol_3"/><use width="0.69" height="0.69" transform="translate(23.34 0.85) scale(0.04)" xlink:href="#New_Symbol_3"/><use width="0.69" height="0.69" transform="translate(20.01 0.47) scale(0.05)" xlink:href="#New_Symbol_3"/><use width="0.69" height="0.69" transform="translate(26.09 5.96) scale(0.03)" xlink:href="#New_Symbol_3"/><use width="0.69" height="0.69" transform="translate(25.91 6.31) scale(0.03)" xlink:href="#New_Symbol_3"/><use width="0.69" height="0.69" transform="translate(28.78 7.11) scale(0.04)" xlink:href="#New_Symbol_3"/><use width="0.69" height="0.69" transform="translate(30.66 5.1) scale(0.06)" xlink:href="#New_Symbol_3"/><use width="0.69" height="0.69" transform="translate(30.69 6.98) scale(0.05)" xlink:href="#New_Symbol_3"/><use width="0.69" height="0.69" transform="translate(32.38 9.53) scale(0.05)" xlink:href="#New_Symbol_3"/><use width="0.69" height="0.69" transform="translate(32.78 11.2) scale(0.04)" xlink:href="#New_Symbol_3"/><use width="0.69" height="0.69" transform="translate(31.76 11.95) scale(0.04)" xlink:href="#New_Symbol_3"/><use width="0.69" height="0.69" transform="translate(34.28 8.78) scale(0.06)" xlink:href="#New_Symbol_3"/><use width="0.69" height="0.69" transform="translate(34.24 10.2) scale(0.06)" xlink:href="#New_Symbol_3"/><use width="0.69" height="0.69" transform="translate(33.64 16.55) scale(0.05)" xlink:href="#New_Symbol_3"/><use width="0.69" height="0.69" transform="translate(26.7 14.64) scale(0.04)" xlink:href="#New_Symbol_3"/><use width="0.69" height="0.69" transform="translate(27.05 13.76) scale(0.04)" xlink:href="#New_Symbol_3"/><use width="0.69" height="0.69" transform="translate(26.78 12.19) scale(0.03)" xlink:href="#New_Symbol_3"/><use width="0.69" height="0.69" transform="translate(23.22 7.47) scale(0.04)" xlink:href="#New_Symbol_3"/><use width="0.69" height="0.69" transform="translate(23.24 6.09) scale(0.04)" xlink:href="#New_Symbol_3"/><use width="0.69" height="0.69" transform="translate(21.06 6.5) scale(0.04)" xlink:href="#New_Symbol_3"/><use width="0.69" height="0.69" transform="translate(19.48 7.14) scale(0.06)" xlink:href="#New_Symbol_3"/><use width="0.69" height="0.69" transform="translate(18.46 9.74) scale(0.07)" xlink:href="#New_Symbol_3"/><use width="0.69" height="0.69" transform="translate(18.79 8.47) scale(0.07)" xlink:href="#New_Symbol_3"/><use width="0.69" height="0.69" transform="translate(19.77 10.62) scale(0.07)" xlink:href="#New_Symbol_3"/><use width="0.69" height="0.69" transform="translate(23.95 3.16) scale(0.04)" xlink:href="#New_Symbol_3"/><use width="0.69" height="0.69" transform="translate(22.02 3.33) scale(0.04)" xlink:href="#New_Symbol_3"/><use width="0.69" height="0.69" transform="translate(23.62 4.26) scale(0.04)" xlink:href="#New_Symbol_3"/><use width="0.69" height="0.69" transform="translate(20.45 0.77) scale(0.04)" xlink:href="#New_Symbol_3"/><use width="0.69" height="0.69" transform="translate(18.44 1.07) scale(0.05)" xlink:href="#New_Symbol_3"/><use width="0.69" height="0.69" transform="translate(30.15 3.87) scale(0.05)" xlink:href="#New_Symbol_3"/><use width="0.69" height="0.69" transform="translate(28.83 3.71) scale(0.05)" xlink:href="#New_Symbol_3"/><use width="0.69" height="0.69" transform="translate(33.43 7.4) scale(0.06)" xlink:href="#New_Symbol_3"/><use width="0.69" height="0.69" transform="translate(34.72 10.92) scale(0.05)" xlink:href="#New_Symbol_3"/><use width="0.69" height="0.69" transform="translate(33.94 18.87) scale(0.05)" xlink:href="#New_Symbol_3"/><use width="0.69" height="0.69" transform="translate(31.01 18.06) scale(0.05)" xlink:href="#New_Symbol_3"/><use width="0.69" height="0.69" transform="translate(31.81 16.27) scale(0.05)" xlink:href="#New_Symbol_3"/><use width="0.69" height="0.69" transform="translate(30.39 16.1) scale(0.05)" xlink:href="#New_Symbol_3"/><use width="0.69" height="0.69" transform="translate(32.52 14.71) scale(0.05)" xlink:href="#New_Symbol_3"/><use width="0.69" height="0.69" transform="translate(28.79 13.96) scale(0.05)" xlink:href="#New_Symbol_3"/><use width="0.69" height="0.69" transform="translate(28.12 13.32) scale(0.05)" xlink:href="#New_Symbol_3"/><use width="0.69" height="0.69" transform="translate(24.87 17.59) scale(0.05)" xlink:href="#New_Symbol_3"/><use width="0.69" height="0.69" transform="translate(23.69 17.06) scale(0.05)" xlink:href="#New_Symbol_3"/><use width="0.69" height="0.69" transform="translate(22.84 15.89) scale(0.05)" xlink:href="#New_Symbol_3"/><use width="0.69" height="0.69" transform="translate(22.01 14.23) scale(0.05)" xlink:href="#New_Symbol_3"/><use width="0.69" height="0.69" transform="translate(21.18 13.06) scale(0.05)" xlink:href="#New_Symbol_3"/><use width="0.69" height="0.69" transform="translate(28.74 19.01) scale(0.05)" xlink:href="#New_Symbol_3"/><use width="0.69" height="0.69" transform="translate(28.02 19.43) scale(0.05)" xlink:href="#New_Symbol_3"/><use width="0.69" height="0.69" transform="translate(27.47 17.01) scale(0.05)" xlink:href="#New_Symbol_3"/><use width="0.69" height="0.69" transform="translate(28.79 17.29) scale(0.05)" xlink:href="#New_Symbol_3"/><use width="0.69" height="0.69" transform="translate(29.47 16.81) scale(0.05)" xlink:href="#New_Symbol_3"/><use width="0.69" height="0.69" transform="translate(34.21 17.68) scale(0.05)" xlink:href="#New_Symbol_3"/><use width="0.69" height="0.69" transform="translate(33.18 18.02) scale(0.05)" xlink:href="#New_Symbol_3"/><use width="0.69" height="0.69" transform="translate(27.53 10.19) scale(0.04)" xlink:href="#New_Symbol_3"/><use width="0.69" height="0.69" transform="translate(26.87 10.27) scale(0.04)" xlink:href="#New_Symbol_3"/><use width="0.69" height="0.69" transform="translate(27.28 6.76) scale(0.04)" xlink:href="#New_Symbol_3"/><use width="0.69" height="0.69" transform="translate(29.58 5.19) scale(0.05)" xlink:href="#New_Symbol_3"/><use width="0.69" height="0.69" transform="translate(29.15 4.52) scale(0.05)" xlink:href="#New_Symbol_3"/><use width="0.69" height="0.69" transform="translate(28.8 1.15) scale(0.05)" xlink:href="#New_Symbol_3"/><use width="0.69" height="0.69" transform="translate(29.8 0.72) scale(0.06)" xlink:href="#New_Symbol_3"/><use width="0.69" height="0.69" transform="translate(26.2 2.91) scale(0.05)" xlink:href="#New_Symbol_3"/><use width="0.69" height="0.69" transform="translate(25.86 2.94) scale(0.05)" xlink:href="#New_Symbol_3"/><use width="0.69" height="0.69" transform="translate(25.86 3.19) scale(0.04)" xlink:href="#New_Symbol_3"/><use width="0.69" height="0.69" transform="translate(25.64 3.21) scale(0.04)" xlink:href="#New_Symbol_3"/><use width="0.69" height="0.69" transform="translate(26.04 2.78) scale(0.05)" xlink:href="#New_Symbol_3"/><use width="0.69" height="0.69" transform="translate(29.79 6.14) scale(0.05)" xlink:href="#New_Symbol_3"/><use width="0.69" height="0.69" transform="translate(29.71 6.33) scale(0.05)" xlink:href="#New_Symbol_3"/><use width="0.69" height="0.69" transform="translate(30.42 5.99) scale(0.05)" xlink:href="#New_Symbol_3"/><use width="0.69" height="0.69" transform="translate(31.54 8.12) scale(0.05)" xlink:href="#New_Symbol_3"/><use width="0.69" height="0.69" transform="translate(31.27 8.35) scale(0.05)" xlink:href="#New_Symbol_3"/><use width="0.69" height="0.69" transform="translate(31.7 7.93) scale(0.05)" xlink:href="#New_Symbol_3"/><use width="0.69" height="0.69" transform="translate(31.59 7.76) scale(0.05)" xlink:href="#New_Symbol_3"/><use width="0.69" height="0.69" transform="translate(25.14 13.58) scale(0.05)" xlink:href="#New_Symbol_3"/><use width="0.69" height="0.69" transform="translate(24.95 13.55) scale(0.05)" xlink:href="#New_Symbol_3"/><use width="0.69" height="0.69" transform="translate(25.9 12.82) scale(0.05)" xlink:href="#New_Symbol_3"/><use width="0.69" height="0.69" transform="translate(25.56 13.06) scale(0.05)" xlink:href="#New_Symbol_3"/><use width="0.69" height="0.69" transform="translate(25.53 12.51) scale(0.05)" xlink:href="#New_Symbol_3"/><use width="0.69" height="0.69" transform="translate(25.15 12.31) scale(0.05)" xlink:href="#New_Symbol_3"/><use width="0.69" height="0.69" transform="translate(25.24 12.63) scale(0.05)" xlink:href="#New_Symbol_3"/><use width="0.69" height="0.69" transform="translate(23.1 10.04) scale(0.05)" xlink:href="#New_Symbol_3"/><use width="0.69" height="0.69" transform="translate(22.91 10.06) scale(0.05)" xlink:href="#New_Symbol_3"/><use width="0.69" height="0.69" transform="translate(18.66 10.38) scale(0.05)" xlink:href="#New_Symbol_3"/><use width="0.69" height="0.69" transform="translate(18.86 10.31) scale(0.05)" xlink:href="#New_Symbol_3"/><use width="0.69" height="0.69" transform="translate(18.71 10.13) scale(0.05)" xlink:href="#New_Symbol_3"/><use width="0.69" height="0.69" transform="translate(17.99 9.89) scale(0.05)" xlink:href="#New_Symbol_3"/><use width="0.69" height="0.69" transform="translate(18.06 9.49) scale(0.05)" xlink:href="#New_Symbol_3"/><use width="0.69" height="0.69" transform="translate(17.89 9.12) scale(0.05)" xlink:href="#New_Symbol_3"/><use width="0.69" height="0.69" transform="translate(19.64 5.15) scale(0.05)" xlink:href="#New_Symbol_3"/><use width="0.69" height="0.69" transform="translate(19.61 5.48) scale(0.05)" xlink:href="#New_Symbol_3"/><use width="0.69" height="0.69" transform="translate(20.9 0.91) scale(0.04)" xlink:href="#New_Symbol_3"/><use width="0.69" height="0.69" transform="translate(34.23 12.78) scale(0.05)" xlink:href="#New_Symbol_3"/><use width="0.69" height="0.69" transform="translate(34.02 12.66) scale(0.05)" xlink:href="#New_Symbol_3"/><use width="0.69" height="0.69" transform="translate(34.12 11.78) scale(0.05)" xlink:href="#New_Symbol_3"/><use width="0.69" height="0.69" transform="translate(33.87 11.79) scale(0.05)" xlink:href="#New_Symbol_3"/><use width="0.69" height="0.69" transform="translate(33.86 12.13) scale(0.05)" xlink:href="#New_Symbol_3"/><use width="0.69" height="0.69" transform="translate(34.08 12.03) scale(0.05)" xlink:href="#New_Symbol_3"/><use width="0.69" height="0.69" transform="translate(34 11.52) scale(0.05)" xlink:href="#New_Symbol_3"/><use width="0.69" height="0.69" transform="translate(24.11 17.5) scale(0.05)" xlink:href="#New_Symbol_3"/><use width="0.69" height="0.69" transform="translate(24.29 17.2) scale(0.05)" xlink:href="#New_Symbol_3"/><use width="0.69" height="0.69" transform="translate(24.24 16.35) scale(0.05)" xlink:href="#New_Symbol_3"/><use width="0.69" height="0.69" transform="translate(25.29 16.36) scale(0.05)" xlink:href="#New_Symbol_3"/><circle class="cls-24" cx="24.89" cy="18.36" r="0.28"/><circle class="cls-25" cx="34.23" cy="1.7" r="0.28"/><circle id="_路径_99" data-name="&lt;路径&gt;" class="cls-26" cx="30.89" cy="17.51" r="0.98" transform="translate(-3.34 26.97) rotate(-45)"/><circle class="cls-27" cx="30.9" cy="17.51" r="0.55"/><circle class="cls-13" cx="31.6" cy="17.16" r="0.15"/><circle class="cls-28" cx="23.04" cy="14.72" r="0.95"/><circle class="cls-29" cx="19" cy="4.91" r="0.47"/><circle class="cls-30" cx="25.43" cy="1.22" r="0.55"/><circle class="cls-31" cx="34.23" cy="4.99" r="0.22"/><circle class="cls-31" cx="30.69" cy="0.77" r="0.09"/><circle class="cls-13" cx="32.68" cy="7.45" r="0.09"/><circle class="cls-13" cx="26.25" cy="7.15" r="0.09"/><circle class="cls-31" cx="23.44" cy="11.9" r="0.09"/><circle class="cls-31" cx="26.43" cy="12.3" r="0.18"/><circle class="cls-31" cx="27.64" cy="5.38" r="0.09"/><circle class="cls-31" cx="25.77" cy="10.33" r="0.06"/><circle class="cls-32" cx="21.91" cy="3.52" r="0.09"/><circle class="cls-32" cx="17.53" cy="7.87" r="0.09"/><circle class="cls-32" cx="19.47" cy="14.17" r="0.09"/><circle class="cls-32" cx="20.3" cy="14.99" r="0.09"/><circle class="cls-32" cx="19.85" cy="12.52" r="0.05"/><circle class="cls-32" cx="16.24" cy="7.91" r="0.05"/><circle class="cls-32" cx="15.03" cy="7.45" r="0.02"/><circle class="cls-32" cx="14.68" cy="5.38" r="0.02"/><circle class="cls-32" cx="18.45" cy="15.46" r="0.02"/><circle class="cls-32" cx="20.9" cy="15.53" r="0.02"/><circle class="cls-32" cx="16.24" cy="5.38" r="0.05"/><circle class="cls-32" cx="18.5" cy="14.35" r="0.05"/><circle class="cls-32" cx="17.62" cy="5.21" r="0.07"/><circle class="cls-32" cx="20.99" cy="11.34" r="0.09"/><circle class="cls-32" cx="25.62" cy="18.07" r="0.09"/><circle class="cls-8" cx="20.9" cy="9.73" r="0.18"/><circle class="cls-32" cx="33.11" cy="13.93" r="0.31"/><g id="_编组_129" data-name="&lt;编组&gt;"><path class="cls-8" d="M21.26,6.09,21.42,6l0-.08c-.24-.48-.3-.86-.14-1s.53-.1,1,.14a4.77,4.77,0,0,1,.5.29l.1-.16a5,5,0,0,0-.52-.3c-.58-.29-1-.33-1.24-.11s-.18.66.11,1.24Z"/></g><g id="_编组_130" data-name="&lt;编组&gt;"><path class="cls-8" d="M25.12,9.33a.54.54,0,0,0,.4-.14c.22-.22.18-.66-.11-1.24a5,5,0,0,0-.3-.52l-.16.1a4.75,4.75,0,0,1,.29.5c.24.48.3.86.14,1s-.53.1-1-.14l-.08.17A2,2,0,0,0,25.12,9.33Z"/></g><circle id="_路径_100" data-name="&lt;路径&gt;" class="cls-33" cx="23.44" cy="7.03" r="1.99"/><g id="_编组_131" data-name="&lt;编组&gt;"><path class="cls-8" d="M24.29,9.08l.08-.17A8,8,0,0,1,21.42,6l-.17.09A8.11,8.11,0,0,0,24.29,9.08Z"/></g><circle id="_路径_101" data-name="&lt;路径&gt;" class="cls-34" cx="21.81" cy="6.7" r="0.55"/><circle id="_路径_102" data-name="&lt;路径&gt;" class="cls-35" cx="25.48" cy="8.31" r="0.31"/><circle id="_路径_103" data-name="&lt;路径&gt;" class="cls-36" cx="24.57" cy="9.08" r="0.4"/><circle id="_路径_104" data-name="&lt;路径&gt;" class="cls-1" cx="23.86" cy="8.85" r="0.13"/><circle id="_路径_105" data-name="&lt;路径&gt;" class="cls-37" cx="22.67" cy="8.51" r="0.13"/><circle id="_路径_106" data-name="&lt;路径&gt;" class="cls-37" cx="23.75" cy="8.12" r="0.06"/><circle id="_路径_107" data-name="&lt;路径&gt;" class="cls-37" cx="25.74" cy="7.72" r="0.06"/><circle id="_路径_108" data-name="&lt;路径&gt;" class="cls-37" cx="22.17" cy="5.15" r="0.06"/><circle id="_路径_109" data-name="&lt;路径&gt;" class="cls-1" cx="22.36" cy="7.63" r="0.13"/><circle id="_路径_110" data-name="&lt;路径&gt;" class="cls-1" cx="22.61" cy="7.09" r="0.06"/><circle id="_路径_111" data-name="&lt;路径&gt;" class="cls-38" cx="20.9" cy="5.75" r="0.06"/><circle id="_路径_112" data-name="&lt;路径&gt;" class="cls-39" cx="22.48" cy="8.28" r="0.03"/><circle id="_路径_113" data-name="&lt;路径&gt;" class="cls-40" cx="24.2" cy="8.18" r="0.03"/><g id="_编组_132" data-name="&lt;编组&gt;"><circle id="_路径_114" data-name="&lt;路径&gt;" class="cls-41" cx="28.63" cy="11.58" r="0.98" transform="translate(0.2 23.63) rotate(-45)"/><circle id="_路径_115" data-name="&lt;路径&gt;" class="cls-31" cx="28.62" cy="11.57" r="0.5" transform="translate(0.2 23.62) rotate(-45)"/><path id="_路径_116" data-name="&lt;路径&gt;" class="cls-42" d="M28.87,12a0,0,0,0,1,0,0L29,11.8a0,0,0,0,0,0,0h0l-.06.06a0,0,0,0,1,0,0,0,0,0,0,1,0,0l.15-.15a0,0,0,0,0,0,0,0,0,0,0,0,0,0l-.05.05h0a0,0,0,0,1,0,0l.13-.13a0,0,0,0,0,0,0,0,0,0,0,0,0,0l-.26.26a0,0,0,0,1,0,0,0,0,0,0,1,0,0l.21-.21a0,0,0,0,0,0,0,0,0,0,0,0,0,0l-.1.1a0,0,0,0,1,0,0,0,0,0,0,1,0,0l.21-.21a0,0,0,0,0,0,0,0,0,0,0,0,0,0l-.05.05a0,0,0,0,1,0,0,0,0,0,0,1,0,0l.08-.08a0,0,0,0,0,0,0,0,0,0,0,0,0,0l-.26.26a0,0,0,0,1,0,0,0,0,0,0,1,0,0l.09-.09a0,0,0,0,0,0,0,0,0,0,0,0,0,0l-.17.17a0,0,0,0,1,0,0,0,0,0,0,1,0,0l.2-.2a0,0,0,0,0,0,0,0,0,0,0,0,0,0l-.07.07a0,0,0,0,1,0,0,0,0,0,0,1,0,0l0,0a.5.5,0,0,1,.57.8l-.08.06Z"/></g><g id="_编组_133" data-name="&lt;编组&gt;"><circle id="_路径_117" data-name="&lt;路径&gt;" class="cls-43" cx="22.36" cy="10.6" r="0.98" transform="translate(-0.95 18.92) rotate(-45)"/><circle id="_路径_118" data-name="&lt;路径&gt;" class="cls-32" cx="22.35" cy="10.59" r="0.5" transform="translate(-0.94 18.91) rotate(-45)"/></g><circle id="_路径_119" data-name="&lt;路径&gt;" class="cls-3" cx="20.59" cy="13.64" r="0.18" transform="translate(-3.61 18.55) rotate(-45)"/><circle id="_路径_120" data-name="&lt;路径&gt;" class="cls-3" cx="18.05" cy="6.65" r="0.18" transform="translate(0.59 14.71) rotate(-45)"/><circle id="_路径_121" data-name="&lt;路径&gt;" class="cls-31" cx="19.86" cy="13.34" r="0.09" transform="translate(-3.62 17.94) rotate(-44.98)"/><ellipse id="_路径_122" data-name="&lt;路径&gt;" class="cls-31" cx="19.47" cy="15.25" rx="0.04" ry="0.05" transform="translate(-5.08 18.21) rotate(-44.95)"/><circle id="_路径_123" data-name="&lt;路径&gt;" class="cls-31" cx="18.66" cy="13.36" r="0.07" transform="translate(-3.98 17.09) rotate(-44.97)"/><circle id="_路径_124" data-name="&lt;路径&gt;" class="cls-31" cx="17.14" cy="6.66" r="0.14" transform="translate(0.31 14.07) rotate(-45.01)"/><circle id="_路径_125" data-name="&lt;路径&gt;" class="cls-31" cx="15.82" cy="6.39" r="0.07" transform="translate(0.12 13.06) rotate(-45)"/><g id="_编组_134" data-name="&lt;编组&gt;"><circle id="_路径_126" data-name="&lt;路径&gt;" class="cls-44" cx="28.92" cy="8.57" r="2.25"/><g id="_编组_135" data-name="&lt;编组&gt;"><path id="_路径_127" data-name="&lt;路径&gt;" class="cls-13" d="M31.82,4.95h0a.09.09,0,0,1,0,.13L31,5.89A.1.1,0,0,0,31,6h0a.1.1,0,0,0,.15,0l3-3a.1.1,0,0,1,.14,0h0a.1.1,0,0,1,0,.14L31.74,5.73a.1.1,0,0,0,0,.14h0a.1.1,0,0,0,.14,0l.93-.93a.09.09,0,0,1,.13,0h0a.09.09,0,0,1,0,.13L29.3,8.71a.48.48,0,0,1-.68,0h0a.48.48,0,0,1,0-.68l3.08-3.08A.09.09,0,0,1,31.82,4.95Z"/><path id="_路径_128" data-name="&lt;路径&gt;" class="cls-13" d="M33,3.85l-.88.88a.09.09,0,0,1-.13,0h0a.09.09,0,0,1,0-.13l.88-.88a.09.09,0,0,1,.13,0h0A.09.09,0,0,1,33,3.85Z"/><path id="_路径_129" data-name="&lt;路径&gt;" class="cls-13" d="M33.8,4.21l-.62.62a.09.09,0,0,1-.13,0h0a.09.09,0,0,1,0-.13l.62-.62a.09.09,0,0,1,.13,0h0A.09.09,0,0,1,33.8,4.21Z"/><path id="_路径_130" data-name="&lt;路径&gt;" class="cls-13" d="M28.92,7.78l1.47-1.47a.09.09,0,0,1,.13,0h0a.09.09,0,0,1,0,.13l-.38.38a.08.08,0,0,0,0,.11h0a.08.08,0,0,0,.11,0l.18-.18a.09.09,0,0,1,.13,0h0a.09.09,0,0,1,0,.13l-.22.22a.08.08,0,0,0,0,.11h0a.08.08,0,0,0,.11,0l.79-.79a.1.1,0,0,1,.14,0h0a.1.1,0,0,1,0,.14l-2,2Z"/><path id="_路径_131" data-name="&lt;路径&gt;" class="cls-45" d="M28.61,8.1l.84-.84a.09.09,0,0,1,.13,0h0a.09.09,0,0,1,0,.13l-.37.37a.07.07,0,0,0,0,.1h0a.07.07,0,0,0,.1,0l.77-.77a.09.09,0,0,1,.13,0h0a.09.09,0,0,1,0,.13l-.56.56a.07.07,0,0,0,0,.1h0a.07.07,0,0,0,.1,0l.28-.28a.11.11,0,0,1,.15,0h0a.11.11,0,0,1,0,.15l-.93.93Z"/><circle id="_路径_132" data-name="&lt;路径&gt;" class="cls-45" cx="28.97" cy="8.35" r="0.44" transform="translate(2.58 22.94) rotate(-45)"/><circle id="_路径_133" data-name="&lt;路径&gt;" class="cls-46" cx="28.97" cy="8.35" r="0.35" transform="translate(2.58 22.93) rotate(-45)"/><circle id="_路径_134" data-name="&lt;路径&gt;" class="cls-47" cx="28.97" cy="8.35" r="0.2" transform="translate(2.58 22.94) rotate(-45.01)"/></g></g><g id="_编组_136" data-name="&lt;编组&gt;"><circle id="_路径_135" data-name="&lt;路径&gt;" class="cls-48" cx="31.94" cy="12.25" r="1.05"/><g id="_编组_137" data-name="&lt;编组&gt;"><path id="_路径_136" data-name="&lt;路径&gt;" class="cls-13" d="M33.29,10.56h0a0,0,0,0,1,0,.06l-.38.38a0,0,0,0,0,0,.07h0a0,0,0,0,0,.07,0l1.42-1.42a0,0,0,0,1,.07,0h0a0,0,0,0,1,0,.07l-1.21,1.21a0,0,0,0,0,0,.06h0a0,0,0,0,0,.06,0l.43-.43a0,0,0,0,1,.06,0h0a0,0,0,0,1,0,.06l-1.7,1.7a.23.23,0,0,1-.32,0h0a.23.23,0,0,1,0-.32l1.44-1.44A0,0,0,0,1,33.29,10.56Z"/><path id="_路径_137" data-name="&lt;路径&gt;" class="cls-13" d="M33.86,10l-.41.41a0,0,0,0,1-.06,0h0a0,0,0,0,1,0-.06L33.8,10a0,0,0,0,1,.06,0h0A0,0,0,0,1,33.86,10Z"/><path id="_路径_138" data-name="&lt;路径&gt;" class="cls-13" d="M34.21,10.21l-.29.29a0,0,0,0,1-.06,0h0a0,0,0,0,1,0-.06l.29-.29a0,0,0,0,1,.06,0h0A0,0,0,0,1,34.21,10.21Z"/><path id="_路径_139" data-name="&lt;路径&gt;" class="cls-13" d="M31.94,11.88l.69-.69a0,0,0,0,1,.06,0h0a0,0,0,0,1,0,.06l-.18.18a0,0,0,0,0,0,.05h0a0,0,0,0,0,.05,0l.08-.08a0,0,0,0,1,.06,0h0a0,0,0,0,1,0,.06l-.1.1a0,0,0,0,0,0,.05h0a0,0,0,0,0,.05,0l.37-.37a0,0,0,0,1,.07,0h0a0,0,0,0,1,0,.07l-.92.92Z"/><path id="_路径_140" data-name="&lt;路径&gt;" class="cls-45" d="M31.79,12l.39-.39a0,0,0,0,1,.06,0h0a0,0,0,0,1,0,.06l-.17.17a0,0,0,0,0,0,0h0a0,0,0,0,0,0,0l.36-.36a0,0,0,0,1,.06,0h0a0,0,0,0,1,0,.06l-.26.26a0,0,0,0,0,0,0h0a0,0,0,0,0,0,0l.13-.13a0,0,0,0,1,.07,0h0a0,0,0,0,1,0,.07l-.43.44Z"/><circle id="_路径_141" data-name="&lt;路径&gt;" class="cls-45" cx="31.96" cy="12.15" r="0.2" transform="translate(0.77 26.16) rotate(-45)"/><circle id="_路径_142" data-name="&lt;路径&gt;" class="cls-46" cx="31.96" cy="12.15" r="0.16" transform="translate(0.77 26.16) rotate(-45.01)"/><circle id="_路径_143" data-name="&lt;路径&gt;" class="cls-47" cx="31.96" cy="12.15" r="0.09" transform="translate(0.77 26.16) rotate(-45)"/></g></g><use width="0.69" height="0.69" transform="translate(27.34 7.44) scale(0.08)" xlink:href="#New_Symbol_3"/><use width="0.69" height="0.69" transform="translate(27.02 7.24) scale(0.08)" xlink:href="#New_Symbol_3"/><use width="0.69" height="0.69" transform="translate(26.98 6.98) scale(0.08)" xlink:href="#New_Symbol_3"/><use width="0.69" height="0.69" transform="translate(27.58 8.19) scale(0.08)" xlink:href="#New_Symbol_3"/><use width="0.69" height="0.69" transform="translate(29.6 13.33) scale(0.08)" xlink:href="#New_Symbol_3"/><use width="0.69" height="0.69" transform="translate(30.4 13.47) scale(0.08)" xlink:href="#New_Symbol_3"/><use width="0.69" height="0.69" transform="translate(30.45 13.25) scale(0.08)" xlink:href="#New_Symbol_3"/><use width="0.69" height="0.69" transform="translate(24.04 11.74) scale(0.08)" xlink:href="#New_Symbol_3"/><use width="0.69" height="0.69" transform="translate(23.7 11.25) scale(0.08)" xlink:href="#New_Symbol_3"/><use width="0.69" height="0.69" transform="translate(23.45 11.13) scale(0.08)" xlink:href="#New_Symbol_3"/><use width="0.69" height="0.69" transform="translate(23.45 11.39) scale(0.08)" xlink:href="#New_Symbol_3"/><use width="0.69" height="0.69" transform="translate(24.21 10.86) scale(0.08)" xlink:href="#New_Symbol_3"/><use width="0.69" height="0.69" transform="translate(19.74 8.61) scale(0.08)" xlink:href="#New_Symbol_3"/><use width="0.69" height="0.69" transform="translate(19.76 8.25) scale(0.08)" xlink:href="#New_Symbol_3"/><use width="0.69" height="0.69" transform="translate(19.92 7.72) scale(0.08)" xlink:href="#New_Symbol_3"/><use width="0.69" height="0.69" transform="translate(19.62 7.56) scale(0.07)" xlink:href="#New_Symbol_3"/><use width="0.69" height="0.69" transform="translate(19.5 7.75) scale(0.07)" xlink:href="#New_Symbol_3"/><use width="0.69" height="0.69" transform="translate(33.13 17.53) scale(0.08)" xlink:href="#New_Symbol_3"/><use width="0.69" height="0.69" transform="translate(32.48 17.52) scale(0.08)" xlink:href="#New_Symbol_3"/><use width="0.69" height="0.69" transform="translate(32.23 18.01) scale(0.08)" xlink:href="#New_Symbol_3"/><use width="0.69" height="0.69" transform="translate(32.11 16.95) scale(0.08)" xlink:href="#New_Symbol_3"/><use width="0.69" height="0.69" transform="translate(27.84 3.06) scale(0.08)" xlink:href="#New_Symbol_3"/><use width="0.69" height="0.69" transform="translate(28.34 2.76) scale(0.08)" xlink:href="#New_Symbol_3"/><use width="0.69" height="0.69" transform="translate(27.64 3.79) scale(0.08)" xlink:href="#New_Symbol_3"/><use width="0.69" height="0.69" transform="translate(27.73 4.05) scale(0.08)" xlink:href="#New_Symbol_3"/><use width="0.69" height="0.69" transform="translate(28.01 3.74) scale(0.08)" xlink:href="#New_Symbol_3"/><use width="0.69" height="0.69" transform="translate(34.18 7.47) scale(0.08)" xlink:href="#New_Symbol_3"/><use width="0.69" height="0.69" transform="translate(33.93 8.16) scale(0.08)" xlink:href="#New_Symbol_3"/><use width="0.69" height="0.69" transform="translate(34.31 7.73) scale(0.08)" xlink:href="#New_Symbol_3"/><use width="0.69" height="0.69" transform="translate(22.85 1.07) scale(0.08)" xlink:href="#New_Symbol_3"/><use width="0.69" height="0.69" transform="translate(22.39 1.33) scale(0.08)" xlink:href="#New_Symbol_3"/><use width="0.69" height="0.69" transform="translate(22.15 1.12) scale(0.08)" xlink:href="#New_Symbol_3"/><use width="0.69" height="0.69" transform="translate(20.92 12.41) scale(0.08)" xlink:href="#New_Symbol_3"/><use width="0.69" height="0.69" transform="translate(20.4 11.76) scale(0.08)" xlink:href="#New_Symbol_3"/><use width="0.69" height="0.69" transform="translate(20.52 11.4) scale(0.08)" xlink:href="#New_Symbol_3"/><use width="0.69" height="0.69" transform="translate(21.08 11.01) scale(0.08)" xlink:href="#New_Symbol_3"/><use width="0.69" height="0.69" transform="translate(20.94 11.24) scale(0.08)" xlink:href="#New_Symbol_3"/><use width="0.69" height="0.69" transform="translate(20.61 11.1) scale(0.08)" xlink:href="#New_Symbol_3"/><use width="0.69" height="0.69" transform="translate(20.17 3.52) scale(0.08)" xlink:href="#New_Symbol_3"/><use width="0.69" height="0.69" transform="translate(19.91 3.86) scale(0.08)" xlink:href="#New_Symbol_3"/><use width="0.69" height="0.69" transform="translate(19.58 3.78) scale(0.08)" xlink:href="#New_Symbol_3"/><use width="0.69" height="0.69" transform="translate(19.56 3.13) scale(0.08)" xlink:href="#New_Symbol_3"/><use width="0.69" height="0.69" transform="translate(19.08 3.43) scale(0.08)" xlink:href="#New_Symbol_3"/><use width="0.69" height="0.69" transform="translate(17.89 1.3) scale(0.08)" xlink:href="#New_Symbol_3"/><use width="0.69" height="0.69" transform="translate(17.88 1.59) scale(0.08)" xlink:href="#New_Symbol_3"/><use width="0.69" height="0.69" transform="translate(18.7 6.89) scale(0.08)" xlink:href="#New_Symbol_3"/><use width="0.69" height="0.69" transform="translate(30.07 10.26) scale(0.08)" xlink:href="#New_Symbol_3"/><use width="0.69" height="0.69" transform="translate(29.76 10.63) scale(0.08)" xlink:href="#New_Symbol_3"/><use width="0.69" height="0.69" transform="translate(29.83 10.04) scale(0.08)" xlink:href="#New_Symbol_3"/><use width="0.69" height="0.69" transform="translate(29.39 9.91) scale(0.08)" xlink:href="#New_Symbol_3"/><use width="0.69" height="0.69" transform="translate(28.77 9.55) scale(0.08)" xlink:href="#New_Symbol_3"/><use width="0.69" height="0.69" transform="translate(31.35 13.82) scale(0.08)" xlink:href="#New_Symbol_3"/><use width="0.69" height="0.69" transform="translate(32.11 14.03) scale(0.08)" xlink:href="#New_Symbol_3"/><circle class="cls-13" cx="30.62" cy="9.57" r="0.05"/><circle class="cls-13" cx="24.57" cy="4.76" r="0.05"/><circle class="cls-13" cx="18.23" cy="3.61" r="0.05"/><circle class="cls-13" cx="26.33" cy="15.84" r="0.05"/><circle class="cls-13" cx="34.45" cy="0.51" r="0.05"/><circle class="cls-13" cx="26.92" cy="18.67" r="0.05"/><circle id="_路径_144" data-name="&lt;路径&gt;" class="cls-8" cx="28.33" cy="15.29" r="0.94"/><path class="cls-49" d="M28.33,14.35a.94.94,0,0,0-.46.12.94.94,0,0,1,.85,1.68.94.94,0,0,0-.39-1.8Z"/><circle id="_路径_145" data-name="&lt;路径&gt;" class="cls-8" cx="27.38" cy="4.05" r="0.67"/><path class="cls-50" d="M27.38,3.38a.67.67,0,0,0-.33.09.67.67,0,0,1,.61,1.2.67.67,0,0,0-.28-1.28Z"/><ellipse class="cls-51" cx="30.64" cy="2.65" rx="2.47" ry="0.89"/><path class="cls-32" d="M31.79,2.78H29.58A.54.54,0,0,1,29,2.24h0a.54.54,0,0,1,.54-.54h2.22a.54.54,0,0,1,.54.54h0A.54.54,0,0,1,31.79,2.78Z"/><rect class="cls-32" x="0.04" y="1.63" width="0.96" height="0.96"/><text class="cls-52" transform="translate(15.94 2.37)">Home</text><text class="cls-53" transform="translate(18.24 2.37)">About us</text><text class="cls-54" transform="translate(24.15 2.37)"><tspan class="cls-55">In</tspan><tspan class="cls-56" x="0.4" y="0">f</tspan><tspan x="0.53" y="0">o</tspan></text><text class="cls-54" transform="translate(21.27 2.37)"><tspan class="cls-57">P</tspan><tspan x="0.25" y="0">o</tspan><tspan class="cls-58" x="0.52" y="0">r</tspan><tspan x="0.69" y="0">t</tspan><tspan class="cls-59" x="0.86" y="0">fo</tspan><tspan class="cls-60" x="1.26" y="0">lio</tspan></text><text class="cls-54" transform="translate(25.88 2.37)"><tspan class="cls-59">C</tspan><tspan x="0.28" y="0">onta</tspan><tspan class="cls-61" x="1.22" y="0">c</tspan><tspan x="1.45" y="0">t us</tspan></text><path class="cls-17" d="M.26,2.21l.13-.33H.52L.31,2.4H.21L0,1.87H.13Z"/><path class="cls-17" d="M1,2a.15.15,0,0,1-.1.16L1,2.4H.89L.78,2.23H.7V2.4H.58V1.87h.2a.28.28,0,0,1,.17,0A.16.16,0,0,1,1,2Zm-.14.06A.08.08,0,0,0,.89,2,.07.07,0,0,0,.86,2L.79,2H.7v.15H.78Z"/><text class="cls-62" transform="translate(29.79 2.37)">Sign up</text><text class="cls-63" transform="translate(1.25 2.32)"><tspan class="cls-64">Y</tspan><tspan x="0.31" y="0">our</tspan><tspan class="cls-65" x="1.24" y="0">L</tspan><tspan x="1.54" y="0">ogo</tspan></text></g></g></g></svg>