<svg xmlns="http://www.w3.org/2000/svg" xmlns:xlink="http://www.w3.org/1999/xlink" viewBox="0 0 37.87 22.68"><defs><style>.cls-1{fill:#5ddaf4;}.cls-2{isolation:isolate;}.cls-3{fill:#fff;}.cls-4{fill:#150d9c;}.cls-5{fill:url(#linear-gradient);}.cls-6{fill:url(#linear-gradient-2);}.cls-7{fill:url(#linear-gradient-3);}.cls-8{fill:url(#linear-gradient-4);}.cls-22,.cls-9{fill:#0d035c;}.cls-10{fill:url(#linear-gradient-5);}.cls-11,.cls-22{opacity:0.3;}.cls-12{fill:url(#linear-gradient-6);}.cls-13{fill:url(#linear-gradient-7);}.cls-14{fill:#f67;}.cls-15{fill:#fc899f;}.cls-16{fill:#2329f0;}.cls-17{fill:url(#linear-gradient-8);}.cls-18{fill:url(#linear-gradient-9);}.cls-19{fill:url(#linear-gradient-10);}.cls-20{fill:url(#linear-gradient-11);}.cls-21{fill:url(#linear-gradient-12);}.cls-23{fill:url(#linear-gradient-13);}.cls-24{fill:url(#linear-gradient-14);}.cls-25{fill:url(#linear-gradient-15);}.cls-26,.cls-41,.cls-43,.cls-44,.cls-48{mix-blend-mode:screen;}.cls-26{fill:url(#radial-gradient);}.cls-27{fill:url(#linear-gradient-16);}.cls-28{fill:url(#linear-gradient-17);}.cls-29{fill:url(#linear-gradient-18);}.cls-30{fill:url(#linear-gradient-19);}.cls-31{fill:#ba539a;}.cls-32{fill:#2657f4;}.cls-33{fill:url(#linear-gradient-20);}.cls-34{fill:url(#linear-gradient-21);}.cls-35{fill:url(#linear-gradient-22);}.cls-36{fill:url(#linear-gradient-23);}.cls-37{fill:#623fe9;}.cls-38{fill:url(#linear-gradient-24);}.cls-39{fill:url(#linear-gradient-25);}.cls-40{fill:url(#linear-gradient-26);}.cls-41{fill:url(#radial-gradient-2);}.cls-42{fill:#c875ae;}.cls-43{fill:url(#radial-gradient-3);}.cls-44{fill:url(#radial-gradient-4);}.cls-45{fill:#ff8592;}.cls-46{fill:#ffa3ad;}.cls-47{fill:#ffc2c9;}.cls-48{fill:url(#radial-gradient-5);}.cls-49{fill:url(#linear-gradient-27);}.cls-50{fill:url(#linear-gradient-28);}.cls-51{mix-blend-mode:multiply;fill:url(#radial-gradient-6);}</style><linearGradient id="linear-gradient" x1="16.69" y1="19.3" x2="17.11" y2="19.3" gradientUnits="userSpaceOnUse"><stop offset="0" stop-color="#2329f0"/><stop offset="0.32" stop-color="#2433f1"/><stop offset="0.87" stop-color="#264ff3"/><stop offset="1" stop-color="#2657f4"/></linearGradient><linearGradient id="linear-gradient-2" x1="-320.73" y1="-177.29" x2="-320.23" y2="-177.29" gradientTransform="matrix(0.67, 0.74, -0.74, 0.67, 105.33, 375.12)" xlink:href="#linear-gradient"/><linearGradient id="linear-gradient-3" x1="88.73" y1="193.11" x2="89.15" y2="193.11" gradientTransform="translate(-133.54 -131.25) rotate(-20.14)" xlink:href="#linear-gradient"/><linearGradient id="linear-gradient-4" x1="18.18" y1="18.96" x2="18.05" y2="18.1" xlink:href="#linear-gradient"/><linearGradient id="linear-gradient-5" x1="16.11" y1="20.44" x2="20.63" y2="20.44" gradientUnits="userSpaceOnUse"><stop offset="0" stop-color="#673ab7"/><stop offset="0.17" stop-color="#6f44ba"/><stop offset="0.47" stop-color="#8561c3"/><stop offset="0.85" stop-color="#a98ed1"/><stop offset="1" stop-color="#b8a1d7"/></linearGradient><linearGradient id="linear-gradient-6" x1="-961.18" y1="20.42" x2="-956.66" y2="20.42" gradientTransform="matrix(-1, 0, 0, 1, -937.37, 0)" xlink:href="#linear-gradient-5"/><linearGradient id="linear-gradient-7" x1="21.66" y1="18.37" x2="40.68" y2="-2.84" gradientUnits="userSpaceOnUse"><stop offset="0" stop-color="#150d9c"/><stop offset="0.12" stop-color="#1f119c"/><stop offset="0.31" stop-color="#381c9c"/><stop offset="0.57" stop-color="#622e9b"/><stop offset="0.86" stop-color="#9c469a"/><stop offset="1" stop-color="#ba539a"/></linearGradient><linearGradient id="linear-gradient-8" x1="19.34" y1="21.62" x2="21.12" y2="21.62" xlink:href="#linear-gradient"/><linearGradient id="linear-gradient-9" x1="18.62" y1="10.59" x2="20.21" y2="10.59" gradientUnits="userSpaceOnUse"><stop offset="0" stop-color="#2329f0"/><stop offset="0.18" stop-color="#3831f4"/><stop offset="0.53" stop-color="#5d40fa"/><stop offset="0.82" stop-color="#744afe"/><stop offset="1" stop-color="#7c4dff"/></linearGradient><linearGradient id="linear-gradient-10" x1="19.75" y1="10.49" x2="20.49" y2="10.02" gradientUnits="userSpaceOnUse"><stop offset="0" stop-color="#0d035c"/><stop offset="0.14" stop-color="#0e0661"/><stop offset="0.3" stop-color="#100e71"/><stop offset="0.49" stop-color="#151c8a"/><stop offset="0.69" stop-color="#1a30ad"/><stop offset="0.89" stop-color="#2249da"/><stop offset="1" stop-color="#2657f4"/></linearGradient><linearGradient id="linear-gradient-11" x1="19.89" y1="10.24" x2="20.4" y2="10.24" gradientUnits="userSpaceOnUse"><stop offset="0" stop-color="#673ab7"/><stop offset="0.02" stop-color="#6c3bb5"/><stop offset="0.36" stop-color="#ab4e9b"/><stop offset="0.65" stop-color="#d85b87"/><stop offset="0.87" stop-color="#f5637b"/><stop offset="1" stop-color="#f67"/></linearGradient><linearGradient id="linear-gradient-12" x1="17.74" y1="15.49" x2="21.61" y2="11.33" gradientUnits="userSpaceOnUse"><stop offset="0" stop-color="#673ab7"/><stop offset="0.45" stop-color="#9347a7"/><stop offset="0.8" stop-color="#b0509e"/><stop offset="1" stop-color="#ba539a"/></linearGradient><linearGradient id="linear-gradient-13" x1="18.53" y1="21.62" x2="20.3" y2="21.62" xlink:href="#linear-gradient"/><linearGradient id="linear-gradient-14" x1="27.46" y1="18.56" x2="27.92" y2="18.09" gradientUnits="userSpaceOnUse"><stop offset="0" stop-color="#0d035c"/><stop offset="0.17" stop-color="#250e65"/><stop offset="0.54" stop-color="#632b7b"/><stop offset="1" stop-color="#ba539a"/></linearGradient><linearGradient id="linear-gradient-15" x1="36.8" y1="1.9" x2="37.26" y2="1.43" xlink:href="#linear-gradient-14"/><radialGradient id="radial-gradient" cx="-631.14" cy="141.27" r="0.98" gradientTransform="matrix(-1, 0, 0, 1, -597.49, -123.73)" gradientUnits="userSpaceOnUse"><stop offset="0" stop-color="#2657f4"/><stop offset="0.06" stop-color="#2049ce"/><stop offset="0.15" stop-color="#19389e"/><stop offset="0.25" stop-color="#122974"/><stop offset="0.35" stop-color="#0c1c50"/><stop offset="0.45" stop-color="#081233"/><stop offset="0.56" stop-color="#040a1c"/><stop offset="0.68" stop-color="#02040c"/><stop offset="0.82" stop-color="#000103"/><stop offset="1"/></radialGradient><linearGradient id="linear-gradient-16" x1="33.26" y1="17.92" x2="34.19" y2="16.98" gradientUnits="userSpaceOnUse"><stop offset="0" stop-color="#0d035c"/><stop offset="0.13" stop-color="#250d5f"/><stop offset="0.4" stop-color="#632666"/><stop offset="0.79" stop-color="#c64f71"/><stop offset="1" stop-color="#f67"/></linearGradient><linearGradient id="linear-gradient-17" x1="25.12" y1="15.41" x2="26.71" y2="13.8" gradientUnits="userSpaceOnUse"><stop offset="0" stop-color="#150d9c"/><stop offset="0.21" stop-color="#1f13a6"/><stop offset="0.56" stop-color="#3824bf"/><stop offset="1" stop-color="#623fe9"/><stop offset="1" stop-color="#623fe9"/></linearGradient><linearGradient id="linear-gradient-18" x1="21.42" y1="5.25" x2="22.21" y2="4.45" xlink:href="#linear-gradient-17"/><linearGradient id="linear-gradient-19" x1="27.8" y1="1.62" x2="28.72" y2="0.7" xlink:href="#linear-gradient-16"/><linearGradient id="linear-gradient-20" x1="24.56" y1="8.67" x2="27.59" y2="5.64" gradientUnits="userSpaceOnUse"><stop offset="0.46" stop-color="#663bba"/><stop offset="0.47" stop-color="#683cb9"/><stop offset="0.6" stop-color="#9e4ba2"/><stop offset="0.72" stop-color="#c8568f"/><stop offset="0.84" stop-color="#e65f82"/><stop offset="0.93" stop-color="#f8647a"/><stop offset="1" stop-color="#f67"/></linearGradient><linearGradient id="linear-gradient-21" x1="-665.76" y1="7.16" x2="-664.92" y2="6.31" gradientTransform="matrix(-1, 0, 0, 1, -640.73, 0)" gradientUnits="userSpaceOnUse"><stop offset="0" stop-color="#2657f4"/><stop offset="0.21" stop-color="#505adc"/><stop offset="0.69" stop-color="#b961a0"/><stop offset="1" stop-color="#f67"/></linearGradient><linearGradient id="linear-gradient-22" x1="-669.23" y1="8.57" x2="-668.76" y2="8.1" xlink:href="#linear-gradient-21"/><linearGradient id="linear-gradient-23" x1="-668.42" y1="9.55" x2="-667.85" y2="8.78" gradientTransform="matrix(-1, 0, 0, 1, -640.73, 0)" gradientUnits="userSpaceOnUse"><stop offset="0" stop-color="#ef9ea3"/><stop offset="0.21" stop-color="#f0a29c"/><stop offset="0.51" stop-color="#f4ac8a"/><stop offset="0.86" stop-color="#fbbd6c"/><stop offset="1" stop-color="#fec55e"/></linearGradient><linearGradient id="linear-gradient-24" x1="-664.46" y1="5.75" x2="-664.33" y2="5.75" xlink:href="#linear-gradient-23"/><linearGradient id="linear-gradient-25" x1="-666.01" y1="8.28" x2="-665.95" y2="8.28" xlink:href="#linear-gradient-23"/><linearGradient id="linear-gradient-26" x1="-667.73" y1="8.18" x2="-667.67" y2="8.18" xlink:href="#linear-gradient-23"/><radialGradient id="radial-gradient-2" cx="-633.74" cy="135.48" r="0.98" gradientTransform="matrix(-1, 0, 0, 1, -602.34, -123.92)" gradientUnits="userSpaceOnUse"><stop offset="0" stop-color="#ba539a"/><stop offset="0.09" stop-color="#9c4581"/><stop offset="0.25" stop-color="#6d305a"/><stop offset="0.41" stop-color="#451f3a"/><stop offset="0.56" stop-color="#271120"/><stop offset="0.72" stop-color="#11080e"/><stop offset="0.86" stop-color="#040204"/><stop offset="1"/></radialGradient><radialGradient id="radial-gradient-3" cx="-630" cy="130.36" r="0.98" gradientTransform="matrix(-1, 0, 0, 1, -604.87, -119.73)" gradientUnits="userSpaceOnUse"><stop offset="0" stop-color="#2657f4"/><stop offset="0.07" stop-color="#214cd4"/><stop offset="0.21" stop-color="#18389c"/><stop offset="0.35" stop-color="#11276d"/><stop offset="0.49" stop-color="#0b1945"/><stop offset="0.62" stop-color="#060e27"/><stop offset="0.76" stop-color="#030611"/><stop offset="0.88" stop-color="#010204"/><stop offset="1"/></radialGradient><radialGradient id="radial-gradient-4" cx="-507.21" cy="8.57" r="2.25" gradientTransform="matrix(-1, 0, 0, 1, -475.52, 0)" gradientUnits="userSpaceOnUse"><stop offset="0" stop-color="#f67"/><stop offset="0" stop-color="#fc6576"/><stop offset="0.05" stop-color="#cd5260"/><stop offset="0.1" stop-color="#a2414c"/><stop offset="0.15" stop-color="#7b313a"/><stop offset="0.21" stop-color="#5a242a"/><stop offset="0.27" stop-color="#3e191d"/><stop offset="0.35" stop-color="#271012"/><stop offset="0.43" stop-color="#15090a"/><stop offset="0.53" stop-color="#090404"/><stop offset="0.67" stop-color="#020101"/><stop offset="1"/></radialGradient><radialGradient id="radial-gradient-5" cx="-510.22" cy="12.25" r="1.05" xlink:href="#radial-gradient-4"/><linearGradient id="linear-gradient-27" x1="30.63" y1="15.25" x2="32.03" y2="15.25" xlink:href="#linear-gradient-16"/><linearGradient id="linear-gradient-28" x1="29.82" y1="4.02" x2="30.82" y2="4.02" xlink:href="#linear-gradient-16"/><radialGradient id="radial-gradient-6" cx="-112.85" cy="16604.01" r="1.83" gradientTransform="translate(184.16 -5383.69) scale(1.34 0.32)" gradientUnits="userSpaceOnUse"><stop offset="0" stop-color="#2657f4"/><stop offset="0.02" stop-color="#3361f5"/><stop offset="0.12" stop-color="#6386f7"/><stop offset="0.21" stop-color="#8da6f9"/><stop offset="0.32" stop-color="#b0c2fb"/><stop offset="0.42" stop-color="#cdd8fc"/><stop offset="0.54" stop-color="#e3e9fe"/><stop offset="0.66" stop-color="#f3f6fe"/><stop offset="0.8" stop-color="#fcfdff"/><stop offset="1" stop-color="#fff"/></radialGradient><symbol id="New_Symbol_3" data-name="New Symbol 3" viewBox="0 0 0.69 0.69"><circle class="cls-1" cx="0.35" cy="0.35" r="0.35"/></symbol></defs><title>资源 1</title><g class="cls-2"><g id="图层_2" data-name="图层 2"><g id="图层_1-2" data-name="图层 1"><rect class="cls-3" width="37.82" height="22.68"/><g id="_编组_" data-name="&lt;编组&gt;"><g id="_编组_2" data-name="&lt;编组&gt;"><path id="_路径_" data-name="&lt;路径&gt;" class="cls-4" d="M13.73,19.35a5.09,5.09,0,0,0,3.34,2s0,0,0-.05a5,5,0,0,1-3.31-2s-.07,0,0,0Z"/></g><path id="_路径_2" data-name="&lt;路径&gt;" class="cls-4" d="M13.86,19.49s-.47-.11-.42-.51C13.45,19,13.82,18.91,13.86,19.49Z"/><path id="_路径_3" data-name="&lt;路径&gt;" class="cls-4" d="M14.18,19.86s-.42.23-.65-.1C13.53,19.76,13.76,19.46,14.18,19.86Z"/><path id="_路径_4" data-name="&lt;路径&gt;" class="cls-4" d="M14.67,20.31s-.38.29-.66,0C14,20.31,14.19,20,14.67,20.31Z"/><path id="_路径_5" data-name="&lt;路径&gt;" class="cls-4" d="M15.21,20.66s-.29.38-.64.17C14.57,20.83,14.66,20.47,15.21,20.66Z"/><path id="_路径_6" data-name="&lt;路径&gt;" class="cls-4" d="M15.79,20.94s-.17.45-.56.35C15.23,21.29,15.2,20.91,15.79,20.94Z"/><path id="_路径_7" data-name="&lt;路径&gt;" class="cls-4" d="M16.36,21.16s-.05.48-.46.48C15.9,21.63,15.79,21.27,16.36,21.16Z"/><path id="_路径_8" data-name="&lt;路径&gt;" class="cls-4" d="M14.19,19.86s-.32-.35-.06-.66C14.13,19.2,14.48,19.35,14.19,19.86Z"/><path id="_路径_9" data-name="&lt;路径&gt;" class="cls-4" d="M14.68,20.3s-.33-.35-.06-.66C14.62,19.65,15,19.8,14.68,20.3Z"/><path id="_路径_10" data-name="&lt;路径&gt;" class="cls-4" d="M15.21,20.67s-.32-.35-.06-.66C15.15,20,15.5,20.16,15.21,20.67Z"/><path id="_路径_11" data-name="&lt;路径&gt;" class="cls-4" d="M15.78,21s-.33-.35-.06-.66C15.72,20.32,16.07,20.47,15.78,21Z"/><path id="_路径_12" data-name="&lt;路径&gt;" class="cls-4" d="M16.35,21.17s-.32-.35-.06-.66C16.29,20.52,16.64,20.67,16.35,21.17Z"/></g><g id="_编组_3" data-name="&lt;编组&gt;"><g id="_编组_4" data-name="&lt;编组&gt;"><path class="cls-5" d="M17,19.07h0a.13.13,0,0,0,0,.07.25.25,0,0,0-.1-.07h0a.12.12,0,0,0,0,.06.09.09,0,0,0,0,.05l-.05,0h-.06a0,0,0,0,0,0,0v.05s0,0,0,0l-.08,0v0a.47.47,0,0,0,.13.19.86.86,0,0,0,.21.1l0,0v-.06a1,1,0,0,0,0-.14.44.44,0,0,0,0-.14S17.05,19.07,17,19.07Z"/></g><g id="_编组_5" data-name="&lt;编组&gt;"><g id="_编组_6" data-name="&lt;编组&gt;"><path class="cls-4" d="M16.9,19.42a.41.41,0,0,1-.11-.17v0h0v0a.41.41,0,0,0,.11.17.75.75,0,0,0,.19.08h0A.7.7,0,0,1,16.9,19.42Z"/></g></g><g id="_编组_7" data-name="&lt;编组&gt;"><g id="_编组_8" data-name="&lt;编组&gt;"><path class="cls-4" d="M17.07,19.33a.35.35,0,0,0-.06-.16h0l0,0a.35.35,0,0,1,.06.16.63.63,0,0,1,0,.17h0A.59.59,0,0,0,17.07,19.33Z"/></g></g><g id="_编组_9" data-name="&lt;编组&gt;"><path id="_路径_13" data-name="&lt;路径&gt;" class="cls-4" d="M16.89,19.2l.15.29h0l-.15-.3s0,0,0,0Z"/></g><g id="_编组_10" data-name="&lt;编组&gt;"><path class="cls-4" d="M17.09,19.44h0a0,0,0,0,0,0,0l0,0h0v0l0,0h0v0s0,0,0,0h0s0,.05,0,.07l.08,0v0h0a.24.24,0,0,0,0,0,.17.17,0,0,0,0-.05A.2.2,0,0,1,17.09,19.44Z"/></g><path id="_路径_14" data-name="&lt;路径&gt;" class="cls-4" d="M17.32,20.05a2.58,2.58,0,0,1-.24-.49s0,0,0,0a2.82,2.82,0,0,0,.25.51l.06.14h0Z"/></g><g id="_编组_11" data-name="&lt;编组&gt;"><g id="_编组_12" data-name="&lt;编组&gt;"><path class="cls-6" d="M21.77,18.55h0a.15.15,0,0,0-.08,0,.3.3,0,0,0,0-.14h0l-.07,0a.11.11,0,0,0,0,.06.18.18,0,0,0,0-.08v0l0,0h0l0,0s0,0,0,0a.24.24,0,0,0,0-.08l0,0a.56.56,0,0,0-.07.27,1,1,0,0,0,.09.27h.1l0,0,.14-.1a.53.53,0,0,0,.11-.14S21.79,18.56,21.77,18.55Z"/></g><g id="_编组_13" data-name="&lt;编组&gt;"><g id="_编组_14" data-name="&lt;编组&gt;"><path class="cls-4" d="M21.35,18.71a.49.49,0,0,1,.06-.23v0h0l0,0a.49.49,0,0,0-.06.23.9.9,0,0,0,.07.23h0A.84.84,0,0,1,21.35,18.71Z"/></g></g><g id="_编组_15" data-name="&lt;编组&gt;"><g id="_编组_16" data-name="&lt;编组&gt;"><path class="cls-4" d="M21.57,18.79a.41.41,0,0,0,.09-.18v0h0v0a.41.41,0,0,1-.09.18.76.76,0,0,1-.18.11h0A.71.71,0,0,0,21.57,18.79Z"/></g></g><g id="_编组_17" data-name="&lt;编组&gt;"><path id="_路径_15" data-name="&lt;路径&gt;" class="cls-4" d="M21.54,18.52l-.14.37s0,0,0,0l.14-.37s0,0,0,0Z"/></g><g id="_编组_18" data-name="&lt;编组&gt;"><path class="cls-4" d="M21.49,18.9h0l0,0a.11.11,0,0,0,0-.05h0v0a.07.07,0,0,0,0,0h0l0,0h0l0,0h0s0,.06,0,.1a.37.37,0,0,0,0,.1h0l0,0a.21.21,0,0,0,0-.06Z"/></g><path id="_路径_16" data-name="&lt;路径&gt;" class="cls-4" d="M21.13,19.59a3.11,3.11,0,0,1,.25-.61s0,0,0,0a3.39,3.39,0,0,0-.25.63l-.07.17,0,0Z"/></g><g id="_编组_19" data-name="&lt;编组&gt;"><g id="_编组_20" data-name="&lt;编组&gt;"><path class="cls-7" d="M16.5,19.17h0a.13.13,0,0,0,0,.08.25.25,0,0,0-.12,0h0a.12.12,0,0,0,0,.06.09.09,0,0,0,0,0l-.06,0h-.06a0,0,0,0,0,0,0l0,0s0,0,0,0h-.08l0,0a.47.47,0,0,0,.19.13.86.86,0,0,0,.23,0v-.08a.13.13,0,0,0,0,0,1,1,0,0,0,0-.14.44.44,0,0,0-.08-.13S16.51,19.16,16.5,19.17Z"/></g><g id="_编组_21" data-name="&lt;编组&gt;"><g id="_编组_22" data-name="&lt;编组&gt;"><path class="cls-4" d="M16.49,19.55a.41.41,0,0,1-.16-.12v0h0v0a.41.41,0,0,0,.16.12.75.75,0,0,0,.2,0h0A.7.7,0,0,1,16.49,19.55Z"/></g></g><g id="_编组_23" data-name="&lt;编组&gt;"><g id="_编组_24" data-name="&lt;编组&gt;"><path class="cls-4" d="M16.62,19.4a.34.34,0,0,0-.11-.13h0a.34.34,0,0,1,.11.13.63.63,0,0,1,0,.17h0A.6.6,0,0,0,16.62,19.4Z"/></g></g><g id="_编组_25" data-name="&lt;编组&gt;"><path id="_路径_17" data-name="&lt;路径&gt;" class="cls-4" d="M16.4,19.34l.24.23s0,0,0,0l-.24-.23s0,0,0,0Z"/></g><g id="_编组_26" data-name="&lt;编组&gt;"><path class="cls-4" d="M16.68,19.5h0a0,0,0,0,0,0,0h0a0,0,0,0,0,0,0v0h0v0s0,0,0,0h0s0,0,.07,0h.08v0h0v0l0,0Z"/></g><path id="_路径_18" data-name="&lt;路径&gt;" class="cls-4" d="M17.11,20a2.59,2.59,0,0,1-.39-.38s0,0,0,0a2.82,2.82,0,0,0,.41.39l.1.11h0Z"/></g><g id="_编组_27" data-name="&lt;编组&gt;"><g id="_编组_28" data-name="&lt;编组&gt;"><path class="cls-8" d="M18.38,18.16h0a.22.22,0,0,0-.06.11.42.42,0,0,0-.14-.15h0a.21.21,0,0,0-.06.09.15.15,0,0,0,0,.09.26.26,0,0,0-.07-.09l0,0,0,0h0a.06.06,0,0,0,0,0l0,.09s0,0,0,0a.34.34,0,0,0-.12-.06s0,0,0,.05a.79.79,0,0,0,.14.36,1.46,1.46,0,0,0,.32.24l.07-.06,0,0,0-.05a1.68,1.68,0,0,0,.07-.23.74.74,0,0,0,0-.25S18.4,18.17,18.38,18.16Z"/></g><g id="_编组_29" data-name="&lt;编组&gt;"><g id="_编组_30" data-name="&lt;编组&gt;"><path class="cls-9" d="M18,18.69a.69.69,0,0,1-.12-.32.33.33,0,0,1,0,0h0s0,0,0,0a.69.69,0,0,0,.12.32,1.27,1.27,0,0,0,.28.21h0A1.19,1.19,0,0,1,18,18.69Z"/></g></g><g id="_编组_31" data-name="&lt;编组&gt;"><g id="_编组_32" data-name="&lt;编组&gt;"><path class="cls-9" d="M18.33,18.6a.58.58,0,0,0,0-.28l0,0h0l0,0a.58.58,0,0,1,0,.28,1.08,1.08,0,0,1-.11.27h0A1,1,0,0,0,18.33,18.6Z"/></g></g><g id="_编组_33" data-name="&lt;编组&gt;"><path id="_路径_19" data-name="&lt;路径&gt;" class="cls-9" d="M18.08,18.32q.07.27.13.54s0,0,0,0q-.06-.27-.13-.55s0,0,0,0Z"/></g><g id="_编组_34" data-name="&lt;编组&gt;"><path class="cls-4" d="M18.32,18.8h0a.08.08,0,0,0,0,0,.15.15,0,0,0,0-.06h0l0,0a.06.06,0,0,0,0,0l0,0h0v0s0,0,0,0l0,0a0,0,0,0,0,0,0s0,.09.05.13a.53.53,0,0,0,.11.09l0,0h0v0l0-.07a.29.29,0,0,0,0-.09A.34.34,0,0,1,18.32,18.8Z"/></g><path id="_路径_20" data-name="&lt;路径&gt;" class="cls-4" d="M18.47,19.89a4.38,4.38,0,0,1-.21-.9s0,0,0,0a4.78,4.78,0,0,0,.22.94c0,.08,0,.17,0,.25h0C18.52,20.09,18.5,20,18.47,19.89Z"/></g><g id="_编组_35" data-name="&lt;编组&gt;"><g id="_编组_36" data-name="&lt;编组&gt;"><path class="cls-10" d="M17.58,21.61l-.22-.12c-.37-.22-1.57-1-1.18-1.52a.58.58,0,0,1,.47-.19,1.42,1.42,0,0,1,.48.07.16.16,0,0,0,.1,0c.05,0,.07-.08.07-.14a1.17,1.17,0,0,1,.08-.43.64.64,0,0,1,.85-.18c.16.08.33.21.49.13a.85.85,0,0,0,.21-.19,1,1,0,0,1,.64-.2,1,1,0,0,1,.52,0,.73.73,0,0,1,.24.21,1.87,1.87,0,0,1-.07,2.1A1.38,1.38,0,0,1,19,22,4,4,0,0,1,17.58,21.61Z"/></g><g id="_编组_37" data-name="&lt;编组&gt;" class="cls-11"><g id="_编组_38" data-name="&lt;编组&gt;"><path id="_路径_21" data-name="&lt;路径&gt;" class="cls-4" d="M16.58,20.15c.85.49,1.59,1.15,2.39,1.71h0c-.8-.56-1.54-1.22-2.39-1.71Z"/></g><g id="_编组_39" data-name="&lt;编组&gt;"><path id="_路径_22" data-name="&lt;路径&gt;" class="cls-4" d="M16.85,20.09a2.11,2.11,0,0,0,.22.37s0,0,0,0a2.08,2.08,0,0,1-.21-.36s0,0,0,0Z"/></g><g id="_编组_40" data-name="&lt;编组&gt;"><path id="_路径_23" data-name="&lt;路径&gt;" class="cls-4" d="M17.19,20.18a1.91,1.91,0,0,0,.24.53h0a1.9,1.9,0,0,1-.24-.53Z"/></g><g id="_编组_41" data-name="&lt;编组&gt;"><path id="_路径_24" data-name="&lt;路径&gt;" class="cls-4" d="M17.54,20.41a3.59,3.59,0,0,0,.25.58h0a3.6,3.6,0,0,1-.25-.58Z"/></g><g id="_编组_42" data-name="&lt;编组&gt;"><path id="_路径_25" data-name="&lt;路径&gt;" class="cls-4" d="M17.9,20.59a2.49,2.49,0,0,0,.33.73s0,0,0,0a2.48,2.48,0,0,1-.33-.72Z"/></g><g id="_编组_43" data-name="&lt;编组&gt;"><path id="_路径_26" data-name="&lt;路径&gt;" class="cls-4" d="M18.19,20.78q.25.46.52.89s0,0,0,0q-.27-.44-.52-.89Z"/></g><g id="_编组_44" data-name="&lt;编组&gt;"><path id="_路径_27" data-name="&lt;路径&gt;" class="cls-4" d="M16.68,20.43a2.28,2.28,0,0,1,.45.08h0a2.3,2.3,0,0,0-.45-.08Z"/></g><g id="_编组_45" data-name="&lt;编组&gt;"><path id="_路径_28" data-name="&lt;路径&gt;" class="cls-4" d="M17.17,20.74a2.51,2.51,0,0,1,.46.13h0a2.53,2.53,0,0,0-.47-.13s0,0,0,0Z"/></g><g id="_编组_46" data-name="&lt;编组&gt;"><path id="_路径_29" data-name="&lt;路径&gt;" class="cls-4" d="M17.66,21.1a1.25,1.25,0,0,1,.41.09s0,0,0,0a1.26,1.26,0,0,0-.42-.09s0,0,0,0Z"/></g><g id="_编组_47" data-name="&lt;编组&gt;"><path id="_路径_30" data-name="&lt;路径&gt;" class="cls-4" d="M17.89,21.34a4.64,4.64,0,0,1,.5.1h0a1.51,1.51,0,0,1-.28-.08.75.75,0,0,0-.22,0Z"/></g><g id="_编组_48" data-name="&lt;编组&gt;"><path id="_路径_31" data-name="&lt;路径&gt;" class="cls-4" d="M18.24,21.58a2,2,0,0,1,.48.1h0a2,2,0,0,0-.48-.1s0,0,0,0Z"/></g></g><g id="_编组_49" data-name="&lt;编组&gt;" class="cls-11"><g id="_编组_50" data-name="&lt;编组&gt;"><path id="_路径_32" data-name="&lt;路径&gt;" class="cls-4" d="M17.81,19.29c.63.75,1.11,1.62,1.67,2.42h0c-.56-.8-1-1.67-1.67-2.42Z"/></g><g id="_编组_51" data-name="&lt;编组&gt;"><path id="_路径_33" data-name="&lt;路径&gt;" class="cls-4" d="M18.08,19.32a2.1,2.1,0,0,0,.08.42s0,0,0,0a2.08,2.08,0,0,1-.08-.42s0,0,0,0Z"/></g><g id="_编组_52" data-name="&lt;编组&gt;"><path id="_路径_34" data-name="&lt;路径&gt;" class="cls-4" d="M18.37,19.52a1.91,1.91,0,0,0,0,.58h0a1.91,1.91,0,0,1,0-.58Z"/></g><g id="_编组_53" data-name="&lt;编组&gt;"><path id="_路径_35" data-name="&lt;路径&gt;" class="cls-4" d="M18.62,19.85a3.58,3.58,0,0,0,0,.63h0a3.6,3.6,0,0,1,0-.63Z"/></g><g id="_编组_54" data-name="&lt;编组&gt;"><path id="_路径_36" data-name="&lt;路径&gt;" class="cls-4" d="M18.9,20.14a2.49,2.49,0,0,0,.07.8s0,0,0,0a2.48,2.48,0,0,1-.07-.79Z"/></g><g id="_编组_55" data-name="&lt;编组&gt;"><path id="_路径_37" data-name="&lt;路径&gt;" class="cls-4" d="M19.11,20.42q.08.51.19,1h0q-.11-.5-.19-1Z"/></g><g id="_编组_56" data-name="&lt;编组&gt;"><path id="_路径_38" data-name="&lt;路径&gt;" class="cls-4" d="M17.81,19.58a2.29,2.29,0,0,1,.4.22h0a2.3,2.3,0,0,0-.4-.22Z"/></g><g id="_编组_57" data-name="&lt;编组&gt;"><path id="_路径_39" data-name="&lt;路径&gt;" class="cls-4" d="M18.16,20a2.51,2.51,0,0,1,.39.28h0a2.53,2.53,0,0,0-.4-.28s0,0,0,0Z"/></g><g id="_编组_58" data-name="&lt;编组&gt;"><path id="_路径_40" data-name="&lt;路径&gt;" class="cls-4" d="M18.5,20.54c.14,0,.23.15.35.23h0c-.12-.08-.21-.2-.36-.23s0,0,0,0Z"/></g><g id="_编组_59" data-name="&lt;编组&gt;"><path id="_路径_41" data-name="&lt;路径&gt;" class="cls-4" d="M18.64,20.84a4.66,4.66,0,0,1,.44.27h0a1.52,1.52,0,0,1-.23-.17.75.75,0,0,0-.2-.1Z"/></g><g id="_编组_60" data-name="&lt;编组&gt;"><path id="_路径_42" data-name="&lt;路径&gt;" class="cls-4" d="M18.88,21.19a2,2,0,0,1,.42.25h0a2,2,0,0,0-.42-.25Z"/></g></g><g id="_编组_61" data-name="&lt;编组&gt;" class="cls-11"><g id="_编组_62" data-name="&lt;编组&gt;"><path id="_路径_43" data-name="&lt;路径&gt;" class="cls-4" d="M19.6,18.8c.18,1,.16,2,.25,2.93h0c-.09-1-.07-2-.25-2.93Z"/></g><g id="_编组_63" data-name="&lt;编组&gt;"><path id="_路径_44" data-name="&lt;路径&gt;" class="cls-4" d="M19.83,19a2.1,2.1,0,0,0-.14.4s0,0,0,0a2.09,2.09,0,0,1,.14-.4s0,0,0,0Z"/></g><g id="_编组_64" data-name="&lt;编组&gt;"><path id="_路径_45" data-name="&lt;路径&gt;" class="cls-4" d="M20,19.29a1.92,1.92,0,0,0-.25.53h0A1.9,1.9,0,0,1,20,19.3Z"/></g><g id="_编组_65" data-name="&lt;编组&gt;"><path id="_路径_46" data-name="&lt;路径&gt;" class="cls-4" d="M20,19.7a3.58,3.58,0,0,0-.28.57h0a3.59,3.59,0,0,1,.28-.57Z"/></g><g id="_编组_66" data-name="&lt;编组&gt;"><path id="_路径_47" data-name="&lt;路径&gt;" class="cls-4" d="M20.13,20.09a2.49,2.49,0,0,0-.34.73s0,0,0,0a2.48,2.48,0,0,1,.34-.72s0,0,0,0Z"/></g><g id="_编组_67" data-name="&lt;编组&gt;"><path id="_路径_48" data-name="&lt;路径&gt;" class="cls-4" d="M20.17,20.43q-.19.48-.34,1s0,0,0,0q.16-.49.34-1s0,0,0,0Z"/></g><g id="_编组_68" data-name="&lt;编组&gt;"><path id="_路径_49" data-name="&lt;路径&gt;" class="cls-4" d="M19.46,19.06a2.28,2.28,0,0,1,.23.39h0a2.29,2.29,0,0,0-.23-.39Z"/></g><g id="_编组_69" data-name="&lt;编组&gt;"><path id="_路径_50" data-name="&lt;路径&gt;" class="cls-4" d="M19.54,19.63a2.5,2.5,0,0,1,.2.43h0a2.52,2.52,0,0,0-.21-.44Z"/></g><g id="_编组_70" data-name="&lt;编组&gt;"><path id="_路径_51" data-name="&lt;路径&gt;" class="cls-4" d="M19.58,20.23c.11.1.13.25.19.37h0c-.07-.13-.09-.28-.2-.38s0,0,0,0Z"/></g><g id="_编组_71" data-name="&lt;编组&gt;"><path id="_路径_52" data-name="&lt;路径&gt;" class="cls-4" d="M19.56,20.57a4.63,4.63,0,0,1,.25.45h0a1.51,1.51,0,0,1-.12-.26.76.76,0,0,0-.12-.19Z"/></g><g id="_编组_72" data-name="&lt;编组&gt;"><path id="_路径_53" data-name="&lt;路径&gt;" class="cls-4" d="M19.59,21a2,2,0,0,1,.24.43h0a2,2,0,0,0-.24-.43Z"/></g></g></g><g id="_编组_73" data-name="&lt;编组&gt;"><g id="_编组_74" data-name="&lt;编组&gt;"><path class="cls-12" d="M22.34,21.59l.22-.12c.37-.22,1.57-1,1.18-1.52a.58.58,0,0,0-.47-.19,1.42,1.42,0,0,0-.48.07.16.16,0,0,1-.1,0c-.05,0-.07-.08-.07-.14a1.17,1.17,0,0,0-.08-.43.64.64,0,0,0-.85-.18c-.16.08-.33.21-.49.13a.85.85,0,0,1-.21-.19,1,1,0,0,0-.64-.2,1,1,0,0,0-.52,0,.73.73,0,0,0-.24.21,1.87,1.87,0,0,0,.07,2.1A1.38,1.38,0,0,0,20.9,22,4,4,0,0,0,22.34,21.59Z"/></g><g id="_编组_75" data-name="&lt;编组&gt;" class="cls-11"><g id="_编组_76" data-name="&lt;编组&gt;"><path id="_路径_54" data-name="&lt;路径&gt;" class="cls-4" d="M23.33,20.14c-.85.49-1.59,1.15-2.39,1.71h0c.8-.56,1.54-1.22,2.39-1.71Z"/></g><g id="_编组_77" data-name="&lt;编组&gt;"><path id="_路径_55" data-name="&lt;路径&gt;" class="cls-4" d="M23.06,20.08a2.11,2.11,0,0,1-.22.37s0,0,0,0a2.07,2.07,0,0,0,.21-.36s0,0,0,0Z"/></g><g id="_编组_78" data-name="&lt;编组&gt;"><path id="_路径_56" data-name="&lt;路径&gt;" class="cls-4" d="M22.72,20.17a1.92,1.92,0,0,1-.24.53h0a1.9,1.9,0,0,0,.24-.53Z"/></g><g id="_编组_79" data-name="&lt;编组&gt;"><path id="_路径_57" data-name="&lt;路径&gt;" class="cls-4" d="M22.38,20.39a3.59,3.59,0,0,1-.25.58h0a3.6,3.6,0,0,0,.25-.58Z"/></g><g id="_编组_80" data-name="&lt;编组&gt;"><path id="_路径_58" data-name="&lt;路径&gt;" class="cls-4" d="M22,20.58a2.49,2.49,0,0,1-.33.73s0,0,0,0a2.48,2.48,0,0,0,.33-.72Z"/></g><g id="_编组_81" data-name="&lt;编组&gt;"><path id="_路径_59" data-name="&lt;路径&gt;" class="cls-4" d="M21.73,20.77q-.25.46-.52.89s0,0,0,0q.27-.44.52-.89Z"/></g><g id="_编组_82" data-name="&lt;编组&gt;"><path id="_路径_60" data-name="&lt;路径&gt;" class="cls-4" d="M23.23,20.42a2.29,2.29,0,0,0-.45.08h0a2.3,2.3,0,0,1,.45-.08Z"/></g><g id="_编组_83" data-name="&lt;编组&gt;"><path id="_路径_61" data-name="&lt;路径&gt;" class="cls-4" d="M22.75,20.72a2.51,2.51,0,0,0-.46.13h0a2.54,2.54,0,0,1,.47-.13s0,0,0,0Z"/></g><g id="_编组_84" data-name="&lt;编组&gt;"><path id="_路径_62" data-name="&lt;路径&gt;" class="cls-4" d="M22.26,21.08a1.25,1.25,0,0,0-.41.09s0,0,0,0a1.26,1.26,0,0,1,.42-.09s0,0,0,0Z"/></g><g id="_编组_85" data-name="&lt;编组&gt;"><path id="_路径_63" data-name="&lt;路径&gt;" class="cls-4" d="M22,21.32a4.62,4.62,0,0,0-.5.1h0a1.51,1.51,0,0,0,.28-.08.76.76,0,0,1,.22,0Z"/></g><g id="_编组_86" data-name="&lt;编组&gt;"><path id="_路径_64" data-name="&lt;路径&gt;" class="cls-4" d="M21.68,21.57a2,2,0,0,0-.48.1h0a2,2,0,0,1,.48-.1s0,0,0,0Z"/></g></g><g id="_编组_87" data-name="&lt;编组&gt;" class="cls-11"><g id="_编组_88" data-name="&lt;编组&gt;"><path id="_路径_65" data-name="&lt;路径&gt;" class="cls-4" d="M22.11,19.27c-.63.75-1.11,1.62-1.67,2.42h0c.56-.8,1-1.67,1.67-2.42Z"/></g><g id="_编组_89" data-name="&lt;编组&gt;"><path id="_路径_66" data-name="&lt;路径&gt;" class="cls-4" d="M21.83,19.31a2.11,2.11,0,0,1-.08.42s0,0,0,0a2.08,2.08,0,0,0,.08-.42s0,0,0,0Z"/></g><g id="_编组_90" data-name="&lt;编组&gt;"><path id="_路径_67" data-name="&lt;路径&gt;" class="cls-4" d="M21.54,19.51a1.91,1.91,0,0,1,0,.58h0a1.91,1.91,0,0,0,0-.58Z"/></g><g id="_编组_91" data-name="&lt;编组&gt;"><path id="_路径_68" data-name="&lt;路径&gt;" class="cls-4" d="M21.29,19.83a3.58,3.58,0,0,1,0,.63h0a3.6,3.6,0,0,0,0-.63Z"/></g><g id="_编组_92" data-name="&lt;编组&gt;"><path id="_路径_69" data-name="&lt;路径&gt;" class="cls-4" d="M21,20.13a2.49,2.49,0,0,1-.07.8s0,0,0,0a2.48,2.48,0,0,0,.07-.79Z"/></g><g id="_编组_93" data-name="&lt;编组&gt;"><path id="_路径_70" data-name="&lt;路径&gt;" class="cls-4" d="M20.81,20.4q-.08.51-.19,1h0q.11-.5.19-1Z"/></g><g id="_编组_94" data-name="&lt;编组&gt;"><path id="_路径_71" data-name="&lt;路径&gt;" class="cls-4" d="M22.11,19.56a2.28,2.28,0,0,0-.4.22h0a2.3,2.3,0,0,1,.4-.22Z"/></g><g id="_编组_95" data-name="&lt;编组&gt;"><path id="_路径_72" data-name="&lt;路径&gt;" class="cls-4" d="M21.75,20a2.51,2.51,0,0,0-.39.28h0a2.53,2.53,0,0,1,.4-.28s0,0,0,0Z"/></g><g id="_编组_96" data-name="&lt;编组&gt;"><path id="_路径_73" data-name="&lt;路径&gt;" class="cls-4" d="M21.42,20.52c-.14,0-.23.15-.35.23h0c.12-.08.21-.2.36-.23s0,0,0,0Z"/></g><g id="_编组_97" data-name="&lt;编组&gt;"><path id="_路径_74" data-name="&lt;路径&gt;" class="cls-4" d="M21.27,20.83a4.62,4.62,0,0,0-.44.27h0a1.51,1.51,0,0,0,.23-.17.76.76,0,0,1,.2-.1Z"/></g><g id="_编组_98" data-name="&lt;编组&gt;"><path id="_路径_75" data-name="&lt;路径&gt;" class="cls-4" d="M21,21.18a2,2,0,0,0-.42.25h0a2,2,0,0,1,.42-.25Z"/></g></g><g id="_编组_99" data-name="&lt;编组&gt;" class="cls-11"><g id="_编组_100" data-name="&lt;编组&gt;"><path id="_路径_76" data-name="&lt;路径&gt;" class="cls-4" d="M20.31,18.79c-.18,1-.16,2-.25,2.93h0c.09-1,.07-2,.25-2.93Z"/></g><g id="_编组_101" data-name="&lt;编组&gt;"><path id="_路径_77" data-name="&lt;路径&gt;" class="cls-4" d="M20.09,19a2.1,2.1,0,0,1,.14.4s0,0,0,0a2.09,2.09,0,0,0-.14-.4s0,0,0,0Z"/></g><g id="_编组_102" data-name="&lt;编组&gt;"><path id="_路径_78" data-name="&lt;路径&gt;" class="cls-4" d="M19.94,19.28a1.92,1.92,0,0,1,.25.53h0a1.91,1.91,0,0,0-.24-.53Z"/></g><g id="_编组_103" data-name="&lt;编组&gt;"><path id="_路径_79" data-name="&lt;路径&gt;" class="cls-4" d="M19.88,19.68a3.58,3.58,0,0,1,.28.57h0a3.59,3.59,0,0,0-.28-.57Z"/></g><g id="_编组_104" data-name="&lt;编组&gt;"><path id="_路径_80" data-name="&lt;路径&gt;" class="cls-4" d="M19.79,20.08a2.49,2.49,0,0,1,.34.73s0,0,0,0a2.48,2.48,0,0,0-.34-.72s0,0,0,0Z"/></g><g id="_编组_105" data-name="&lt;编组&gt;"><path id="_路径_81" data-name="&lt;路径&gt;" class="cls-4" d="M19.74,20.42q.19.48.34,1s0,0,0,0q-.16-.49-.34-1s0,0,0,0Z"/></g><g id="_编组_106" data-name="&lt;编组&gt;"><path id="_路径_82" data-name="&lt;路径&gt;" class="cls-4" d="M20.46,19a2.29,2.29,0,0,0-.23.39h0a2.3,2.3,0,0,1,.23-.39Z"/></g><g id="_编组_107" data-name="&lt;编组&gt;"><path id="_路径_83" data-name="&lt;路径&gt;" class="cls-4" d="M20.38,19.62a2.51,2.51,0,0,0-.2.43h0a2.52,2.52,0,0,1,.21-.44Z"/></g><g id="_编组_108" data-name="&lt;编组&gt;"><path id="_路径_84" data-name="&lt;路径&gt;" class="cls-4" d="M20.33,20.22c-.11.1-.13.25-.19.37h0c.07-.13.09-.28.2-.38s0,0,0,0Z"/></g><g id="_编组_109" data-name="&lt;编组&gt;"><path id="_路径_85" data-name="&lt;路径&gt;" class="cls-4" d="M20.36,20.55a4.64,4.64,0,0,0-.25.45h0a1.52,1.52,0,0,0,.12-.26.76.76,0,0,1,.12-.19Z"/></g><g id="_编组_110" data-name="&lt;编组&gt;"><path id="_路径_86" data-name="&lt;路径&gt;" class="cls-4" d="M20.33,21a2,2,0,0,0-.24.43h0a2,2,0,0,1,.24-.43Z"/></g></g></g><path id="_路径_87" data-name="&lt;路径&gt;" class="cls-4" d="M20.62,22a.55.55,0,0,0-.08-.18.79.79,0,0,0-.26.14h0a.6.6,0,0,0-.24-.62.75.75,0,0,0-.23.33.72.72,0,0,0-.46-.44,1,1,0,0,0-.12.28l-.07,0a.6.6,0,0,0,0-.66.74.74,0,0,0-.41.32.59.59,0,0,0-.43-.39.75.75,0,0,0-.09.39l-.12,0a.57.57,0,0,0-.22-.28.81.81,0,0,0-.15.18H17.7a.6.6,0,0,0-.44-.47.75.75,0,0,0-.09.4h-.07a.58.58,0,0,0-.17-.42.73.73,0,0,0-.36.49h0a.5.5,0,0,0-.06-.11.75.75,0,0,0-.36.24.58.58,0,0,0-.31-.29.73.73,0,0,0-.13.61h0a.58.58,0,0,0-.39-.09.79.79,0,0,0,0,.29l-.09,0a.58.58,0,0,0-.29-.24.81.81,0,0,0-.11.22.57.57,0,0,0-.27-.06.83.83,0,0,0,0,.19l-.34,0a.58.58,0,0,0-.28-.23.81.81,0,0,0-.11.2.7.7,0,0,0-.33-.22,1,1,0,0,0-.12.26l-.07,0a.58.58,0,0,0-.4-.1.79.79,0,0,0,0,.28l0,0Z"/><path id="_路径_88" data-name="&lt;路径&gt;" class="cls-4" d="M25.63,22a.55.55,0,0,0-.08-.18.79.79,0,0,0-.26.14h0a.6.6,0,0,0-.24-.62.75.75,0,0,0-.23.33.72.72,0,0,0-.46-.44,1,1,0,0,0-.12.28l-.07,0a.6.6,0,0,0,0-.66.74.74,0,0,0-.41.32.59.59,0,0,0-.43-.39.76.76,0,0,0-.09.39l-.12,0a.58.58,0,0,0-.22-.28.81.81,0,0,0-.15.18h-.06a.6.6,0,0,0-.44-.47.75.75,0,0,0-.09.4H22.1a.58.58,0,0,0-.17-.42.73.73,0,0,0-.36.49h0a.5.5,0,0,0-.06-.11.75.75,0,0,0-.36.24.58.58,0,0,0-.31-.29.73.73,0,0,0-.13.61h0a.58.58,0,0,0-.39-.09.79.79,0,0,0,0,.29l-.09,0a.58.58,0,0,0-.29-.24.81.81,0,0,0-.11.22.57.57,0,0,0-.27-.06.83.83,0,0,0,0,.19l-.34,0a.57.57,0,0,0-.28-.23.81.81,0,0,0-.11.2.7.7,0,0,0-.33-.22,1,1,0,0,0-.12.26l-.07,0a.58.58,0,0,0-.4-.1.79.79,0,0,0,0,.28l0,0Z"/><path class="cls-13" d="M20.25,2.79c.12,1.24.81,2.4.89,3.64s-1,2.43-1.1,3.73a.76.76,0,0,0,.2.64,1,1,0,0,0,.43.15c1.6.34,2.62,1.85,3.28,3.22a12.82,12.82,0,0,0,2.36,4A8.15,8.15,0,0,0,31.17,20a19,19,0,0,0,3,.08,33.54,33.54,0,0,0,3.68-.5V0h-17A4.88,4.88,0,0,0,20.25,2.79Z"/><rect class="cls-14" x="21.69" y="2.58" width="0.59" height="0.14"/><g id="_编组_111" data-name="&lt;编组&gt;"><rect id="_矩形_" data-name="&lt;矩形&gt;" class="cls-15" x="19.49" y="20.44" width="0.42" height="0.89"/><g id="_编组_112" data-name="&lt;编组&gt;"><path class="cls-16" d="M20.61,15.07c-.06,0,0,1.77,0,1.92a21.66,21.66,0,0,1-.31,2.38l-.21,1.25c0,.24-.23.56-.54.41s-.23-.82-.25-1.06a24.61,24.61,0,0,1-.18-2.91q0-.48,0-1a1.13,1.13,0,0,1,.11-.62.77.77,0,0,1,.47-.21C20,15.22,20.32,15.16,20.61,15.07Z"/></g><path id="_路径_89" data-name="&lt;路径&gt;" class="cls-17" d="M19.34,21.21V22h1.77a.47.47,0,0,0-.41-.47l-.55-.08L20,21.21Z"/><rect id="_矩形_2" data-name="&lt;矩形&gt;" class="cls-3" x="19.28" y="21.85" width="1.92" height="0.18"/><circle id="_路径_90" data-name="&lt;路径&gt;" class="cls-3" cx="19.71" cy="21.49" r="0.17"/><rect id="_矩形_3" data-name="&lt;矩形&gt;" class="cls-15" x="18.63" y="20.44" width="0.42" height="0.89"/><g id="_编组_113" data-name="&lt;编组&gt;"><path class="cls-16" d="M19.74,15.07c-.06,0,0,1.77,0,1.92a21.67,21.67,0,0,1-.31,2.38l-.21,1.25c0,.24-.23.56-.54.41s-.23-.82-.25-1.06a24.61,24.61,0,0,1-.18-2.91q0-.48,0-1a1.13,1.13,0,0,1,.11-.62.76.76,0,0,1,.47-.21C19.15,15.22,19.44,15.16,19.74,15.07Z"/></g><g id="_编组_114" data-name="&lt;编组&gt;"><path class="cls-15" d="M18.68,15.56l-.45,0,0,.12s0,.1,0,.15a.86.86,0,0,1,0,.38.11.11,0,0,0,0,.08.1.1,0,0,0,.05,0,1,1,0,0,0,.49.1h.05a.07.07,0,0,0,0,0C18.9,16.08,18.64,15.83,18.68,15.56Z"/></g><g id="_编组_115" data-name="&lt;编组&gt;"><path class="cls-15" d="M20.63,10.28l-.08,0a.34.34,0,0,0-.2.05.42.42,0,0,0-.1.11.32.32,0,0,0-.06.14.35.35,0,0,0,0,.16.47.47,0,0,0,.09.19.42.42,0,0,0,.14.07.69.69,0,0,0,.36,0l.18-.25a1.41,1.41,0,0,0-.19-.31A.48.48,0,0,0,20.63,10.28Z"/></g><g id="_编组_116" data-name="&lt;编组&gt;"><path class="cls-15" d="M19.83,11.36a.42.42,0,0,0-.08-.14l-.13-.16L19.56,11l-.06-.09a.59.59,0,0,0-.19-.13.36.36,0,0,0-.13,0,.13.13,0,0,0-.13.05.13.13,0,0,0,0,.11c0,.06.07.09.08.15a.86.86,0,0,1,0,.21,1.73,1.73,0,0,1,0,.19c0,.06,0,.23-.08.24H19s-.07.07-.07.12a.63.63,0,0,0,.4.61.48.48,0,0,0,.21,0,.67.67,0,0,0,.36-.19.77.77,0,0,0,.17-.19.32.32,0,0,0,0-.25l0,0h0c-.24,0-.23-.23-.22-.4A.13.13,0,0,0,19.83,11.36Z"/></g><g id="_编组_117" data-name="&lt;编组&gt;"><path class="cls-15" d="M20.09,10.8a.81.81,0,0,1-.12.54.28.28,0,0,1-.25.12.52.52,0,0,1-.33-.13.8.8,0,0,1-.2-.3,1,1,0,0,1-.09-.45c0-.1.12-.17.19-.24a.6.6,0,0,1,.12-.09.39.39,0,0,1,.18,0,.52.52,0,0,1,.36.15.48.48,0,0,1,.14.36S20.09,10.77,20.09,10.8Z"/></g><g id="_编组_118" data-name="&lt;编组&gt;"><path class="cls-4" d="M20.08,10.8a.92.92,0,0,1-.08.47c-.14.24-.41.19-.6,0,0,0,0,0,0,0a.44.44,0,0,0,.54.07.73.73,0,0,0,.17-.6,0,0,0,0,0,0,0Z"/></g><g id="_编组_119" data-name="&lt;编组&gt;"><path class="cls-18" d="M19.69,9.75a1.46,1.46,0,0,0-.33.15l-.19.11a1,1,0,0,0-.54,1,.63.63,0,0,0,.2.34c.06.05.27.2.34.1a.12.12,0,0,0,0-.06,1.69,1.69,0,0,0-.05-.42.37.37,0,0,1,0-.11.15.15,0,0,1,.05-.1.09.09,0,0,1,.11,0,.15.15,0,0,1,0,.11l0,.12a.06.06,0,0,0,0,.05,0,0,0,0,0,.06,0,.14.14,0,0,0,0-.06.64.64,0,0,1,.12-.44.29.29,0,0,1,.18-.08c.09,0,.18-.06.28-.08a.23.23,0,0,0,.1,0,.19.19,0,0,0,0-.09.39.39,0,0,0,0-.31.3.3,0,0,0-.09-.09.47.47,0,0,0-.37,0Z"/></g><path id="_路径_91" data-name="&lt;路径&gt;" class="cls-9" d="M19.26,10.62l.1.06a.49.49,0,0,0,.22.06h.21a.12.12,0,0,0,.09,0l.06-.06h0a0,0,0,0,1,0,0v0a.06.06,0,0,0,.05.05h0a.22.22,0,0,0,.16,0l.22-.15-.79-.08-.12-.05Z"/><path id="_路径_92" data-name="&lt;路径&gt;" class="cls-9" d="M19.16,10.44h0a.69.69,0,0,1,.31-.34l.07,0,.05.19Z"/><path id="_路径_93" data-name="&lt;路径&gt;" class="cls-4" d="M20.61,10.5l-.09,0h0l-.09-.32a.11.11,0,0,0-.11-.08h-.61L19.65,10l-.11.06a.1.1,0,0,0-.06,0h0a.1.1,0,0,0,0,.09l.09.32a.11.11,0,0,0,.11.08h.8Z"/><path id="_路径_94" data-name="&lt;路径&gt;" class="cls-19" d="M20.57,10.51H19.8a.11.11,0,0,1-.11-.08l-.09-.32A.1.1,0,0,1,19.7,10h.77a.11.11,0,0,1,.11.08l.09.32A.1.1,0,0,1,20.57,10.51Z"/><path id="_路径_95" data-name="&lt;路径&gt;" class="cls-20" d="M20.39,10.26H19.9v0h.49v0Z"/><path id="_路径_96" data-name="&lt;路径&gt;" class="cls-9" d="M18.63,10.74c.17-.08.86-.5.86-.5l.06.21a5.39,5.39,0,0,1-.91.52C18.58,11,18.57,10.77,18.63,10.74Z"/><g id="_编组_120" data-name="&lt;编组&gt;"><path class="cls-21" d="M18.64,15.79l.38,0h.35c.49,0,1.06-.07,1.23-.63a1.63,1.63,0,0,0,0-.54l0-1.1c0-.27-.07-.64.18-.84a.65.65,0,0,1,.22-.1,3.79,3.79,0,0,0,.95-.34.61.61,0,0,0,.14-.11.66.66,0,0,0,.14-.19c0-.07,0-.15-.07-.21a1.61,1.61,0,0,0-.33-.45,4,4,0,0,0-.76-.55l-.08,0s-.15.13-.17.15,0,.1,0,.17a1,1,0,0,0,.23.41,1.77,1.77,0,0,0,.2.19l.08.06.07.06a2.51,2.51,0,0,1-.71,0,2.11,2.11,0,0,0-.66,0v.07a.34.34,0,0,1-.27.22.55.55,0,0,1-.36-.08,1.64,1.64,0,0,1-.29-.24L19,11.67a.87.87,0,0,0-.83.5,2.22,2.22,0,0,0-.2,1A10.88,10.88,0,0,0,18,14.6q0,.36.1.71l0,.17a.61.61,0,0,0,0,.17c0,.06.21.09.28.11Z"/></g><g id="_编组_121" data-name="&lt;编组&gt;"><path class="cls-4" d="M19,15.83c.59,0,1.37.06,1.59-.62,0,0,0,0,0,0-.22.67-1,.64-1.58.61,0,0,0,0,0,0Z"/></g><g id="_编组_122" data-name="&lt;编组&gt;"><path class="cls-4" d="M21,11.48l.2.19.09.07s.08,0,0,.05a2,2,0,0,1-.61,0s0,0,0,0a2.65,2.65,0,0,0,.71,0,0,0,0,0,0,0,0,.55.55,0,0,0-.11-.1,2.24,2.24,0,0,1-.24-.22s0,0,0,0Z"/></g><g id="_编组_123" data-name="&lt;编组&gt;"><path class="cls-4" d="M20.6,13.57c0-.37-.06-.77.37-.92a5.14,5.14,0,0,0,1-.35,0,0,0,0,0,0,0,3,3,0,0,1-.7.27,1.24,1.24,0,0,0-.49.18c-.23.2-.18.56-.17.83,0,0,0,0,0,0Z"/></g><g id="_编组_124" data-name="&lt;编组&gt;"><path class="cls-4" d="M19.74,12.07a.91.91,0,0,1-.66-.33.22.22,0,0,0-.22-.08.93.93,0,0,0-.71.5,0,0,0,0,0,0,0,1,1,0,0,1,.39-.4c.14-.08.34-.15.48,0s.39.39.71.37c0,0,0,0,0,0Z"/></g><g id="_编组_125" data-name="&lt;编组&gt;"><path class="cls-4" d="M18.74,15.33c0-.41,0-.81,0-1.22,0-.2,0-.4,0-.61s0-.85.36-1a0,0,0,0,0,0,0c-.5.15-.37,1-.37,1.39s0,.94,0,1.41c0,0,0,0,0,0Z"/></g><g id="_编组_126" data-name="&lt;编组&gt;"><path class="cls-4" d="M20,16.12a3.89,3.89,0,0,0-.38,1c0,.38,0,.76-.05,1.14-.1.8-.26,1.6-.39,2.4,0,0,0,0,0,0,.13-.77.27-1.53.38-2.3.05-.35,0-.7.05-1a3.37,3.37,0,0,1,.39-1.17s0,0,0,0Z"/></g><path class="cls-22" d="M20.39,21.83a.52.52,0,0,0-.41-.32l-.6-.08,0,0v.46h-.07V22h1.23v-.2Z"/><path id="_路径_97" data-name="&lt;路径&gt;" class="cls-23" d="M18.53,21.21V22H20.3a.47.47,0,0,0-.41-.47l-.55-.08-.18-.28Z"/><rect id="_矩形_4" data-name="&lt;矩形&gt;" class="cls-3" x="18.46" y="21.85" width="1.92" height="0.18"/><circle id="_路径_98" data-name="&lt;路径&gt;" class="cls-3" cx="18.89" cy="21.49" r="0.17"/><g id="_编组_127" data-name="&lt;编组&gt;"><path class="cls-4" d="M21.39,11.82a.45.45,0,0,1,.08.3s0,0,0,0a.46.46,0,0,0-.08-.31s0,0,0,0Z"/></g><g id="_编组_128" data-name="&lt;编组&gt;"><path class="cls-4" d="M21.43,11.8a.5.5,0,0,0,.4,0s0,0,0,0a.48.48,0,0,1-.39,0s0,0,0,0Z"/></g><path class="cls-3" d="M19.64,11c.25-.17.33,0,.33,0a.24.24,0,0,1-.09.22C19.76,11.34,19.62,11,19.64,11Z"/></g><use width="0.69" height="0.69" transform="translate(28.65 7.73) scale(0.03)" xlink:href="#New_Symbol_3"/><use width="0.69" height="0.69" transform="translate(23.54 4.05) scale(0.04)" xlink:href="#New_Symbol_3"/><use width="0.69" height="0.69" transform="translate(28.35 4.19) scale(0.03)" xlink:href="#New_Symbol_3"/><use width="0.69" height="0.69" transform="translate(31.31 7.14) scale(0.04)" xlink:href="#New_Symbol_3"/><use width="0.69" height="0.69" transform="translate(36.1 5.35) scale(0.07)" xlink:href="#New_Symbol_3"/><use width="0.69" height="0.69" transform="translate(31.1 11.43) scale(0.03)" xlink:href="#New_Symbol_3"/><use width="0.69" height="0.69" transform="translate(33.76 14.12) scale(0.04)" xlink:href="#New_Symbol_3"/><use width="0.69" height="0.69" transform="translate(28.88 16.56) scale(0.05)" xlink:href="#New_Symbol_3"/><use width="0.69" height="0.69" transform="translate(34.98 18.58) scale(0.06)" xlink:href="#New_Symbol_3"/><use width="0.69" height="0.69" transform="translate(36.64 13.34) scale(0.05)" xlink:href="#New_Symbol_3"/><use width="0.69" height="0.69" transform="translate(25 9.61) scale(0.05)" xlink:href="#New_Symbol_3"/><use width="0.69" height="0.69" transform="translate(23.47 8.82) scale(0.05)" xlink:href="#New_Symbol_3"/><use width="0.69" height="0.69" transform="translate(23.2 4.95) scale(0.04)" xlink:href="#New_Symbol_3"/><use width="0.69" height="0.69" transform="translate(22.12 3.41) scale(0.05)" xlink:href="#New_Symbol_3"/><use width="0.69" height="0.69" transform="translate(27.9 3.19) scale(0.03)" xlink:href="#New_Symbol_3"/><use width="0.69" height="0.69" transform="translate(26.01 13.82) scale(0.05)" xlink:href="#New_Symbol_3"/><use width="0.69" height="0.69" transform="translate(26.95 14.53) scale(0.05)" xlink:href="#New_Symbol_3"/><use width="0.69" height="0.69" transform="translate(26.46 13.23) scale(0.05)" xlink:href="#New_Symbol_3"/><use width="0.69" height="0.69" transform="translate(24.73 12.13) scale(0.05)" xlink:href="#New_Symbol_3"/><use width="0.69" height="0.69" transform="translate(32.3 18.58) scale(0.06)" xlink:href="#New_Symbol_3"/><use width="0.69" height="0.69" transform="translate(33.57 18.71) scale(0.06)" xlink:href="#New_Symbol_3"/><use width="0.69" height="0.69" transform="translate(36.29 3.04) scale(0.08)" xlink:href="#New_Symbol_3"/><use width="0.69" height="0.69" transform="translate(35.67 1.74) scale(0.08)" xlink:href="#New_Symbol_3"/><use width="0.69" height="0.69" transform="translate(36.14 1.29) scale(0.08)" xlink:href="#New_Symbol_3"/><use width="0.69" height="0.69" transform="translate(36.13 1.55) scale(0.08)" xlink:href="#New_Symbol_3"/><use width="0.69" height="0.69" transform="translate(36.43 0.92) scale(0.08)" xlink:href="#New_Symbol_3"/><use width="0.69" height="0.69" transform="translate(36.68 1.11) scale(0.08)" xlink:href="#New_Symbol_3"/><use width="0.69" height="0.69" transform="translate(30.41 0.89) scale(0.05)" xlink:href="#New_Symbol_3"/><use width="0.69" height="0.69" transform="translate(28.2 0.86) scale(0.04)" xlink:href="#New_Symbol_3"/><use width="0.69" height="0.69" transform="translate(27.36 0.62) scale(0.04)" xlink:href="#New_Symbol_3"/><use width="0.69" height="0.69" transform="translate(26.11 0.85) scale(0.04)" xlink:href="#New_Symbol_3"/><use width="0.69" height="0.69" transform="translate(22.77 0.47) scale(0.05)" xlink:href="#New_Symbol_3"/><use width="0.69" height="0.69" transform="translate(28.86 5.96) scale(0.03)" xlink:href="#New_Symbol_3"/><use width="0.69" height="0.69" transform="translate(28.67 6.31) scale(0.03)" xlink:href="#New_Symbol_3"/><use width="0.69" height="0.69" transform="translate(31.55 7.11) scale(0.04)" xlink:href="#New_Symbol_3"/><use width="0.69" height="0.69" transform="translate(33.43 5.1) scale(0.06)" xlink:href="#New_Symbol_3"/><use width="0.69" height="0.69" transform="translate(33.45 6.98) scale(0.05)" xlink:href="#New_Symbol_3"/><use width="0.69" height="0.69" transform="translate(35.14 9.53) scale(0.05)" xlink:href="#New_Symbol_3"/><use width="0.69" height="0.69" transform="translate(35.55 11.2) scale(0.04)" xlink:href="#New_Symbol_3"/><use width="0.69" height="0.69" transform="translate(34.53 11.95) scale(0.04)" xlink:href="#New_Symbol_3"/><use width="0.69" height="0.69" transform="translate(37.04 8.78) scale(0.06)" xlink:href="#New_Symbol_3"/><use width="0.69" height="0.69" transform="translate(37 10.2) scale(0.06)" xlink:href="#New_Symbol_3"/><use width="0.69" height="0.69" transform="translate(36.4 16.55) scale(0.05)" xlink:href="#New_Symbol_3"/><use width="0.69" height="0.69" transform="translate(29.47 14.64) scale(0.04)" xlink:href="#New_Symbol_3"/><use width="0.69" height="0.69" transform="translate(29.81 13.76) scale(0.04)" xlink:href="#New_Symbol_3"/><use width="0.69" height="0.69" transform="translate(29.54 12.19) scale(0.03)" xlink:href="#New_Symbol_3"/><use width="0.69" height="0.69" transform="translate(25.98 7.47) scale(0.04)" xlink:href="#New_Symbol_3"/><use width="0.69" height="0.69" transform="translate(26.01 6.09) scale(0.04)" xlink:href="#New_Symbol_3"/><use width="0.69" height="0.69" transform="translate(23.83 6.5) scale(0.04)" xlink:href="#New_Symbol_3"/><use width="0.69" height="0.69" transform="translate(22.25 7.14) scale(0.06)" xlink:href="#New_Symbol_3"/><use width="0.69" height="0.69" transform="translate(21.22 9.74) scale(0.07)" xlink:href="#New_Symbol_3"/><use width="0.69" height="0.69" transform="translate(21.56 8.47) scale(0.07)" xlink:href="#New_Symbol_3"/><use width="0.69" height="0.69" transform="translate(22.54 10.62) scale(0.07)" xlink:href="#New_Symbol_3"/><use width="0.69" height="0.69" transform="translate(26.71 3.16) scale(0.04)" xlink:href="#New_Symbol_3"/><use width="0.69" height="0.69" transform="translate(24.78 3.33) scale(0.04)" xlink:href="#New_Symbol_3"/><use width="0.69" height="0.69" transform="translate(26.39 4.26) scale(0.04)" xlink:href="#New_Symbol_3"/><use width="0.69" height="0.69" transform="translate(23.22 0.77) scale(0.04)" xlink:href="#New_Symbol_3"/><use width="0.69" height="0.69" transform="translate(21.21 1.07) scale(0.05)" xlink:href="#New_Symbol_3"/><use width="0.69" height="0.69" transform="translate(32.92 3.87) scale(0.05)" xlink:href="#New_Symbol_3"/><use width="0.69" height="0.69" transform="translate(31.59 3.71) scale(0.05)" xlink:href="#New_Symbol_3"/><use width="0.69" height="0.69" transform="translate(36.2 7.4) scale(0.06)" xlink:href="#New_Symbol_3"/><use width="0.69" height="0.69" transform="translate(37.48 10.92) scale(0.05)" xlink:href="#New_Symbol_3"/><use width="0.69" height="0.69" transform="translate(36.7 18.87) scale(0.05)" xlink:href="#New_Symbol_3"/><use width="0.69" height="0.69" transform="translate(33.78 18.06) scale(0.05)" xlink:href="#New_Symbol_3"/><use width="0.69" height="0.69" transform="translate(34.58 16.27) scale(0.05)" xlink:href="#New_Symbol_3"/><use width="0.69" height="0.69" transform="translate(33.16 16.1) scale(0.05)" xlink:href="#New_Symbol_3"/><use width="0.69" height="0.69" transform="translate(35.28 14.71) scale(0.05)" xlink:href="#New_Symbol_3"/><use width="0.69" height="0.69" transform="translate(31.55 13.96) scale(0.05)" xlink:href="#New_Symbol_3"/><use width="0.69" height="0.69" transform="translate(30.89 13.32) scale(0.05)" xlink:href="#New_Symbol_3"/><use width="0.69" height="0.69" transform="translate(27.63 17.59) scale(0.05)" xlink:href="#New_Symbol_3"/><use width="0.69" height="0.69" transform="translate(26.45 17.06) scale(0.05)" xlink:href="#New_Symbol_3"/><use width="0.69" height="0.69" transform="translate(25.6 15.89) scale(0.05)" xlink:href="#New_Symbol_3"/><use width="0.69" height="0.69" transform="translate(24.77 14.23) scale(0.05)" xlink:href="#New_Symbol_3"/><use width="0.69" height="0.69" transform="translate(23.95 13.06) scale(0.05)" xlink:href="#New_Symbol_3"/><use width="0.69" height="0.69" transform="translate(31.51 19.01) scale(0.05)" xlink:href="#New_Symbol_3"/><use width="0.69" height="0.69" transform="translate(30.79 19.43) scale(0.05)" xlink:href="#New_Symbol_3"/><use width="0.69" height="0.69" transform="translate(30.23 17.01) scale(0.05)" xlink:href="#New_Symbol_3"/><use width="0.69" height="0.69" transform="translate(31.55 17.29) scale(0.05)" xlink:href="#New_Symbol_3"/><use width="0.69" height="0.69" transform="translate(32.24 16.81) scale(0.05)" xlink:href="#New_Symbol_3"/><use width="0.69" height="0.69" transform="translate(36.97 17.68) scale(0.05)" xlink:href="#New_Symbol_3"/><use width="0.69" height="0.69" transform="translate(35.95 18.02) scale(0.05)" xlink:href="#New_Symbol_3"/><use width="0.69" height="0.69" transform="translate(30.3 10.19) scale(0.04)" xlink:href="#New_Symbol_3"/><use width="0.69" height="0.69" transform="translate(29.64 10.27) scale(0.04)" xlink:href="#New_Symbol_3"/><use width="0.69" height="0.69" transform="translate(30.05 6.76) scale(0.04)" xlink:href="#New_Symbol_3"/><use width="0.69" height="0.69" transform="translate(32.34 5.19) scale(0.05)" xlink:href="#New_Symbol_3"/><use width="0.69" height="0.69" transform="translate(31.92 4.52) scale(0.05)" xlink:href="#New_Symbol_3"/><use width="0.69" height="0.69" transform="translate(31.56 1.15) scale(0.05)" xlink:href="#New_Symbol_3"/><use width="0.69" height="0.69" transform="translate(32.57 0.72) scale(0.06)" xlink:href="#New_Symbol_3"/><use width="0.69" height="0.69" transform="translate(28.97 2.91) scale(0.05)" xlink:href="#New_Symbol_3"/><use width="0.69" height="0.69" transform="translate(28.62 2.94) scale(0.05)" xlink:href="#New_Symbol_3"/><use width="0.69" height="0.69" transform="translate(28.62 3.19) scale(0.04)" xlink:href="#New_Symbol_3"/><use width="0.69" height="0.69" transform="translate(28.41 3.21) scale(0.04)" xlink:href="#New_Symbol_3"/><use width="0.69" height="0.69" transform="translate(28.8 2.78) scale(0.05)" xlink:href="#New_Symbol_3"/><use width="0.69" height="0.69" transform="translate(32.56 6.14) scale(0.05)" xlink:href="#New_Symbol_3"/><use width="0.69" height="0.69" transform="translate(32.48 6.33) scale(0.05)" xlink:href="#New_Symbol_3"/><use width="0.69" height="0.69" transform="translate(33.18 5.99) scale(0.05)" xlink:href="#New_Symbol_3"/><use width="0.69" height="0.69" transform="translate(34.31 8.12) scale(0.05)" xlink:href="#New_Symbol_3"/><use width="0.69" height="0.69" transform="translate(34.03 8.35) scale(0.05)" xlink:href="#New_Symbol_3"/><use width="0.69" height="0.69" transform="translate(34.47 7.93) scale(0.05)" xlink:href="#New_Symbol_3"/><use width="0.69" height="0.69" transform="translate(34.36 7.76) scale(0.05)" xlink:href="#New_Symbol_3"/><use width="0.69" height="0.69" transform="translate(27.91 13.58) scale(0.05)" xlink:href="#New_Symbol_3"/><use width="0.69" height="0.69" transform="translate(27.72 13.55) scale(0.05)" xlink:href="#New_Symbol_3"/><use width="0.69" height="0.69" transform="translate(28.67 12.82) scale(0.05)" xlink:href="#New_Symbol_3"/><use width="0.69" height="0.69" transform="translate(28.33 13.06) scale(0.05)" xlink:href="#New_Symbol_3"/><use width="0.69" height="0.69" transform="translate(28.3 12.51) scale(0.05)" xlink:href="#New_Symbol_3"/><use width="0.69" height="0.69" transform="translate(27.92 12.31) scale(0.05)" xlink:href="#New_Symbol_3"/><use width="0.69" height="0.69" transform="translate(28 12.63) scale(0.05)" xlink:href="#New_Symbol_3"/><use width="0.69" height="0.69" transform="translate(25.86 10.04) scale(0.05)" xlink:href="#New_Symbol_3"/><use width="0.69" height="0.69" transform="translate(25.67 10.06) scale(0.05)" xlink:href="#New_Symbol_3"/><use width="0.69" height="0.69" transform="translate(21.43 10.38) scale(0.05)" xlink:href="#New_Symbol_3"/><use width="0.69" height="0.69" transform="translate(21.63 10.31) scale(0.05)" xlink:href="#New_Symbol_3"/><use width="0.69" height="0.69" transform="translate(21.48 10.13) scale(0.05)" xlink:href="#New_Symbol_3"/><use width="0.69" height="0.69" transform="translate(20.76 9.89) scale(0.05)" xlink:href="#New_Symbol_3"/><use width="0.69" height="0.69" transform="translate(20.83 9.49) scale(0.05)" xlink:href="#New_Symbol_3"/><use width="0.69" height="0.69" transform="translate(20.65 9.12) scale(0.05)" xlink:href="#New_Symbol_3"/><use width="0.69" height="0.69" transform="translate(22.4 5.15) scale(0.05)" xlink:href="#New_Symbol_3"/><use width="0.69" height="0.69" transform="translate(22.37 5.48) scale(0.05)" xlink:href="#New_Symbol_3"/><use width="0.69" height="0.69" transform="translate(23.67 0.91) scale(0.04)" xlink:href="#New_Symbol_3"/><use width="0.69" height="0.69" transform="translate(36.99 12.78) scale(0.05)" xlink:href="#New_Symbol_3"/><use width="0.69" height="0.69" transform="translate(36.79 12.66) scale(0.05)" xlink:href="#New_Symbol_3"/><use width="0.69" height="0.69" transform="translate(36.88 11.78) scale(0.05)" xlink:href="#New_Symbol_3"/><use width="0.69" height="0.69" transform="translate(36.63 11.79) scale(0.05)" xlink:href="#New_Symbol_3"/><use width="0.69" height="0.69" transform="translate(36.62 12.13) scale(0.05)" xlink:href="#New_Symbol_3"/><use width="0.69" height="0.69" transform="translate(36.85 12.03) scale(0.05)" xlink:href="#New_Symbol_3"/><use width="0.69" height="0.69" transform="translate(36.77 11.52) scale(0.05)" xlink:href="#New_Symbol_3"/><use width="0.69" height="0.69" transform="translate(26.87 17.5) scale(0.05)" xlink:href="#New_Symbol_3"/><use width="0.69" height="0.69" transform="translate(27.06 17.2) scale(0.05)" xlink:href="#New_Symbol_3"/><use width="0.69" height="0.69" transform="translate(27.01 16.35) scale(0.05)" xlink:href="#New_Symbol_3"/><use width="0.69" height="0.69" transform="translate(28.06 16.36) scale(0.05)" xlink:href="#New_Symbol_3"/><circle class="cls-24" cx="27.65" cy="18.36" r="0.28"/><circle class="cls-25" cx="36.99" cy="1.7" r="0.28"/><circle id="_路径_99" data-name="&lt;路径&gt;" class="cls-26" cx="33.65" cy="17.51" r="0.98" transform="translate(-2.53 28.92) rotate(-45)"/><circle class="cls-27" cx="33.66" cy="17.51" r="0.55"/><circle class="cls-14" cx="34.37" cy="17.16" r="0.15"/><circle class="cls-28" cx="25.8" cy="14.72" r="0.95"/><circle class="cls-29" cx="21.76" cy="4.91" r="0.47"/><circle class="cls-30" cx="28.2" cy="1.22" r="0.55"/><circle class="cls-31" cx="36.99" cy="4.99" r="0.22"/><circle class="cls-31" cx="33.45" cy="0.77" r="0.09"/><circle class="cls-14" cx="35.45" cy="7.45" r="0.09"/><circle class="cls-14" cx="29.01" cy="7.15" r="0.09"/><circle class="cls-31" cx="26.21" cy="11.9" r="0.09"/><circle class="cls-31" cx="29.19" cy="12.3" r="0.18"/><circle class="cls-31" cx="30.4" cy="5.38" r="0.09"/><circle class="cls-31" cx="28.53" cy="10.33" r="0.06"/><circle class="cls-32" cx="24.67" cy="3.52" r="0.09"/><circle class="cls-32" cx="20.3" cy="7.87" r="0.09"/><circle class="cls-32" cx="22.24" cy="14.17" r="0.09"/><circle class="cls-32" cx="23.06" cy="14.99" r="0.09"/><circle class="cls-32" cx="22.62" cy="12.52" r="0.05"/><circle class="cls-32" cx="19.01" cy="7.91" r="0.05"/><circle class="cls-32" cx="17.79" cy="7.45" r="0.02"/><circle class="cls-32" cx="17.44" cy="5.38" r="0.02"/><circle class="cls-32" cx="21.21" cy="15.46" r="0.02"/><circle class="cls-32" cx="23.67" cy="15.53" r="0.02"/><circle class="cls-32" cx="19.01" cy="5.38" r="0.05"/><circle class="cls-32" cx="21.26" cy="14.35" r="0.05"/><circle class="cls-32" cx="20.38" cy="5.21" r="0.07"/><circle class="cls-32" cx="23.76" cy="11.34" r="0.09"/><circle class="cls-32" cx="28.39" cy="18.07" r="0.09"/><circle class="cls-9" cx="23.67" cy="9.73" r="0.18"/><circle class="cls-32" cx="35.87" cy="13.93" r="0.31"/><g id="_编组_129" data-name="&lt;编组&gt;"><path class="cls-9" d="M24,6.09,24.19,6l0-.08c-.24-.48-.3-.86-.14-1s.53-.1,1,.14a4.77,4.77,0,0,1,.5.29l.1-.16a5,5,0,0,0-.52-.3c-.58-.29-1-.33-1.24-.11S23.69,5.43,24,6Z"/></g><g id="_编组_130" data-name="&lt;编组&gt;"><path class="cls-9" d="M27.89,9.33a.54.54,0,0,0,.4-.14c.22-.22.18-.66-.11-1.24a5,5,0,0,0-.3-.52l-.16.1A4.75,4.75,0,0,1,28,8c.24.48.3.86.14,1s-.53.1-1-.14l-.08.17A2,2,0,0,0,27.89,9.33Z"/></g><circle id="_路径_100" data-name="&lt;路径&gt;" class="cls-33" cx="26.21" cy="7.03" r="1.99"/><g id="_编组_131" data-name="&lt;编组&gt;"><path class="cls-9" d="M27.05,9.08l.08-.17A8,8,0,0,1,24.19,6L24,6.09A8.11,8.11,0,0,0,27.05,9.08Z"/></g><circle id="_路径_101" data-name="&lt;路径&gt;" class="cls-34" cx="24.57" cy="6.7" r="0.55"/><circle id="_路径_102" data-name="&lt;路径&gt;" class="cls-35" cx="28.24" cy="8.31" r="0.31"/><circle id="_路径_103" data-name="&lt;路径&gt;" class="cls-36" cx="27.34" cy="9.08" r="0.4"/><circle id="_路径_104" data-name="&lt;路径&gt;" class="cls-1" cx="26.63" cy="8.85" r="0.13"/><circle id="_路径_105" data-name="&lt;路径&gt;" class="cls-37" cx="25.44" cy="8.51" r="0.13"/><circle id="_路径_106" data-name="&lt;路径&gt;" class="cls-37" cx="26.52" cy="8.12" r="0.06"/><circle id="_路径_107" data-name="&lt;路径&gt;" class="cls-37" cx="28.51" cy="7.72" r="0.06"/><circle id="_路径_108" data-name="&lt;路径&gt;" class="cls-37" cx="24.93" cy="5.15" r="0.06"/><circle id="_路径_109" data-name="&lt;路径&gt;" class="cls-1" cx="25.13" cy="7.63" r="0.13"/><circle id="_路径_110" data-name="&lt;路径&gt;" class="cls-1" cx="25.37" cy="7.09" r="0.06"/><circle id="_路径_111" data-name="&lt;路径&gt;" class="cls-38" cx="23.67" cy="5.75" r="0.06"/><circle id="_路径_112" data-name="&lt;路径&gt;" class="cls-39" cx="25.24" cy="8.28" r="0.03"/><circle id="_路径_113" data-name="&lt;路径&gt;" class="cls-40" cx="26.97" cy="8.18" r="0.03"/><g id="_编组_132" data-name="&lt;编组&gt;"><circle id="_路径_114" data-name="&lt;路径&gt;" class="cls-41" cx="31.39" cy="11.58" r="0.98" transform="translate(1.01 25.59) rotate(-45)"/><circle id="_路径_115" data-name="&lt;路径&gt;" class="cls-31" cx="31.38" cy="11.57" r="0.5" transform="translate(1.01 25.58) rotate(-45)"/><path id="_路径_116" data-name="&lt;路径&gt;" class="cls-42" d="M31.64,12a0,0,0,0,1,0,0l.13-.13a0,0,0,0,0,0,0h0l-.06.06a0,0,0,0,1,0,0,0,0,0,0,1,0,0l.15-.15a0,0,0,0,0,0,0,0,0,0,0,0,0,0l-.05.05h0a0,0,0,0,1,0,0l.13-.13a0,0,0,0,0,0,0,0,0,0,0,0,0,0l-.26.26a0,0,0,0,1,0,0,0,0,0,0,1,0,0l.21-.21a0,0,0,0,0,0,0,0,0,0,0,0,0,0l-.1.1a0,0,0,0,1,0,0,0,0,0,0,1,0,0l.21-.21a0,0,0,0,0,0,0,0,0,0,0,0,0,0l-.05.05a0,0,0,0,1,0,0,0,0,0,0,1,0,0l.08-.08a0,0,0,0,0,0,0,0,0,0,0,0,0,0l-.26.26a0,0,0,0,1,0,0,0,0,0,0,1,0,0l.09-.09a0,0,0,0,0,0,0,0,0,0,0,0,0,0l-.17.17a0,0,0,0,1,0,0,0,0,0,0,1,0,0l.2-.2a0,0,0,0,0,0,0,0,0,0,0,0,0,0l-.07.07a0,0,0,0,1,0,0,0,0,0,0,1,0,0l0,0a.5.5,0,0,1,.57.8l-.08.06Z"/></g><g id="_编组_133" data-name="&lt;编组&gt;"><circle id="_路径_117" data-name="&lt;路径&gt;" class="cls-43" cx="25.13" cy="10.6" r="0.98" transform="translate(-0.14 20.87) rotate(-45)"/><circle id="_路径_118" data-name="&lt;路径&gt;" class="cls-32" cx="25.12" cy="10.59" r="0.5" transform="translate(-0.13 20.86) rotate(-45)"/></g><circle id="_路径_119" data-name="&lt;路径&gt;" class="cls-4" cx="23.35" cy="13.64" r="0.18" transform="translate(-2.8 20.51) rotate(-45)"/><circle id="_路径_120" data-name="&lt;路径&gt;" class="cls-4" cx="20.82" cy="6.65" r="0.18" transform="translate(1.4 16.67) rotate(-45)"/><circle id="_路径_121" data-name="&lt;路径&gt;" class="cls-31" cx="22.63" cy="13.34" r="0.09" transform="translate(-2.81 19.9) rotate(-44.98)"/><ellipse id="_路径_122" data-name="&lt;路径&gt;" class="cls-31" cx="22.24" cy="15.25" rx="0.04" ry="0.05" transform="translate(-4.28 20.17) rotate(-44.95)"/><circle id="_路径_123" data-name="&lt;路径&gt;" class="cls-31" cx="21.42" cy="13.36" r="0.07" transform="translate(-3.17 19.05) rotate(-44.97)"/><circle id="_路径_124" data-name="&lt;路径&gt;" class="cls-31" cx="19.9" cy="6.66" r="0.14" transform="translate(1.12 16.03) rotate(-45.01)"/><circle id="_路径_125" data-name="&lt;路径&gt;" class="cls-31" cx="18.59" cy="6.39" r="0.07" transform="translate(0.93 15.02) rotate(-45)"/><g id="_编组_134" data-name="&lt;编组&gt;"><circle id="_路径_126" data-name="&lt;路径&gt;" class="cls-44" cx="31.69" cy="8.57" r="2.25"/><g id="_编组_135" data-name="&lt;编组&gt;"><path id="_路径_127" data-name="&lt;路径&gt;" class="cls-14" d="M34.59,4.95h0a.09.09,0,0,1,0,.13l-.82.82a.1.1,0,0,0,0,.15h0a.1.1,0,0,0,.15,0l3-3a.1.1,0,0,1,.14,0h0a.1.1,0,0,1,0,.14L34.51,5.73a.1.1,0,0,0,0,.14h0a.1.1,0,0,0,.14,0l.93-.93a.09.09,0,0,1,.13,0h0a.09.09,0,0,1,0,.13L32.07,8.71a.48.48,0,0,1-.68,0h0a.48.48,0,0,1,0-.68l3.08-3.08A.09.09,0,0,1,34.59,4.95Z"/><path id="_路径_128" data-name="&lt;路径&gt;" class="cls-14" d="M35.81,3.85l-.88.88a.09.09,0,0,1-.13,0h0a.09.09,0,0,1,0-.13l.88-.88a.09.09,0,0,1,.13,0h0A.09.09,0,0,1,35.81,3.85Z"/><path id="_路径_129" data-name="&lt;路径&gt;" class="cls-14" d="M36.57,4.21l-.62.62a.09.09,0,0,1-.13,0h0a.09.09,0,0,1,0-.13l.62-.62a.09.09,0,0,1,.13,0h0A.09.09,0,0,1,36.57,4.21Z"/><path id="_路径_130" data-name="&lt;路径&gt;" class="cls-14" d="M31.69,7.78l1.47-1.47a.09.09,0,0,1,.13,0h0a.09.09,0,0,1,0,.13l-.38.38a.08.08,0,0,0,0,.11h0a.08.08,0,0,0,.11,0l.18-.18a.09.09,0,0,1,.13,0h0a.09.09,0,0,1,0,.13l-.22.22a.08.08,0,0,0,0,.11h0a.08.08,0,0,0,.11,0L34,6.42a.1.1,0,0,1,.14,0h0a.1.1,0,0,1,0,.14l-2,2Z"/><path id="_路径_131" data-name="&lt;路径&gt;" class="cls-45" d="M31.37,8.1l.84-.84a.09.09,0,0,1,.13,0h0a.09.09,0,0,1,0,.13L32,7.76a.07.07,0,0,0,0,.1h0a.07.07,0,0,0,.1,0l.77-.77a.09.09,0,0,1,.13,0h0a.09.09,0,0,1,0,.13l-.56.56a.07.07,0,0,0,0,.1h0a.07.07,0,0,0,.1,0l.28-.28a.11.11,0,0,1,.15,0h0a.11.11,0,0,1,0,.15L32,8.68Z"/><circle id="_路径_132" data-name="&lt;路径&gt;" class="cls-45" cx="31.74" cy="8.35" r="0.44" transform="translate(3.39 24.89) rotate(-45)"/><circle id="_路径_133" data-name="&lt;路径&gt;" class="cls-46" cx="31.74" cy="8.35" r="0.35" transform="translate(3.39 24.89) rotate(-45)"/><circle id="_路径_134" data-name="&lt;路径&gt;" class="cls-47" cx="31.74" cy="8.35" r="0.2" transform="translate(3.39 24.89) rotate(-45.01)"/></g></g><g id="_编组_136" data-name="&lt;编组&gt;"><circle id="_路径_135" data-name="&lt;路径&gt;" class="cls-48" cx="34.7" cy="12.25" r="1.05"/><g id="_编组_137" data-name="&lt;编组&gt;"><path id="_路径_136" data-name="&lt;路径&gt;" class="cls-14" d="M36.05,10.56h0a0,0,0,0,1,0,.06l-.38.38a0,0,0,0,0,0,.07h0a0,0,0,0,0,.07,0l1.42-1.42a0,0,0,0,1,.07,0h0a0,0,0,0,1,0,.07L36,10.92A0,0,0,0,0,36,11h0a0,0,0,0,0,.06,0l.43-.43a0,0,0,0,1,.06,0h0a0,0,0,0,1,0,.06l-1.7,1.7a.23.23,0,0,1-.32,0h0a.23.23,0,0,1,0-.32L36,10.56A0,0,0,0,1,36.05,10.56Z"/><path id="_路径_137" data-name="&lt;路径&gt;" class="cls-14" d="M36.62,10l-.41.41a0,0,0,0,1-.06,0h0a0,0,0,0,1,0-.06l.41-.41a0,0,0,0,1,.06,0h0A0,0,0,0,1,36.62,10Z"/><path id="_路径_138" data-name="&lt;路径&gt;" class="cls-14" d="M37,10.21l-.29.29a0,0,0,0,1-.06,0h0a0,0,0,0,1,0-.06l.29-.29a0,0,0,0,1,.06,0h0A0,0,0,0,1,37,10.21Z"/><path id="_路径_139" data-name="&lt;路径&gt;" class="cls-14" d="M34.7,11.88l.69-.69a0,0,0,0,1,.06,0h0a0,0,0,0,1,0,.06l-.18.18a0,0,0,0,0,0,.05h0a0,0,0,0,0,.05,0l.08-.08a0,0,0,0,1,.06,0h0a0,0,0,0,1,0,.06l-.1.1a0,0,0,0,0,0,.05h0a0,0,0,0,0,.05,0l.37-.37a0,0,0,0,1,.07,0h0a0,0,0,0,1,0,.07l-.92.92Z"/><path id="_路径_140" data-name="&lt;路径&gt;" class="cls-45" d="M34.55,12l.39-.39a0,0,0,0,1,.06,0h0a0,0,0,0,1,0,.06l-.17.17a0,0,0,0,0,0,0h0a0,0,0,0,0,0,0l.36-.36a0,0,0,0,1,.06,0h0a0,0,0,0,1,0,.06l-.26.26a0,0,0,0,0,0,0h0a0,0,0,0,0,0,0l.13-.13a0,0,0,0,1,.07,0h0a0,0,0,0,1,0,.07l-.43.44Z"/><circle id="_路径_141" data-name="&lt;路径&gt;" class="cls-45" cx="34.72" cy="12.15" r="0.2" transform="translate(1.58 28.11) rotate(-45)"/><circle id="_路径_142" data-name="&lt;路径&gt;" class="cls-46" cx="34.72" cy="12.15" r="0.16" transform="translate(1.58 28.12) rotate(-45.01)"/><circle id="_路径_143" data-name="&lt;路径&gt;" class="cls-47" cx="34.72" cy="12.15" r="0.09" transform="translate(1.58 28.11) rotate(-45)"/></g></g><use width="0.69" height="0.69" transform="translate(30.11 7.44) scale(0.08)" xlink:href="#New_Symbol_3"/><use width="0.69" height="0.69" transform="translate(29.78 7.24) scale(0.08)" xlink:href="#New_Symbol_3"/><use width="0.69" height="0.69" transform="translate(29.75 6.98) scale(0.08)" xlink:href="#New_Symbol_3"/><use width="0.69" height="0.69" transform="translate(30.34 8.19) scale(0.08)" xlink:href="#New_Symbol_3"/><use width="0.69" height="0.69" transform="translate(32.37 13.33) scale(0.08)" xlink:href="#New_Symbol_3"/><use width="0.69" height="0.69" transform="translate(33.16 13.47) scale(0.08)" xlink:href="#New_Symbol_3"/><use width="0.69" height="0.69" transform="translate(33.21 13.25) scale(0.08)" xlink:href="#New_Symbol_3"/><use width="0.69" height="0.69" transform="translate(26.8 11.74) scale(0.08)" xlink:href="#New_Symbol_3"/><use width="0.69" height="0.69" transform="translate(26.47 11.25) scale(0.08)" xlink:href="#New_Symbol_3"/><use width="0.69" height="0.69" transform="translate(26.22 11.13) scale(0.08)" xlink:href="#New_Symbol_3"/><use width="0.69" height="0.69" transform="translate(26.22 11.39) scale(0.08)" xlink:href="#New_Symbol_3"/><use width="0.69" height="0.69" transform="translate(26.98 10.86) scale(0.08)" xlink:href="#New_Symbol_3"/><use width="0.69" height="0.69" transform="translate(22.5 8.61) scale(0.08)" xlink:href="#New_Symbol_3"/><use width="0.69" height="0.69" transform="translate(22.53 8.25) scale(0.08)" xlink:href="#New_Symbol_3"/><use width="0.69" height="0.69" transform="translate(22.69 7.72) scale(0.08)" xlink:href="#New_Symbol_3"/><use width="0.69" height="0.69" transform="translate(22.39 7.56) scale(0.07)" xlink:href="#New_Symbol_3"/><use width="0.69" height="0.69" transform="translate(22.27 7.75) scale(0.07)" xlink:href="#New_Symbol_3"/><use width="0.69" height="0.69" transform="translate(35.89 17.53) scale(0.08)" xlink:href="#New_Symbol_3"/><use width="0.69" height="0.69" transform="translate(35.24 17.52) scale(0.08)" xlink:href="#New_Symbol_3"/><use width="0.69" height="0.69" transform="translate(34.99 18.01) scale(0.08)" xlink:href="#New_Symbol_3"/><use width="0.69" height="0.69" transform="translate(34.88 16.95) scale(0.08)" xlink:href="#New_Symbol_3"/><use width="0.69" height="0.69" transform="translate(30.6 3.06) scale(0.08)" xlink:href="#New_Symbol_3"/><use width="0.69" height="0.69" transform="translate(31.11 2.76) scale(0.08)" xlink:href="#New_Symbol_3"/><use width="0.69" height="0.69" transform="translate(30.41 3.79) scale(0.08)" xlink:href="#New_Symbol_3"/><use width="0.69" height="0.69" transform="translate(30.49 4.05) scale(0.08)" xlink:href="#New_Symbol_3"/><use width="0.69" height="0.69" transform="translate(30.78 3.74) scale(0.08)" xlink:href="#New_Symbol_3"/><use width="0.69" height="0.69" transform="translate(36.95 7.47) scale(0.08)" xlink:href="#New_Symbol_3"/><use width="0.69" height="0.69" transform="translate(36.69 8.16) scale(0.08)" xlink:href="#New_Symbol_3"/><use width="0.69" height="0.69" transform="translate(37.07 7.73) scale(0.08)" xlink:href="#New_Symbol_3"/><use width="0.69" height="0.69" transform="translate(25.61 1.07) scale(0.08)" xlink:href="#New_Symbol_3"/><use width="0.69" height="0.69" transform="translate(25.15 1.33) scale(0.08)" xlink:href="#New_Symbol_3"/><use width="0.69" height="0.69" transform="translate(24.92 1.12) scale(0.08)" xlink:href="#New_Symbol_3"/><use width="0.69" height="0.69" transform="translate(23.69 12.41) scale(0.08)" xlink:href="#New_Symbol_3"/><use width="0.69" height="0.69" transform="translate(23.16 11.76) scale(0.08)" xlink:href="#New_Symbol_3"/><use width="0.69" height="0.69" transform="translate(23.28 11.4) scale(0.08)" xlink:href="#New_Symbol_3"/><use width="0.69" height="0.69" transform="translate(23.84 11.01) scale(0.08)" xlink:href="#New_Symbol_3"/><use width="0.69" height="0.69" transform="translate(23.7 11.24) scale(0.08)" xlink:href="#New_Symbol_3"/><use width="0.69" height="0.69" transform="translate(23.37 11.1) scale(0.08)" xlink:href="#New_Symbol_3"/><use width="0.69" height="0.69" transform="translate(22.93 3.52) scale(0.08)" xlink:href="#New_Symbol_3"/><use width="0.69" height="0.69" transform="translate(22.68 3.86) scale(0.08)" xlink:href="#New_Symbol_3"/><use width="0.69" height="0.69" transform="translate(22.34 3.78) scale(0.08)" xlink:href="#New_Symbol_3"/><use width="0.69" height="0.69" transform="translate(22.32 3.13) scale(0.08)" xlink:href="#New_Symbol_3"/><use width="0.69" height="0.69" transform="translate(21.84 3.43) scale(0.08)" xlink:href="#New_Symbol_3"/><use width="0.69" height="0.69" transform="translate(20.65 1.3) scale(0.08)" xlink:href="#New_Symbol_3"/><use width="0.69" height="0.69" transform="translate(20.64 1.59) scale(0.08)" xlink:href="#New_Symbol_3"/><use width="0.69" height="0.69" transform="translate(21.46 6.89) scale(0.08)" xlink:href="#New_Symbol_3"/><use width="0.69" height="0.69" transform="translate(32.83 10.26) scale(0.08)" xlink:href="#New_Symbol_3"/><use width="0.69" height="0.69" transform="translate(32.52 10.63) scale(0.08)" xlink:href="#New_Symbol_3"/><use width="0.69" height="0.69" transform="translate(32.6 10.04) scale(0.08)" xlink:href="#New_Symbol_3"/><use width="0.69" height="0.69" transform="translate(32.15 9.91) scale(0.08)" xlink:href="#New_Symbol_3"/><use width="0.69" height="0.69" transform="translate(31.53 9.55) scale(0.08)" xlink:href="#New_Symbol_3"/><use width="0.69" height="0.69" transform="translate(34.12 13.82) scale(0.08)" xlink:href="#New_Symbol_3"/><use width="0.69" height="0.69" transform="translate(34.87 14.03) scale(0.08)" xlink:href="#New_Symbol_3"/><circle class="cls-14" cx="33.38" cy="9.57" r="0.05"/><circle class="cls-14" cx="27.34" cy="4.76" r="0.05"/><circle class="cls-14" cx="21" cy="3.61" r="0.05"/><circle class="cls-14" cx="29.1" cy="15.84" r="0.05"/><circle class="cls-14" cx="37.21" cy="0.51" r="0.05"/><circle class="cls-14" cx="29.68" cy="18.67" r="0.05"/><circle id="_路径_144" data-name="&lt;路径&gt;" class="cls-9" cx="31.09" cy="15.29" r="0.94"/><path class="cls-49" d="M31.09,14.35a.94.94,0,0,0-.46.12.94.94,0,0,1,.85,1.68.94.94,0,0,0-.39-1.8Z"/><circle id="_路径_145" data-name="&lt;路径&gt;" class="cls-9" cx="30.15" cy="4.05" r="0.67"/><path class="cls-50" d="M30.15,3.38a.67.67,0,0,0-.33.09.67.67,0,0,1,.61,1.2.67.67,0,0,0-.28-1.28Z"/><ellipse class="cls-51" cx="33.4" cy="2.65" rx="2.47" ry="0.89"/></g></g></g></svg>