<svg xmlns="http://www.w3.org/2000/svg" xmlns:xlink="http://www.w3.org/1999/xlink" viewBox="0 0 35.06 20.92"><defs><style>.cls-1{isolation:isolate;}.cls-2{fill:#f4f7fe;}.cls-3{fill:#e9eefe;}.cls-4{fill:#d3d4fc;}.cls-5{fill:#a8bcfb;}.cls-6,.cls-9{fill:#150d9c;}.cls-16,.cls-6{opacity:0.3;}.cls-7{fill:url(#linear-gradient);}.cls-8{fill:url(#linear-gradient-2);}.cls-10{fill:url(#linear-gradient-3);}.cls-11{fill:url(#linear-gradient-4);}.cls-12{fill:url(#linear-gradient-5);}.cls-13{fill:url(#linear-gradient-6);}.cls-14{fill:#0d035c;}.cls-15{fill:url(#linear-gradient-7);}.cls-17{fill:url(#linear-gradient-8);}.cls-18{fill:url(#linear-gradient-9);}.cls-19{fill:url(#linear-gradient-10);}.cls-20{fill:url(#linear-gradient-11);}.cls-21{fill:url(#linear-gradient-12);}.cls-22{fill:url(#linear-gradient-13);}.cls-23{fill:#2657f4;}.cls-24{fill:#f67;}.cls-25{fill:#ba539a;}.cls-26{fill:url(#linear-gradient-14);}.cls-27{fill:#fff;}.cls-28{fill:#2329f0;}.cls-29{fill:#e9eafd;}.cls-30{fill:#fc899f;}.cls-31{fill:url(#linear-gradient-15);}.cls-32{fill:url(#linear-gradient-16);}.cls-33{fill:url(#linear-gradient-17);}.cls-34{fill:url(#linear-gradient-18);}.cls-35{fill:url(#linear-gradient-19);}.cls-36{fill:url(#linear-gradient-20);}.cls-37{fill:#d4ddfd;}.cls-38{fill:url(#linear-gradient-21);}.cls-39{fill:url(#linear-gradient-22);}.cls-40{fill:url(#linear-gradient-23);}.cls-41{fill:url(#linear-gradient-24);}.cls-42{fill:url(#linear-gradient-25);}.cls-43{fill:#100a75;}.cls-44{fill:url(#linear-gradient-26);}.cls-45{fill:#05105d;}.cls-46{fill:url(#linear-gradient-27);}.cls-47{fill:url(#linear-gradient-28);}.cls-48{fill:#fdb8c5;}.cls-49{mix-blend-mode:multiply;fill:url(#radial-gradient);}</style><linearGradient id="linear-gradient" x1="-734.1" y1="330.12" x2="-734.52" y2="325.64" gradientTransform="matrix(-0.91, 0.41, 0.41, 0.91, -772.78, 12.96)" gradientUnits="userSpaceOnUse"><stop offset="0" stop-color="#2329f0"/><stop offset="0.15" stop-color="#332de7"/><stop offset="0.44" stop-color="#5c39cf"/><stop offset="0.85" stop-color="#9f4baa"/><stop offset="1" stop-color="#ba539a"/></linearGradient><linearGradient id="linear-gradient-2" x1="-724.49" y1="219.4" x2="-724.91" y2="214.92" gradientTransform="matrix(-0.99, -0.15, -0.15, 0.99, -649.85, -314.37)" xlink:href="#linear-gradient"/><linearGradient id="linear-gradient-3" x1="10" y1="14.2" x2="10.34" y2="14.2" gradientUnits="userSpaceOnUse"><stop offset="0" stop-color="#2329f0"/><stop offset="0.32" stop-color="#2433f1"/><stop offset="0.87" stop-color="#264ff3"/><stop offset="1" stop-color="#2657f4"/></linearGradient><linearGradient id="linear-gradient-4" x1="-335.48" y1="-243.71" x2="-335.07" y2="-243.71" gradientTransform="matrix(0.67, 0.74, -0.74, 0.67, 58.53, 425.71)" xlink:href="#linear-gradient-3"/><linearGradient id="linear-gradient-5" x1="69.9" y1="212.02" x2="70.24" y2="212.02" gradientTransform="translate(-128.99 -160.64) rotate(-20.14)" xlink:href="#linear-gradient-3"/><linearGradient id="linear-gradient-6" x1="11.22" y1="13.92" x2="11.12" y2="13.21" xlink:href="#linear-gradient-3"/><linearGradient id="linear-gradient-7" x1="9.52" y1="15.13" x2="13.24" y2="15.13" gradientUnits="userSpaceOnUse"><stop offset="0" stop-color="#673ab7"/><stop offset="0.17" stop-color="#6f44ba"/><stop offset="0.47" stop-color="#8561c3"/><stop offset="0.85" stop-color="#a98ed1"/><stop offset="1" stop-color="#b8a1d7"/></linearGradient><linearGradient id="linear-gradient-8" x1="-1114.16" y1="15.12" x2="-1110.45" y2="15.12" gradientTransform="matrix(-1, 0, 0, 1, -1098.31, 0)" xlink:href="#linear-gradient-7"/><linearGradient id="linear-gradient-9" x1="30.57" y1="15.37" x2="30.91" y2="15.37" xlink:href="#linear-gradient-3"/><linearGradient id="linear-gradient-10" x1="-321.18" y1="-257.55" x2="-320.77" y2="-257.55" gradientTransform="matrix(0.67, 0.74, -0.74, 0.67, 58.53, 425.71)" xlink:href="#linear-gradient-3"/><linearGradient id="linear-gradient-11" x1="88.8" y1="220.21" x2="89.15" y2="220.21" gradientTransform="translate(-128.99 -160.64) rotate(-20.14)" xlink:href="#linear-gradient-3"/><linearGradient id="linear-gradient-12" x1="-134.88" y1="-115.13" x2="-134.99" y2="-115.84" gradientTransform="translate(92.79 181.86) rotate(29.92)" xlink:href="#linear-gradient-3"/><linearGradient id="linear-gradient-13" x1="30.09" y1="16.3" x2="33.8" y2="16.3" xlink:href="#linear-gradient-7"/><linearGradient id="linear-gradient-14" x1="12.46" y1="10.79" x2="31.5" y2="10.79" gradientUnits="userSpaceOnUse"><stop offset="0" stop-color="#2657f4"/><stop offset="0.02" stop-color="#244ce7"/><stop offset="0.07" stop-color="#1e35cc"/><stop offset="0.12" stop-color="#1a23b7"/><stop offset="0.18" stop-color="#1717a8"/><stop offset="0.25" stop-color="#160f9f"/><stop offset="0.35" stop-color="#150d9c"/></linearGradient><linearGradient id="linear-gradient-15" x1="-1092.32" y1="19.62" x2="-1091.55" y2="19.62" gradientTransform="matrix(-1, 0, 0, 1, -1075.1, 0)" xlink:href="#linear-gradient-3"/><linearGradient id="linear-gradient-16" x1="14.28" y1="19.62" x2="15.05" y2="19.62" xlink:href="#linear-gradient-3"/><linearGradient id="linear-gradient-17" x1="15.24" y1="10.42" x2="16.46" y2="10.42" gradientUnits="userSpaceOnUse"><stop offset="0" stop-color="#2329f0"/><stop offset="0.18" stop-color="#3831f4"/><stop offset="0.53" stop-color="#5d40fa"/><stop offset="0.82" stop-color="#744afe"/><stop offset="1" stop-color="#7c4dff"/></linearGradient><linearGradient id="linear-gradient-18" x1="25.34" y1="8.74" x2="25.94" y2="8.28" gradientUnits="userSpaceOnUse"><stop offset="0" stop-color="#fec55e"/><stop offset="0.22" stop-color="#feb562"/><stop offset="0.65" stop-color="#ff8c6d"/><stop offset="1" stop-color="#f67"/></linearGradient><linearGradient id="linear-gradient-19" x1="0.55" y1="-44.01" x2="1.96" y2="-44.01" gradientTransform="matrix(1.06, 0.09, 0.02, 0.94, 21.23, 52.54)" gradientUnits="userSpaceOnUse"><stop offset="0" stop-color="#f67"/><stop offset="0.6" stop-color="#f58a94"/><stop offset="1" stop-color="#ef9ea3"/></linearGradient><linearGradient id="linear-gradient-20" x1="-112.73" y1="760.52" x2="-112.08" y2="760.52" gradientTransform="translate(-750.32 -95.09) rotate(-90)" gradientUnits="userSpaceOnUse"><stop offset="0" stop-color="#f67"/><stop offset="0.05" stop-color="#ff6d75"/><stop offset="0.33" stop-color="#ff936b"/><stop offset="0.59" stop-color="#feae64"/><stop offset="0.83" stop-color="#febf60"/><stop offset="1" stop-color="#fec55e"/></linearGradient><linearGradient id="linear-gradient-21" x1="24.89" y1="15.67" x2="26.86" y2="15.67" gradientUnits="userSpaceOnUse"><stop offset="0" stop-color="#7c4dff"/><stop offset="0.18" stop-color="#744afe"/><stop offset="0.47" stop-color="#5d40fa"/><stop offset="0.82" stop-color="#3831f4"/><stop offset="1" stop-color="#2329f0"/></linearGradient><linearGradient id="linear-gradient-22" x1="30.71" y1="10.2" x2="33.9" y2="10.2" gradientTransform="matrix(1.08, -0.1, 0.15, 0.92, -13.2, 9.64)" xlink:href="#linear-gradient-18"/><linearGradient id="linear-gradient-23" x1="36.21" y1="-8.01" x2="37.14" y2="-8.01" gradientTransform="matrix(1, -0.02, 0.02, 1, -12.34, 23.71)" xlink:href="#linear-gradient-18"/><linearGradient id="linear-gradient-24" x1="33.73" y1="-7.48" x2="35.47" y2="-7.48" gradientTransform="matrix(1, -0.02, 0.02, 1, -12.34, 23.71)" xlink:href="#linear-gradient-18"/><linearGradient id="linear-gradient-25" x1="35.75" y1="-6.3" x2="36.68" y2="-6.3" gradientTransform="matrix(1, -0.02, 0.02, 1, -12.34, 23.71)" xlink:href="#linear-gradient-18"/><linearGradient id="linear-gradient-26" x1="30.06" y1="13.26" x2="31.87" y2="13.26" xlink:href="#linear-gradient-18"/><linearGradient id="linear-gradient-27" x1="32.09" y1="12.41" x2="30.73" y2="10.25" gradientUnits="userSpaceOnUse"><stop offset="0" stop-color="#150d9c"/><stop offset="0.19" stop-color="#1611a1"/><stop offset="0.42" stop-color="#191daf"/><stop offset="0.67" stop-color="#1d32c7"/><stop offset="0.92" stop-color="#244ee9"/><stop offset="1" stop-color="#2657f4"/></linearGradient><linearGradient id="linear-gradient-28" x1="13.21" y1="3.31" x2="15.67" y2="3.31" gradientTransform="matrix(1, 0, 0, 1, 0, 0)" xlink:href="#linear-gradient-20"/><radialGradient id="radial-gradient" cx="-135.19" cy="16655.88" r="1.83" gradientTransform="translate(211.19 -5402.28) scale(1.34 0.32)" gradientUnits="userSpaceOnUse"><stop offset="0" stop-color="#2657f4"/><stop offset="0.02" stop-color="#3361f5"/><stop offset="0.12" stop-color="#6386f7"/><stop offset="0.21" stop-color="#8da6f9"/><stop offset="0.32" stop-color="#b0c2fb"/><stop offset="0.42" stop-color="#cdd8fc"/><stop offset="0.54" stop-color="#e3e9fe"/><stop offset="0.66" stop-color="#f3f6fe"/><stop offset="0.8" stop-color="#fcfdff"/><stop offset="1" stop-color="#fff"/></radialGradient></defs><title>资源 2</title><g class="cls-1"><g id="图层_2" data-name="图层 2"><g id="图层_1-2" data-name="图层 1"><path class="cls-2" d="M35.06,6.78l-.11-.08A6,6,0,0,0,32.15,6a12.84,12.84,0,0,1-6.68-2.68,8.16,8.16,0,0,0-2.37-1.35,3.84,3.84,0,0,0-2.68,0,3.61,3.61,0,0,0-2,2.92c-.13,1.27,1.15,2.47,1.61,3.6a6,6,0,0,1,.74,2c0,2-3,2.16-4.4,2.07a10.77,10.77,0,0,0-2.87,0,4.64,4.64,0,0,0-2.84,1.86c-1.4,2-.72,4.37.29,6.48H35.06Z"/><path class="cls-3" d="M35.06,6.51,35,6.44a7.12,7.12,0,0,1-.81-1.17,5,5,0,0,0-3.36-2.08,5.9,5.9,0,0,0-3.9.82c-1.36.82-2.57,2.19-4.16,2.12-1.29-.06-2.31-1.07-3.47-1.65a4.18,4.18,0,0,0-2.8-.39A2.92,2.92,0,0,0,14.4,5.9c-.63,1.85,1,3.69,1.22,5.63a4.77,4.77,0,0,1-1,3.36,7.74,7.74,0,0,1-2.81,2.19A8.06,8.06,0,0,0,9,18.74a3,3,0,0,0-.68,2.18H35.06Z"/><path class="cls-4" d="M35.06,10.62,35,10.57a5.08,5.08,0,0,1-.58-.83A3.56,3.56,0,0,0,32,8.25a4.22,4.22,0,0,0-2.79.59c-1,.59-1.84,1.57-3,1.52-.92,0-1.65-.77-2.48-1.18a3,3,0,0,0-2-.28,2.09,2.09,0,0,0-1.49,1.29c-.45,1.32.72,2.63.87,4a3.41,3.41,0,0,1-.73,2.4,5.53,5.53,0,0,1-2,1.56,5.76,5.76,0,0,0-2,1.19A2.14,2.14,0,0,0,16,20.92H35.06Z"/><g id="_编组_" data-name="&lt;编组&gt;"><g id="_编组_2" data-name="&lt;编组&gt;"><path class="cls-5" d="M31.29,9.5a2.94,2.94,0,0,1,.23-.71c0-.07.1-.27.18-.3s.24.08.31.13a3.39,3.39,0,0,1,1,1.55,5.44,5.44,0,0,1,.35,1.4q0,.1,0,.2a4.63,4.63,0,0,1-.27,1.57c-.1.28-.27.9-.68.79a.49.49,0,0,1-.3-.28,1.7,1.7,0,0,1-.11-.41c-.07-.37-.13-.75-.23-1.12s-.3-.83-.41-1.26V11A3.58,3.58,0,0,1,31.29,9.5Z"/></g><path class="cls-6" d="M32.27,10.83h0a6.52,6.52,0,0,1-.51-.89s0,0,0,0a6.5,6.5,0,0,0,.47.82,6.55,6.55,0,0,0-.37-1.5s0,0,0,0a6.23,6.23,0,0,1,.33,1.23,2.11,2.11,0,0,0,.21-1s0,0,0,0a2.16,2.16,0,0,1-.23,1.1q0,.15,0,.3h0a0,0,0,0,1,0,0c0,.18,0,.35.06.53l0,.29a2.3,2.3,0,0,0,.29-.36,2,2,0,0,0,.18-.44s0,0,0,0a2.09,2.09,0,0,1-.19.44,2.45,2.45,0,0,1-.32.39h0c0,.36,0,.73.06,1.09a3.74,3.74,0,0,0,.61-1.11s0,0,0,0a3.8,3.8,0,0,1-.64,1.15c0,.26,0,.53,0,.79,0,0,0,0,0,0,0-.41,0-.83-.06-1.24a5.5,5.5,0,0,1-.53-1.28s0,0,0,0a5.5,5.5,0,0,0,.51,1.25c0-.29,0-.59-.06-.88S32.29,11,32.27,10.83Z"/></g><path class="cls-7" d="M31.17,12.63a.54.54,0,0,1,.69.14,5.67,5.67,0,0,0-.13-.61c-.57.2-.67-.2-.67-.2a.52.52,0,0,1,.65.1,5.71,5.71,0,0,0-.21-.6c-.59.21-.69-.19-.69-.19a.53.53,0,0,1,.66.11,5.67,5.67,0,0,0-.29-.57c-.58.2-.68-.19-.68-.19a.5.5,0,0,1,.61.07,5.64,5.64,0,0,0-.34-.5c-.58.2-.68-.19-.68-.19a.48.48,0,0,1,.56,0l-.26-.29c-.56-.16-.43-.54-.43-.54.38,0,.47.38.49.51l.29.33c-.23-.44.08-.61.08-.61a.56.56,0,0,1,0,.73,5.69,5.69,0,0,1,.35.52c-.18-.5.17-.62.17-.62a.56.56,0,0,1-.11.72,5.76,5.76,0,0,1,.27.54c0-.52.32-.55.32-.55a.55.55,0,0,1-.27.66,5.77,5.77,0,0,1,.2.57c.11-.51.46-.43.46-.43a.54.54,0,0,1-.43.55,5.74,5.74,0,0,1,.13.59c.23-.5.57-.33.57-.33a.54.54,0,0,1-.55.43,5.65,5.65,0,0,1,.06.84s-.06,0-.06,0a5.6,5.6,0,0,0-.06-.84C31.27,13,31.17,12.63,31.17,12.63Z"/><path class="cls-8" d="M32.3,12.12c.37,0,.47.35.5.49A5.65,5.65,0,0,0,33,12c-.59-.15-.46-.53-.46-.53a.52.52,0,0,1,.49.44,5.67,5.67,0,0,0,.15-.62c-.6-.14-.47-.53-.47-.53a.53.53,0,0,1,.49.45,5.69,5.69,0,0,0,.07-.64c-.6-.15-.47-.53-.47-.53a.5.5,0,0,1,.47.39,5.65,5.65,0,0,0,0-.6c-.6-.15-.47-.53-.47-.53a.48.48,0,0,1,.45.33q0-.19-.06-.39c-.38-.44-.07-.68-.07-.68a.55.55,0,0,1,.13.69q0,.21.06.43c0-.49.4-.46.4-.46.09.39-.3.58-.39.61a5.71,5.71,0,0,1,0,.63c.12-.52.48-.43.48-.43,0,.41-.39.53-.48.55a5.76,5.76,0,0,1-.07.61c.24-.46.57-.29.57-.29-.07.38-.47.41-.59.41a5.71,5.71,0,0,1-.14.59c.36-.37.62-.11.62-.11a.54.54,0,0,1-.66.23,5.72,5.72,0,0,1-.22.57c.46-.29.65,0,.65,0a.54.54,0,0,1-.69.06,5.65,5.65,0,0,1-.41.73s-.08,0-.05,0a5.61,5.61,0,0,0,.41-.73C32.17,12.51,32.3,12.12,32.3,12.12Z"/><g id="_编组_3" data-name="&lt;编组&gt;"><g id="_编组_4" data-name="&lt;编组&gt;"><path id="_路径_" data-name="&lt;路径&gt;" class="cls-9" d="M7.57,14.24a4.18,4.18,0,0,0,2.75,1.65s0,0,0,0a4.13,4.13,0,0,1-2.72-1.63s-.05,0,0,0Z"/></g><path id="_路径_2" data-name="&lt;路径&gt;" class="cls-9" d="M7.68,14.35s-.38-.09-.34-.42C7.34,13.93,7.64,13.87,7.68,14.35Z"/><path id="_路径_3" data-name="&lt;路径&gt;" class="cls-9" d="M7.94,14.65s-.35.19-.54-.08C7.41,14.57,7.59,14.33,7.94,14.65Z"/><path id="_路径_4" data-name="&lt;路径&gt;" class="cls-9" d="M8.34,15s-.31.24-.54,0C7.8,15,7.95,14.75,8.34,15Z"/><path id="_路径_5" data-name="&lt;路径&gt;" class="cls-9" d="M8.79,15.31s-.24.31-.52.14C8.26,15.45,8.34,15.15,8.79,15.31Z"/><path id="_路径_6" data-name="&lt;路径&gt;" class="cls-9" d="M9.26,15.54s-.14.37-.46.29C8.8,15.83,8.78,15.52,9.26,15.54Z"/><path id="_路径_7" data-name="&lt;路径&gt;" class="cls-9" d="M9.73,15.72s0,.39-.38.39C9.36,16.11,9.26,15.81,9.73,15.72Z"/><path id="_路径_8" data-name="&lt;路径&gt;" class="cls-9" d="M7.95,14.65s-.27-.29,0-.54C7.9,14.11,8.18,14.23,7.95,14.65Z"/><path id="_路径_9" data-name="&lt;路径&gt;" class="cls-9" d="M8.35,15s-.27-.29,0-.54C8.3,14.48,8.58,14.6,8.35,15Z"/><path id="_路径_10" data-name="&lt;路径&gt;" class="cls-9" d="M8.79,15.32s-.27-.29,0-.54C8.74,14.78,9,14.9,8.79,15.32Z"/><path id="_路径_11" data-name="&lt;路径&gt;" class="cls-9" d="M9.26,15.57s-.27-.29,0-.54C9.21,15,9.49,15.16,9.26,15.57Z"/><path id="_路径_12" data-name="&lt;路径&gt;" class="cls-9" d="M9.72,15.73s-.27-.29,0-.54C9.67,15.19,10,15.32,9.72,15.73Z"/></g><g id="_编组_5" data-name="&lt;编组&gt;"><g id="_编组_6" data-name="&lt;编组&gt;"><path class="cls-10" d="M10.29,14h0a.1.1,0,0,0,0,.06.2.2,0,0,0-.08-.06h0a.1.1,0,0,0,0,0,.07.07,0,0,0,0,0l0,0h-.05a0,0,0,0,0,0,0v0s0,0,0,0l-.06,0v0a.38.38,0,0,0,.11.16.71.71,0,0,0,.18.08l0,0v0a.81.81,0,0,0,0-.12.36.36,0,0,0,0-.12S10.3,14,10.29,14Z"/></g><g id="_编组_7" data-name="&lt;编组&gt;"><g id="_编组_8" data-name="&lt;编组&gt;"><path class="cls-9" d="M10.18,14.3a.33.33,0,0,1-.09-.14v0h0v0a.34.34,0,0,0,.09.14.61.61,0,0,0,.15.07h0A.57.57,0,0,1,10.18,14.3Z"/></g></g><g id="_编组_9" data-name="&lt;编组&gt;"><g id="_编组_10" data-name="&lt;编组&gt;"><path class="cls-9" d="M10.32,14.22a.28.28,0,0,0-.05-.13h0a.28.28,0,0,1,.05.13.52.52,0,0,1,0,.14h0A.49.49,0,0,0,10.32,14.22Z"/></g></g><g id="_编组_11" data-name="&lt;编组&gt;"><path id="_路径_13" data-name="&lt;路径&gt;" class="cls-9" d="M10.17,14.11l.12.24h0l-.12-.24Z"/></g><g id="_编组_12" data-name="&lt;编组&gt;"><path class="cls-9" d="M10.33,14.31h0a0,0,0,0,0,0,0l0,0h0v0h0v0s0,0,0,0h0s0,0,0,.06l.06,0h0a.2.2,0,0,0,0,0,.14.14,0,0,0,0,0A.17.17,0,0,1,10.33,14.31Z"/></g><path id="_路径_14" data-name="&lt;路径&gt;" class="cls-9" d="M10.52,14.81a2.12,2.12,0,0,1-.2-.4s0,0,0,0a2.31,2.31,0,0,0,.2.42l0,.11h0Z"/></g><g id="_编组_13" data-name="&lt;编组&gt;"><g id="_编组_14" data-name="&lt;编组&gt;"><path class="cls-11" d="M14.18,13.58h0a.13.13,0,0,0-.07,0,.24.24,0,0,0,0-.12h0l-.06,0a.09.09,0,0,0,0,0,.15.15,0,0,0,0-.07v-.05h0l0,0s0,0,0,0a.2.2,0,0,0,0-.07l0,0a.46.46,0,0,0-.05.22.85.85,0,0,0,.07.22h.08l0,0,.11-.08a.43.43,0,0,0,.09-.12S14.19,13.59,14.18,13.58Z"/></g><g id="_编组_15" data-name="&lt;编组&gt;"><g id="_编组_16" data-name="&lt;编组&gt;"><path class="cls-9" d="M13.83,13.71a.4.4,0,0,1,0-.19v0h0l0,0a.4.4,0,0,0,0,.19.74.74,0,0,0,.06.19h0A.69.69,0,0,1,13.83,13.71Z"/></g></g><g id="_编组_17" data-name="&lt;编组&gt;"><g id="_编组_18" data-name="&lt;编组&gt;"><path class="cls-9" d="M14,13.77a.34.34,0,0,0,.07-.15v0h0v0a.34.34,0,0,1-.07.15.63.63,0,0,1-.14.09h0A.59.59,0,0,0,14,13.77Z"/></g></g><g id="_编组_19" data-name="&lt;编组&gt;"><path id="_路径_15" data-name="&lt;路径&gt;" class="cls-9" d="M14,13.55l-.12.3h0l.12-.3Z"/></g><g id="_编组_20" data-name="&lt;编组&gt;"><path class="cls-9" d="M13.94,13.86h0a.09.09,0,0,0,0,0h0v0a.06.06,0,0,0,0,0h0l0,0h0s0,.05,0,.08a.3.3,0,0,0,0,.08h0l0,0a.17.17,0,0,0,0,0Z"/></g><path id="_路径_16" data-name="&lt;路径&gt;" class="cls-9" d="M13.65,14.43a2.56,2.56,0,0,1,.2-.5s0,0,0,0a2.78,2.78,0,0,0-.21.52l-.06.14,0,0Z"/></g><g id="_编组_21" data-name="&lt;编组&gt;"><g id="_编组_22" data-name="&lt;编组&gt;"><path class="cls-12" d="M9.85,14.09h0a.1.1,0,0,0,0,.06.2.2,0,0,0-.1,0h0a.1.1,0,0,0,0,.05l0,0-.05,0H9.67a0,0,0,0,0,0,0l0,0s0,0,0,0H9.62v0a.38.38,0,0,0,.15.11.71.71,0,0,0,.19,0v-.07a.1.1,0,0,0,0,0,.83.83,0,0,0,0-.11.36.36,0,0,0-.06-.1S9.86,14.08,9.85,14.09Z"/></g><g id="_编组_23" data-name="&lt;编组&gt;"><g id="_编组_24" data-name="&lt;编组&gt;"><path class="cls-9" d="M9.84,14.4a.33.33,0,0,1-.13-.1v0h0v0a.33.33,0,0,0,.13.1.62.62,0,0,0,.17,0h0A.58.58,0,0,1,9.84,14.4Z"/></g></g><g id="_编组_25" data-name="&lt;编组&gt;"><g id="_编组_26" data-name="&lt;编组&gt;"><path class="cls-9" d="M9.94,14.27a.28.28,0,0,0-.09-.1h0a.28.28,0,0,1,.09.1.52.52,0,0,1,0,.14h0A.49.49,0,0,0,9.94,14.27Z"/></g></g><g id="_编组_27" data-name="&lt;编组&gt;"><path id="_路径_17" data-name="&lt;路径&gt;" class="cls-9" d="M9.77,14.23l.2.18h0l-.2-.19s0,0,0,0Z"/></g><g id="_编组_28" data-name="&lt;编组&gt;"><path class="cls-9" d="M10,14.36h0a0,0,0,0,0,0,0h0a0,0,0,0,0,0,0h0s0,0,0,0h0s0,0,.06,0H10v0h0v0l0,0Z"/></g><path id="_路径_18" data-name="&lt;路径&gt;" class="cls-9" d="M10.34,14.76a2.13,2.13,0,0,1-.32-.31s0,0,0,0a2.32,2.32,0,0,0,.34.32l.09.09h0Z"/></g><g id="_编组_29" data-name="&lt;编组&gt;"><g id="_编组_30" data-name="&lt;编组&gt;"><path class="cls-13" d="M11.39,13.26h0a.18.18,0,0,0,0,.09.34.34,0,0,0-.11-.13h0a.17.17,0,0,0,0,.07.12.12,0,0,0,0,.08.21.21,0,0,0-.06-.08l0,0,0,0h0a0,0,0,0,0,0,0v.07s0,0,0,0l-.1-.05s0,0,0,0a.65.65,0,0,0,.12.3,1.2,1.2,0,0,0,.26.2l.06-.05,0,0,0,0a1.39,1.39,0,0,0,.06-.19.61.61,0,0,0,0-.21S11.41,13.26,11.39,13.26Z"/></g><g id="_编组_31" data-name="&lt;编组&gt;"><g id="_编组_32" data-name="&lt;编组&gt;"><path class="cls-14" d="M11.09,13.7a.57.57,0,0,1-.1-.26.25.25,0,0,1,0,0h0v0a.57.57,0,0,0,.1.26,1,1,0,0,0,.23.17h0A1,1,0,0,1,11.09,13.7Z"/></g></g><g id="_编组_33" data-name="&lt;编组&gt;"><g id="_编组_34" data-name="&lt;编组&gt;"><path class="cls-14" d="M11.35,13.62a.48.48,0,0,0,0-.23v0h0l0,0a.48.48,0,0,1,0,.23.89.89,0,0,1-.09.22h0A.82.82,0,0,0,11.35,13.62Z"/></g></g><g id="_编组_35" data-name="&lt;编组&gt;"><path id="_路径_19" data-name="&lt;路径&gt;" class="cls-14" d="M11.14,13.39q.06.22.11.44s0,0,0,0-.07-.3-.11-.45,0,0,0,0Z"/></g><g id="_编组_36" data-name="&lt;编组&gt;"><path class="cls-9" d="M11.34,13.78h0a.06.06,0,0,0,0,0l0,0h0l0,0a0,0,0,0,0,0,0l0,0h0v0s0,0,0,0l0,0v0s0,.08,0,.11a.43.43,0,0,0,.09.07l0,0h0v0l0-.05a.24.24,0,0,0,0-.08Z"/></g><path id="_路径_20" data-name="&lt;路径&gt;" class="cls-9" d="M11.47,14.68a3.6,3.6,0,0,1-.17-.74s0,0,0,0a3.93,3.93,0,0,0,.18.77c0,.07,0,.14,0,.21h0C11.5,14.84,11.49,14.76,11.47,14.68Z"/></g><g id="_编组_37" data-name="&lt;编组&gt;"><g id="_编组_38" data-name="&lt;编组&gt;"><path class="cls-15" d="M10.73,16.09l-.18-.1c-.31-.18-1.29-.81-1-1.25a.48.48,0,0,1,.38-.16,1.17,1.17,0,0,1,.4.06.13.13,0,0,0,.08,0s.06-.07.06-.11a1,1,0,0,1,.07-.36.53.53,0,0,1,.7-.15c.13.07.27.17.41.11a.7.7,0,0,0,.17-.15.85.85,0,0,1,.52-.17.8.8,0,0,1,.43,0A.6.6,0,0,1,13,14a1.54,1.54,0,0,1-.06,1.73,1.13,1.13,0,0,1-1,.65A3.28,3.28,0,0,1,10.73,16.09Z"/></g><g id="_编组_39" data-name="&lt;编组&gt;" class="cls-16"><g id="_编组_40" data-name="&lt;编组&gt;"><path id="_路径_21" data-name="&lt;路径&gt;" class="cls-9" d="M9.91,14.9c.7.41,1.3.94,2,1.4h0c-.66-.46-1.26-1-2-1.4Z"/></g><g id="_编组_41" data-name="&lt;编组&gt;"><path id="_路径_22" data-name="&lt;路径&gt;" class="cls-9" d="M10.14,14.84a1.73,1.73,0,0,0,.18.3h0a1.72,1.72,0,0,1-.18-.3Z"/></g><g id="_编组_42" data-name="&lt;编组&gt;"><path id="_路径_23" data-name="&lt;路径&gt;" class="cls-9" d="M10.42,14.92a1.58,1.58,0,0,0,.2.44h0a1.56,1.56,0,0,1-.2-.43Z"/></g><g id="_编组_43" data-name="&lt;编组&gt;"><path id="_路径_24" data-name="&lt;路径&gt;" class="cls-9" d="M10.7,15.1a3,3,0,0,0,.21.48h0a2.94,2.94,0,0,1-.21-.48Z"/></g><g id="_编组_44" data-name="&lt;编组&gt;"><path id="_路径_25" data-name="&lt;路径&gt;" class="cls-9" d="M11,15.25a2,2,0,0,0,.27.6h0a2,2,0,0,1-.27-.6Z"/></g><g id="_编组_45" data-name="&lt;编组&gt;"><path id="_路径_26" data-name="&lt;路径&gt;" class="cls-9" d="M11.24,15.41q.2.37.43.73h0q-.22-.36-.43-.73Z"/></g><g id="_编组_46" data-name="&lt;编组&gt;"><path id="_路径_27" data-name="&lt;路径&gt;" class="cls-9" d="M10,15.12a1.88,1.88,0,0,1,.37.06h0a1.89,1.89,0,0,0-.37-.06Z"/></g><g id="_编组_47" data-name="&lt;编组&gt;"><path id="_路径_28" data-name="&lt;路径&gt;" class="cls-9" d="M10.4,15.38a2.06,2.06,0,0,1,.38.1h0a2.07,2.07,0,0,0-.38-.1s0,0,0,0Z"/></g><g id="_编组_48" data-name="&lt;编组&gt;"><path id="_路径_29" data-name="&lt;路径&gt;" class="cls-9" d="M10.8,15.67a1,1,0,0,1,.33.08h0a1,1,0,0,0-.34-.08s0,0,0,0Z"/></g><g id="_编组_49" data-name="&lt;编组&gt;"><path id="_路径_30" data-name="&lt;路径&gt;" class="cls-9" d="M11,15.87a3.8,3.8,0,0,1,.41.09h0a1.25,1.25,0,0,1-.23-.06.62.62,0,0,0-.18,0Z"/></g><g id="_编组_50" data-name="&lt;编组&gt;"><path id="_路径_31" data-name="&lt;路径&gt;" class="cls-9" d="M11.27,16.07a1.63,1.63,0,0,1,.39.08h0a1.63,1.63,0,0,0-.39-.08Z"/></g></g><g id="_编组_51" data-name="&lt;编组&gt;" class="cls-16"><g id="_编组_52" data-name="&lt;编组&gt;"><path id="_路径_32" data-name="&lt;路径&gt;" class="cls-9" d="M10.92,14.18c.52.62.91,1.33,1.37,2h0c-.46-.66-.85-1.37-1.37-2Z"/></g><g id="_编组_53" data-name="&lt;编组&gt;"><path id="_路径_33" data-name="&lt;路径&gt;" class="cls-9" d="M11.15,14.21a1.73,1.73,0,0,0,.06.34h0a1.72,1.72,0,0,1-.06-.34Z"/></g><g id="_编组_54" data-name="&lt;编组&gt;"><path id="_路径_34" data-name="&lt;路径&gt;" class="cls-9" d="M11.39,14.37a1.57,1.57,0,0,0,0,.48h0a1.57,1.57,0,0,1,0-.48Z"/></g><g id="_编组_55" data-name="&lt;编组&gt;"><path id="_路径_35" data-name="&lt;路径&gt;" class="cls-9" d="M11.59,14.64a3,3,0,0,0,0,.52h0a3,3,0,0,1,0-.52Z"/></g><g id="_编组_56" data-name="&lt;编组&gt;"><path id="_路径_36" data-name="&lt;路径&gt;" class="cls-9" d="M11.82,14.89a2,2,0,0,0,.05.66h0a2,2,0,0,1-.05-.65Z"/></g><g id="_编组_57" data-name="&lt;编组&gt;"><path id="_路径_37" data-name="&lt;路径&gt;" class="cls-9" d="M12,15.11q.06.42.15.84h0q-.09-.41-.15-.83Z"/></g><g id="_编组_58" data-name="&lt;编组&gt;"><path id="_路径_38" data-name="&lt;路径&gt;" class="cls-9" d="M10.92,14.42a1.87,1.87,0,0,1,.32.18h0a1.89,1.89,0,0,0-.33-.18Z"/></g><g id="_编组_59" data-name="&lt;编组&gt;"><path id="_路径_39" data-name="&lt;路径&gt;" class="cls-9" d="M11.21,14.8a2.06,2.06,0,0,1,.32.23h0a2.08,2.08,0,0,0-.33-.23Z"/></g><g id="_编组_60" data-name="&lt;编组&gt;"><path id="_路径_40" data-name="&lt;路径&gt;" class="cls-9" d="M11.49,15.21c.12,0,.19.12.29.19h0c-.1-.06-.18-.16-.3-.19s0,0,0,0Z"/></g><g id="_编组_61" data-name="&lt;编组&gt;"><path id="_路径_41" data-name="&lt;路径&gt;" class="cls-9" d="M11.61,15.46a3.79,3.79,0,0,1,.36.22h0a1.24,1.24,0,0,1-.19-.14.62.62,0,0,0-.17-.08Z"/></g><g id="_编组_62" data-name="&lt;编组&gt;"><path id="_路径_42" data-name="&lt;路径&gt;" class="cls-9" d="M11.8,15.75a1.62,1.62,0,0,1,.34.21h0a1.63,1.63,0,0,0-.34-.21Z"/></g></g><g id="_编组_63" data-name="&lt;编组&gt;" class="cls-16"><g id="_编组_64" data-name="&lt;编组&gt;"><path id="_路径_43" data-name="&lt;路径&gt;" class="cls-9" d="M12.4,13.79c.14.79.13,1.6.2,2.41h0c-.07-.8-.06-1.61-.2-2.41Z"/></g><g id="_编组_65" data-name="&lt;编组&gt;"><path id="_路径_44" data-name="&lt;路径&gt;" class="cls-9" d="M12.58,13.92a1.73,1.73,0,0,0-.12.33h0a1.71,1.71,0,0,1,.11-.33s0,0,0,0Z"/></g><g id="_编组_66" data-name="&lt;编组&gt;"><path id="_路径_45" data-name="&lt;路径&gt;" class="cls-9" d="M12.71,14.18a1.57,1.57,0,0,0-.2.44h0a1.56,1.56,0,0,1,.2-.43Z"/></g><g id="_编组_67" data-name="&lt;编组&gt;"><path id="_路径_46" data-name="&lt;路径&gt;" class="cls-9" d="M12.75,14.52a3,3,0,0,0-.23.47h0a3,3,0,0,1,.23-.47Z"/></g><g id="_编组_68" data-name="&lt;编组&gt;"><path id="_路径_47" data-name="&lt;路径&gt;" class="cls-9" d="M12.83,14.85a2,2,0,0,0-.28.6h0a2,2,0,0,1,.28-.59Z"/></g><g id="_编组_69" data-name="&lt;编组&gt;"><path id="_路径_48" data-name="&lt;路径&gt;" class="cls-9" d="M12.86,15.13q-.15.4-.28.8h0q.13-.4.28-.8Z"/></g><g id="_编组_70" data-name="&lt;编组&gt;"><path id="_路径_49" data-name="&lt;路径&gt;" class="cls-9" d="M12.28,14a1.88,1.88,0,0,1,.19.32h0a1.88,1.88,0,0,0-.19-.32Z"/></g><g id="_编组_71" data-name="&lt;编组&gt;"><path id="_路径_50" data-name="&lt;路径&gt;" class="cls-9" d="M12.35,14.47a2.07,2.07,0,0,1,.17.36h0a2.08,2.08,0,0,0-.17-.36Z"/></g><g id="_编组_72" data-name="&lt;编组&gt;"><path id="_路径_51" data-name="&lt;路径&gt;" class="cls-9" d="M12.38,15c.09.08.1.2.16.3h0c-.06-.1-.07-.23-.16-.31s0,0,0,0Z"/></g><g id="_编组_73" data-name="&lt;编组&gt;"><path id="_路径_52" data-name="&lt;路径&gt;" class="cls-9" d="M12.36,15.24a3.78,3.78,0,0,1,.2.37h0a1.24,1.24,0,0,1-.1-.21.62.62,0,0,0-.1-.15Z"/></g><g id="_编组_74" data-name="&lt;编组&gt;"><path id="_路径_53" data-name="&lt;路径&gt;" class="cls-9" d="M12.39,15.58a1.62,1.62,0,0,1,.19.35h0a1.63,1.63,0,0,0-.2-.35Z"/></g></g></g><g id="_编组_75" data-name="&lt;编组&gt;"><g id="_编组_76" data-name="&lt;编组&gt;"><path class="cls-17" d="M14.64,16.08l.18-.1c.31-.18,1.29-.81,1-1.25a.48.48,0,0,0-.38-.16,1.17,1.17,0,0,0-.4.06.13.13,0,0,1-.08,0s-.06-.07-.06-.11a1,1,0,0,0-.07-.36.53.53,0,0,0-.7-.15c-.13.07-.27.17-.41.11a.7.7,0,0,1-.17-.15.85.85,0,0,0-.52-.17.81.81,0,0,0-.43,0,.6.6,0,0,0-.2.17,1.53,1.53,0,0,0,.06,1.73,1.13,1.13,0,0,0,1,.65A3.28,3.28,0,0,0,14.64,16.08Z"/></g><g id="_编组_77" data-name="&lt;编组&gt;" class="cls-16"><g id="_编组_78" data-name="&lt;编组&gt;"><path id="_路径_54" data-name="&lt;路径&gt;" class="cls-9" d="M15.46,14.88c-.7.41-1.3.94-2,1.4h0c.66-.46,1.26-1,2-1.4Z"/></g><g id="_编组_79" data-name="&lt;编组&gt;"><path id="_路径_55" data-name="&lt;路径&gt;" class="cls-9" d="M15.24,14.83a1.72,1.72,0,0,1-.18.3h0a1.71,1.71,0,0,0,.18-.3Z"/></g><g id="_编组_80" data-name="&lt;编组&gt;"><path id="_路径_56" data-name="&lt;路径&gt;" class="cls-9" d="M15,14.91a1.57,1.57,0,0,1-.2.44h0a1.57,1.57,0,0,0,.2-.43Z"/></g><g id="_编组_81" data-name="&lt;编组&gt;"><path id="_路径_57" data-name="&lt;路径&gt;" class="cls-9" d="M14.67,15.09a3,3,0,0,1-.21.48h0a3,3,0,0,0,.21-.48Z"/></g><g id="_编组_82" data-name="&lt;编组&gt;"><path id="_路径_58" data-name="&lt;路径&gt;" class="cls-9" d="M14.38,15.24a2,2,0,0,1-.27.6h0a2,2,0,0,0,.27-.6Z"/></g><g id="_编组_83" data-name="&lt;编组&gt;"><path id="_路径_59" data-name="&lt;路径&gt;" class="cls-9" d="M14.14,15.4q-.2.37-.43.73h0q.22-.36.43-.73Z"/></g><g id="_编组_84" data-name="&lt;编组&gt;"><path id="_路径_60" data-name="&lt;路径&gt;" class="cls-9" d="M15.38,15.11a1.88,1.88,0,0,0-.37.06h0a1.89,1.89,0,0,1,.37-.06Z"/></g><g id="_编组_85" data-name="&lt;编组&gt;"><path id="_路径_61" data-name="&lt;路径&gt;" class="cls-9" d="M15,15.36a2.06,2.06,0,0,0-.38.1h0a2.08,2.08,0,0,1,.38-.11s0,0,0,0Z"/></g><g id="_编组_86" data-name="&lt;编组&gt;"><path id="_路径_62" data-name="&lt;路径&gt;" class="cls-9" d="M14.58,15.66a1,1,0,0,0-.33.08h0a1,1,0,0,1,.34-.08s0,0,0,0Z"/></g><g id="_编组_87" data-name="&lt;编组&gt;"><path id="_路径_63" data-name="&lt;路径&gt;" class="cls-9" d="M14.38,15.85a3.8,3.8,0,0,0-.41.09h0a1.24,1.24,0,0,0,.23-.06.62.62,0,0,1,.18,0Z"/></g><g id="_编组_88" data-name="&lt;编组&gt;"><path id="_路径_64" data-name="&lt;路径&gt;" class="cls-9" d="M14.1,16.06a1.63,1.63,0,0,0-.39.08h0a1.63,1.63,0,0,1,.39-.08Z"/></g></g><g id="_编组_89" data-name="&lt;编组&gt;" class="cls-16"><g id="_编组_90" data-name="&lt;编组&gt;"><path id="_路径_65" data-name="&lt;路径&gt;" class="cls-9" d="M14.45,14.17c-.52.62-.91,1.33-1.37,2h0c.46-.66.85-1.37,1.37-2Z"/></g><g id="_编组_91" data-name="&lt;编组&gt;"><path id="_路径_66" data-name="&lt;路径&gt;" class="cls-9" d="M14.23,14.2a1.72,1.72,0,0,1-.06.34h0a1.71,1.71,0,0,0,.06-.34Z"/></g><g id="_编组_92" data-name="&lt;编组&gt;"><path id="_路径_67" data-name="&lt;路径&gt;" class="cls-9" d="M14,14.36a1.57,1.57,0,0,1,0,.48h0a1.56,1.56,0,0,0,0-.48Z"/></g><g id="_编组_93" data-name="&lt;编组&gt;"><path id="_路径_68" data-name="&lt;路径&gt;" class="cls-9" d="M13.78,14.63a2.94,2.94,0,0,1,0,.52h0a3,3,0,0,0,0-.52Z"/></g><g id="_编组_94" data-name="&lt;编组&gt;"><path id="_路径_69" data-name="&lt;路径&gt;" class="cls-9" d="M13.55,14.88a2,2,0,0,1-.05.66h0a2,2,0,0,0,.05-.65Z"/></g><g id="_编组_95" data-name="&lt;编组&gt;"><path id="_路径_70" data-name="&lt;路径&gt;" class="cls-9" d="M13.39,15.1q-.06.42-.15.84h0q.09-.41.15-.83Z"/></g><g id="_编组_96" data-name="&lt;编组&gt;"><path id="_路径_71" data-name="&lt;路径&gt;" class="cls-9" d="M14.45,14.41a1.88,1.88,0,0,0-.32.18h0a1.89,1.89,0,0,1,.33-.18Z"/></g><g id="_编组_97" data-name="&lt;编组&gt;"><path id="_路径_72" data-name="&lt;路径&gt;" class="cls-9" d="M14.16,14.79a2.07,2.07,0,0,0-.32.23h0a2.08,2.08,0,0,1,.33-.23Z"/></g><g id="_编组_98" data-name="&lt;编组&gt;"><path id="_路径_73" data-name="&lt;路径&gt;" class="cls-9" d="M13.89,15.2c-.12,0-.19.13-.29.19h0c.1-.06.18-.16.3-.19s0,0,0,0Z"/></g><g id="_编组_99" data-name="&lt;编组&gt;"><path id="_路径_74" data-name="&lt;路径&gt;" class="cls-9" d="M13.77,15.45a3.79,3.79,0,0,0-.36.22h0a1.24,1.24,0,0,0,.19-.14.62.62,0,0,1,.17-.08Z"/></g><g id="_编组_100" data-name="&lt;编组&gt;"><path id="_路径_75" data-name="&lt;路径&gt;" class="cls-9" d="M13.57,15.73a1.62,1.62,0,0,0-.34.21h0a1.63,1.63,0,0,1,.34-.21Z"/></g></g><g id="_编组_101" data-name="&lt;编组&gt;" class="cls-16"><g id="_编组_102" data-name="&lt;编组&gt;"><path id="_路径_76" data-name="&lt;路径&gt;" class="cls-9" d="M13,13.77c-.14.79-.13,1.6-.2,2.4h0c.07-.8.06-1.61.2-2.4Z"/></g><g id="_编组_103" data-name="&lt;编组&gt;"><path id="_路径_77" data-name="&lt;路径&gt;" class="cls-9" d="M12.79,13.91a1.73,1.73,0,0,1,.12.33h0a1.71,1.71,0,0,0-.11-.33s0,0,0,0Z"/></g><g id="_编组_104" data-name="&lt;编组&gt;"><path id="_路径_78" data-name="&lt;路径&gt;" class="cls-9" d="M12.67,14.17a1.57,1.57,0,0,1,.2.44h0a1.57,1.57,0,0,0-.2-.43Z"/></g><g id="_编组_105" data-name="&lt;编组&gt;"><path id="_路径_79" data-name="&lt;路径&gt;" class="cls-9" d="M12.62,14.51a3,3,0,0,1,.23.47h0a3,3,0,0,0-.23-.47Z"/></g><g id="_编组_106" data-name="&lt;编组&gt;"><path id="_路径_80" data-name="&lt;路径&gt;" class="cls-9" d="M12.55,14.83a2,2,0,0,1,.28.6h0a2,2,0,0,0-.28-.59Z"/></g><g id="_编组_107" data-name="&lt;编组&gt;"><path id="_路径_81" data-name="&lt;路径&gt;" class="cls-9" d="M12.51,15.11q.15.4.28.8h0q-.13-.4-.28-.8Z"/></g><g id="_编组_108" data-name="&lt;编组&gt;"><path id="_路径_82" data-name="&lt;路径&gt;" class="cls-9" d="M13.1,14a1.88,1.88,0,0,0-.19.32h0a1.89,1.89,0,0,1,.19-.32Z"/></g><g id="_编组_109" data-name="&lt;编组&gt;"><path id="_路径_83" data-name="&lt;路径&gt;" class="cls-9" d="M13,14.45a2.05,2.05,0,0,0-.17.36h0a2.08,2.08,0,0,1,.17-.36Z"/></g><g id="_编组_110" data-name="&lt;编组&gt;"><path id="_路径_84" data-name="&lt;路径&gt;" class="cls-9" d="M13,14.95c-.09.08-.1.2-.16.3h0c.06-.1.07-.23.16-.31s0,0,0,0Z"/></g><g id="_编组_111" data-name="&lt;编组&gt;"><path id="_路径_85" data-name="&lt;路径&gt;" class="cls-9" d="M13,15.22a3.82,3.82,0,0,0-.2.37h0a1.25,1.25,0,0,0,.1-.21.62.62,0,0,1,.1-.16Z"/></g><g id="_编组_112" data-name="&lt;编组&gt;"><path id="_路径_86" data-name="&lt;路径&gt;" class="cls-9" d="M13,15.57a1.62,1.62,0,0,0-.19.35h0a1.63,1.63,0,0,1,.2-.35Z"/></g></g></g><path id="_路径_87" data-name="&lt;路径&gt;" class="cls-9" d="M13.23,16.44a.45.45,0,0,0-.06-.15.65.65,0,0,0-.21.11h0a.49.49,0,0,0-.2-.51.62.62,0,0,0-.19.27.59.59,0,0,0-.38-.36.81.81,0,0,0-.1.23L12,16a.49.49,0,0,0,0-.54.6.6,0,0,0-.34.26.48.48,0,0,0-.35-.32.62.62,0,0,0-.07.32l-.1,0a.47.47,0,0,0-.18-.23.67.67,0,0,0-.12.15h0a.49.49,0,0,0-.36-.39.62.62,0,0,0-.08.33h-.06a.48.48,0,0,0-.14-.34.6.6,0,0,0-.29.4h0a.41.41,0,0,0,0-.09.62.62,0,0,0-.29.19.48.48,0,0,0-.26-.23.6.6,0,0,0-.11.5h0a.47.47,0,0,0-.32-.07.65.65,0,0,0,0,.24l-.08,0a.47.47,0,0,0-.24-.2.66.66,0,0,0-.09.18.47.47,0,0,0-.23-.05.69.69,0,0,0,0,.15l-.28,0A.47.47,0,0,0,7.7,16a.67.67,0,0,0-.09.17A.57.57,0,0,0,7.34,16a.82.82,0,0,0-.09.22H7.18a.48.48,0,0,0-.33-.08.65.65,0,0,0,0,.23l0,0Z"/><path id="_路径_88" data-name="&lt;路径&gt;" class="cls-9" d="M17.35,16.44a.45.45,0,0,0-.06-.15.65.65,0,0,0-.21.11h0a.49.49,0,0,0-.2-.51.62.62,0,0,0-.19.27.59.59,0,0,0-.38-.36.81.81,0,0,0-.1.23l-.05,0a.49.49,0,0,0,0-.54.6.6,0,0,0-.34.26.48.48,0,0,0-.35-.32.62.62,0,0,0-.07.32l-.1,0a.47.47,0,0,0-.18-.23.67.67,0,0,0-.12.15h0a.49.49,0,0,0-.36-.39.62.62,0,0,0-.08.33h-.06a.48.48,0,0,0-.14-.34.6.6,0,0,0-.29.4h0a.41.41,0,0,0,0-.09.61.61,0,0,0-.29.19.48.48,0,0,0-.26-.23.6.6,0,0,0-.11.5h0A.47.47,0,0,0,13,15.9a.65.65,0,0,0,0,.24l-.08,0a.47.47,0,0,0-.24-.2.66.66,0,0,0-.09.18.47.47,0,0,0-.23-.05.69.69,0,0,0,0,.15l-.28,0a.47.47,0,0,0-.23-.19.67.67,0,0,0-.09.17.57.57,0,0,0-.27-.18.81.81,0,0,0-.09.22H11.3a.48.48,0,0,0-.33-.08.65.65,0,0,0,0,.23l0,0Z"/><g id="_编组_113" data-name="&lt;编组&gt;"><g id="_编组_114" data-name="&lt;编组&gt;"><path id="_路径_89" data-name="&lt;路径&gt;" class="cls-9" d="M34.63,14.52a4.18,4.18,0,0,1-1.53,2.82s-.05,0,0,0a4.13,4.13,0,0,0,1.51-2.79s0,0,0,0Z"/></g><path id="_路径_90" data-name="&lt;路径&gt;" class="cls-9" d="M34.6,14.67s.29-.27.08-.54C34.68,14.13,34.39,14.23,34.6,14.67Z"/><path id="_路径_91" data-name="&lt;路径&gt;" class="cls-9" d="M34.52,15.06s.39,0,.42-.34C34.95,14.72,34.66,14.6,34.52,15.06Z"/><path id="_路径_92" data-name="&lt;路径&gt;" class="cls-9" d="M34.37,15.58s.39,0,.47-.27C34.83,15.31,34.57,15.15,34.37,15.58Z"/><path id="_路径_93" data-name="&lt;路径&gt;" class="cls-9" d="M34.13,16.06s.37.15.52-.15C34.66,15.91,34.44,15.69,34.13,16.06Z"/><path id="_路径_94" data-name="&lt;路径&gt;" class="cls-9" d="M33.84,16.5s.31.25.54,0C34.38,16.51,34.24,16.23,33.84,16.5Z"/><path id="_路径_95" data-name="&lt;路径&gt;" class="cls-9" d="M33.52,16.89s.24.32.52.15C34,17,34,16.73,33.52,16.89Z"/><path id="_路径_96" data-name="&lt;路径&gt;" class="cls-9" d="M34.52,15.06s.08-.39-.23-.49C34.29,14.57,34.1,14.82,34.52,15.06Z"/><path id="_路径_97" data-name="&lt;路径&gt;" class="cls-9" d="M34.36,15.58s.08-.39-.23-.49C34.13,15.09,33.95,15.34,34.36,15.58Z"/><path id="_路径_98" data-name="&lt;路径&gt;" class="cls-9" d="M34.14,16.06s.08-.39-.23-.49C33.9,15.57,33.72,15.82,34.14,16.06Z"/><path id="_路径_99" data-name="&lt;路径&gt;" class="cls-9" d="M33.86,16.52s.08-.39-.23-.49C33.63,16,33.45,16.28,33.86,16.52Z"/><path id="_路径_100" data-name="&lt;路径&gt;" class="cls-9" d="M33.54,16.9s.08-.39-.23-.49C33.31,16.41,33.12,16.66,33.54,16.9Z"/></g><g id="_编组_115" data-name="&lt;编组&gt;"><g id="_编组_116" data-name="&lt;编组&gt;"><path class="cls-18" d="M30.85,15.18h0a.11.11,0,0,0,0,.06.2.2,0,0,0-.08-.06h0a.1.1,0,0,0,0,0,.07.07,0,0,0,0,0l0,0h-.05a0,0,0,0,0,0,0v0s0,0,0,0l-.06,0v0a.38.38,0,0,0,.11.16.71.71,0,0,0,.18.08l0,0v0a.83.83,0,0,0,0-.12.36.36,0,0,0,0-.12S30.87,15.18,30.85,15.18Z"/></g><g id="_编组_117" data-name="&lt;编组&gt;"><g id="_编组_118" data-name="&lt;编组&gt;"><path class="cls-9" d="M30.74,15.47a.34.34,0,0,1-.09-.14v0h0v0a.33.33,0,0,0,.09.14.62.62,0,0,0,.15.07h0A.57.57,0,0,1,30.74,15.47Z"/></g></g><g id="_编组_119" data-name="&lt;编组&gt;"><g id="_编组_120" data-name="&lt;编组&gt;"><path class="cls-9" d="M30.88,15.39a.28.28,0,0,0-.05-.13h0a.28.28,0,0,1,.05.13.52.52,0,0,1,0,.14h0A.49.49,0,0,0,30.88,15.39Z"/></g></g><g id="_编组_121" data-name="&lt;编组&gt;"><path id="_路径_101" data-name="&lt;路径&gt;" class="cls-9" d="M30.73,15.29l.12.24h0l-.12-.24Z"/></g><g id="_编组_122" data-name="&lt;编组&gt;"><path class="cls-9" d="M30.9,15.49h0a0,0,0,0,0,0,0l0,0h0v0h0v0s0,0,0,0h0s0,0,0,.06l.06,0h0a.18.18,0,0,0,0,0,.14.14,0,0,0,0,0A.16.16,0,0,1,30.9,15.49Z"/></g><path id="_路径_102" data-name="&lt;路径&gt;" class="cls-9" d="M31.09,16a2.13,2.13,0,0,1-.2-.4s0,0,0,0a2.31,2.31,0,0,0,.2.42l0,.11h0Z"/></g><g id="_编组_123" data-name="&lt;编组&gt;"><g id="_编组_124" data-name="&lt;编组&gt;"><path class="cls-19" d="M34,14.88h0a.12.12,0,0,0-.07,0,.24.24,0,0,0,0-.12h0l-.06,0a.09.09,0,0,0,0,0,.15.15,0,0,0,0-.07v-.05h0l0,0s0,0,0,0a.2.2,0,0,0,0-.07l0,0a.46.46,0,0,0-.05.22.85.85,0,0,0,.07.22h.08l0,0,.11-.08A.44.44,0,0,0,34,15S34,14.89,34,14.88Z"/></g><g id="_编组_125" data-name="&lt;编组&gt;"><g id="_编组_126" data-name="&lt;编组&gt;"><path class="cls-9" d="M33.69,15a.4.4,0,0,1,0-.19v0h0l0,0a.4.4,0,0,0,0,.19.74.74,0,0,0,.06.19h0A.69.69,0,0,1,33.69,15Z"/></g></g><g id="_编组_127" data-name="&lt;编组&gt;"><g id="_编组_128" data-name="&lt;编组&gt;"><path class="cls-9" d="M33.87,15.07a.34.34,0,0,0,.07-.15v0h0v0a.34.34,0,0,1-.07.15.62.62,0,0,1-.14.09h0A.58.58,0,0,0,33.87,15.07Z"/></g></g><g id="_编组_129" data-name="&lt;编组&gt;"><path id="_路径_103" data-name="&lt;路径&gt;" class="cls-9" d="M33.84,14.85l-.12.3h0l.12-.3Z"/></g><g id="_编组_130" data-name="&lt;编组&gt;"><path class="cls-9" d="M33.8,15.16h0a.09.09,0,0,0,0,0h0v0a.05.05,0,0,0,0,0h0l0,0h0s0,.05,0,.08a.31.31,0,0,0,0,.08h0l0,0a.17.17,0,0,0,0,0Z"/></g><path id="_路径_104" data-name="&lt;路径&gt;" class="cls-9" d="M33.51,15.74a2.55,2.55,0,0,1,.2-.5s0,0,0,0a2.79,2.79,0,0,0-.21.52l-.06.14,0,0Z"/></g><g id="_编组_131" data-name="&lt;编组&gt;"><g id="_编组_132" data-name="&lt;编组&gt;"><path class="cls-20" d="M30.41,15.26h0a.1.1,0,0,0,0,.06.2.2,0,0,0-.1,0h0a.1.1,0,0,0,0,0l0,0-.05,0h-.05a0,0,0,0,0,0,0l0,0s0,0,0,0h-.06v0a.38.38,0,0,0,.15.11.71.71,0,0,0,.19,0v-.07a.11.11,0,0,0,0,0,.82.82,0,0,0,0-.11.36.36,0,0,0-.06-.1S30.42,15.26,30.41,15.26Z"/></g><g id="_编组_133" data-name="&lt;编组&gt;"><g id="_编组_134" data-name="&lt;编组&gt;"><path class="cls-9" d="M30.41,15.57a.34.34,0,0,1-.13-.1v0h0v0a.34.34,0,0,0,.13.1.62.62,0,0,0,.17,0h0A.58.58,0,0,1,30.41,15.57Z"/></g></g><g id="_编组_135" data-name="&lt;编组&gt;"><g id="_编组_136" data-name="&lt;编组&gt;"><path class="cls-9" d="M30.51,15.45a.28.28,0,0,0-.09-.1h0a.28.28,0,0,1,.09.1.52.52,0,0,1,0,.14h0A.48.48,0,0,0,30.51,15.45Z"/></g></g><g id="_编组_137" data-name="&lt;编组&gt;"><path id="_路径_105" data-name="&lt;路径&gt;" class="cls-9" d="M30.33,15.4l.2.18h0l-.2-.19s0,0,0,0Z"/></g><g id="_编组_138" data-name="&lt;编组&gt;"><path class="cls-9" d="M30.56,15.53h0a0,0,0,0,0,0,0h0a0,0,0,0,0,0,0h0s0,0,0,0h0s0,0,.06,0h.07v0h0v0l0,0Z"/></g><path id="_路径_106" data-name="&lt;路径&gt;" class="cls-9" d="M30.91,15.94a2.13,2.13,0,0,1-.32-.31s0,0,0,0a2.32,2.32,0,0,0,.33.32l.09.09h0Z"/></g><g id="_编组_139" data-name="&lt;编组&gt;"><g id="_编组_140" data-name="&lt;编组&gt;"><path class="cls-21" d="M33.79,14.31h0a.18.18,0,0,0-.09.06.34.34,0,0,0,0-.17h0l-.08,0a.12.12,0,0,0,0,.07.21.21,0,0,0,0-.09l0,0,0,0h0l0,0,0,.05s0,0,0,0a.28.28,0,0,0-.06-.09l0,0a.65.65,0,0,0,0,.32,1.2,1.2,0,0,0,.13.3l.08,0h0l0,0,.15-.13a.61.61,0,0,0,.11-.18S33.8,14.32,33.79,14.31Z"/></g><g id="_编组_141" data-name="&lt;编组&gt;"><g id="_编组_142" data-name="&lt;编组&gt;"><path class="cls-14" d="M33.31,14.54a.57.57,0,0,1,0-.28l0,0h0l0,0a.57.57,0,0,0,0,.28,1,1,0,0,0,.11.26h0A1,1,0,0,1,33.31,14.54Z"/></g></g><g id="_编组_143" data-name="&lt;编组&gt;"><g id="_编组_144" data-name="&lt;编组&gt;"><path class="cls-14" d="M33.58,14.6a.48.48,0,0,0,.09-.22.25.25,0,0,0,0,0h0v0a.48.48,0,0,1-.09.22.88.88,0,0,1-.19.15h0A.82.82,0,0,0,33.58,14.6Z"/></g></g><g id="_编组_145" data-name="&lt;编组&gt;"><path id="_路径_107" data-name="&lt;路径&gt;" class="cls-14" d="M33.51,14.3q-.06.22-.13.44s0,0,0,0,.09-.29.13-.44,0,0,0,0Z"/></g><g id="_编组_146" data-name="&lt;编组&gt;"><path class="cls-9" d="M33.49,14.74h0l0,0a.12.12,0,0,0,0-.06h0v0a.08.08,0,0,0,0,0h0l0,0s0,0,0,0l0,0a0,0,0,0,0,0,0s0,.08,0,.11a.43.43,0,0,0,0,.11h.05l0,0a.24.24,0,0,0,0-.07Z"/></g><path id="_路径_108" data-name="&lt;路径&gt;" class="cls-9" d="M33.15,15.58a3.61,3.61,0,0,1,.22-.73s0,0,0,0a3.93,3.93,0,0,0-.23.76l-.07.2,0,0C33.1,15.74,33.13,15.66,33.15,15.58Z"/></g><g id="_编组_147" data-name="&lt;编组&gt;"><g id="_编组_148" data-name="&lt;编组&gt;"><path class="cls-22" d="M31.3,17.27l-.18-.1c-.31-.18-1.29-.81-1-1.25a.48.48,0,0,1,.38-.16,1.17,1.17,0,0,1,.4.06.13.13,0,0,0,.08,0s.06-.07.06-.11a1,1,0,0,1,.07-.36.53.53,0,0,1,.7-.15c.13.07.27.17.41.11a.7.7,0,0,0,.17-.15.85.85,0,0,1,.52-.17.8.8,0,0,1,.43,0,.6.6,0,0,1,.2.17A1.53,1.53,0,0,1,33.5,17a1.13,1.13,0,0,1-1,.65A3.28,3.28,0,0,1,31.3,17.27Z"/></g><g id="_编组_149" data-name="&lt;编组&gt;" class="cls-16"><g id="_编组_150" data-name="&lt;编组&gt;"><path id="_路径_109" data-name="&lt;路径&gt;" class="cls-9" d="M30.48,16.07c.7.41,1.3.94,2,1.4h0c-.66-.46-1.26-1-2-1.4Z"/></g><g id="_编组_151" data-name="&lt;编组&gt;"><path id="_路径_110" data-name="&lt;路径&gt;" class="cls-9" d="M30.7,16a1.73,1.73,0,0,0,.18.3h0a1.7,1.7,0,0,1-.18-.3Z"/></g><g id="_编组_152" data-name="&lt;编组&gt;"><path id="_路径_111" data-name="&lt;路径&gt;" class="cls-9" d="M31,16.1a1.57,1.57,0,0,0,.2.44h0a1.57,1.57,0,0,1-.2-.43Z"/></g><g id="_编组_153" data-name="&lt;编组&gt;"><path id="_路径_112" data-name="&lt;路径&gt;" class="cls-9" d="M31.27,16.28a3,3,0,0,0,.21.48h0a3,3,0,0,1-.21-.48Z"/></g><g id="_编组_154" data-name="&lt;编组&gt;"><path id="_路径_113" data-name="&lt;路径&gt;" class="cls-9" d="M31.56,16.43a2,2,0,0,0,.27.6h0a2,2,0,0,1-.27-.6Z"/></g><g id="_编组_155" data-name="&lt;编组&gt;"><path id="_路径_114" data-name="&lt;路径&gt;" class="cls-9" d="M31.8,16.59q.2.37.43.73h0q-.22-.36-.43-.73Z"/></g><g id="_编组_156" data-name="&lt;编组&gt;"><path id="_路径_115" data-name="&lt;路径&gt;" class="cls-9" d="M30.56,16.3a1.88,1.88,0,0,1,.37.06h0a1.89,1.89,0,0,0-.37-.06Z"/></g><g id="_编组_157" data-name="&lt;编组&gt;"><path id="_路径_116" data-name="&lt;路径&gt;" class="cls-9" d="M31,16.55a2.06,2.06,0,0,1,.38.1h0a2.07,2.07,0,0,0-.38-.11s0,0,0,0Z"/></g><g id="_编组_158" data-name="&lt;编组&gt;"><path id="_路径_117" data-name="&lt;路径&gt;" class="cls-9" d="M31.36,16.85a1,1,0,0,1,.33.08h0a1,1,0,0,0-.34-.08s0,0,0,0Z"/></g><g id="_编组_159" data-name="&lt;编组&gt;"><path id="_路径_118" data-name="&lt;路径&gt;" class="cls-9" d="M31.56,17a3.8,3.8,0,0,1,.41.09h0a1.24,1.24,0,0,1-.23-.06.62.62,0,0,0-.18,0Z"/></g><g id="_编组_160" data-name="&lt;编组&gt;"><path id="_路径_119" data-name="&lt;路径&gt;" class="cls-9" d="M31.84,17.25a1.62,1.62,0,0,1,.39.08h0a1.63,1.63,0,0,0-.39-.08Z"/></g></g><g id="_编组_161" data-name="&lt;编组&gt;" class="cls-16"><g id="_编组_162" data-name="&lt;编组&gt;"><path id="_路径_120" data-name="&lt;路径&gt;" class="cls-9" d="M31.48,15.36c.52.62.91,1.33,1.37,2h0c-.46-.66-.85-1.37-1.37-2Z"/></g><g id="_编组_163" data-name="&lt;编组&gt;"><path id="_路径_121" data-name="&lt;路径&gt;" class="cls-9" d="M31.71,15.39a1.72,1.72,0,0,0,.06.34h0a1.72,1.72,0,0,1-.06-.34Z"/></g><g id="_编组_164" data-name="&lt;编组&gt;"><path id="_路径_122" data-name="&lt;路径&gt;" class="cls-9" d="M31.95,15.55A1.57,1.57,0,0,0,32,16h0a1.57,1.57,0,0,1,0-.48Z"/></g><g id="_编组_165" data-name="&lt;编组&gt;"><path id="_路径_123" data-name="&lt;路径&gt;" class="cls-9" d="M32.16,15.82a3,3,0,0,0,0,.52h0a3,3,0,0,1,0-.52Z"/></g><g id="_编组_166" data-name="&lt;编组&gt;"><path id="_路径_124" data-name="&lt;路径&gt;" class="cls-9" d="M32.39,16.06a2,2,0,0,0,.05.66h0a2,2,0,0,1-.05-.65Z"/></g><g id="_编组_167" data-name="&lt;编组&gt;"><path id="_路径_125" data-name="&lt;路径&gt;" class="cls-9" d="M32.55,16.29q.06.42.15.84h0q-.09-.41-.15-.83Z"/></g><g id="_编组_168" data-name="&lt;编组&gt;"><path id="_路径_126" data-name="&lt;路径&gt;" class="cls-9" d="M31.49,15.6a1.88,1.88,0,0,1,.32.18h0a1.89,1.89,0,0,0-.33-.18Z"/></g><g id="_编组_169" data-name="&lt;编组&gt;"><path id="_路径_127" data-name="&lt;路径&gt;" class="cls-9" d="M31.78,16a2.06,2.06,0,0,1,.32.23h0a2.08,2.08,0,0,0-.32-.23Z"/></g><g id="_编组_170" data-name="&lt;编组&gt;"><path id="_路径_128" data-name="&lt;路径&gt;" class="cls-9" d="M32.05,16.39c.12,0,.19.13.29.19h0c-.1-.06-.18-.16-.3-.19s0,0,0,0Z"/></g><g id="_编组_171" data-name="&lt;编组&gt;"><path id="_路径_129" data-name="&lt;路径&gt;" class="cls-9" d="M32.17,16.64a3.82,3.82,0,0,1,.36.22h0a1.24,1.24,0,0,1-.19-.14.62.62,0,0,0-.17-.08Z"/></g><g id="_编组_172" data-name="&lt;编组&gt;"><path id="_路径_130" data-name="&lt;路径&gt;" class="cls-9" d="M32.37,16.92a1.62,1.62,0,0,1,.34.21h0a1.63,1.63,0,0,0-.34-.21Z"/></g></g><g id="_编组_173" data-name="&lt;编组&gt;" class="cls-16"><g id="_编组_174" data-name="&lt;编组&gt;"><path id="_路径_131" data-name="&lt;路径&gt;" class="cls-9" d="M33,15c.14.79.13,1.6.2,2.41h0c-.07-.8-.06-1.61-.2-2.41Z"/></g><g id="_编组_175" data-name="&lt;编组&gt;"><path id="_路径_132" data-name="&lt;路径&gt;" class="cls-9" d="M33.15,15.1a1.73,1.73,0,0,0-.12.33h0a1.71,1.71,0,0,1,.11-.33s0,0,0,0Z"/></g><g id="_编组_176" data-name="&lt;编组&gt;"><path id="_路径_133" data-name="&lt;路径&gt;" class="cls-9" d="M33.27,15.36a1.58,1.58,0,0,0-.2.44h0a1.56,1.56,0,0,1,.2-.43Z"/></g><g id="_编组_177" data-name="&lt;编组&gt;"><path id="_路径_134" data-name="&lt;路径&gt;" class="cls-9" d="M33.31,15.7a2.94,2.94,0,0,0-.23.47h0a3,3,0,0,1,.23-.47Z"/></g><g id="_编组_178" data-name="&lt;编组&gt;"><path id="_路径_135" data-name="&lt;路径&gt;" class="cls-9" d="M33.39,16a2,2,0,0,0-.28.6h0a2,2,0,0,1,.28-.59Z"/></g><g id="_编组_179" data-name="&lt;编组&gt;"><path id="_路径_136" data-name="&lt;路径&gt;" class="cls-9" d="M33.43,16.3q-.15.4-.28.8h0q.13-.4.28-.8Z"/></g><g id="_编组_180" data-name="&lt;编组&gt;"><path id="_路径_137" data-name="&lt;路径&gt;" class="cls-9" d="M32.84,15.17a1.88,1.88,0,0,1,.19.32h0a1.89,1.89,0,0,0-.19-.32Z"/></g><g id="_编组_181" data-name="&lt;编组&gt;"><path id="_路径_138" data-name="&lt;路径&gt;" class="cls-9" d="M32.91,15.64a2,2,0,0,1,.17.36h0a2.08,2.08,0,0,0-.17-.36Z"/></g><g id="_编组_182" data-name="&lt;编组&gt;"><path id="_路径_139" data-name="&lt;路径&gt;" class="cls-9" d="M32.94,16.14c.09.08.1.2.16.3h0c-.06-.1-.07-.23-.16-.31s0,0,0,0Z"/></g><g id="_编组_183" data-name="&lt;编组&gt;"><path id="_路径_140" data-name="&lt;路径&gt;" class="cls-9" d="M32.92,16.41a3.79,3.79,0,0,1,.2.37h0a1.24,1.24,0,0,1-.1-.21.62.62,0,0,0-.1-.16Z"/></g><g id="_编组_184" data-name="&lt;编组&gt;"><path id="_路径_141" data-name="&lt;路径&gt;" class="cls-9" d="M32.95,16.76a1.62,1.62,0,0,1,.19.35h0a1.63,1.63,0,0,0-.2-.35Z"/></g></g></g><circle class="cls-23" cx="32.42" cy="6.24" r="0.09"/><circle class="cls-24" cx="17.64" cy="3.23" r="0.09"/><circle class="cls-24" cx="12.7" cy="5.5" r="0.09"/><circle class="cls-24" cx="30.18" cy="3.91" r="0.09"/><circle class="cls-23" cx="26.96" cy="4.4" r="0.09"/><circle class="cls-23" cx="30.28" cy="2.23" r="0.11"/><circle class="cls-23" cx="22.28" cy="2.81" r="0.09"/><circle class="cls-23" cx="19.09" cy="2.84" r="0.09"/><circle class="cls-23" cx="32.31" cy="7.8" r="0.05"/><circle class="cls-23" cx="18.73" cy="4.49" r="0.05"/><circle class="cls-23" cx="13.44" cy="6.33" r="0.05"/><circle class="cls-23" cx="25.47" cy="4.84" r="0.05"/><circle id="_路径_142" data-name="&lt;路径&gt;" class="cls-9" cx="33.87" cy="5.77" r="0.18" transform="translate(5.84 25.63) rotate(-44.99)"/><circle id="_路径_143" data-name="&lt;路径&gt;" class="cls-9" cx="25.53" cy="2.55" r="0.13" transform="translate(5.67 18.8) rotate(-45)"/><circle id="_路径_144" data-name="&lt;路径&gt;" class="cls-25" cx="34.09" cy="7.74" r="0.14" transform="translate(4.51 26.38) rotate(-45.01)"/><circle id="_路径_145" data-name="&lt;路径&gt;" class="cls-25" cx="24.81" cy="3.49" r="0.07" transform="translate(4.8 18.57) rotate(-45)"/><polygon class="cls-26" points="29.81 16.49 12.46 16.49 14.15 5.09 31.5 5.09 29.81 16.49"/><polygon class="cls-27" points="15.85 17.72 33.2 17.72 31.5 5.09 14.15 5.09 15.85 17.72"/><path class="cls-5" d="M16.75,17H32.1a0,0,0,0,0,0,0L31,8.79l-.15-1.16a0,0,0,0,0,0,0H15.5s0,0,0,0l1.1,8.21L16.73,17s0,0,0,0l-.65-4.88L15.69,8.9l-.13-1a.83.83,0,0,1,0-.23c0-.07,0,0,0,0s.31,0,.38,0H30.27a2.41,2.41,0,0,1,.52,0c.09,0,.05,0,.07.11s.07.54.11.81l.41,3.05L31.82,15,32,16.29a2.17,2.17,0,0,1,.09.66c0,.07,0,0,0,0A.4.4,0,0,1,32,17c-.22,0-.44,0-.65,0H16.75A0,0,0,0,0,16.75,17Z"/><path class="cls-5" d="M31.14,9.95H15.79a0,0,0,0,0,0,0H31.14a0,0,0,0,0,0,0Z"/><path class="cls-5" d="M31.47,12.29H16.12a0,0,0,0,0,0,0H31.47a0,0,0,0,0,0,0Z"/><path class="cls-5" d="M31.79,14.63H16.43a0,0,0,0,0,0,0H31.79a0,0,0,0,0,0,0Z"/><path class="cls-5" d="M19.3,7.62l1.1,8.21L20.55,17s0,0,0,0L19.5,8.77l-.15-1.16s0,0,0,0Z"/><path class="cls-5" d="M23.13,7.62l1.1,8.21L24.38,17s0,0,0,0l-1.1-8.21-.15-1.16s0,0,0,0Z"/><path class="cls-5" d="M27,7.62l1.1,8.21L28.21,17s0,0,0,0l-1.1-8.21L27,7.62s0,0,0,0Z"/><polygon class="cls-23" points="31.75 6.81 14.4 6.81 14.15 5.09 31.5 5.09 31.75 6.81"/><polygon class="cls-28" points="17.16 8.01 15.75 8.01 15.72 7.8 17.13 7.8 17.16 8.01"/><polygon class="cls-4" points="19.11 8.4 15.81 8.4 15.78 8.19 19.08 8.19 19.11 8.4"/><polygon class="cls-24" points="29.04 10.56 27.63 10.56 27.6 10.34 29.01 10.34 29.04 10.56"/><polygon class="cls-4" points="29.82 10.95 27.7 10.95 27.67 10.73 29.8 10.73 29.82 10.95"/><polygon class="cls-4" points="19.17 8.8 15.88 8.8 15.85 8.58 19.14 8.58 19.17 8.8"/><polygon class="cls-4" points="19.23 9.19 15.94 9.19 15.91 8.97 19.2 8.97 19.23 9.19"/><polygon class="cls-4" points="18.19 9.58 16 9.58 15.97 9.36 18.16 9.36 18.19 9.58"/><polygon class="cls-29" points="31.23 13.07 27.94 13.07 27.91 12.85 31.2 12.85 31.23 13.07"/><polygon class="cls-29" points="31.29 13.46 28 13.46 27.97 13.24 31.26 13.24 31.29 13.46"/><polygon class="cls-29" points="31.36 13.85 28.07 13.85 28.03 13.63 31.33 13.63 31.36 13.85"/><polygon class="cls-29" points="30.31 14.24 28.13 14.24 28.1 14.03 30.28 14.03 30.31 14.24"/><polygon class="cls-29" points="23.88 15.34 20.59 15.34 20.56 15.13 23.85 15.13 23.88 15.34"/><polygon class="cls-29" points="23.95 15.73 20.65 15.73 20.62 15.52 23.91 15.52 23.95 15.73"/><polygon class="cls-29" points="24.01 16.13 20.72 16.13 20.69 15.91 23.98 15.91 24.01 16.13"/><polygon class="cls-29" points="22.97 16.52 20.78 16.52 20.75 16.3 22.94 16.3 22.97 16.52"/><g id="_编组_185" data-name="&lt;编组&gt;"><rect id="_矩形_" data-name="&lt;矩形&gt;" class="cls-30" x="16.51" y="18.97" width="0.39" height="0.69" transform="translate(33.42 38.63) rotate(180)"/><path id="_路径_146" data-name="&lt;路径&gt;" class="cls-31" d="M16.69,19.56a.18.18,0,0,1-.18-.16h0l-.07.34v.09a.09.09,0,0,0,.09.09h.33l.35-.13v-.06a.31.31,0,0,0-.13-.25l-.18-.13h0a.22.22,0,0,1-.21.22Z"/><path id="_路径_147" data-name="&lt;路径&gt;" class="cls-27" d="M16.53,19.79h.33l.34-.13a.3.3,0,0,1,0,.06v.06l-.35.13h-.33a.09.09,0,0,1-.09-.09v-.09h0A.09.09,0,0,0,16.53,19.79Z"/><g id="_编组_186" data-name="&lt;编组&gt;"><path class="cls-28" d="M16.94,15.26a1.39,1.39,0,0,0-.1-.47.5.5,0,0,0-.36-.3l-.45.15a1.32,1.32,0,0,0-.29.1c-.13.08-.09.16-.08.32,0,.61.21,1.18.3,1.78s.13,1.28.26,1.91c.05.26.15.55.4.64a.26.26,0,0,0,.25,0,.36.36,0,0,0,.1-.19,3,3,0,0,0,.06-.8C17,17.33,17,16.29,16.94,15.26Z"/></g><rect id="_矩形_2" data-name="&lt;矩形&gt;" class="cls-30" x="14.59" y="18.97" width="0.39" height="0.69"/><path id="_路径_148" data-name="&lt;路径&gt;" class="cls-32" d="M14.8,19.56A.18.18,0,0,0,15,19.4h0l.07.34v.09a.09.09,0,0,1-.09.09h-.33l-.35-.13v-.06a.31.31,0,0,1,.13-.25l.18-.13h0a.22.22,0,0,0,.21.22Z"/><path id="_路径_149" data-name="&lt;路径&gt;" class="cls-27" d="M15,19.79h-.33l-.34-.13a.3.3,0,0,0,0,.06v.06l.35.13H15a.09.09,0,0,0,.09-.09v-.09h0A.09.09,0,0,1,15,19.79Z"/><g id="_编组_187" data-name="&lt;编组&gt;"><path class="cls-30" d="M13.91,12.49a1,1,0,0,0-.24.78,1.79,1.79,0,0,0,.31.78c.16.24.34.45.52.67a.5.5,0,0,1,.14.34c0,.12-.11.23-.09.35s0,0,0,.05.05,0,.06-.07a1,1,0,0,1,.16-.27.39.39,0,0,0,.09-.29.46.46,0,0,0-.08-.16,3.23,3.23,0,0,1-.48-.92,1.2,1.2,0,0,1,.12-1Z"/></g><g id="_编组_188" data-name="&lt;编组&gt;"><path class="cls-28" d="M15.93,14.63c-.09-.19-.33-.23-.55-.24l-.6.37a19.44,19.44,0,0,0-.19,2c0,.68-.17,1.33-.13,2a.8.8,0,0,0,.09.37.31.31,0,0,0,.33.15.38.38,0,0,0,.22-.23,8.89,8.89,0,0,0,.41-1.66c.13-.56.32-1.1.4-1.68a4.51,4.51,0,0,0,.06-1A.34.34,0,0,0,15.93,14.63Z"/></g><g id="_编组_189" data-name="&lt;编组&gt;"><path id="_路径_150" data-name="&lt;路径&gt;" class="cls-9" d="M15.1,19.08a14.42,14.42,0,0,0,.48-2,11.59,11.59,0,0,0,.39-1.9s0,0,0,0a13.06,13.06,0,0,1-.42,2,12.59,12.59,0,0,1-.45,1.84s0,0,0,0Z"/></g><g id="_编组_190" data-name="&lt;编组&gt;"><path class="cls-30" d="M18.14,9.29A.29.29,0,0,0,18,9.07l0,0c-.07-.08.08-.22,0-.3a1.11,1.11,0,0,0-.13.35c0,.19,0,.39,0,.58a2.81,2.81,0,0,1-.25.76,1.15,1.15,0,0,1-.41.58l.34.35a4.63,4.63,0,0,0,.66-1.89A.56.56,0,0,0,18.14,9.29Z"/></g><g id="_编组_191" data-name="&lt;编组&gt;"><path class="cls-27" d="M14.39,12.95a.82.82,0,0,1,.1.14,1.33,1.33,0,0,1,.13.59l.05.68,0,.34c0,.08,0,.2,0,.25A1,1,0,0,0,15,15a2.69,2.69,0,0,0,.32.07,2.74,2.74,0,0,0,.59,0,3,3,0,0,0,.57-.08c.21-.05.49-.08.49-.37a1.08,1.08,0,0,0-.1-.38A3.11,3.11,0,0,1,16.74,13a1.45,1.45,0,0,1,.21-.69c.15-.21.31-.42.44-.64a.54.54,0,0,0,.09-.22.56.56,0,0,0-.09-.31c0-.09-.1-.18-.2-.19s-.24.12-.35.16a3.81,3.81,0,0,1-.45.13,4.06,4.06,0,0,1-.9.11,1.48,1.48,0,0,0-.49,0,1.57,1.57,0,0,0-.42.23,4.28,4.28,0,0,0-.49.44,1,1,0,0,0-.3.45.18.18,0,0,0,.09.19,1,1,0,0,0,.19.07A.77.77,0,0,1,14.39,12.95Z"/></g><g id="_编组_192" data-name="&lt;编组&gt;"><path id="_路径_151" data-name="&lt;路径&gt;" class="cls-9" d="M17,12.28l.32-.45a1.18,1.18,0,0,0,.22-.41s0,0,0,0a2.75,2.75,0,0,1-.54.85s0,0,0,0Z"/></g><g id="_编组_193" data-name="&lt;编组&gt;"><path id="_路径_152" data-name="&lt;路径&gt;" class="cls-9" d="M16.88,14.31a2.63,2.63,0,0,1,.08-2s0,0,0,0a2.64,2.64,0,0,0-.08,2s0,0,0,0Z"/></g><g id="_编组_194" data-name="&lt;编组&gt;"><path id="_路径_153" data-name="&lt;路径&gt;" class="cls-9" d="M14.75,15a3,3,0,0,0,1.73.1s0,0,0,0a3,3,0,0,1-1.72-.1s0,0,0,0Z"/></g><g id="_编组_195" data-name="&lt;编组&gt;"><path id="_路径_154" data-name="&lt;路径&gt;" class="cls-9" d="M14.39,13a2.54,2.54,0,0,1,.28,1.4s0,0,0,0a2.53,2.53,0,0,0-.29-1.42s0,0,0,0Z"/></g><g id="_编组_196" data-name="&lt;编组&gt;"><path id="_路径_155" data-name="&lt;路径&gt;" class="cls-9" d="M15.54,11.3a1.59,1.59,0,0,0-1.25.52c-.18.17-.71.59-.41.85,0,0,0,0,0,0-.3-.26.43-.86.61-1a1.47,1.47,0,0,1,1-.33,0,0,0,0,0,0,0Z"/></g><g id="_编组_197" data-name="&lt;编组&gt;"><path class="cls-30" d="M15.56,11.26a.86.86,0,0,0,.09-.52H16a1,1,0,0,0,.05.4,1,1,0,0,1,.06.17.2.2,0,0,1,0,.17.21.21,0,0,1-.11.06.4.4,0,0,1-.33-.07h0A.17.17,0,0,1,15.56,11.26Z"/></g><g id="_编组_198" data-name="&lt;编组&gt;"><path class="cls-30" d="M16.21,10.38l-.07-.1A.69.69,0,0,0,16,10h-.13a.53.53,0,0,0-.25.28.75.75,0,0,0,0,.36.7.7,0,0,0,.05.2.37.37,0,0,0,.31.2l.09,0,.06,0A.54.54,0,0,0,16.21,10.38Z"/></g><g id="_编组_199" data-name="&lt;编组&gt;"><path id="_路径_156" data-name="&lt;路径&gt;" class="cls-9" d="M15.53,11.32a.31.31,0,0,0,.45.2s0,0,0,0a.28.28,0,0,1-.41-.19s0,0,0,0Z"/></g><g id="_编组_200" data-name="&lt;编组&gt;"><path id="_路径_157" data-name="&lt;路径&gt;" class="cls-9" d="M15.88,11.07c.23.06.37-.11.41-.33a.55.55,0,0,0,0-.32A1.33,1.33,0,0,0,16,10s0,0,0,0a1.24,1.24,0,0,1,.26.46c.06.24-.06.62-.37.53a0,0,0,0,0,0,0Z"/></g><g id="_编组_201" data-name="&lt;编组&gt;"><path class="cls-33" d="M16.41,9.73a.18.18,0,0,0-.21,0,.79.79,0,0,1-.19.13.49.49,0,0,1-.21,0c-.15,0-.39,0-.42.19s0,.11,0,.16-.1.16-.12.25a.81.81,0,0,0,0,.38.42.42,0,0,0,.08.21c.1.11.32.08.43,0a.32.32,0,0,0,.17-.32.91.91,0,0,1,0-.1.09.09,0,0,1,0-.09h0a.08.08,0,0,0,0-.1,1,1,0,0,1,0-.11.18.18,0,0,1,.08-.18.65.65,0,0,1,.19-.07.24.24,0,0,0,.14-.09.23.23,0,0,0,0-.13A.19.19,0,0,0,16.41,9.73Z"/></g></g><polygon class="cls-23" points="26.66 9.66 23.91 9.66 23.68 7.94 26.43 7.94 26.66 9.66"/><polygon class="cls-9" points="24.1 8.57 23.82 8.98 23.91 9.66 25 9.66 24.1 8.57"/><polygon class="cls-27" points="24.17 8.89 24.21 8.95 24.31 8.82 24.1 8.57 23.91 8.85 23.97 8.95 24.01 8.88 24.09 9.01 24.17 8.89"/><polygon class="cls-9" points="24.62 9.42 24.94 8.94 25.62 9.66 25 9.66 24.62 9.42"/><circle class="cls-34" cx="25.62" cy="8.52" r="0.3"/><polygon class="cls-27" points="25.01 9.26 25.05 9.32 25.18 9.19 24.94 8.94 24.75 9.22 24.81 9.32 24.86 9.25 24.93 9.38 25.01 9.26"/><polygon class="cls-5" points="19.37 14.1 17.99 14.1 17.77 14.5 17.43 14.1 17.1 14.1 16.91 12.68 19.18 12.68 19.37 14.1"/><path class="cls-27" d="M17.68,13.39a.15.15,0,0,1-.16.18.22.22,0,0,1-.22-.18.15.15,0,0,1,.16-.18A.23.23,0,0,1,17.68,13.39Z"/><path class="cls-27" d="M18.33,13.39a.15.15,0,0,1-.16.18.22.22,0,0,1-.22-.18.15.15,0,0,1,.16-.18A.23.23,0,0,1,18.33,13.39Z"/><path class="cls-27" d="M19,13.39a.15.15,0,0,1-.16.18.22.22,0,0,1-.22-.18.15.15,0,0,1,.16-.18A.23.23,0,0,1,19,13.39Z"/><path id="_路径_158" data-name="&lt;路径&gt;" class="cls-35" d="M22.45,11.14a.63.63,0,0,1-.74.61.81.81,0,0,1-.76-.73.63.63,0,0,1,.74-.61A.81.81,0,0,1,22.45,11.14Z"/><g id="_编组_202" data-name="&lt;编组&gt;"><polygon id="_路径_159" data-name="&lt;路径&gt;" class="cls-27" points="21.6 11.34 21.34 11.08 21.48 10.96 21.6 11.07 21.9 10.82 22.05 10.96 21.6 11.34"/></g><g id="_编组_203" data-name="&lt;编组&gt;"><rect id="_路径_160" data-name="&lt;路径&gt;" class="cls-36" x="7.48" y="17.05" width="5.42" height="0.65" transform="translate(-0.04 0.02) rotate(-0.13)"/><path id="_矩形_3" data-name="&lt;矩形&gt;" class="cls-28" d="M13,17h.65a0,0,0,0,1,0,0v.74a.07.07,0,0,1-.07.07h-.51a.07.07,0,0,1-.07-.07V17A0,0,0,0,1,13,17Z" transform="translate(-4.03 30.72) rotate(-90.13)"/><path id="_路径_161" data-name="&lt;路径&gt;" class="cls-37" d="M6.73,17.41l.75.3v-.65l-.75.3A0,0,0,0,0,6.73,17.41Z"/><path id="_路径_162" data-name="&lt;路径&gt;" class="cls-9" d="M6.69,17.39l.2.08V17.3l-.2.08A0,0,0,0,0,6.69,17.39Z"/><rect id="_矩形_4" data-name="&lt;矩形&gt;" class="cls-14" x="12.5" y="17.29" width="0.65" height="0.16" transform="translate(-4.52 30.24) rotate(-90.13)"/></g><path class="cls-30" d="M24,18.37l-.07-.07a.46.46,0,0,1-.12-.27.3.3,0,0,0,0-.13.14.14,0,0,0-.07-.06.18.18,0,0,0-.22.09v0a1.69,1.69,0,0,0,0,.27.4.4,0,0,1-.07.25c0,.06-.12.1-.15.17a.07.07,0,0,0,0,0s0,0,.07,0a1.22,1.22,0,0,0,.37,0,.51.51,0,0,0,.18,0,.24.24,0,0,0,.13-.13A.19.19,0,0,0,24,18.37Z"/><g id="_编组_204" data-name="&lt;编组&gt;"><path class="cls-9" d="M24,18.39c-.06,0-.08.08-.12.13a.42.42,0,0,1-.27.13h-.12a.24.24,0,0,1-.18-.2q-.32.11-.65.18h-.09a.16.16,0,0,0-.07.16h1.31a.64.64,0,0,0,.16,0C24.17,18.77,24.07,18.49,24,18.39Z"/></g><g id="_编组_205" data-name="&lt;编组&gt;"><path class="cls-14" d="M25.76,16.8a.58.58,0,0,0-.27-.35l-.1-.05-.09-.08A1.58,1.58,0,0,0,24.21,16a1,1,0,0,0-.92.92,2,2,0,0,0,0,.26,5.08,5.08,0,0,0,.08.67.49.49,0,0,0,.12.27.18.18,0,0,0,.12.05.21.21,0,0,0,.16-.11,1.39,1.39,0,0,0,.15-.55c0-.15.07-.4.22-.48a.3.3,0,0,1,.15,0c.28,0,.42.2.63.34a1,1,0,0,0,.28.14.51.51,0,0,0,.55-.19c.13-.14.07-.3,0-.45Z"/></g><g id="_编组_206" data-name="&lt;编组&gt;"><path class="cls-30" d="M25.92,18.75a2,2,0,0,1,.44-.09,2,2,0,0,1,.54.07.14.14,0,0,0,0-.15.53.53,0,0,0-.2-.28.94.94,0,0,0-.27-.11l-.18,0a1,1,0,0,0-.39.07.39.39,0,0,0-.22.13.24.24,0,0,0,0,.29.39.39,0,0,0,.28.11"/></g><g id="_编组_207" data-name="&lt;编组&gt;"><path class="cls-9" d="M26,18.3c.05,0,.11,0,.17,0a.42.42,0,0,1,.29.06.34.34,0,0,1,.1.06.24.24,0,0,1,0,.27q.32.11.63.24l.07,0a.16.16,0,0,0,.15-.08l-.57-.43-.34-.26-.13-.1s-.07-.08-.12-.1S26.07,18.2,26,18.3Z"/></g><g id="_编组_208" data-name="&lt;编组&gt;"><path class="cls-14" d="M26.68,16.92a.78.78,0,0,0-.32,0l-.58,0a1.79,1.79,0,0,0-.58.29l-1.08.72a1.18,1.18,0,0,0-.39.35c-.09.16-.14.49.11.53a4.06,4.06,0,0,0,.63,0h.65c.21,0,.42,0,.63,0a.56.56,0,0,0,.27,0,.35.35,0,0,0,.17-.35.74.74,0,0,1,0-.15c0-.13.1-.16.21-.2a.87.87,0,0,0,.34-.21.66.66,0,0,0,.19-.51.52.52,0,0,0-.21-.38Z"/></g><g id="_编组_209" data-name="&lt;编组&gt;"><path class="cls-9" d="M25.19,17.17l-.9.6a1.94,1.94,0,0,0-.57.48s0,0,0,0a2.55,2.55,0,0,1,.74-.59l.72-.48s0,0,0,0Z"/></g><g id="_编组_210" data-name="&lt;编组&gt;"><path class="cls-9" d="M26.73,17.82c.2-.24.32-.73,0-.91a2.08,2.08,0,0,0-.73,0,1.25,1.25,0,0,0-.76.29s0,0,0,0a1.8,1.8,0,0,1,.47-.26,1.69,1.69,0,0,1,.5,0c.11,0,.23,0,.34,0,.48.06.41.61.18.89,0,0,0,0,0,0Z"/></g><g id="_编组_211" data-name="&lt;编组&gt;"><path class="cls-30" d="M25.72,15.12a1.59,1.59,0,0,1-1.23.52c-.28,0-.55-.06-.83-.06h-.12c-.1,0-.2,0-.29,0a.62.62,0,0,1-.23-.11s-.06,0-.06-.09a.08.08,0,0,1,0-.05.52.52,0,0,1,.22-.05c.08,0,.16-.05.17-.13s0-.07,0-.1,0-.07.06-.06,0,0,0,.05a.69.69,0,0,0,0,.11.14.14,0,0,0,.09.08l.07,0a2.2,2.2,0,0,0,.77,0,1.18,1.18,0,0,0,.93-.69.56.56,0,0,0,0-.12.41.41,0,0,0,0-.16C25.37,14.17,26.05,14.65,25.72,15.12Z"/></g><g id="_编组_212" data-name="&lt;编组&gt;"><path class="cls-38" d="M25.58,14.12c-.35.05-.44.35-.54.63,0,.11-.09.22-.13.34a.53.53,0,0,0,0,.35,1,1,0,0,0,.11.17,1.63,1.63,0,0,1,.22,1c0,.26,0,.41.23.56a1.24,1.24,0,0,0,1.22,0,.35.35,0,0,0,.11-.09c.09-.12,0-.29,0-.44a2,2,0,0,1-.08-.48,4.25,4.25,0,0,1,.08-.77,2.17,2.17,0,0,0,0-.77,1,1,0,0,0-.16-.37.53.53,0,0,0-.51-.21Z"/></g><g id="_编组_213" data-name="&lt;编组&gt;"><path id="_路径_163" data-name="&lt;路径&gt;" class="cls-9" d="M26.81,15.39c.07-.52.06-1.42-.67-1.37,0,0,0,0,0,0,.72-.05.71.84.65,1.34a0,0,0,0,0,0,0Z"/></g><g id="_编组_214" data-name="&lt;编组&gt;"><path id="_路径_164" data-name="&lt;路径&gt;" class="cls-9" d="M25.48,17.15a1.26,1.26,0,0,0,1,.13c.36-.11.45-.28.35-.64,0,0,0,0,0,0,.22.78-.89.74-1.3.49,0,0,0,0,0,0Z"/></g><g id="_编组_215" data-name="&lt;编组&gt;"><path class="cls-9" d="M26.7,13.22a.17.17,0,0,0,0-.32.14.14,0,0,0-.15-.22.19.19,0,0,0-.25-.25.11.11,0,0,0,0-.14.21.21,0,0,0-.14-.05c-.06,0-.12,0-.14.07a.19.19,0,0,0-.36.11.13.13,0,0,0-.16,0,.28.28,0,0,0-.13.26.18.18,0,0,0,0,.36.16.16,0,0,0,0,.23.2.2,0,0,0,.17.07h0a.11.11,0,0,0,0,.08.17.17,0,0,0,.1.13h0a.17.17,0,0,0,.15,0,.1.1,0,0,0,0,.14.15.15,0,0,0,.14,0c.07,0,.12-.11.17,0s0,.11.08.15a.09.09,0,0,0,.07,0,0,0,0,0,0,0-.06.13.13,0,1,0,.25-.11s.07,0,.11,0a.09.09,0,0,0,.09-.09.27.27,0,0,0,0-.13s.07,0,.1-.05a.21.21,0,0,0,.06-.14C26.8,13.25,26.75,13.2,26.7,13.22Z"/></g><g id="_编组_216" data-name="&lt;编组&gt;"><path class="cls-30" d="M25.64,13.77a1.35,1.35,0,0,1,.06.34.26.26,0,0,0,.29.24h0a.26.26,0,0,0,.21-.34,3.17,3.17,0,0,1-.11-.41Z"/></g><g id="_编组_217" data-name="&lt;编组&gt;"><path id="_路径_165" data-name="&lt;路径&gt;" class="cls-9" d="M26,14.37c.4-.05.16-.55.12-.77,0,0,0,0,0,0,0,.22.28.69-.1.74a0,0,0,0,0,0,0Z"/></g><g id="_编组_218" data-name="&lt;编组&gt;"><path class="cls-30" d="M26.21,13a.55.55,0,0,0-.14-.25c-.1-.09-.21-.07-.33-.07a.35.35,0,0,0-.29.14.21.21,0,0,0,0,.2.41.41,0,0,1,0,.08.16.16,0,0,1,0,.1c0,.06-.13.16-.12.23a.17.17,0,0,0,0,.06c.06.08,0,.2.07.29a.26.26,0,0,0,.31.09,2,2,0,0,0,.31-.16l.12-.07a.38.38,0,0,0,.1-.3A1.23,1.23,0,0,0,26.21,13Z"/></g><g id="_编组_219" data-name="&lt;编组&gt;"><path id="_路径_166" data-name="&lt;路径&gt;" class="cls-9" d="M25.3,13.45a.63.63,0,0,1,.08.18.85.85,0,0,0,0,.13.21.21,0,0,0,.14.14c.19.07.36-.07.51-.16s0,0,0,0-.31.21-.48.16-.14-.16-.16-.28a.62.62,0,0,0-.07-.16s0,0,0,0Z"/></g><g id="_编组_220" data-name="&lt;编组&gt;"><path id="_路径_167" data-name="&lt;路径&gt;" class="cls-9" d="M25.45,12.83a.28.28,0,0,0-.05.14c0,.08.06.13,0,.21s-.14.16-.13.27,0,0,0,0,.11-.17.14-.27a.14.14,0,0,0,0-.06.41.41,0,0,0,0-.06.25.25,0,0,1,0-.21s0,0,0,0Z"/></g><g id="_编组_221" data-name="&lt;编组&gt;"><path class="cls-9" d="M26.36,12.91a.65.65,0,0,0-.36-.33.73.73,0,0,0-.49,0s-.09.05-.07.09l0,.08a.12.12,0,0,0,.14.15.15.15,0,0,0,0,.14s.11,0,.11,0a.2.2,0,0,0,0,.14.08.08,0,0,0,.11,0,.15.15,0,0,0,.12.2s0,0,0,0a.27.27,0,0,0,.06.16.11.11,0,0,0,.16,0s0,.1.08.1a.14.14,0,0,0,.1-.11c0-.05,0-.1,0-.16s.05,0,.07,0a.13.13,0,0,0,0-.09A1.23,1.23,0,0,0,26.36,12.91Z"/></g><path class="cls-39" d="M24.14,17l-1-.37-.92.5A.11.11,0,0,1,22,17l.08-.91-.82-.57a.11.11,0,0,1,0-.2l1-.2.39-.87a.11.11,0,0,1,.19,0l.59.81,1.07.06a.11.11,0,0,1,.07.19L24,16l.28.87A.11.11,0,0,1,24.14,17Z"/><path class="cls-40" d="M23.75,15.08l.92.05-.06,0-.87-.05Z"/><path class="cls-41" d="M22.26,17l.08-.91-.82-.57a.11.11,0,0,1,0-.2l1-.2.39-.87h0l0,0a.11.11,0,0,0-.19,0l-.39.87-1,.2a.11.11,0,0,0,0,.2l.82.57L22,17a.11.11,0,0,0,.16.11l.06,0A.11.11,0,0,1,22.26,17Z"/><path class="cls-42" d="M23.35,16.64l-.05,0,.85.31a.11.11,0,0,0,.1,0Z"/><g id="_编组_222" data-name="&lt;编组&gt;"><path class="cls-30" d="M25.93,14.88H26a1.6,1.6,0,0,1,.37,0,2.83,2.83,0,0,1-.18.34,2.9,2.9,0,0,1-.29.5,2.63,2.63,0,0,1-.41.43,4.69,4.69,0,0,1-1.16.61,1.64,1.64,0,0,1-.54.09.61.61,0,0,1-.47-.1s-.07,0-.06-.09a.08.08,0,0,1,0-.05.52.52,0,0,1,.22-.05c.08,0,.16-.05.17-.13s0-.07,0-.1,0-.07.06-.06,0,0,0,.05c.06.2.36.19.53.18a1.15,1.15,0,0,0,.68-.42,2.38,2.38,0,0,0,.47-.63l.19-.41C25.71,14.92,25.77,14.9,25.93,14.88Z"/></g><g id="_编组_223" data-name="&lt;编组&gt;"><rect id="_矩形_5" data-name="&lt;矩形&gt;" class="cls-30" x="31.42" y="18.44" width="0.36" height="0.93"/><g id="_编组_224" data-name="&lt;编组&gt;"><path class="cls-43" d="M31.92,19.52a.59.59,0,0,1,0-.25s0-.17-.07-.17a.09.09,0,0,0-.07,0,.45.45,0,0,0,0,.08.22.22,0,0,1-.05.09.11.11,0,0,1-.1,0,.13.13,0,0,1-.07,0,.23.23,0,0,1-.06-.12.17.17,0,0,0,0-.09.08.08,0,0,0-.08,0l-.08,0-.08.06-.05.06-.17.12a1.43,1.43,0,0,1-.38.15.51.51,0,0,0-.19.07.14.14,0,0,0-.05.17.2.2,0,0,0,.14.07,5.13,5.13,0,0,0,1.31,0c.09,0,.19,0,.21-.11S32,19.59,31.92,19.52Z"/></g><rect id="_矩形_6" data-name="&lt;矩形&gt;" class="cls-30" x="30.47" y="18.49" width="0.36" height="0.93"/><g id="_编组_225" data-name="&lt;编组&gt;"><path class="cls-9" d="M31,19.56a.6.6,0,0,1,0-.25s0-.17-.07-.17a.09.09,0,0,0-.07,0,.45.45,0,0,0,0,.08.22.22,0,0,1-.05.09.11.11,0,0,1-.1,0,.13.13,0,0,1-.07,0,.23.23,0,0,1-.06-.12.18.18,0,0,0,0-.09.08.08,0,0,0-.08,0l-.08,0-.08.06-.05.06-.17.12a1.43,1.43,0,0,1-.38.15.51.51,0,0,0-.19.07.14.14,0,0,0-.05.17.19.19,0,0,0,.14.07,5.12,5.12,0,0,0,1.31,0c.09,0,.19,0,.21-.11S31,19.63,31,19.56Z"/></g><g id="_编组_226" data-name="&lt;编组&gt;"><path class="cls-28" d="M31.86,17.62a4.3,4.3,0,0,0-.08-.5c0-.12-.06-.25-.09-.37A8.59,8.59,0,0,1,31.64,15a1.27,1.27,0,0,0-.06-.44.45.45,0,0,0-.29-.3l-.93.13a4.79,4.79,0,0,0,.34,1.83c.05.14.11.27.17.41a17.8,17.8,0,0,1,.41,2,.5.5,0,0,0,.11.24.4.4,0,0,0,.27.1.22.22,0,0,0,.21-.07.26.26,0,0,0,0-.12A7.25,7.25,0,0,0,31.86,17.62Z"/></g><g id="_编组_227" data-name="&lt;编组&gt;"><path class="cls-28" d="M30.32,17.82a4.48,4.48,0,0,1,0-.53c0-.13,0-.26,0-.4A8.89,8.89,0,0,0,30.23,15a1.32,1.32,0,0,1,0-.46.48.48,0,0,1,.27-.34l1,0a5,5,0,0,1-.14,1.95c0,.15-.09.29-.13.44a18.49,18.49,0,0,0-.19,2.12A.52.52,0,0,1,31,19a.43.43,0,0,1-.27.14.23.23,0,0,1-.23-.05.27.27,0,0,1,0-.13A7.52,7.52,0,0,1,30.32,17.82Z"/></g><g id="_编组_228" data-name="&lt;编组&gt;"><path id="_路径_168" data-name="&lt;路径&gt;" class="cls-9" d="M31.23,16.65a5.85,5.85,0,0,0-.13,1.06A3.26,3.26,0,0,1,31,19s0,0,0,0a2.33,2.33,0,0,0,.14-1,7.39,7.39,0,0,1,.14-1.37s0,0,0,0Z"/></g><g id="_编组_229" data-name="&lt;编组&gt;"><path id="_路径_169" data-name="&lt;路径&gt;" class="cls-9" d="M31.5,14.26a6.27,6.27,0,0,1-.26,2.39,0,0,0,0,0,0,0,6.26,6.26,0,0,0,.26-2.4s0,0,0,0Z"/></g><g id="_编组_230" data-name="&lt;编组&gt;"><path class="cls-30" d="M28.56,10.87l-.08-.08a.85.85,0,0,0-.39-.25s-.07,0-.07,0a.05.05,0,0,0,0,0,.34.34,0,0,1,.07.12,0,0,0,0,1,0,0l0,0s0,.08,0,.12.24.19.34.31.26.34.4.51a3.56,3.56,0,0,0,.47.49,1.47,1.47,0,0,0,.6.31,2.51,2.51,0,0,0,.59,0c.05,0,.17,0,.2,0s0-.14,0-.19a1.74,1.74,0,0,1,0-.4,1.26,1.26,0,0,1-.86.19,1.62,1.62,0,0,1-.82-.63C28.89,11.26,28.74,11.06,28.56,10.87Z"/></g><g id="_编组_231" data-name="&lt;编组&gt;"><path class="cls-30" d="M31.07,10.65a.38.38,0,0,0-.15-.2.17.17,0,0,0-.23,0h0c-.12.09-.08.28-.15.41a.55.55,0,0,0-.05.09.26.26,0,0,0,0,.11l0,.22c0,.07,0,.16.1.19a.21.21,0,0,0,.17,0l.16-.09a.4.4,0,0,0,.19-.17.35.35,0,0,0,0-.13A1.12,1.12,0,0,0,31.07,10.65Z"/></g><path class="cls-30" d="M31.36,11l-.51.17a1.39,1.39,0,0,1,.11.66v0l.45-.23Z"/><g id="_编组_232" data-name="&lt;编组&gt;"><path class="cls-44" d="M30.78,11.75c-.74.29-.41,1.27-.5,1.85,0,.28-.15.55-.21.83a.38.38,0,0,0,0,.31.29.29,0,0,0,.26.08,1.2,1.2,0,0,0,.27-.09,1.89,1.89,0,0,1,.76-.13.36.36,0,0,0,.27-.06.31.31,0,0,0,0-.31,3.24,3.24,0,0,1-.18-.74,1.56,1.56,0,0,1,.13-.6,1.76,1.76,0,0,0,.21-.55.44.44,0,0,0,0-.14.79.79,0,0,0-.16-.33.81.81,0,0,0-.21-.14A.88.88,0,0,0,30.78,11.75Z"/></g><g id="_编组_233" data-name="&lt;编组&gt;"><path class="cls-45" d="M30.11,14.76c.19.16.38,0,.59,0a2.17,2.17,0,0,1,.7-.11.45.45,0,0,0,.28-.06s0,0,0,0c-.17.11-.47.05-.66.08s-.67.3-.89.12c0,0,0,0,0,0Z"/></g><g id="_编组_234" data-name="&lt;编组&gt;"><path id="_路径_170" data-name="&lt;路径&gt;" class="cls-9" d="M31.56,13.7a2.05,2.05,0,0,1,.27-1.13.56.56,0,0,0,0-.46.74.74,0,0,0-1-.4c-.83.25-.51,1.26-.59,1.89,0,0,0,0,0,0,.07-.57-.22-1.49.43-1.82a.84.84,0,0,1,1,.11.71.71,0,0,1,.07.81,1.65,1.65,0,0,0-.2,1s0,0,0,0Z"/></g><g id="_编组_235" data-name="&lt;编组&gt;"><rect id="_矩形_7" data-name="&lt;矩形&gt;" class="cls-23" x="31.14" y="13.79" width="2.24" height="1.32" rx="0.28" ry="0.28"/><rect id="_矩形_8" data-name="&lt;矩形&gt;" class="cls-28" x="31.36" y="14.16" width="1.9" height="0.17"/><rect id="_矩形_9" data-name="&lt;矩形&gt;" class="cls-24" x="31.36" y="14.52" width="0.95" height="0.17"/></g><g id="_编组_236" data-name="&lt;编组&gt;"><path class="cls-30" d="M32.13,13a6.66,6.66,0,0,1,.17,1c0,.19,0,.37,0,.56s.12.32.12.5,0,.1-.05.11h-.24s-.1,0-.13,0,0-.1,0-.15a0,0,0,0,0,0,0c0-.05-.07-.07,0-.14s.06-.08.08-.12a.55.55,0,0,0,0-.28c0-.21-.05-.43-.09-.64a4.79,4.79,0,0,0-.48-1.43l.37-.15.08.16c0,.08.08.16.11.24A2.3,2.3,0,0,1,32.13,13Z"/></g><g id="_编组_237" data-name="&lt;编组&gt;"><path id="_路径_171" data-name="&lt;路径&gt;" class="cls-9" d="M30.69,10.47c-.1.1-.09.24-.14.37a.7.7,0,0,0-.08.2,1.25,1.25,0,0,0,0,.28c0,.3.24.18.44.07a0,0,0,0,0,0,0c-.11.06-.31.17-.39,0a.77.77,0,0,1,0-.46s.05-.09.07-.14,0-.22.11-.32a0,0,0,0,0,0,0Z"/></g><g id="_编组_238" data-name="&lt;编组&gt;"><path class="cls-46" d="M31.68,10.68a.68.68,0,0,0,0,.18c.06.13.23.18.3.31s0,.41,0,.61.1.21.12.33a.38.38,0,1,1-.75.15.29.29,0,0,0-.05-.16s-.12,0-.18-.06a.29.29,0,0,1-.17-.25,2.76,2.76,0,0,1,0-.32.85.85,0,0,0-.07-.34c0-.09,0-.23-.13-.3s-.2,0-.31-.09a.19.19,0,0,1-.12-.14.27.27,0,0,1,.09-.2.78.78,0,0,1,.8-.22.66.66,0,0,1,.41.49Z"/></g></g><g id="_编组_239" data-name="&lt;编组&gt;"><g id="_编组_240" data-name="&lt;编组&gt;"><path class="cls-9" d="M19.75,3.33a.69.69,0,0,1,.91-.21s0,0,0,0a.72.72,0,0,0-1,.23s0,0,0,0Z"/></g><g id="_编组_241" data-name="&lt;编组&gt;"><path class="cls-9" d="M21.21,3.23a.32.32,0,0,0-.31.31,0,0,0,0,0,0,0,.28.28,0,0,1,.28-.28,0,0,0,0,0,0,0Z"/></g><g id="_编组_242" data-name="&lt;编组&gt;"><path class="cls-9" d="M21.09,3.27A.86.86,0,0,0,20,2.72a.84.84,0,0,0-.48.41c-.05.1-.06.2-.14.25a.85.85,0,0,1-.28,0,0,0,0,0,0,0,0h.37a.82.82,0,0,1,1.58-.12s0,0,0,0Z"/></g><g id="_编组_243" data-name="&lt;编组&gt;"><path class="cls-9" d="M21.8,3.73a.59.59,0,0,0-.73-.47s0,0,0,0a.56.56,0,0,1,.69.45s0,0,0,0Z"/></g><g id="_编组_244" data-name="&lt;编组&gt;"><path class="cls-9" d="M22.78,4.14h-.26a.67.67,0,0,1-.17,0c-.07,0,0,0,0-.07a.48.48,0,0,0-.53-.36,0,0,0,0,0,0,0c.26,0,.48.12.5.41l0,0h.48a0,0,0,0,0,0,0Z"/></g></g><path class="cls-47" d="M13.94,4.49a.44.44,0,0,1,.24-.07h.1a.59.59,0,0,1,.59-.5h.08l.07,0a.87.87,0,0,1,.65-.59,1.23,1.23,0,1,0-1.73,1.14Z"/><path class="cls-48" d="M13.4,3.48a1.23,1.23,0,0,1,1.77-1.11,1.23,1.23,0,1,0-1.26,2.1A1.23,1.23,0,0,1,13.4,3.48Z"/><g id="_编组_245" data-name="&lt;编组&gt;"><g id="_编组_246" data-name="&lt;编组&gt;"><g id="_编组_247" data-name="&lt;编组&gt;"><path class="cls-9" d="M16.42,4a.75.75,0,0,0-1-.23s0,0,0,0a.72.72,0,0,1,1,.22s0,0,0,0Z"/></g><g id="_编组_248" data-name="&lt;编组&gt;"><path class="cls-9" d="M14.87,3.94a.3.3,0,0,1,.29.29,0,0,0,0,0,0,0,.33.33,0,0,0-.32-.32,0,0,0,0,0,0,0Z"/></g><g id="_编组_249" data-name="&lt;编组&gt;"><path class="cls-9" d="M15,4a.86.86,0,0,1,1.65.12h.38a0,0,0,0,0,0,0,1.15,1.15,0,0,1-.25,0c-.14,0-.09,0-.16-.19A.88.88,0,0,0,15,3.95s0,0,0,0Z"/></g><g id="_编组_250" data-name="&lt;编组&gt;"><path class="cls-9" d="M13.24,4.89h.5l0,0a.49.49,0,0,1,.53-.43h0A.6.6,0,0,1,15,4s0,0,0,0a.63.63,0,0,0-.59.16,1.77,1.77,0,0,0-.15.24c-.08.11-.1.06-.24.1s-.21.2-.31.35,0,0-.06.07a.49.49,0,0,1-.15,0h-.28a0,0,0,0,0,0,0Z"/></g></g><g id="_编组_251" data-name="&lt;编组&gt;"><path class="cls-9" d="M14.42,1.56v.36a0,0,0,0,0,0,0V1.56a0,0,0,0,0,0,0Z"/></g><g id="_编组_252" data-name="&lt;编组&gt;"><path class="cls-9" d="M15.31,1.79l-.18.31a0,0,0,0,0,0,0l.18-.31a0,0,0,0,0,0,0Z"/></g><g id="_编组_253" data-name="&lt;编组&gt;"><path class="cls-9" d="M16,2.44l-.31.18a0,0,0,0,0,0,0L16,2.47a0,0,0,0,0,0,0Z"/></g><g id="_编组_254" data-name="&lt;编组&gt;"><path class="cls-9" d="M12.9,4.25l.31-.18a0,0,0,0,0,0,0l-.31.18a0,0,0,0,0,0,0Z"/></g><g id="_编组_255" data-name="&lt;编组&gt;"><path class="cls-9" d="M12.65,3.37H13a0,0,0,0,0,0,0h-.36a0,0,0,0,0,0,0Z"/></g><g id="_编组_256" data-name="&lt;编组&gt;"><path class="cls-9" d="M12.88,2.47l.31.18a0,0,0,0,0,0,0l-.31-.18a0,0,0,0,0,0,0Z"/></g><g id="_编组_257" data-name="&lt;编组&gt;"><path class="cls-9" d="M13.53,1.81l.18.31a0,0,0,0,0,0,0l-.18-.31a0,0,0,0,0,0,0Z"/></g></g><g id="_编组_258" data-name="&lt;编组&gt;"><g id="_编组_259" data-name="&lt;编组&gt;"><path class="cls-9" d="M27.29,2.89a.38.38,0,0,0-.5-.12s0,0,0,0a.35.35,0,0,1,.46.11s0,0,0,0Z"/></g><g id="_编组_260" data-name="&lt;编组&gt;"><path class="cls-9" d="M26.53,2.88a.14.14,0,0,1,.14.14s0,0,0,0a.17.17,0,0,0-.17-.17s0,0,0,0Z"/></g><g id="_编组_261" data-name="&lt;编组&gt;"><path class="cls-9" d="M26.6,2.87a.41.41,0,0,1,.8.06h.2a0,0,0,0,0,0,0,.5.5,0,0,1-.13,0c-.06,0,0,0-.07-.1a.44.44,0,0,0-.26-.24.45.45,0,0,0-.57.29s0,0,0,0Z"/></g><g id="_编组_262" data-name="&lt;编组&gt;"><path class="cls-9" d="M26.23,3.11a.28.28,0,0,1,.35-.23s0,0,0,0a.31.31,0,0,0-.39.25s0,0,0,0Z"/></g></g><ellipse class="cls-49" cx="30.6" cy="0.89" rx="2.47" ry="0.89"/><line class="cls-23" x1="0.96" y1="0.83" y2="0.83"/><path class="cls-27" d="M.57.83H.39"/></g></g></g></svg>