<svg xmlns="http://www.w3.org/2000/svg" xmlns:xlink="http://www.w3.org/1999/xlink" viewBox="0 0 29.06 20.92"><defs><style>.cls-1{isolation:isolate;}.cls-2{fill:#fee7ec;}.cls-3{fill:#e5dbff;}.cls-16,.cls-4{fill:#150d9c;}.cls-5{fill:url(#linear-gradient);}.cls-6{fill:url(#linear-gradient-2);}.cls-7{fill:url(#linear-gradient-3);}.cls-8{fill:url(#linear-gradient-4);}.cls-23,.cls-9{fill:#0d035c;}.cls-10{fill:url(#linear-gradient-5);}.cls-11,.cls-16,.cls-23{opacity:0.3;}.cls-12{fill:url(#linear-gradient-6);}.cls-13{fill:url(#linear-gradient-7);}.cls-14{fill:url(#linear-gradient-8);}.cls-15{fill:#a8bcfb;}.cls-17{fill:#7d9af8;}.cls-18{fill:#a7a9f9;}.cls-19{fill:#ffe0e4;}.cls-20{fill:#fff;}.cls-21{fill:url(#linear-gradient-9);}.cls-22{fill:url(#linear-gradient-10);}.cls-24{fill:#b8a1d7;}.cls-25{fill:#fc899f;}.cls-26{fill:url(#linear-gradient-11);}.cls-27{fill:#f9f7f9;}.cls-28{fill:#2329f0;}.cls-29{fill:url(#linear-gradient-12);}.cls-30{fill:url(#linear-gradient-13);}.cls-31{fill:url(#linear-gradient-14);}.cls-32{fill:#673ab7;}.cls-33{fill:url(#linear-gradient-15);}.cls-34{fill:#ba539a;}.cls-35{fill:#2657f4;}.cls-36{fill:#5179f6;}.cls-37{fill:url(#linear-gradient-16);}.cls-38{fill:#fdb8c5;}.cls-39{mix-blend-mode:multiply;fill:url(#radial-gradient);}</style><linearGradient id="linear-gradient" x1="6.74" y1="15.47" x2="7.22" y2="15.47" gradientUnits="userSpaceOnUse"><stop offset="0" stop-color="#2329f0"/><stop offset="0.32" stop-color="#2433f1"/><stop offset="0.87" stop-color="#264ff3"/><stop offset="1" stop-color="#2657f4"/></linearGradient><linearGradient id="linear-gradient-2" x1="-306.07" y1="-225.89" x2="-305.49" y2="-225.89" gradientTransform="matrix(0.67, 0.74, -0.74, 0.67, 50.23, 392.93)" xlink:href="#linear-gradient"/><linearGradient id="linear-gradient-3" x1="59.39" y1="199.23" x2="59.87" y2="199.23" gradientTransform="translate(-118.12 -150.91) rotate(-20.14)" xlink:href="#linear-gradient"/><linearGradient id="linear-gradient-4" x1="8.45" y1="15.07" x2="8.31" y2="14.08" xlink:href="#linear-gradient"/><linearGradient id="linear-gradient-5" x1="6.07" y1="16.77" x2="11.28" y2="16.77" gradientUnits="userSpaceOnUse"><stop offset="0" stop-color="#673ab7"/><stop offset="0.17" stop-color="#6f44ba"/><stop offset="0.47" stop-color="#8561c3"/><stop offset="0.85" stop-color="#a98ed1"/><stop offset="1" stop-color="#b8a1d7"/></linearGradient><linearGradient id="linear-gradient-6" x1="-1047.59" y1="16.76" x2="-1042.39" y2="16.76" gradientTransform="matrix(-1, 0, 0, 1, -1032.65, 0)" xlink:href="#linear-gradient-5"/><linearGradient id="linear-gradient-7" x1="-322.15" y1="45.26" x2="-322.57" y2="40.78" gradientTransform="matrix(-0.29, -0.96, -0.96, 0.29, -24.79, -304.62)" gradientUnits="userSpaceOnUse"><stop offset="0" stop-color="#2329f0"/><stop offset="0.15" stop-color="#332de7"/><stop offset="0.44" stop-color="#5c39cf"/><stop offset="0.85" stop-color="#9f4baa"/><stop offset="1" stop-color="#ba539a"/></linearGradient><linearGradient id="linear-gradient-8" x1="-427.45" y1="-20.37" x2="-427.87" y2="-24.84" gradientTransform="matrix(0.98, 0.22, -0.22, 0.98, 435.2, 131.14)" xlink:href="#linear-gradient-7"/><linearGradient id="linear-gradient-9" x1="16.44" y1="11.62" x2="18.1" y2="11.62" gradientUnits="userSpaceOnUse"><stop offset="0" stop-color="#150d9c"/><stop offset="0.21" stop-color="#1f13a6"/><stop offset="0.56" stop-color="#3824bf"/><stop offset="1" stop-color="#623fe9"/><stop offset="1" stop-color="#623fe9"/></linearGradient><linearGradient id="linear-gradient-10" x1="16.44" y1="16.8" x2="18.1" y2="16.8" xlink:href="#linear-gradient-9"/><linearGradient id="linear-gradient-11" x1="41.05" y1="53.02" x2="41.05" y2="43.86" gradientTransform="translate(-19.95 -35.09)" gradientUnits="userSpaceOnUse"><stop offset="0" stop-color="#673ab7"/><stop offset="0.45" stop-color="#9347a7"/><stop offset="0.8" stop-color="#b0509e"/><stop offset="1" stop-color="#ba539a"/></linearGradient><linearGradient id="linear-gradient-12" x1="20.72" y1="8.79" x2="19.63" y2="6.74" gradientUnits="userSpaceOnUse"><stop offset="0" stop-color="#0d035c"/><stop offset="0.03" stop-color="#0e0563"/><stop offset="0.3" stop-color="#17149f"/><stop offset="0.53" stop-color="#1e20cb"/><stop offset="0.7" stop-color="#2226e6"/><stop offset="0.81" stop-color="#2329f0"/></linearGradient><linearGradient id="linear-gradient-13" x1="17.37" y1="10.04" x2="18.71" y2="7.82" gradientUnits="userSpaceOnUse"><stop offset="0" stop-color="#673ab7"/><stop offset="0.41" stop-color="#8643ac"/><stop offset="1" stop-color="#ba539a"/></linearGradient><linearGradient id="linear-gradient-14" x1="-337.75" y1="-339.49" x2="-335.91" y2="-339.49" gradientTransform="matrix(0, -1, -1, 0, -327.92, -327.92)" xlink:href="#linear-gradient"/><linearGradient id="linear-gradient-15" x1="22.84" y1="17.97" x2="23.83" y2="17.97" gradientTransform="matrix(1, 0, 0, 1, 0, 0)" xlink:href="#linear-gradient-11"/><linearGradient id="linear-gradient-16" x1="23.94" y1="18.31" x2="24.58" y2="18.31" gradientTransform="matrix(1, 0, 0, 1, 0, 0)" xlink:href="#linear-gradient-11"/><radialGradient id="radial-gradient" cx="-131.43" cy="16709.5" r="1.83" gradientTransform="translate(200.16 -5419.68) scale(1.34 0.32)" gradientUnits="userSpaceOnUse"><stop offset="0" stop-color="#2657f4"/><stop offset="0.02" stop-color="#3361f5"/><stop offset="0.12" stop-color="#6386f7"/><stop offset="0.21" stop-color="#8da6f9"/><stop offset="0.32" stop-color="#b0c2fb"/><stop offset="0.42" stop-color="#cdd8fc"/><stop offset="0.54" stop-color="#e3e9fe"/><stop offset="0.66" stop-color="#f3f6fe"/><stop offset="0.8" stop-color="#fcfdff"/><stop offset="1" stop-color="#fff"/></radialGradient></defs><title>资源 1</title><g class="cls-1"><g id="图层_2" data-name="图层 2"><g id="图层_1-2" data-name="图层 1"><path class="cls-2" d="M29.06,13.79a6.57,6.57,0,0,1-.68-1.36,14,14,0,0,0-1-2.7,18.11,18.11,0,0,0-1.56-2.29c-.31-.4-.63-.79-.95-1.18-.93-1.14-2-2.35-3.45-2.55a4,4,0,0,0-2.92.92A14.13,14.13,0,0,0,16.37,6.9q-1.67,2-3.53,3.82c-1.47,1.44-3.23.93-5.06,1.33a4.46,4.46,0,0,0-3.19,6,12.07,12.07,0,0,0,1.7,2.38,1.58,1.58,0,0,1,.22.46H29.06Z"/><path class="cls-3" d="M29.06,20.92V4a5.52,5.52,0,0,0-.76.12,7,7,0,0,0-2.77,1.31,38,38,0,0,0-2.69,2.72,4.84,4.84,0,0,1-3.36,1.59c-1.64-.06-2.94-1.38-4.47-2a5.1,5.1,0,0,0-3.87.12A4.9,4.9,0,0,0,8.55,10.8c-.55,1.66-.17,3.56-.91,5.14a6.68,6.68,0,0,1-3.65,3A29.4,29.4,0,0,0,.6,20.42a2.36,2.36,0,0,0-.6.5Z"/><g id="_编组_" data-name="&lt;编组&gt;"><g id="_编组_2" data-name="&lt;编组&gt;"><path id="_路径_" data-name="&lt;路径&gt;" class="cls-4" d="M3.34,15.53a5.86,5.86,0,0,0,3.85,2.32s.05-.06,0-.06a5.79,5.79,0,0,1-3.81-2.29s-.08,0-.05,0Z"/></g><path id="_路径_2" data-name="&lt;路径&gt;" class="cls-4" d="M3.49,15.68s-.54-.13-.48-.59C3,15.09,3.43,15,3.49,15.68Z"/><path id="_路径_3" data-name="&lt;路径&gt;" class="cls-4" d="M3.86,16.11s-.48.27-.75-.11C3.1,16,3.37,15.65,3.86,16.11Z"/><path id="_路径_4" data-name="&lt;路径&gt;" class="cls-4" d="M4.42,16.62s-.44.34-.76,0C3.66,16.63,3.86,16.24,4.42,16.62Z"/><path id="_路径_5" data-name="&lt;路径&gt;" class="cls-4" d="M5,17s-.34.44-.73.2C4.3,17.23,4.41,16.81,5,17Z"/><path id="_路径_6" data-name="&lt;路径&gt;" class="cls-4" d="M5.7,17.35s-.2.52-.65.4C5.06,17.75,5,17.32,5.7,17.35Z"/><path id="_路径_7" data-name="&lt;路径&gt;" class="cls-4" d="M6.36,17.6s-.06.55-.53.55C5.84,18.15,5.7,17.73,6.36,17.6Z"/><path id="_路径_8" data-name="&lt;路径&gt;" class="cls-4" d="M3.86,16.11s-.37-.41-.07-.76C3.79,15.35,4.19,15.52,3.86,16.11Z"/><path id="_路径_9" data-name="&lt;路径&gt;" class="cls-4" d="M4.42,16.62s-.37-.41-.07-.76C4.36,15.86,4.76,16,4.42,16.62Z"/><path id="_路径_10" data-name="&lt;路径&gt;" class="cls-4" d="M5,17s-.37-.41-.07-.76C5,16.28,5.37,16.46,5,17Z"/><path id="_路径_11" data-name="&lt;路径&gt;" class="cls-4" d="M5.7,17.4s-.37-.41-.07-.76C5.63,16.64,6,16.81,5.7,17.4Z"/><path id="_路径_12" data-name="&lt;路径&gt;" class="cls-4" d="M6.35,17.62s-.37-.41-.07-.76C6.28,16.86,6.68,17,6.35,17.62Z"/></g><g id="_编组_3" data-name="&lt;编组&gt;"><g id="_编组_4" data-name="&lt;编组&gt;"><path class="cls-5" d="M7.15,15.2h0a.15.15,0,0,0,0,.08A.29.29,0,0,0,7,15.22H7a.14.14,0,0,0,0,.07.1.1,0,0,0,0,.06l-.06-.05H6.85a0,0,0,0,0,0,0v.06s0,0,0,0l-.09,0v0a.54.54,0,0,0,.15.22,1,1,0,0,0,.25.11l0-.05,0,0a.15.15,0,0,0,0,0,1.15,1.15,0,0,0,0-.16.51.51,0,0,0,0-.17S7.16,15.2,7.15,15.2Z"/></g><g id="_编组_5" data-name="&lt;编组&gt;"><g id="_编组_6" data-name="&lt;编组&gt;"><path class="cls-4" d="M7,15.61a.47.47,0,0,1-.13-.19v0h0v0a.47.47,0,0,0,.13.19.86.86,0,0,0,.21.1h0A.81.81,0,0,1,7,15.61Z"/></g></g><g id="_编组_7" data-name="&lt;编组&gt;"><g id="_编组_8" data-name="&lt;编组&gt;"><path class="cls-4" d="M7.18,15.5a.4.4,0,0,0-.07-.18v0h0l0,0a.4.4,0,0,1,.07.18.73.73,0,0,1,0,.2h0A.68.68,0,0,0,7.18,15.5Z"/></g></g><g id="_编组_9" data-name="&lt;编组&gt;"><path id="_路径_13" data-name="&lt;路径&gt;" class="cls-4" d="M7,15.35l.17.34s0,0,0,0L7,15.34s0,0,0,0Z"/></g><g id="_编组_10" data-name="&lt;编组&gt;"><path class="cls-4" d="M7.21,15.63h0a.05.05,0,0,0,0,0l0,0h0v0l0,0h0v0s0,0,0,0h0s0,.06.05.08l.09,0v0h0a.27.27,0,0,0,0,0,.2.2,0,0,0,0-.06A.23.23,0,0,1,7.21,15.63Z"/></g><path id="_路径_14" data-name="&lt;路径&gt;" class="cls-4" d="M7.47,16.33a3,3,0,0,1-.27-.57s0,0,0,0a3.25,3.25,0,0,0,.28.59l.07.16h0Z"/></g><g id="_编组_11" data-name="&lt;编组&gt;"><g id="_编组_12" data-name="&lt;编组&gt;"><path class="cls-6" d="M12.59,14.6h0a.18.18,0,0,0-.09,0,.34.34,0,0,0,0-.17h0l-.08,0a.12.12,0,0,0,0,.07.21.21,0,0,0,0-.09l0,0s0,0,0,0h0l0,0-.05.05s0,0,0,0a.28.28,0,0,0,0-.1l0,0a.65.65,0,0,0-.08.31,1.19,1.19,0,0,0,.1.31h.11l0,0,.16-.12a.61.61,0,0,0,.12-.16S12.61,14.61,12.59,14.6Z"/></g><g id="_编组_13" data-name="&lt;编组&gt;"><g id="_编组_14" data-name="&lt;编组&gt;"><path class="cls-4" d="M12.11,14.79a.56.56,0,0,1,.07-.27l0,0h0l0,0a.56.56,0,0,0-.07.27,1,1,0,0,0,.09.27h0A1,1,0,0,1,12.11,14.79Z"/></g></g><g id="_编组_15" data-name="&lt;编组&gt;"><g id="_编组_16" data-name="&lt;编组&gt;"><path class="cls-4" d="M12.36,14.87a.48.48,0,0,0,.1-.21v0h0v0a.48.48,0,0,1-.1.21.88.88,0,0,1-.2.13h0A.82.82,0,0,0,12.36,14.87Z"/></g></g><g id="_编组_17" data-name="&lt;编组&gt;"><path id="_路径_15" data-name="&lt;路径&gt;" class="cls-4" d="M12.32,14.57q-.08.21-.16.42s0,0,0,0,.11-.28.17-.43,0,0,0,0Z"/></g><g id="_编组_18" data-name="&lt;编组&gt;"><path class="cls-4" d="M12.26,15h0l0,0a.12.12,0,0,0,0-.06h0v0a.08.08,0,0,0,0,0h0l0,0s0,0,0,0l0,0v0s0,.07,0,.11a.43.43,0,0,0,0,.11h.06l0,0a.24.24,0,0,0,0-.07Z"/></g><path id="_路径_16" data-name="&lt;路径&gt;" class="cls-4" d="M11.85,15.8a3.58,3.58,0,0,1,.28-.7s0,0,0,0a3.9,3.9,0,0,0-.29.73l-.09.19,0,0C11.79,16,11.82,15.88,11.85,15.8Z"/></g><g id="_编组_19" data-name="&lt;编组&gt;"><g id="_编组_20" data-name="&lt;编组&gt;"><path class="cls-7" d="M6.53,15.31h0a.15.15,0,0,0,0,.09.28.28,0,0,0-.13,0h0a.14.14,0,0,0,0,.07.1.1,0,0,0,0,0l-.07,0H6.27a0,0,0,0,0,0,0l0,.05s0,0,0,0H6.21l0,0a.54.54,0,0,0,.21.15,1,1,0,0,0,.27,0l0-.06v0a.15.15,0,0,0,0,0,1.13,1.13,0,0,0,0-.16.51.51,0,0,0-.09-.14S6.54,15.31,6.53,15.31Z"/></g><g id="_编组_21" data-name="&lt;编组&gt;"><g id="_编组_22" data-name="&lt;编组&gt;"><path class="cls-4" d="M6.52,15.75a.47.47,0,0,1-.19-.13v0h0l0,0a.47.47,0,0,0,.19.13.86.86,0,0,0,.24,0h0A.81.81,0,0,1,6.52,15.75Z"/></g></g><g id="_编组_23" data-name="&lt;编组&gt;"><g id="_编组_24" data-name="&lt;编组&gt;"><path class="cls-4" d="M6.66,15.58a.4.4,0,0,0-.13-.15h0a.4.4,0,0,1,.13.15.73.73,0,0,1,0,.2h0A.68.68,0,0,0,6.66,15.58Z"/></g></g><g id="_编组_25" data-name="&lt;编组&gt;"><path id="_路径_17" data-name="&lt;路径&gt;" class="cls-4" d="M6.41,15.51l.27.26s0,0,0,0l-.28-.26s0,0,0,0Z"/></g><g id="_编组_26" data-name="&lt;编组&gt;"><path class="cls-4" d="M6.73,15.69h0a.05.05,0,0,0,0,0H6.67a.05.05,0,0,0,0,0v0H6.64v0s0,0,0,0h0s0,0,.08.06h.1v0h0v0a.2.2,0,0,0,0,0Z"/></g><path id="_路径_18" data-name="&lt;路径&gt;" class="cls-4" d="M7.22,16.26a3,3,0,0,1-.45-.44s0,0,0,0a3.25,3.25,0,0,0,.47.45l.12.13h0Z"/></g><g id="_编组_27" data-name="&lt;编组&gt;"><g id="_编组_28" data-name="&lt;编组&gt;"><path class="cls-8" d="M8.68,14.16h0a.25.25,0,0,0-.07.13.48.48,0,0,0-.16-.18h0a.24.24,0,0,0-.06.1.18.18,0,0,0,0,.11.3.3,0,0,0-.08-.11l0,0-.05,0h0a.07.07,0,0,0,0,0l0,.1s0,.06,0,0A.39.39,0,0,0,8,14.27s0,.06,0,.06a.91.91,0,0,0,.16.42,1.68,1.68,0,0,0,.36.28L8.56,15l0,0,0-.06a1.94,1.94,0,0,0,.08-.26.86.86,0,0,0,0-.29S8.71,14.16,8.68,14.16Z"/></g><g id="_编组_29" data-name="&lt;编组&gt;"><g id="_编组_30" data-name="&lt;编组&gt;"><path class="cls-9" d="M8.27,14.77a.8.8,0,0,1-.14-.36.38.38,0,0,1,0,0h0s0,0,0,.05a.8.8,0,0,0,.14.36,1.46,1.46,0,0,0,.32.24h0A1.36,1.36,0,0,1,8.27,14.77Z"/></g></g><g id="_编组_31" data-name="&lt;编组&gt;"><g id="_编组_32" data-name="&lt;编组&gt;"><path class="cls-9" d="M8.63,14.66a.67.67,0,0,0-.05-.33l0,0v0l0,0a.67.67,0,0,1,.05.33,1.23,1.23,0,0,1-.13.31h0A1.15,1.15,0,0,0,8.63,14.66Z"/></g></g><g id="_编组_33" data-name="&lt;编组&gt;"><path id="_路径_19" data-name="&lt;路径&gt;" class="cls-9" d="M8.34,14.34q.08.31.15.62s0,0,0,0q-.07-.32-.15-.63s0,0,0,0Z"/></g><g id="_编组_34" data-name="&lt;编组&gt;"><path class="cls-4" d="M8.62,14.89h0a.09.09,0,0,0,0,0,.17.17,0,0,0-.06-.06h0l0,0a.06.06,0,0,0,0,0l0,0h0v0s0,0,0,0l-.06,0s0,0,0,0,0,.11.06.15a.6.6,0,0,0,.13.1l0,0h0v0a.47.47,0,0,0,0-.08.34.34,0,0,0,0-.11A.38.38,0,0,1,8.62,14.89Z"/></g><path id="_路径_20" data-name="&lt;路径&gt;" class="cls-4" d="M8.8,16.15a5,5,0,0,1-.24-1s-.05,0-.05,0a5.51,5.51,0,0,0,.25,1.08c0,.1,0,.19.05.29h.05C8.84,16.38,8.82,16.26,8.8,16.15Z"/></g><g id="_编组_35" data-name="&lt;编组&gt;"><g id="_编组_36" data-name="&lt;编组&gt;"><path class="cls-10" d="M7.77,18.12,7.52,18c-.43-.25-1.81-1.13-1.36-1.74A.67.67,0,0,1,6.7,16a1.64,1.64,0,0,1,.55.08.18.18,0,0,0,.11,0c.06,0,.08-.1.09-.16a1.35,1.35,0,0,1,.1-.5.74.74,0,0,1,1-.21c.18.09.38.24.57.15a1,1,0,0,0,.24-.21,1.2,1.2,0,0,1,.74-.23,1.13,1.13,0,0,1,.6.06.84.84,0,0,1,.27.24,2.15,2.15,0,0,1-.08,2.42,1.59,1.59,0,0,1-1.43.91A4.6,4.6,0,0,1,7.77,18.12Z"/></g><g id="_编组_37" data-name="&lt;编组&gt;" class="cls-11"><g id="_编组_38" data-name="&lt;编组&gt;"><path id="_路径_21" data-name="&lt;路径&gt;" class="cls-4" d="M6.62,16.45c1,.57,1.83,1.32,2.75,2h0c-.92-.65-1.77-1.4-2.75-2Z"/></g><g id="_编组_39" data-name="&lt;编组&gt;"><path id="_路径_22" data-name="&lt;路径&gt;" class="cls-4" d="M6.93,16.38a2.42,2.42,0,0,0,.25.42s0,0,0,0A2.39,2.39,0,0,1,7,16.37s0,0,0,0Z"/></g><g id="_编组_40" data-name="&lt;编组&gt;"><path id="_路径_23" data-name="&lt;路径&gt;" class="cls-4" d="M7.32,16.48a2.2,2.2,0,0,0,.28.61h0a2.19,2.19,0,0,1-.28-.61Z"/></g><g id="_编组_41" data-name="&lt;编组&gt;"><path id="_路径_24" data-name="&lt;路径&gt;" class="cls-4" d="M7.72,16.74A4.13,4.13,0,0,0,8,17.4H8a4.12,4.12,0,0,1-.29-.67Z"/></g><g id="_编组_42" data-name="&lt;编组&gt;"><path id="_路径_25" data-name="&lt;路径&gt;" class="cls-4" d="M8.14,17a2.87,2.87,0,0,0,.38.84s0,0,0,0a2.85,2.85,0,0,1-.38-.83s0,0,0,0Z"/></g><g id="_编组_43" data-name="&lt;编组&gt;"><path id="_路径_26" data-name="&lt;路径&gt;" class="cls-4" d="M8.47,17.17q.28.52.6,1s0,0,0,0q-.31-.5-.6-1Z"/></g><g id="_编组_44" data-name="&lt;编组&gt;"><path id="_路径_27" data-name="&lt;路径&gt;" class="cls-4" d="M6.73,16.77a2.64,2.64,0,0,1,.51.09h0a2.65,2.65,0,0,0-.52-.09Z"/></g><g id="_编组_45" data-name="&lt;编组&gt;"><path id="_路径_28" data-name="&lt;路径&gt;" class="cls-4" d="M7.3,17.12a2.89,2.89,0,0,1,.53.15s0,0,0,0a2.92,2.92,0,0,0-.54-.15s0,0,0,0Z"/></g><g id="_编组_46" data-name="&lt;编组&gt;"><path id="_路径_29" data-name="&lt;路径&gt;" class="cls-4" d="M7.86,17.53a1.43,1.43,0,0,1,.47.11s0,0,0,0a1.45,1.45,0,0,0-.48-.11s0,0,0,0Z"/></g><g id="_编组_47" data-name="&lt;编组&gt;"><path id="_路径_30" data-name="&lt;路径&gt;" class="cls-4" d="M8.13,17.81a5.32,5.32,0,0,1,.58.12h0a1.75,1.75,0,0,1-.32-.09.87.87,0,0,0-.26,0Z"/></g><g id="_编组_48" data-name="&lt;编组&gt;"><path id="_路径_31" data-name="&lt;路径&gt;" class="cls-4" d="M8.52,18.09a2.27,2.27,0,0,1,.55.11h0a2.28,2.28,0,0,0-.55-.11s0,0,0,0Z"/></g></g><g id="_编组_49" data-name="&lt;编组&gt;" class="cls-11"><g id="_编组_50" data-name="&lt;编组&gt;"><path id="_路径_32" data-name="&lt;路径&gt;" class="cls-4" d="M8,15.45c.73.87,1.27,1.86,1.92,2.78h0c-.65-.92-1.19-1.92-1.92-2.78Z"/></g><g id="_编组_51" data-name="&lt;编组&gt;"><path id="_路径_33" data-name="&lt;路径&gt;" class="cls-4" d="M8.35,15.49a2.42,2.42,0,0,0,.09.48s0,0,0,0a2.4,2.4,0,0,1-.09-.48s0,0,0,0Z"/></g><g id="_编组_52" data-name="&lt;编组&gt;"><path id="_路径_34" data-name="&lt;路径&gt;" class="cls-4" d="M8.68,15.72a2.21,2.21,0,0,0,.06.67h0a2.2,2.2,0,0,1-.06-.67Z"/></g><g id="_编组_53" data-name="&lt;编组&gt;"><path id="_路径_35" data-name="&lt;路径&gt;" class="cls-4" d="M9,16.09a4.12,4.12,0,0,0,0,.72H9a4.13,4.13,0,0,1,0-.73Z"/></g><g id="_编组_54" data-name="&lt;编组&gt;"><path id="_路径_36" data-name="&lt;路径&gt;" class="cls-4" d="M9.29,16.44a2.87,2.87,0,0,0,.08.92s0,0,0,0a2.85,2.85,0,0,1-.08-.91s0,0,0,0Z"/></g><g id="_编组_55" data-name="&lt;编组&gt;"><path id="_路径_37" data-name="&lt;路径&gt;" class="cls-4" d="M9.53,16.75q.09.59.21,1.17s0,0,0,0q-.13-.58-.21-1.17Z"/></g><g id="_编组_56" data-name="&lt;编组&gt;"><path id="_路径_38" data-name="&lt;路径&gt;" class="cls-4" d="M8,15.79a2.63,2.63,0,0,1,.45.26h0A2.65,2.65,0,0,0,8,15.78Z"/></g><g id="_编组_57" data-name="&lt;编组&gt;"><path id="_路径_39" data-name="&lt;路径&gt;" class="cls-4" d="M8.44,16.31a2.88,2.88,0,0,1,.45.32h0a2.92,2.92,0,0,0-.46-.32s0,0,0,0Z"/></g><g id="_编组_58" data-name="&lt;编组&gt;"><path id="_路径_40" data-name="&lt;路径&gt;" class="cls-4" d="M8.83,16.89c.16,0,.27.18.41.26s0,0,0,0-.25-.22-.42-.26c0,0,0,0,0,0Z"/></g><g id="_编组_59" data-name="&lt;编组&gt;"><path id="_路径_41" data-name="&lt;路径&gt;" class="cls-4" d="M9,17.24a5.32,5.32,0,0,1,.5.31h0a1.74,1.74,0,0,1-.27-.19A.87.87,0,0,0,9,17.23Z"/></g><g id="_编组_60" data-name="&lt;编组&gt;"><path id="_路径_42" data-name="&lt;路径&gt;" class="cls-4" d="M9.26,17.64a2.28,2.28,0,0,1,.48.29h0a2.28,2.28,0,0,0-.48-.29Z"/></g></g><g id="_编组_61" data-name="&lt;编组&gt;" class="cls-11"><g id="_编组_62" data-name="&lt;编组&gt;"><path id="_路径_43" data-name="&lt;路径&gt;" class="cls-4" d="M10.1,14.89c.2,1.11.18,2.25.29,3.37h0c-.1-1.12-.08-2.26-.29-3.37Z"/></g><g id="_编组_63" data-name="&lt;编组&gt;"><path id="_路径_44" data-name="&lt;路径&gt;" class="cls-4" d="M10.36,15.09a2.42,2.42,0,0,0-.16.46s0,0,0,0a2.39,2.39,0,0,1,.16-.46s0,0,0,0Z"/></g><g id="_编组_64" data-name="&lt;编组&gt;"><path id="_路径_45" data-name="&lt;路径&gt;" class="cls-4" d="M10.53,15.45a2.2,2.2,0,0,0-.28.61h0a2.19,2.19,0,0,1,.28-.61Z"/></g><g id="_编组_65" data-name="&lt;编组&gt;"><path id="_路径_46" data-name="&lt;路径&gt;" class="cls-4" d="M10.59,15.92a4.13,4.13,0,0,0-.32.65h0a4.14,4.14,0,0,1,.32-.65Z"/></g><g id="_编组_66" data-name="&lt;编组&gt;"><path id="_路径_47" data-name="&lt;路径&gt;" class="cls-4" d="M10.7,16.38a2.87,2.87,0,0,0-.39.84s0,0,0,0a2.85,2.85,0,0,1,.39-.83s0,0,0,0Z"/></g><g id="_编组_67" data-name="&lt;编组&gt;"><path id="_路径_48" data-name="&lt;路径&gt;" class="cls-4" d="M10.75,16.77q-.22.56-.4,1.12s0,0,0,0q.18-.57.39-1.12s0,0,0,0Z"/></g><g id="_编组_68" data-name="&lt;编组&gt;"><path id="_路径_49" data-name="&lt;路径&gt;" class="cls-4" d="M9.93,15.19a2.62,2.62,0,0,1,.27.45h0a2.65,2.65,0,0,0-.27-.45Z"/></g><g id="_编组_69" data-name="&lt;编组&gt;"><path id="_路径_50" data-name="&lt;路径&gt;" class="cls-4" d="M10,15.85a2.89,2.89,0,0,1,.23.5h0a2.91,2.91,0,0,0-.24-.5s0,0,0,0Z"/></g><g id="_编组_70" data-name="&lt;编组&gt;"><path id="_路径_51" data-name="&lt;路径&gt;" class="cls-4" d="M10.07,16.54c.12.11.15.29.22.43s0,0,0,0-.1-.32-.23-.44,0,0,0,0Z"/></g><g id="_编组_71" data-name="&lt;编组&gt;"><path id="_路径_52" data-name="&lt;路径&gt;" class="cls-4" d="M10,16.93a5.32,5.32,0,0,1,.28.52h0a1.75,1.75,0,0,1-.14-.3.87.87,0,0,0-.14-.22Z"/></g><g id="_编组_72" data-name="&lt;编组&gt;"><path id="_路径_53" data-name="&lt;路径&gt;" class="cls-4" d="M10.08,17.41a2.28,2.28,0,0,1,.27.49h0a2.29,2.29,0,0,0-.27-.49Z"/></g></g></g><g id="_编组_73" data-name="&lt;编组&gt;"><g id="_编组_74" data-name="&lt;编组&gt;"><path class="cls-12" d="M13.24,18.11l.25-.13c.43-.25,1.81-1.13,1.36-1.74a.67.67,0,0,0-.54-.22,1.64,1.64,0,0,0-.55.08.18.18,0,0,1-.11,0c-.06,0-.08-.1-.09-.16a1.35,1.35,0,0,0-.1-.5.74.74,0,0,0-1-.21c-.18.09-.38.24-.57.15a1,1,0,0,1-.24-.21,1.2,1.2,0,0,0-.74-.23,1.13,1.13,0,0,0-.6.06.84.84,0,0,0-.27.24,2.15,2.15,0,0,0,.08,2.42,1.59,1.59,0,0,0,1.43.91A4.6,4.6,0,0,0,13.24,18.11Z"/></g><g id="_编组_75" data-name="&lt;编组&gt;" class="cls-11"><g id="_编组_76" data-name="&lt;编组&gt;"><path id="_路径_54" data-name="&lt;路径&gt;" class="cls-4" d="M14.39,16.43c-1,.57-1.83,1.32-2.75,2h0c.92-.65,1.77-1.4,2.75-2Z"/></g><g id="_编组_77" data-name="&lt;编组&gt;"><path id="_路径_55" data-name="&lt;路径&gt;" class="cls-4" d="M14.08,16.36a2.41,2.41,0,0,1-.25.42s0,0,0,0a2.39,2.39,0,0,0,.25-.42s0,0,0,0Z"/></g><g id="_编组_78" data-name="&lt;编组&gt;"><path id="_路径_56" data-name="&lt;路径&gt;" class="cls-4" d="M13.69,16.47a2.21,2.21,0,0,1-.28.61h0a2.19,2.19,0,0,0,.28-.61Z"/></g><g id="_编组_79" data-name="&lt;编组&gt;"><path id="_路径_57" data-name="&lt;路径&gt;" class="cls-4" d="M13.29,16.72a4.13,4.13,0,0,1-.29.67h0a4.13,4.13,0,0,0,.29-.67Z"/></g><g id="_编组_80" data-name="&lt;编组&gt;"><path id="_路径_58" data-name="&lt;路径&gt;" class="cls-4" d="M12.87,16.93a2.87,2.87,0,0,1-.38.84s0,0,0,0a2.85,2.85,0,0,0,.38-.83s0,0,0,0Z"/></g><g id="_编组_81" data-name="&lt;编组&gt;"><path id="_路径_59" data-name="&lt;路径&gt;" class="cls-4" d="M12.54,17.15q-.28.52-.6,1s0,0,0,0q.31-.5.6-1Z"/></g><g id="_编组_82" data-name="&lt;编组&gt;"><path id="_路径_60" data-name="&lt;路径&gt;" class="cls-4" d="M14.28,16.75a2.63,2.63,0,0,0-.51.09h0a2.65,2.65,0,0,1,.52-.09Z"/></g><g id="_编组_83" data-name="&lt;编组&gt;"><path id="_路径_61" data-name="&lt;路径&gt;" class="cls-4" d="M13.71,17.1a2.89,2.89,0,0,0-.53.15s0,0,0,0a2.91,2.91,0,0,1,.54-.15s0,0,0,0Z"/></g><g id="_编组_84" data-name="&lt;编组&gt;"><path id="_路径_62" data-name="&lt;路径&gt;" class="cls-4" d="M13.15,17.52a1.43,1.43,0,0,0-.47.11s0,0,0,0a1.45,1.45,0,0,1,.48-.11s0,0,0,0Z"/></g><g id="_编组_85" data-name="&lt;编组&gt;"><path id="_路径_63" data-name="&lt;路径&gt;" class="cls-4" d="M12.88,17.79a5.33,5.33,0,0,0-.58.12h0a1.74,1.74,0,0,0,.32-.09.87.87,0,0,1,.26,0Z"/></g><g id="_编组_86" data-name="&lt;编组&gt;"><path id="_路径_64" data-name="&lt;路径&gt;" class="cls-4" d="M12.49,18.08a2.27,2.27,0,0,0-.55.11h0a2.28,2.28,0,0,1,.55-.11s0,0,0,0Z"/></g></g><g id="_编组_87" data-name="&lt;编组&gt;" class="cls-11"><g id="_编组_88" data-name="&lt;编组&gt;"><path id="_路径_65" data-name="&lt;路径&gt;" class="cls-4" d="M13,15.43c-.73.87-1.27,1.86-1.92,2.78h0c.65-.92,1.19-1.92,1.92-2.78Z"/></g><g id="_编组_89" data-name="&lt;编组&gt;"><path id="_路径_66" data-name="&lt;路径&gt;" class="cls-4" d="M12.66,15.47a2.43,2.43,0,0,1-.09.48s0,0,0,0a2.4,2.4,0,0,0,.09-.48s0,0,0,0Z"/></g><g id="_编组_90" data-name="&lt;编组&gt;"><path id="_路径_67" data-name="&lt;路径&gt;" class="cls-4" d="M12.33,15.7a2.21,2.21,0,0,1-.06.67h0a2.19,2.19,0,0,0,.06-.67Z"/></g><g id="_编组_91" data-name="&lt;编组&gt;"><path id="_路径_68" data-name="&lt;路径&gt;" class="cls-4" d="M12,16.08a4.13,4.13,0,0,1,0,.73h0a4.13,4.13,0,0,0,0-.72Z"/></g><g id="_编组_92" data-name="&lt;编组&gt;"><path id="_路径_69" data-name="&lt;路径&gt;" class="cls-4" d="M11.72,16.42a2.87,2.87,0,0,1-.08.92s0,0,0,0a2.85,2.85,0,0,0,.08-.91s0,0,0,0Z"/></g><g id="_编组_93" data-name="&lt;编组&gt;"><path id="_路径_70" data-name="&lt;路径&gt;" class="cls-4" d="M11.48,16.74q-.09.59-.21,1.17s0,0,0,0q.13-.58.21-1.17Z"/></g><g id="_编组_94" data-name="&lt;编组&gt;"><path id="_路径_71" data-name="&lt;路径&gt;" class="cls-4" d="M13,15.77a2.63,2.63,0,0,0-.45.26h0a2.66,2.66,0,0,1,.46-.26Z"/></g><g id="_编组_95" data-name="&lt;编组&gt;"><path id="_路径_72" data-name="&lt;路径&gt;" class="cls-4" d="M12.57,16.29a2.89,2.89,0,0,0-.45.32h0a2.91,2.91,0,0,1,.46-.32s0,0,0,0Z"/></g><g id="_编组_96" data-name="&lt;编组&gt;"><path id="_路径_73" data-name="&lt;路径&gt;" class="cls-4" d="M12.18,16.87c-.16,0-.27.18-.41.26s0,0,0,0,.25-.23.42-.26c0,0,0,0,0,0Z"/></g><g id="_编组_97" data-name="&lt;编组&gt;"><path id="_路径_74" data-name="&lt;路径&gt;" class="cls-4" d="M12,17.22a5.34,5.34,0,0,0-.5.31h0a1.74,1.74,0,0,0,.27-.19.87.87,0,0,1,.23-.12Z"/></g><g id="_编组_98" data-name="&lt;编组&gt;"><path id="_路径_75" data-name="&lt;路径&gt;" class="cls-4" d="M11.75,17.62a2.27,2.27,0,0,0-.48.29h0a2.29,2.29,0,0,1,.48-.29Z"/></g></g><g id="_编组_99" data-name="&lt;编组&gt;" class="cls-11"><g id="_编组_100" data-name="&lt;编组&gt;"><path id="_路径_76" data-name="&lt;路径&gt;" class="cls-4" d="M10.91,14.88c-.2,1.11-.18,2.25-.29,3.37h0c.1-1.12.08-2.26.28-3.37Z"/></g><g id="_编组_101" data-name="&lt;编组&gt;"><path id="_路径_77" data-name="&lt;路径&gt;" class="cls-4" d="M10.65,15.07a2.42,2.42,0,0,1,.16.46s0,0,0,0a2.39,2.39,0,0,0-.16-.46s0,0,0,0Z"/></g><g id="_编组_102" data-name="&lt;编组&gt;"><path id="_路径_78" data-name="&lt;路径&gt;" class="cls-4" d="M10.48,15.44a2.21,2.21,0,0,1,.28.61h0a2.19,2.19,0,0,0-.28-.61Z"/></g><g id="_编组_103" data-name="&lt;编组&gt;"><path id="_路径_79" data-name="&lt;路径&gt;" class="cls-4" d="M10.42,15.91a4.13,4.13,0,0,1,.32.65h0a4.14,4.14,0,0,0-.32-.65Z"/></g><g id="_编组_104" data-name="&lt;编组&gt;"><path id="_路径_80" data-name="&lt;路径&gt;" class="cls-4" d="M10.31,16.36a2.87,2.87,0,0,1,.39.84s0,0,0,0a2.85,2.85,0,0,0-.39-.83s0,0,0,0Z"/></g><g id="_编组_105" data-name="&lt;编组&gt;"><path id="_路径_81" data-name="&lt;路径&gt;" class="cls-4" d="M10.26,16.75q.22.56.4,1.12s0,0,0,0q-.18-.57-.39-1.12s0,0,0,0Z"/></g><g id="_编组_106" data-name="&lt;编组&gt;"><path id="_路径_82" data-name="&lt;路径&gt;" class="cls-4" d="M11.08,15.17a2.63,2.63,0,0,0-.27.45h0a2.65,2.65,0,0,1,.27-.45Z"/></g><g id="_编组_107" data-name="&lt;编组&gt;"><path id="_路径_83" data-name="&lt;路径&gt;" class="cls-4" d="M11,15.83a2.89,2.89,0,0,0-.23.5h0a2.92,2.92,0,0,1,.24-.5s0,0,0,0Z"/></g><g id="_编组_108" data-name="&lt;编组&gt;"><path id="_路径_84" data-name="&lt;路径&gt;" class="cls-4" d="M10.93,16.52c-.12.11-.15.29-.22.43h0c.08-.15.1-.32.23-.44s0,0,0,0Z"/></g><g id="_编组_109" data-name="&lt;编组&gt;"><path id="_路径_85" data-name="&lt;路径&gt;" class="cls-4" d="M11,16.91a5.36,5.36,0,0,0-.28.52h0a1.74,1.74,0,0,0,.14-.3.87.87,0,0,1,.14-.22Z"/></g><g id="_编组_110" data-name="&lt;编组&gt;"><path id="_路径_86" data-name="&lt;路径&gt;" class="cls-4" d="M10.93,17.39a2.28,2.28,0,0,0-.27.49h0a2.29,2.29,0,0,1,.27-.49Z"/></g></g></g><path id="_路径_87" data-name="&lt;路径&gt;" class="cls-4" d="M11.26,18.61a.63.63,0,0,0-.09-.21.91.91,0,0,0-.29.16h0a.69.69,0,0,0-.28-.71.87.87,0,0,0-.26.38.82.82,0,0,0-.53-.51,1.13,1.13,0,0,0-.14.33l-.08,0a.69.69,0,0,0,0-.76.85.85,0,0,0-.48.37.68.68,0,0,0-.49-.45.87.87,0,0,0-.1.45l-.13,0a.66.66,0,0,0-.26-.32.94.94,0,0,0-.17.21H7.9a.69.69,0,0,0-.51-.54.87.87,0,0,0-.11.46H7.2a.67.67,0,0,0-.2-.48.84.84,0,0,0-.41.56h0a.57.57,0,0,0-.06-.13.86.86,0,0,0-.41.27.67.67,0,0,0-.36-.33.84.84,0,0,0-.15.7h0a.66.66,0,0,0-.45-.1.91.91,0,0,0,0,.34l-.11,0A.67.67,0,0,0,4.7,18a.93.93,0,0,0-.13.25.65.65,0,0,0-.32-.07,1,1,0,0,0,0,.21l-.39,0a.66.66,0,0,0-.32-.27.93.93,0,0,0-.12.23A.8.8,0,0,0,3,18a1.14,1.14,0,0,0-.13.3l-.09,0a.67.67,0,0,0-.47-.12.91.91,0,0,0,0,.32l-.06,0Z"/><path id="_路径_88" data-name="&lt;路径&gt;" class="cls-4" d="M17,18.61a.63.63,0,0,0-.09-.21.91.91,0,0,0-.29.16h0a.69.69,0,0,0-.28-.71.87.87,0,0,0-.26.38.82.82,0,0,0-.53-.51,1.14,1.14,0,0,0-.14.33l-.08,0a.69.69,0,0,0,0-.76.85.85,0,0,0-.48.37.68.68,0,0,0-.49-.45.87.87,0,0,0-.1.45l-.13,0a.66.66,0,0,0-.26-.32.93.93,0,0,0-.17.21h-.07a.69.69,0,0,0-.51-.54.87.87,0,0,0-.11.46H13a.67.67,0,0,0-.2-.48.84.84,0,0,0-.41.56h0a.57.57,0,0,0-.06-.13.86.86,0,0,0-.41.27.67.67,0,0,0-.36-.33.84.84,0,0,0-.15.7h0a.66.66,0,0,0-.45-.1.9.9,0,0,0,0,.34l-.11,0a.67.67,0,0,0-.33-.28.93.93,0,0,0-.13.25.65.65,0,0,0-.32-.07,1,1,0,0,0,0,.21l-.39,0a.66.66,0,0,0-.32-.27.94.94,0,0,0-.12.23A.8.8,0,0,0,8.78,18a1.14,1.14,0,0,0-.13.3l-.09,0a.67.67,0,0,0-.47-.12.91.91,0,0,0,0,.32l-.06,0Z"/><path class="cls-13" d="M25.09,16.22a.54.54,0,0,1-.23.66,5.68,5.68,0,0,0,.62,0c-.12-.59.28-.64.28-.64a.52.52,0,0,1-.19.63,5.68,5.68,0,0,0,.63-.13c-.13-.61.28-.66.28-.66a.53.53,0,0,1-.2.64,5.66,5.66,0,0,0,.61-.21c-.12-.6.28-.65.28-.65a.5.5,0,0,1-.15.6,5.66,5.66,0,0,0,.54-.27c-.13-.6.28-.65.28-.65a.48.48,0,0,1-.1.55l.33-.22c.24-.54.59-.36.59-.36a.55.55,0,0,1-.57.42l-.36.24c.47-.17.59.16.59.16a.56.56,0,0,1-.72-.09,5.72,5.72,0,0,1-.56.28c.52-.12.59.25.59.25a.56.56,0,0,1-.7-.2,5.74,5.74,0,0,1-.58.2c.52,0,.51.39.51.39a.55.55,0,0,1-.62-.35,5.75,5.75,0,0,1-.59.12c.49.17.37.52.37.52a.54.54,0,0,1-.49-.5,5.71,5.71,0,0,1-.6,0c.46.29.25.61.25.61a.54.54,0,0,1-.35-.6,5.67,5.67,0,0,1-.84-.05s0-.07,0-.06a5.61,5.61,0,0,0,.84.05C24.68,16.27,25.09,16.22,25.09,16.22Z"/><path class="cls-14" d="M23.64,15.37a.54.54,0,0,0-.64.27A5.66,5.66,0,0,1,23,15c.6.08.62-.32.62-.32a.52.52,0,0,0-.62.23,5.69,5.69,0,0,1,.09-.63c.61.09.64-.32.64-.32a.53.53,0,0,0-.62.24,5.68,5.68,0,0,1,.17-.62c.61.08.63-.32.63-.32a.5.5,0,0,0-.58.19,5.65,5.65,0,0,1,.23-.56c.61.08.63-.32.63-.32a.48.48,0,0,0-.54.14l.2-.34c.52-.27.32-.61.32-.61a.55.55,0,0,0-.38.6q-.11.19-.21.38c.14-.48-.2-.58-.2-.58a.56.56,0,0,0,.14.71,5.74,5.74,0,0,0-.24.58c.08-.52-.28-.57-.28-.57a.56.56,0,0,0,.25.69,5.75,5.75,0,0,0-.16.59c-.05-.52-.42-.48-.42-.48a.55.55,0,0,0,.4.6,5.74,5.74,0,0,0-.09.6c-.2-.48-.54-.33-.54-.33a.54.54,0,0,0,.53.45,5.69,5.69,0,0,0,0,.61c-.32-.44-.62-.21-.62-.21a.54.54,0,0,0,.62.31,5.66,5.66,0,0,0,.11.83s.07,0,.06,0a5.62,5.62,0,0,1-.11-.83C23.62,15.78,23.64,15.37,23.64,15.37Z"/><g id="_编组_111" data-name="&lt;编组&gt;"><g id="_编组_112" data-name="&lt;编组&gt;"><path class="cls-15" d="M26,13.79a2.94,2.94,0,0,1,.69-.3c.08,0,.27-.1.35-.06s.1.23.11.32a3.39,3.39,0,0,1-.51,1.75,5.43,5.43,0,0,1-.81,1.2l-.14.14a4.63,4.63,0,0,1-1.35.85c-.27.12-.85.4-1,0a.49.49,0,0,1,0-.41,1.69,1.69,0,0,1,.23-.36c.23-.3.48-.6.68-.92s.42-.78.67-1.14l0-.05A3.59,3.59,0,0,1,26,13.79Z"/></g><path class="cls-16" d="M25.66,15.4h0a6.53,6.53,0,0,1,.32-1s0,0,0,0a6.48,6.48,0,0,0-.3.9,6.55,6.55,0,0,0,.87-1.28s0,0,0,0a6.23,6.23,0,0,1-.69,1.07,2.11,2.11,0,0,0,.91-.54s0,0,0,0a2.16,2.16,0,0,1-1,.57l-.19.23h0l-.36.39-.2.21a2.3,2.3,0,0,0,.46,0,2,2,0,0,0,.45-.16s0,0,0,0a2.09,2.09,0,0,1-.45.16,2.45,2.45,0,0,1-.5,0h0l-.77.77a3.74,3.74,0,0,0,1.23-.29s0,0,0,0a3.8,3.8,0,0,1-1.28.29l-.56.56s0,0,0,0l.88-.88a5.5,5.5,0,0,1,.6-1.25h0a5.5,5.5,0,0,0-.58,1.21l.62-.63Z"/></g><g id="_编组_113" data-name="&lt;编组&gt;"><g id="_编组_114" data-name="&lt;编组&gt;"><path class="cls-15" d="M24.72,14.07a2.48,2.48,0,0,0-.15-.62c0-.06-.07-.23-.13-.26s-.21,0-.27.09a2.86,2.86,0,0,0-.91,1.24,4.58,4.58,0,0,0-.39,1.15q0,.08,0,.17A3.9,3.9,0,0,0,23,17.18c.06.24.17.77.51.71a.41.41,0,0,0,.28-.21,1.43,1.43,0,0,0,.12-.34c.08-.31.16-.62.27-.93s.31-.68.43-1l0,0A3,3,0,0,0,24.72,14.07Z"/></g><path class="cls-16" d="M23.77,15.1h0l.06-.25a1.82,1.82,0,0,1-.12-.94s0,0,0,0a1.78,1.78,0,0,0,.1.89,5.26,5.26,0,0,1,.36-1s0,0,0,0A5.51,5.51,0,0,0,23.82,15a5.45,5.45,0,0,0,.45-.66s0,0,0,0a5.52,5.52,0,0,1-.49.72h0q-.05.24-.09.49c0,.25-.08.49-.11.74a4.63,4.63,0,0,0,.52-1s0,0,0,0a4.64,4.64,0,0,1-.53,1l-.14,1s0,0,0,0l.09-.66a3.2,3.2,0,0,1-.46-1s0,0,0,0a3.15,3.15,0,0,0,.44,1c0-.3.08-.61.13-.91h0a2.06,2.06,0,0,1-.24-.35,1.76,1.76,0,0,1-.13-.39s0,0,0,0a1.71,1.71,0,0,0,.12.38,1.94,1.94,0,0,0,.22.32l0-.24Q23.73,15.32,23.77,15.1Z"/></g><g id="_编组_115" data-name="&lt;编组&gt;"><g id="_编组_116" data-name="&lt;编组&gt;"><path class="cls-17" d="M23.19,17.44a1,1,0,0,0,.1.77,1.16,1.16,0,0,0,.21.27c.37.32.78.11,1.11-.11a.51.51,0,0,1,.27-.11,1.87,1.87,0,0,1,.35.1.85.85,0,0,0,.46,0,.73.73,0,0,0,.35-.26.68.68,0,0,0-.18-.89.92.92,0,0,0-1,0,.3.3,0,0,1-.2.06.26.26,0,0,1-.12-.09,1.57,1.57,0,0,0-.2-.19.73.73,0,0,0-.68-.09A.89.89,0,0,0,23.19,17.44Z"/></g><g id="_编组_117" data-name="&lt;编组&gt;" class="cls-11"><g id="_编组_118" data-name="&lt;编组&gt;"><path id="_路径_89" data-name="&lt;路径&gt;" class="cls-4" d="M25.72,17.8a2.68,2.68,0,0,0-1.06-.19,2.51,2.51,0,0,0-1.07.13l0,0a2.59,2.59,0,0,1,1.13-.13,2.57,2.57,0,0,1,1,.18l0,0Z"/></g><g id="_编组_119" data-name="&lt;编组&gt;"><path id="_路径_90" data-name="&lt;路径&gt;" class="cls-4" d="M24.9,17.6q.33-.11.67-.2s0,0,0,0q-.34.09-.67.2s0,0,0,0Z"/></g><g id="_编组_120" data-name="&lt;编组&gt;"><path id="_路径_91" data-name="&lt;路径&gt;" class="cls-4" d="M25.44,18.07a3,3,0,0,0-.53-.44s0,0,0,0a3,3,0,0,1,.53.44s0,0,0,0Z"/></g><g id="_编组_121" data-name="&lt;编组&gt;"><path id="_路径_92" data-name="&lt;路径&gt;" class="cls-4" d="M24.55,18l-.5-.35s0,0,0,0l.5.35s0,0,0,0Z"/></g><g id="_编组_122" data-name="&lt;编组&gt;"><path id="_路径_93" data-name="&lt;路径&gt;" class="cls-4" d="M24.63,17.28a3.19,3.19,0,0,0-.62.35s0,0,0,0a3.23,3.23,0,0,1,.63-.35s0,0,0,0Z"/></g></g></g><g id="_编组_123" data-name="&lt;编组&gt;"><g id="_编组_124" data-name="&lt;编组&gt;"><path class="cls-18" d="M23.64,17.88a1,1,0,0,1-.77-.09,1.16,1.16,0,0,1-.27-.21c-.32-.37-.11-.78.11-1.11a.51.51,0,0,0,.11-.27,1.86,1.86,0,0,0-.1-.35.85.85,0,0,1,0-.46A.73.73,0,0,1,23,15a.68.68,0,0,1,.89.17.92.92,0,0,1,0,1,.3.3,0,0,0-.06.2.26.26,0,0,0,.09.12,1.57,1.57,0,0,1,.19.2.73.73,0,0,1,.09.68A.89.89,0,0,1,23.64,17.88Z"/></g><g id="_编组_125" data-name="&lt;编组&gt;" class="cls-11"><g id="_编组_126" data-name="&lt;编组&gt;"><path id="_路径_94" data-name="&lt;路径&gt;" class="cls-4" d="M23.27,15.35a2.68,2.68,0,0,1,.19,1.06,2.51,2.51,0,0,1-.13,1.07l0,0a2.6,2.6,0,0,0,.12-1.13,2.57,2.57,0,0,0-.19-1l0,0Z"/></g><g id="_编组_127" data-name="&lt;编组&gt;"><path id="_路径_95" data-name="&lt;路径&gt;" class="cls-4" d="M23.48,16.18q.11-.33.2-.67s0,0,0,0q-.08.34-.2.67s0,0,0,0Z"/></g><g id="_编组_128" data-name="&lt;编组&gt;"><path id="_路径_96" data-name="&lt;路径&gt;" class="cls-4" d="M23,15.64a3,3,0,0,1,.44.52s0,0,0,0a3,3,0,0,0-.45-.53s0,0,0,0Z"/></g><g id="_编组_129" data-name="&lt;编组&gt;"><path id="_路径_97" data-name="&lt;路径&gt;" class="cls-4" d="M23.1,16.53l.35.5h0l-.35-.5Z"/></g><g id="_编组_130" data-name="&lt;编组&gt;"><path id="_路径_98" data-name="&lt;路径&gt;" class="cls-4" d="M23.79,16.45a3.18,3.18,0,0,1-.34.62s0,0,0,0a3.22,3.22,0,0,0,.35-.63s0,0,0,0Z"/></g></g></g><g id="_编组_131" data-name="&lt;编组&gt;"><rect id="_矩形_" data-name="&lt;矩形&gt;" class="cls-19" x="21.69" y="9.42" width="2.16" height="9.18"/><g id="_编组_132" data-name="&lt;编组&gt;"><path class="cls-9" d="M21.7,14V9.75s0-.33,0-.33.61,0,.72,0h1.07c.08,0,.32,0,.36,0s0,.26,0,.31v8.86h0V9.42H21.67V14Z"/></g></g><g id="_编组_133" data-name="&lt;编组&gt;"><rect id="_矩形_2" data-name="&lt;矩形&gt;" class="cls-15" x="14.81" y="9.79" width="1.66" height="8.82"/><g id="_编组_134" data-name="&lt;编组&gt;"><path class="cls-9" d="M14.82,15.41v-1.7h0v1.7Z"/></g><g id="_编组_135" data-name="&lt;编组&gt;"><path class="cls-9" d="M14.82,13.31V10c0-.19,0-.18.15-.17h1c.09,0,.46,0,.51,0s0,.23,0,.27v8.25s0,.25,0,.28a4.4,4.4,0,0,1-.77,0h-.87s0,0,0,0h1.67V9.78H14.8v3.53Z"/></g><rect id="_矩形_3" data-name="&lt;矩形&gt;" class="cls-20" x="15.38" y="10.47" width="0.44" height="0.44"/><rect id="_矩形_4" data-name="&lt;矩形&gt;" class="cls-20" x="15.38" y="11.35" width="0.44" height="0.44"/><rect id="_矩形_5" data-name="&lt;矩形&gt;" class="cls-20" x="15.38" y="12.22" width="0.44" height="0.44"/><rect id="_矩形_6" data-name="&lt;矩形&gt;" class="cls-20" x="15.38" y="13.1" width="0.44" height="0.44"/><rect id="_矩形_7" data-name="&lt;矩形&gt;" class="cls-20" x="15.38" y="13.97" width="0.44" height="0.44"/><rect id="_矩形_8" data-name="&lt;矩形&gt;" class="cls-20" x="15.38" y="14.85" width="0.44" height="0.44"/><rect id="_矩形_9" data-name="&lt;矩形&gt;" class="cls-20" x="15.38" y="15.73" width="0.44" height="0.44"/><rect id="_矩形_10" data-name="&lt;矩形&gt;" class="cls-20" x="15.38" y="16.6" width="0.44" height="0.44"/><rect id="_矩形_11" data-name="&lt;矩形&gt;" class="cls-20" x="15.38" y="17.48" width="0.44" height="0.44"/></g><g id="_编组_136" data-name="&lt;编组&gt;"><rect id="_矩形_12" data-name="&lt;矩形&gt;" class="cls-20" x="16.44" y="9.82" width="1.66" height="8.79"/><g id="_编组_137" data-name="&lt;编组&gt;"><path class="cls-9" d="M18.11,13.46V9.82H16.45s0,0,0,0h1.44c.17,0,.17,0,.21.08a2.15,2.15,0,0,1,0,.6v3Z"/></g><g id="_编组_138" data-name="&lt;编组&gt;"><path class="cls-9" d="M16.44,18.62h1.67V13.75h0v4.49s0,.35,0,.36-.22,0-.27,0H16.45s0,0,0,0Z"/></g><rect id="_矩形_13" data-name="&lt;矩形&gt;" class="cls-21" x="16.44" y="10.96" width="1.66" height="1.31"/><rect id="_矩形_14" data-name="&lt;矩形&gt;" class="cls-22" x="16.44" y="16.15" width="1.66" height="1.31"/></g><g id="_编组_139" data-name="&lt;编组&gt;"><rect id="_矩形_15" data-name="&lt;矩形&gt;" class="cls-20" x="10.17" y="9.47" width="1.71" height="9.09" transform="translate(3.97 -2.36) rotate(14.9)"/><g id="_编组_140" data-name="&lt;编组&gt;"><path class="cls-9" d="M10.41,13l.79-3a3.91,3.91,0,0,1,.15-.57c.06-.14,0-.1.21,0L13,9.84h0l-1.66-.44h0l-1,3.64Z"/></g><g id="_编组_141" data-name="&lt;编组&gt;"><path class="cls-9" d="M10.7,18.62l-.83-.22c-.11,0-.78-.12-.82-.22s.08-.29.09-.34l.24-.9,1-3.6h0L9,18.18H9l1.66.44Z"/></g><g id="_编组_142" data-name="&lt;编组&gt;"><path class="cls-9" d="M10.88,11.25l1.66.44s0,0,0,0l-1.66-.44s0,0,0,0Z"/></g><g id="_编组_143" data-name="&lt;编组&gt;"><path class="cls-9" d="M12.37,10.77l-1.26-.34s0,0,0,0l1.26.34s0,0,0,0Z"/></g><g id="_编组_144" data-name="&lt;编组&gt;"><path class="cls-9" d="M9.36,17l1.66.44s0,0,0,0l-1.66-.44s0,0,0,0Z"/></g><g id="_编组_145" data-name="&lt;编组&gt;"><path class="cls-9" d="M10.86,16.47l-1.26-.34s0,0,0,0l1.26.34s0,0,0,0Z"/></g></g><rect id="_矩形_16" data-name="&lt;矩形&gt;" class="cls-23" x="14.81" y="9.79" width="0.39" height="8.82"/><rect id="_矩形_17" data-name="&lt;矩形&gt;" class="cls-23" x="17.77" y="9.79" width="0.39" height="8.82"/><g id="_编组_146" data-name="&lt;编组&gt;"><rect id="_矩形_18" data-name="&lt;矩形&gt;" class="cls-24" x="12.46" y="9.36" width="2.16" height="9.18" transform="translate(1.01 -0.91) rotate(4.01)"/><g id="_编组_147" data-name="&lt;编组&gt;"><path class="cls-9" d="M12.48,13.88l.24-3.42.06-.83s0-.33,0-.33.61,0,.72.05l1.07.07c.08,0,.32,0,.36,0s0,.25,0,.31l-.1,1.42-.31,4.44-.21,3h0l.56-8L15,9.44h0l-2.15-.15h0l-.32,4.59Z"/></g><rect id="_矩形_19" data-name="&lt;矩形&gt;" class="cls-20" x="13.2" y="10.42" width="0.65" height="7.49" transform="translate(1.02 -0.91) rotate(4.01)"/></g><g id="_编组_148" data-name="&lt;编组&gt;"><rect id="_矩形_20" data-name="&lt;矩形&gt;" class="cls-25" x="18.3" y="9.3" width="1.87" height="9.27" transform="translate(-0.67 0.98) rotate(-2.86)"/><g id="_编组_149" data-name="&lt;编组&gt;"><path class="cls-9" d="M18.31,14l-.18-3.51,0-.83s0-.33,0-.32.61,0,.72,0l.78,0c.08,0,.32,0,.36,0s0,.26,0,.31L20,11l.23,4.52.15,3h0L20,10.4,20,9.26h0l-1.87.09h0L18.29,14Z"/></g><rect id="_矩形_21" data-name="&lt;矩形&gt;" class="cls-20" x="18.69" y="10.04" width="1.09" height="7.89" transform="translate(-0.67 0.98) rotate(-2.86)"/><g id="_编组_150" data-name="&lt;编组&gt;"><path class="cls-9" d="M18.76,15.16l-.14-2.79-.09-1.76a1.66,1.66,0,0,1,0-.47c0-.11.11-.07.29-.08s.7-.11.77,0,0,.15,0,.18l.06,1.19.19,3.85L20,17.91h0L19.64,11l0-1h0l-1.09.05h0l.25,5.09Z"/></g></g><g id="_编组_151" data-name="&lt;编组&gt;"><rect id="_矩形_22" data-name="&lt;矩形&gt;" class="cls-20" x="20.31" y="8.12" width="1.66" height="10.42" transform="translate(-1.28 2.28) rotate(-6)"/><g id="_编组_152" data-name="&lt;编组&gt;"><path class="cls-9" d="M20.53,15.42l-.18-1.69h0l.18,1.69Z"/></g><g id="_编组_153" data-name="&lt;编组&gt;"><path class="cls-9" d="M20.32,13.33,19.8,8.41c0-.18-.06-.17.13-.19l1-.1c.09,0,.46-.09.51,0s0,.23,0,.27l1,9.14.07.66s.06.24,0,.28a4.4,4.4,0,0,1-.77.07l-.86.09s0,0,0,0l1.65-.17h0l-.81-7.67-.28-2.7h0l-1.65.17h0l.54,5.1Z"/></g><rect id="_矩形_23" data-name="&lt;矩形&gt;" class="cls-26" x="20.87" y="8.77" width="0.44" height="9.16" transform="translate(-1.28 2.28) rotate(-6)"/></g><rect id="_矩形_24" data-name="&lt;矩形&gt;" class="cls-23" x="12.48" y="9.43" width="0.39" height="9.12" transform="translate(1.03 -0.87) rotate(4.11)"/><g id="_编组_154" data-name="&lt;编组&gt;"><g id="_编组_155" data-name="&lt;编组&gt;"><path class="cls-25" d="M18.14,7.14c-.08-.06-.11,0-.14.08a1.34,1.34,0,0,1-.14.27,3.25,3.25,0,0,0-.38,1c0,.16.1.22.24.17s.1-.12.14-.2L18,8.22a3.12,3.12,0,0,0,.19-.53c0-.15.12-.44,0-.56Z"/></g><path id="_路径_99" data-name="&lt;路径&gt;" class="cls-4" d="M18.17,6.5l.74-.07a0,0,0,0,1,0,0L18.54,8l-.65-.32Z"/><polygon id="_路径_100" data-name="&lt;路径&gt;" class="cls-27" points="18.16 6.55 18.89 6.47 18.51 8 17.89 7.7 18.16 6.55"/><path id="_路径_101" data-name="&lt;路径&gt;" class="cls-28" d="M18.17,6.5l.69.31a.09.09,0,0,1,.05.11l-.37,1.14a.08.08,0,0,1-.12,0l-.57-.28Z"/><rect id="_矩形_25" data-name="&lt;矩形&gt;" class="cls-25" x="11.75" y="9.36" width="0.74" height="0.39"/><g id="_编组_156" data-name="&lt;编组&gt;"><path class="cls-28" d="M16.69,8.77a6.63,6.63,0,0,1-.36-.7,1.67,1.67,0,0,0-.78-.89,1.11,1.11,0,0,0-1.11.23,3,3,0,0,0-.73,1c-.13.26-.46.82-.3,1.12.07.13.3.11.4.07a.59.59,0,0,0,.3-.41.84.84,0,0,1,.1-.3,1.83,1.83,0,0,1,.18-.27,1,1,0,0,1,.57-.32.6.6,0,0,1,.28,0,.57.57,0,0,1,.31.26c.12.2.12.48.27.65s.48.11.76.11.72.07.41-.2A1.63,1.63,0,0,1,16.69,8.77Z"/></g><g id="_编组_157" data-name="&lt;编组&gt;"><path class="cls-28" d="M16.69,8.93a.57.57,0,0,0-.27-.2,1.45,1.45,0,0,0-.4-.07,5.68,5.68,0,0,0-1.4,0c-.58.1-1.13.32-1.7.42-.19,0-.39.05-.58.1a.28.28,0,0,0-.16.08.24.24,0,0,0,0,.18.4.4,0,0,0,.1.24c.12.13.44.12.6.1.53,0,1-.19,1.57-.21a9,9,0,0,1,1.73.21,1.12,1.12,0,0,0,.77-.07c0-.11-.07-.23-.1-.34A1.94,1.94,0,0,0,16.72,9Z"/></g><g id="_编组_158" data-name="&lt;编组&gt;"><path id="_路径_102" data-name="&lt;路径&gt;" class="cls-4" d="M16.41,8.72a2.86,2.86,0,0,0-.85-.1,5.18,5.18,0,0,0-.86,0c-.61.09-1.19.32-1.8.43,0,0,0,0,0,0,.57-.1,1.11-.31,1.67-.41a4.93,4.93,0,0,1,.92-.07,3,3,0,0,1,.91.1s0,0,0,0Z"/></g><g id="_编组_159" data-name="&lt;编组&gt;"><path class="cls-25" d="M19.18,8.53a1,1,0,0,0,.28-.35,1.27,1.27,0,0,0,.2.08.51.51,0,0,0,.21,0,.15.15,0,0,1,.13,0s.09.07.13.06-.17.15-.2.18a3.3,3.3,0,0,0-.28.26c-.08.08-.11.19-.23.23a.2.2,0,0,1-.19,0A.92.92,0,0,1,19,8.62Z"/></g><g id="_编组_160" data-name="&lt;编组&gt;"><path class="cls-25" d="M20.33,7.58a.33.33,0,0,0-.1-.28.27.27,0,0,0-.14,0,.43.43,0,0,0-.34.11s-.07.1-.11.15a.15.15,0,0,1-.16.05h0c0,.17-.22.26-.28.42a.32.32,0,0,0,.19.4.61.61,0,0,0,.19,0,.91.91,0,0,0,.54-.12A.59.59,0,0,0,20.29,8,1.38,1.38,0,0,0,20.33,7.58Z"/></g><g id="_编组_161" data-name="&lt;编组&gt;"><path id="_路径_103" data-name="&lt;路径&gt;" class="cls-4" d="M20.09,7.25a.48.48,0,0,0-.31.08c-.11.08-.16.27-.33.22h0c-.07.23-.38.35-.28.63s.36.23.58.22c0,0,0,0,0,0-.24,0-.58,0-.58-.3s.18-.29.27-.44,0,0,0-.05,0,0,.07,0l.09,0a.64.64,0,0,0,.12-.14.42.42,0,0,1,.36-.14,0,0,0,0,0,0,0Z"/></g><g id="_编组_162" data-name="&lt;编组&gt;"><path class="cls-29" d="M20.67,7.6a.43.43,0,0,0,0-.05.24.24,0,0,0-.09-.22.3.3,0,0,1-.08-.05s0-.09,0-.13A.23.23,0,0,0,20.31,7c-.05,0-.12,0-.15-.06a.3.3,0,0,1,0-.09.22.22,0,0,0-.23-.14.18.18,0,0,0-.15.22s0,.09,0,.13a.24.24,0,0,1,0,.07.22.22,0,0,0,0,.26.45.45,0,0,0,.17.09.16.16,0,0,1,.08.05s0,.11,0,.16,0,.12,0,.16l0,0a.06.06,0,0,1,0,.07s-.18.1-.15.17.07,0,.1,0,.07-.06.1,0a.07.07,0,0,1,0,.06.25.25,0,0,1-.06.17c-.06.07-.14.08-.13.19a.23.23,0,0,0,.15.2.37.37,0,0,0,.29-.06.71.71,0,0,0,.32-.44.3.3,0,0,0,0-.24.22.22,0,0,1,0-.07.14.14,0,0,1,0-.07A1.24,1.24,0,0,0,20.67,7.6Z"/></g><g id="_编组_163" data-name="&lt;编组&gt;"><path class="cls-30" d="M17.71,8.49h0a1.42,1.42,0,0,0,.43-.14,1.22,1.22,0,0,1,.33-.13,1,1,0,0,1,.44,0,1,1,0,0,1,.39.25c.16.16.36.39.23.62a.74.74,0,0,1-.21.21,3.23,3.23,0,0,1-.57.34,3.28,3.28,0,0,1-.61.19,5,5,0,0,1-.71.12,3.45,3.45,0,0,1-.82,0,.58.58,0,0,1-.33-.11.42.42,0,0,1-.15-.28.66.66,0,0,1,0-.22A1.86,1.86,0,0,1,16.37,9a1,1,0,0,1,.93-.56l.24,0Z"/></g><g id="_编组_164" data-name="&lt;编组&gt;"><path id="_路径_104" data-name="&lt;路径&gt;" class="cls-4" d="M18.19,8.36a1,1,0,0,1,.94,0c.24.14.59.48.45.79,0,0,0,0,0,0,.14-.3-.15-.59-.37-.75a.81.81,0,0,0-.51-.16,1.21,1.21,0,0,0-.53.15s0,0,0,0Z"/></g><g id="_编组_165" data-name="&lt;编组&gt;"><path id="_路径_105" data-name="&lt;路径&gt;" class="cls-4" d="M16.2,9.58a1.28,1.28,0,0,1,.5-1,1,1,0,0,1,.4-.18,1.4,1.4,0,0,1,.6.07s0,0,0,0a1.48,1.48,0,0,0-.56-.08,1,1,0,0,0-.5.22,1.3,1.3,0,0,0-.47,1,0,0,0,0,0,0,0Z"/></g><g id="_编组_166" data-name="&lt;编组&gt;"><path class="cls-25" d="M18.24,7s0,0,.07,0a.05.05,0,0,1,0,0,2.87,2.87,0,0,1,0,.37c.06-.08.07-.19.13-.28s0,0,0,0a0,0,0,0,1,0,0,1,1,0,0,1-.05.25,1.37,1.37,0,0,0,0,.24,0,0,0,0,0,0,0s0,0,.06,0l.17-.08a.1.1,0,0,1,0,.1.24.24,0,0,1-.07.08l-.21.14a.89.89,0,0,0-.2.87.4.4,0,0,0,.17.29.49.49,0,0,0,.25,0c.1,0,.08,0,.07.13s0,.32-.1.36a.71.71,0,0,1-.39,0,.57.57,0,0,1-.31-.23,1,1,0,0,1-.07-.58,4.69,4.69,0,0,1,.17-.93c0-.15.09-.3.14-.45A.73.73,0,0,1,18.24,7Z"/></g><g id="_编组_167" data-name="&lt;编组&gt;"><path id="_路径_106" data-name="&lt;路径&gt;" class="cls-4" d="M18.34,7.88a.82.82,0,0,0-.22.76.7.7,0,0,0,.1.33c.09.13.21.11.35.11s0,0,0,0c-.19,0-.34,0-.4-.24a1.19,1.19,0,0,1,0-.31.73.73,0,0,1,.23-.62s0,0,0,0Z"/></g><g id="_编组_168" data-name="&lt;编组&gt;"><path id="_路径_107" data-name="&lt;路径&gt;" class="cls-4" d="M18.15,9.52a.58.58,0,0,1-.38-.62,4.34,4.34,0,0,1,.08-.69,6,6,0,0,1,.15-.6A1.66,1.66,0,0,1,18.24,7s0,0,0,0a1.65,1.65,0,0,0-.24.6,5.49,5.49,0,0,0-.19.85c-.06.42-.12.9.36,1.08,0,0,0,0,0,0Z"/></g><g id="_编组_169" data-name="&lt;编组&gt;"><path id="_路径_108" data-name="&lt;路径&gt;" class="cls-31" d="M12,9.83h-.85V8h0a.49.49,0,0,1,.49.42l.08.57.29.19Z"/><rect id="_矩形_26" data-name="&lt;矩形&gt;" class="cls-32" x="10.25" y="8.81" width="1.99" height="0.18" transform="translate(2.34 20.14) rotate(-90)"/><circle id="_路径_109" data-name="&lt;路径&gt;" class="cls-20" cx="11.71" cy="9.45" r="0.17"/></g></g><g id="_编组_170" data-name="&lt;编组&gt;"><rect id="_矩形_27" data-name="&lt;矩形&gt;" class="cls-25" x="23.2" y="17.19" width="0.41" height="0.73" transform="translate(25.27 -11.65) rotate(56.79)"/><g id="_编组_171" data-name="&lt;编组&gt;"><path class="cls-32" d="M25.67,15.13c0-.55-.07-1.31-.1-1.86h-.22a.66.66,0,0,0-.72,0,.69.69,0,0,0-.16.63c0,.29.14.77.21,1.06a1.53,1.53,0,0,1,0,.87,2.11,2.11,0,0,1-.53.72l-.79.78,0,.06a.16.16,0,0,0,0,.16.26.26,0,0,0,.14.09.54.54,0,0,0,.4-.05,4.29,4.29,0,0,0,.85-.78c.3-.27.69-.45.87-.81A1.7,1.7,0,0,0,25.67,15.13Z"/></g><path id="_路径_110" data-name="&lt;路径&gt;" class="cls-33" d="M23.1,17.36l-.26.22.66,1h.32v0a.14.14,0,0,0-.14-.14h0l-.09-.09,0-.52,0,0-.23,0-.2-.25,0-.11Z"/><path id="_路径_111" data-name="&lt;路径&gt;" class="cls-4" d="M22.94,17.49l.66,1h.22a.14.14,0,0,1,0,.05v0h-.32l-.66-1Z"/><rect id="_矩形_28" data-name="&lt;矩形&gt;" class="cls-25" x="24.07" y="17.73" width="0.38" height="0.58"/><g id="_编组_172" data-name="&lt;编组&gt;"><path class="cls-32" d="M25,13.8a1.18,1.18,0,0,0-.22-.82.49.49,0,0,0-.68.12,1.34,1.34,0,0,0-.25.93c0,.42,0,1,.06,1.45S24,17,24,17.53c0,.18-.06.62.22.56a.43.43,0,0,0,.3-.29,1.52,1.52,0,0,0,.06-.43c0-.63.19-1.63.29-2.25A8.07,8.07,0,0,0,25,13.8Z"/></g><g id="_编组_173" data-name="&lt;编组&gt;"><path id="_路径_112" data-name="&lt;路径&gt;" class="cls-4" d="M25,13.93a12.65,12.65,0,0,1-.22,2c0,.28-.08.56-.11.84s0,1.12-.4,1.27c0,0,0,0,0,0a.55.55,0,0,0,.35-.51c.05-.39.06-.79.11-1.19A16.81,16.81,0,0,0,25,13.93a0,0,0,0,0,0,0Z"/></g><g id="_编组_174" data-name="&lt;编组&gt;"><path class="cls-34" d="M25.52,9.83c0-.06,0-.11,0-.17a.57.57,0,0,0-.33-.47.9.9,0,0,0-.4-.08.38.38,0,0,0-.32.13c0,.08,0,.18-.1.25a.35.35,0,0,1-.15.1c-.12,0-.24.09-.28.23a2,2,0,0,0,0,.28.41.41,0,0,1-.14.27c-.08.07-.17.11-.15.25s.08.11.14.16a2.11,2.11,0,0,1,.17.2.3.3,0,0,1,.07.13,1.16,1.16,0,0,0,0,.16.4.4,0,0,0,.22.21.62.62,0,0,0,.4,0c.07,0,.15-.06.15-.14a.44.44,0,0,1,0-.06s0,0,0,0h0a.21.21,0,0,1,0-.23.9.9,0,0,1,.21-.15.39.39,0,0,0,.17-.18,1.4,1.4,0,0,0,0-.16c.05-.21.25-.35.28-.57A.37.37,0,0,0,25.52,9.83Z"/></g><g id="_编组_175" data-name="&lt;编组&gt;"><path class="cls-25" d="M24.23,10.56a.23.23,0,0,0,.1-.07.79.79,0,0,0,.15-.51l.44.37s0,.15,0,.17,0,.1,0,.15h0c0,.06.13.08.17.14a.14.14,0,0,1,0,.14.42.42,0,0,1-.1.1.38.38,0,0,1-.11.07.34.34,0,0,1-.13,0,1.62,1.62,0,0,1-.49-.1L24.17,11a.32.32,0,0,1-.09-.39l0,0a.12.12,0,0,1,.07,0Z"/></g><g id="_编组_176" data-name="&lt;编组&gt;"><path class="cls-25" d="M25.45,9.81A.45.45,0,0,0,25,9.46a.55.55,0,0,0-.51.47,1,1,0,0,0,.1.4.54.54,0,0,0,.1.18.24.24,0,0,0,.18.09.36.36,0,0,0,.24-.15l.21-.25a.74.74,0,0,0,.1-.16A.41.41,0,0,0,25.45,9.81Z"/></g><g id="_编组_177" data-name="&lt;编组&gt;"><path id="_路径_113" data-name="&lt;路径&gt;" class="cls-4" d="M24.59,10.34c.07.18.23.36.43.22a1.49,1.49,0,0,0,.31-.35.52.52,0,0,0,.12-.39s0,0,0,0a.71.71,0,0,1-.24.53,1.21,1.21,0,0,1-.15.17c-.19.16-.36,0-.44-.18,0,0,0,0,0,0Z"/></g><g id="_编组_178" data-name="&lt;编组&gt;"><path class="cls-20" d="M25.76,11.93a1.35,1.35,0,0,0-.26-1,.46.46,0,0,0-.1-.12.42.42,0,0,0-.34-.07.53.53,0,0,1-.52.29l-.12,0a.33.33,0,0,1-.1-.09.55.55,0,0,1-.12-.34.76.76,0,0,0-.44.07.69.69,0,0,0-.21.13.72.72,0,0,0-.16.28,4,4,0,0,0-.16.73,1.89,1.89,0,0,1,.31.08l.16.05c.18.06.13.17.12.33s0,.51,0,.76-.11.46.05.59a.63.63,0,0,0,.23.11,2.48,2.48,0,0,0,1.33,0,.34.34,0,0,0,.15-.07c.17-.17,0-.65,0-.85s0-.18,0-.27,0-.4,0-.6A.77.77,0,0,1,25.76,11.93Z"/></g><g id="_编组_179" data-name="&lt;编组&gt;"><path id="_路径_114" data-name="&lt;路径&gt;" class="cls-4" d="M24.54,11a.44.44,0,0,1-.33-.45h0a.84.84,0,0,0-.45.07s0,0,0,0,.36-.15.43,0,0,.13,0,.18a.37.37,0,0,0,.29.24s0,0,0,0Z"/></g><g id="_编组_180" data-name="&lt;编组&gt;"><path id="_路径_115" data-name="&lt;路径&gt;" class="cls-4" d="M25.39,13.73c.32-.1.24-.45.18-.71,0,0,0,0,0,0,.05.24.15.6-.17.69a0,0,0,0,0,0,0Z"/></g><g id="_编组_181" data-name="&lt;编组&gt;"><path id="_路径_116" data-name="&lt;路径&gt;" class="cls-4" d="M23.82,13.61a2.11,2.11,0,0,0,1.57.11,0,0,0,0,0,0,0,2.1,2.1,0,0,1-1.56-.11s0,0,0,0Z"/></g><path class="cls-34" d="M25.57,9.66a.46.46,0,0,1-.08.12.65.65,0,0,1-.19.17A.66.66,0,0,1,25,10a.53.53,0,0,0-.45.15,1.31,1.31,0,0,1-.31.23.08.08,0,0,1-.1,0c-.08-.14.08-.38.11-.52a.61.61,0,0,1,.07-.18.62.62,0,0,1,.46-.21l.42,0c.12,0,.23-.07.33,0l0,0A.24.24,0,0,1,25.57,9.66Z"/><g id="_编组_182" data-name="&lt;编组&gt;"><path class="cls-25" d="M25.69,11.82l0-.06a.93.93,0,0,1-.1.23.76.76,0,0,0-.16.26.45.45,0,0,0,0,.14l0,.21a.4.4,0,0,0,0,.14.14.14,0,0,0,.12.08c.07,0,.11-.07.14-.14A2.38,2.38,0,0,0,25.69,11.82Z"/></g><g id="_编组_183" data-name="&lt;编组&gt;"><polygon id="_路径_117" data-name="&lt;路径&gt;" class="cls-3" points="25.5 10.57 25.27 11.1 25.86 11.36 26.05 11.13 25.5 10.57"/><polygon id="_路径_118" data-name="&lt;路径&gt;" class="cls-3" points="25.59 10.52 25.35 11.04 25.94 11.31 25.97 10.89 25.59 10.52"/><polygon id="_路径_119" data-name="&lt;路径&gt;" class="cls-3" points="25.68 10.49 25.36 11.03 26.03 11.28 25.77 10.62 25.68 10.49"/><polygon id="_路径_120" data-name="&lt;路径&gt;" class="cls-20" points="26.05 11.13 25.5 10.57 25.53 10.55 26.08 11.11 26.05 11.13"/><polygon id="_路径_121" data-name="&lt;路径&gt;" class="cls-20" points="26.04 11.12 25.59 10.52 25.61 10.51 26.08 11.11 26.04 11.12"/><polygon id="_路径_122" data-name="&lt;路径&gt;" class="cls-20" points="26.04 11.12 25.68 10.49 25.7 10.48 26.08 11.11 26.04 11.12"/><path id="_路径_123" data-name="&lt;路径&gt;" class="cls-35" d="M25,10.66l-.5,1.1a.08.08,0,0,0,0,.11l.9.42.64-1.17-1-.49A.07.07,0,0,0,25,10.66Z"/><polygon id="_路径_124" data-name="&lt;路径&gt;" class="cls-36" points="26.06 11.12 25.73 10.49 25.77 10.49 26.12 11.12 26.06 11.12"/><polygon id="_路径_125" data-name="&lt;路径&gt;" class="cls-36" points="26.12 11.12 25.48 12.29 25.42 12.29 26.06 11.12 26.12 11.12"/></g><g id="_编组_184" data-name="&lt;编组&gt;"><path class="cls-25" d="M24.79,12.3l.16-.05.14,0A.2.2,0,0,0,25.2,12a.22.22,0,0,0-.25-.13,1.87,1.87,0,0,0-.29.09s.08-.08.08-.13a0,0,0,0,0,0,0s0,0,0,0a1.58,1.58,0,0,1-.26.29,1.32,1.32,0,0,1-.36.18.38.38,0,0,1-.15,0,.2.2,0,0,1-.13-.07.23.23,0,0,1,0-.1s0-.09,0-.12-.17-.07-.22-.09l-.23-.07a.78.78,0,0,0,.19.77.49.49,0,0,0,.13.09.89.89,0,0,0,.74-.13C24.5,12.44,24.64,12.36,24.79,12.3Z"/></g><rect id="_矩形_29" data-name="&lt;矩形&gt;" class="cls-4" x="23.9" y="18.48" width="0.74" height="0.14"/><path id="_路径_126" data-name="&lt;路径&gt;" class="cls-37" d="M24.26,18.14h0a.32.32,0,0,0-.32.32v0h.64v0A.32.32,0,0,0,24.26,18.14Z"/><g id="_编组_185" data-name="&lt;编组&gt;"><path id="_路径_127" data-name="&lt;路径&gt;" class="cls-4" d="M23.7,11.93c.06,0,.12,0,.13.12a1,1,0,0,1,0,.15s0,0,0,0a.49.49,0,0,0,0-.19c0-.06-.08-.08-.14-.1s0,0,0,0Z"/></g><g id="_编组_186" data-name="&lt;编组&gt;"><path id="_路径_128" data-name="&lt;路径&gt;" class="cls-4" d="M23.23,11.79a3.23,3.23,0,0,1,.47.14s0,0,0,0a3.24,3.24,0,0,0-.47-.14s0,0,0,0Z"/></g><g id="_编组_187" data-name="&lt;编组&gt;"><path id="_路径_129" data-name="&lt;路径&gt;" class="cls-4" d="M23.38,11.06a4.21,4.21,0,0,0-.16.73s0,0,0,0a4.21,4.21,0,0,1,.16-.73s0,0,0,0Z"/></g></g><g id="_编组_188" data-name="&lt;编组&gt;"><g id="_编组_189" data-name="&lt;编组&gt;"><path class="cls-4" d="M23.72,3.11a.69.69,0,0,1,.91-.21s0,0,0,0a.72.72,0,0,0-1,.23s0,0,0,0Z"/></g><g id="_编组_190" data-name="&lt;编组&gt;"><path class="cls-4" d="M25.18,3a.32.32,0,0,0-.31.31,0,0,0,0,0,0,0A.28.28,0,0,1,25.18,3a0,0,0,0,0,0,0Z"/></g><g id="_编组_191" data-name="&lt;编组&gt;"><path class="cls-4" d="M25.06,3A.86.86,0,0,0,24,2.5a.84.84,0,0,0-.48.41c-.05.1-.06.2-.14.25a.85.85,0,0,1-.28,0,0,0,0,0,0,0,0h.37A.82.82,0,0,1,25,3.06s0,0,0,0Z"/></g><g id="_编组_192" data-name="&lt;编组&gt;"><path class="cls-4" d="M25.77,3.51A.59.59,0,0,0,25,3s0,0,0,0a.56.56,0,0,1,.69.45s0,0,0,0Z"/></g><g id="_编组_193" data-name="&lt;编组&gt;"><path class="cls-4" d="M26.75,3.92h-.26a.67.67,0,0,1-.17,0c-.07,0,0,0,0-.07a.48.48,0,0,0-.53-.36,0,0,0,0,0,0,0c.26,0,.48.12.5.41l0,0h.48a0,0,0,0,0,0,0Z"/></g></g><path class="cls-25" d="M14.18,5.07A.48.48,0,0,1,14.44,5h.1a.64.64,0,0,1,.64-.54h.09l.08,0a.94.94,0,0,1,.71-.64,1.34,1.34,0,1,0-1.88,1.24Z"/><path class="cls-38" d="M13.59,4a1.33,1.33,0,0,1,1.92-1.2A1.34,1.34,0,1,0,14.14,5,1.33,1.33,0,0,1,13.59,4Z"/><g id="_编组_194" data-name="&lt;编组&gt;"><g id="_编组_195" data-name="&lt;编组&gt;"><g id="_编组_196" data-name="&lt;编组&gt;"><path class="cls-4" d="M16.87,4.53a.81.81,0,0,0-1.08-.25s0,0,0,0a.78.78,0,0,1,1,.24s0,0,0,0Z"/></g><g id="_编组_197" data-name="&lt;编组&gt;"><path class="cls-4" d="M15.19,4.47a.32.32,0,0,1,.32.32,0,0,0,0,0,0,0,.36.36,0,0,0-.35-.35,0,0,0,0,0,0,0Z"/></g><g id="_编组_198" data-name="&lt;编组&gt;"><path class="cls-4" d="M15.36,4.48a.93.93,0,0,1,1.79.13h.42a0,0,0,0,0,0,0,1.25,1.25,0,0,1-.27,0c-.15,0-.1,0-.17-.21a1,1,0,0,0-1.79.08s0,0,0,0Z"/></g><g id="_编组_199" data-name="&lt;编组&gt;"><path class="cls-4" d="M13.42,5.49H14l0,0A.53.53,0,0,1,14.55,5h0a.65.65,0,0,1,.78-.51s0,0,0,0a.68.68,0,0,0-.64.17,1.93,1.93,0,0,0-.16.26c-.09.12-.11.07-.26.11s-.23.22-.34.38,0,0-.07.08a.53.53,0,0,1-.16,0h-.31a0,0,0,0,0,0,0Z"/></g></g><g id="_编组_200" data-name="&lt;编组&gt;"><path class="cls-4" d="M14.7,1.89v.39a0,0,0,0,0,0,0V1.89a0,0,0,0,0,0,0Z"/></g><g id="_编组_201" data-name="&lt;编组&gt;"><path class="cls-4" d="M15.67,2.14l-.19.33a0,0,0,0,0,0,0l.19-.33a0,0,0,0,0,0,0Z"/></g><g id="_编组_202" data-name="&lt;编组&gt;"><path class="cls-4" d="M16.38,2.84,16.05,3a0,0,0,0,0,0,0l.33-.19a0,0,0,0,0,0,0Z"/></g><g id="_编组_203" data-name="&lt;编组&gt;"><path class="cls-4" d="M13.05,4.81l.33-.19a0,0,0,0,0,0,0L13,4.78a0,0,0,0,0,0,0Z"/></g><g id="_编组_204" data-name="&lt;编组&gt;"><path class="cls-4" d="M12.78,3.84h.39a0,0,0,0,0,0,0h-.39a0,0,0,0,0,0,0Z"/></g><g id="_编组_205" data-name="&lt;编组&gt;"><path class="cls-4" d="M13,2.87l.33.19a0,0,0,0,0,0,0L13,2.84a0,0,0,0,0,0,0Z"/></g><g id="_编组_206" data-name="&lt;编组&gt;"><path class="cls-4" d="M13.73,2.16l.19.33a0,0,0,0,0,0,0l-.19-.33a0,0,0,0,0,0,0Z"/></g></g><g id="_编组_207" data-name="&lt;编组&gt;"><g id="_编组_208" data-name="&lt;编组&gt;"><path class="cls-4" d="M19.27,3.39a.38.38,0,0,0-.5-.12s0,0,0,0a.35.35,0,0,1,.46.11s0,0,0,0Z"/></g><g id="_编组_209" data-name="&lt;编组&gt;"><path class="cls-4" d="M18.51,3.38a.14.14,0,0,1,.14.14s0,0,0,0a.17.17,0,0,0-.17-.17s0,0,0,0Z"/></g><g id="_编组_210" data-name="&lt;编组&gt;"><path class="cls-4" d="M18.58,3.38a.41.41,0,0,1,.8.06h.2a0,0,0,0,0,0,0,.5.5,0,0,1-.13,0c-.06,0,0,0-.07-.1a.44.44,0,0,0-.26-.24.45.45,0,0,0-.57.29s0,0,0,0Z"/></g><g id="_编组_211" data-name="&lt;编组&gt;"><path class="cls-4" d="M18.21,3.62a.28.28,0,0,1,.35-.23s0,0,0,0a.31.31,0,0,0-.39.25s0,0,0,0Z"/></g></g><g id="_编组_212" data-name="&lt;编组&gt;"><g id="_编组_213" data-name="&lt;编组&gt;"><path class="cls-4" d="M11.62,6.72a.38.38,0,0,0-.5-.12s0,0,0,0a.35.35,0,0,1,.46.11s0,0,0,0Z"/></g><g id="_编组_214" data-name="&lt;编组&gt;"><path class="cls-4" d="M10.86,6.71a.14.14,0,0,1,.14.14s0,0,0,0a.17.17,0,0,0-.17-.17s0,0,0,0Z"/></g><g id="_编组_215" data-name="&lt;编组&gt;"><path class="cls-4" d="M10.93,6.7a.41.41,0,0,1,.8.06h.2a0,0,0,0,0,0,0,.5.5,0,0,1-.13,0c-.06,0,0,0-.07-.1a.44.44,0,0,0-.26-.24.45.45,0,0,0-.57.29s0,0,0,0Z"/></g><g id="_编组_216" data-name="&lt;编组&gt;"><path class="cls-4" d="M10.57,6.94a.28.28,0,0,1,.35-.23s0,0,0,0a.31.31,0,0,0-.39.25s0,0,0,0Z"/></g></g><polygon id="_路径_130" data-name="&lt;路径&gt;" class="cls-23" points="20.4 18.52 19.61 18.56 19.66 9.27 19.91 9.26 20.4 18.52"/><path class="cls-4" d="M0,18.62H27a7.3,7.3,0,0,0,1.1,0h0a0,0,0,0,0,0,0H1.18a5.21,5.21,0,0,0-1.1,0H0a0,0,0,0,0,0,0Z"/><ellipse class="cls-39" cx="24.59" cy="0.89" rx="2.47" ry="0.89"/></g></g></g></svg>